%TF.GenerationSoftware,KiCad,Pcbnew,6.0.8*%
%TF.CreationDate,2022-10-28T18:19:01+03:00*%
%TF.ProjectId,DigiLight,44696769-4c69-4676-9874-2e6b69636164,rev?*%
%TF.SameCoordinates,Original*%
%TF.FileFunction,Legend,Bot*%
%TF.FilePolarity,Positive*%
%FSLAX46Y46*%
G04 Gerber Fmt 4.6, Leading zero omitted, Abs format (unit mm)*
G04 Created by KiCad (PCBNEW 6.0.8) date 2022-10-28 18:19:01*
%MOMM*%
%LPD*%
G01*
G04 APERTURE LIST*
%ADD10C,0.300000*%
%ADD11C,0.150000*%
%ADD12C,0.254000*%
%ADD13C,0.120000*%
%ADD14C,0.100000*%
%ADD15C,0.200000*%
G04 APERTURE END LIST*
D10*
X200794857Y-121909142D02*
X200794857Y-118909142D01*
X200080571Y-118909142D01*
X199652000Y-119052000D01*
X199366285Y-119337714D01*
X199223428Y-119623428D01*
X199080571Y-120194857D01*
X199080571Y-120623428D01*
X199223428Y-121194857D01*
X199366285Y-121480571D01*
X199652000Y-121766285D01*
X200080571Y-121909142D01*
X200794857Y-121909142D01*
X197794857Y-121909142D02*
X197794857Y-119909142D01*
X197794857Y-118909142D02*
X197937714Y-119052000D01*
X197794857Y-119194857D01*
X197652000Y-119052000D01*
X197794857Y-118909142D01*
X197794857Y-119194857D01*
X195080571Y-119909142D02*
X195080571Y-122337714D01*
X195223428Y-122623428D01*
X195366285Y-122766285D01*
X195652000Y-122909142D01*
X196080571Y-122909142D01*
X196366285Y-122766285D01*
X195080571Y-121766285D02*
X195366285Y-121909142D01*
X195937714Y-121909142D01*
X196223428Y-121766285D01*
X196366285Y-121623428D01*
X196509142Y-121337714D01*
X196509142Y-120480571D01*
X196366285Y-120194857D01*
X196223428Y-120052000D01*
X195937714Y-119909142D01*
X195366285Y-119909142D01*
X195080571Y-120052000D01*
X193652000Y-121909142D02*
X193652000Y-119909142D01*
X193652000Y-118909142D02*
X193794857Y-119052000D01*
X193652000Y-119194857D01*
X193509142Y-119052000D01*
X193652000Y-118909142D01*
X193652000Y-119194857D01*
X190794857Y-121909142D02*
X192223428Y-121909142D01*
X192223428Y-118909142D01*
X189794857Y-121909142D02*
X189794857Y-119909142D01*
X189794857Y-118909142D02*
X189937714Y-119052000D01*
X189794857Y-119194857D01*
X189652000Y-119052000D01*
X189794857Y-118909142D01*
X189794857Y-119194857D01*
X187080571Y-119909142D02*
X187080571Y-122337714D01*
X187223428Y-122623428D01*
X187366285Y-122766285D01*
X187652000Y-122909142D01*
X188080571Y-122909142D01*
X188366285Y-122766285D01*
X187080571Y-121766285D02*
X187366285Y-121909142D01*
X187937714Y-121909142D01*
X188223428Y-121766285D01*
X188366285Y-121623428D01*
X188509142Y-121337714D01*
X188509142Y-120480571D01*
X188366285Y-120194857D01*
X188223428Y-120052000D01*
X187937714Y-119909142D01*
X187366285Y-119909142D01*
X187080571Y-120052000D01*
X185652000Y-121909142D02*
X185652000Y-118909142D01*
X184366285Y-121909142D02*
X184366285Y-120337714D01*
X184509142Y-120052000D01*
X184794857Y-119909142D01*
X185223428Y-119909142D01*
X185509142Y-120052000D01*
X185652000Y-120194857D01*
X183366285Y-119909142D02*
X182223428Y-119909142D01*
X182937714Y-118909142D02*
X182937714Y-121480571D01*
X182794857Y-121766285D01*
X182509142Y-121909142D01*
X182223428Y-121909142D01*
X181223428Y-120766285D02*
X178937714Y-120766285D01*
X177509142Y-121909142D02*
X177509142Y-118909142D01*
X176509142Y-121052000D01*
X175509142Y-118909142D01*
X175509142Y-121909142D01*
D11*
X189857142Y-59333333D02*
X189904761Y-59285714D01*
X189952380Y-59142857D01*
X189952380Y-59047619D01*
X189904761Y-58904761D01*
X189809523Y-58809523D01*
X189714285Y-58761904D01*
X189523809Y-58714285D01*
X189380952Y-58714285D01*
X189190476Y-58761904D01*
X189095238Y-58809523D01*
X189000000Y-58904761D01*
X188952380Y-59047619D01*
X188952380Y-59142857D01*
X189000000Y-59285714D01*
X189047619Y-59333333D01*
X188952380Y-59666666D02*
X188952380Y-60285714D01*
X189333333Y-59952380D01*
X189333333Y-60095238D01*
X189380952Y-60190476D01*
X189428571Y-60238095D01*
X189523809Y-60285714D01*
X189761904Y-60285714D01*
X189857142Y-60238095D01*
X189904761Y-60190476D01*
X189952380Y-60095238D01*
X189952380Y-59809523D01*
X189904761Y-59714285D01*
X189857142Y-59666666D01*
X214501142Y-58857142D02*
X214548761Y-58809523D01*
X214596380Y-58666666D01*
X214596380Y-58571428D01*
X214548761Y-58428571D01*
X214453523Y-58333333D01*
X214358285Y-58285714D01*
X214167809Y-58238095D01*
X214024952Y-58238095D01*
X213834476Y-58285714D01*
X213739238Y-58333333D01*
X213644000Y-58428571D01*
X213596380Y-58571428D01*
X213596380Y-58666666D01*
X213644000Y-58809523D01*
X213691619Y-58857142D01*
X214596380Y-59809523D02*
X214596380Y-59238095D01*
X214596380Y-59523809D02*
X213596380Y-59523809D01*
X213739238Y-59428571D01*
X213834476Y-59333333D01*
X213882095Y-59238095D01*
X213596380Y-60428571D02*
X213596380Y-60523809D01*
X213644000Y-60619047D01*
X213691619Y-60666666D01*
X213786857Y-60714285D01*
X213977333Y-60761904D01*
X214215428Y-60761904D01*
X214405904Y-60714285D01*
X214501142Y-60666666D01*
X214548761Y-60619047D01*
X214596380Y-60523809D01*
X214596380Y-60428571D01*
X214548761Y-60333333D01*
X214501142Y-60285714D01*
X214405904Y-60238095D01*
X214215428Y-60190476D01*
X213977333Y-60190476D01*
X213786857Y-60238095D01*
X213691619Y-60285714D01*
X213644000Y-60333333D01*
X213596380Y-60428571D01*
D12*
X206252523Y-105206771D02*
X204982523Y-105206771D01*
X205889666Y-105630104D01*
X204982523Y-106053438D01*
X206252523Y-106053438D01*
X205889666Y-106597723D02*
X205889666Y-107202485D01*
X206252523Y-106476771D02*
X204982523Y-106900104D01*
X206252523Y-107323438D01*
X204982523Y-107625819D02*
X206252523Y-108472485D01*
X204982523Y-108472485D02*
X206252523Y-107625819D01*
X206252523Y-109016771D02*
X206252523Y-109258676D01*
X206192047Y-109379628D01*
X206131571Y-109440104D01*
X205950142Y-109561057D01*
X205708238Y-109621533D01*
X205224428Y-109621533D01*
X205103476Y-109561057D01*
X205043000Y-109500580D01*
X204982523Y-109379628D01*
X204982523Y-109137723D01*
X205043000Y-109016771D01*
X205103476Y-108956295D01*
X205224428Y-108895819D01*
X205526809Y-108895819D01*
X205647761Y-108956295D01*
X205708238Y-109016771D01*
X205768714Y-109137723D01*
X205768714Y-109379628D01*
X205708238Y-109500580D01*
X205647761Y-109561057D01*
X205526809Y-109621533D01*
X205526809Y-110347247D02*
X205466333Y-110226295D01*
X205405857Y-110165819D01*
X205284904Y-110105342D01*
X205224428Y-110105342D01*
X205103476Y-110165819D01*
X205043000Y-110226295D01*
X204982523Y-110347247D01*
X204982523Y-110589152D01*
X205043000Y-110710104D01*
X205103476Y-110770580D01*
X205224428Y-110831057D01*
X205284904Y-110831057D01*
X205405857Y-110770580D01*
X205466333Y-110710104D01*
X205526809Y-110589152D01*
X205526809Y-110347247D01*
X205587285Y-110226295D01*
X205647761Y-110165819D01*
X205768714Y-110105342D01*
X206010619Y-110105342D01*
X206131571Y-110165819D01*
X206192047Y-110226295D01*
X206252523Y-110347247D01*
X206252523Y-110589152D01*
X206192047Y-110710104D01*
X206131571Y-110770580D01*
X206010619Y-110831057D01*
X205768714Y-110831057D01*
X205647761Y-110770580D01*
X205587285Y-110710104D01*
X205526809Y-110589152D01*
X206252523Y-112040580D02*
X206252523Y-111314866D01*
X206252523Y-111677723D02*
X204982523Y-111677723D01*
X205163952Y-111556771D01*
X205284904Y-111435819D01*
X205345380Y-111314866D01*
X205405857Y-113129152D02*
X206252523Y-113129152D01*
X204922047Y-112826771D02*
X205829190Y-112524390D01*
X205829190Y-113310580D01*
X206252523Y-114762009D02*
X204982523Y-114762009D01*
X205889666Y-115185342D01*
X204982523Y-115608676D01*
X206252523Y-115608676D01*
X206252523Y-116394866D02*
X206192047Y-116273914D01*
X206131571Y-116213438D01*
X206010619Y-116152961D01*
X205647761Y-116152961D01*
X205526809Y-116213438D01*
X205466333Y-116273914D01*
X205405857Y-116394866D01*
X205405857Y-116576295D01*
X205466333Y-116697247D01*
X205526809Y-116757723D01*
X205647761Y-116818200D01*
X206010619Y-116818200D01*
X206131571Y-116757723D01*
X206192047Y-116697247D01*
X206252523Y-116576295D01*
X206252523Y-116394866D01*
X206252523Y-117906771D02*
X204982523Y-117906771D01*
X206192047Y-117906771D02*
X206252523Y-117785819D01*
X206252523Y-117543914D01*
X206192047Y-117422961D01*
X206131571Y-117362485D01*
X206010619Y-117302009D01*
X205647761Y-117302009D01*
X205526809Y-117362485D01*
X205466333Y-117422961D01*
X205405857Y-117543914D01*
X205405857Y-117785819D01*
X205466333Y-117906771D01*
X205405857Y-119055819D02*
X206252523Y-119055819D01*
X205405857Y-118511533D02*
X206071095Y-118511533D01*
X206192047Y-118572009D01*
X206252523Y-118692961D01*
X206252523Y-118874390D01*
X206192047Y-118995342D01*
X206131571Y-119055819D01*
X206252523Y-119842009D02*
X206192047Y-119721057D01*
X206071095Y-119660580D01*
X204982523Y-119660580D01*
X206192047Y-120809628D02*
X206252523Y-120688676D01*
X206252523Y-120446771D01*
X206192047Y-120325819D01*
X206071095Y-120265342D01*
X205587285Y-120265342D01*
X205466333Y-120325819D01*
X205405857Y-120446771D01*
X205405857Y-120688676D01*
X205466333Y-120809628D01*
X205587285Y-120870104D01*
X205708238Y-120870104D01*
X205829190Y-120265342D01*
D11*
X178833333Y-65267380D02*
X178833333Y-65981666D01*
X178880952Y-66124523D01*
X178976190Y-66219761D01*
X179119047Y-66267380D01*
X179214285Y-66267380D01*
X177833333Y-66267380D02*
X178404761Y-66267380D01*
X178119047Y-66267380D02*
X178119047Y-65267380D01*
X178214285Y-65410238D01*
X178309523Y-65505476D01*
X178404761Y-65553095D01*
X170609952Y-66267380D02*
X170609952Y-65267380D01*
X170133761Y-66267380D02*
X170133761Y-65267380D01*
X169562333Y-66267380D01*
X169562333Y-65267380D01*
X169324238Y-66362619D02*
X168562333Y-66362619D01*
X167800428Y-66267380D02*
X168371857Y-66267380D01*
X168086142Y-66267380D02*
X168086142Y-65267380D01*
X168181380Y-65410238D01*
X168276619Y-65505476D01*
X168371857Y-65553095D01*
X165752333Y-65267380D02*
X165752333Y-65981666D01*
X165799952Y-66124523D01*
X165895190Y-66219761D01*
X166038047Y-66267380D01*
X166133285Y-66267380D01*
X165323761Y-65362619D02*
X165276142Y-65315000D01*
X165180904Y-65267380D01*
X164942809Y-65267380D01*
X164847571Y-65315000D01*
X164799952Y-65362619D01*
X164752333Y-65457857D01*
X164752333Y-65553095D01*
X164799952Y-65695952D01*
X165371380Y-66267380D01*
X164752333Y-66267380D01*
X157528952Y-66267380D02*
X157528952Y-65267380D01*
X157052761Y-66267380D02*
X157052761Y-65267380D01*
X156481333Y-66267380D01*
X156481333Y-65267380D01*
X156243238Y-66362619D02*
X155481333Y-66362619D01*
X155290857Y-65362619D02*
X155243238Y-65315000D01*
X155148000Y-65267380D01*
X154909904Y-65267380D01*
X154814666Y-65315000D01*
X154767047Y-65362619D01*
X154719428Y-65457857D01*
X154719428Y-65553095D01*
X154767047Y-65695952D01*
X155338476Y-66267380D01*
X154719428Y-66267380D01*
X240674142Y-103446666D02*
X240197952Y-103446666D01*
X240769380Y-103732380D02*
X240436047Y-102732380D01*
X240102714Y-103732380D01*
X239769380Y-103732380D02*
X239769380Y-102732380D01*
X239388428Y-102732380D01*
X239293190Y-102780000D01*
X239245571Y-102827619D01*
X239197952Y-102922857D01*
X239197952Y-103065714D01*
X239245571Y-103160952D01*
X239293190Y-103208571D01*
X239388428Y-103256190D01*
X239769380Y-103256190D01*
X238769380Y-102732380D02*
X238769380Y-103541904D01*
X238721761Y-103637142D01*
X238674142Y-103684761D01*
X238578904Y-103732380D01*
X238388428Y-103732380D01*
X238293190Y-103684761D01*
X238245571Y-103637142D01*
X238197952Y-103541904D01*
X238197952Y-102732380D01*
X237721761Y-103351428D02*
X236959857Y-103351428D01*
X236531285Y-102827619D02*
X236483666Y-102780000D01*
X236388428Y-102732380D01*
X236150333Y-102732380D01*
X236055095Y-102780000D01*
X236007476Y-102827619D01*
X235959857Y-102922857D01*
X235959857Y-103018095D01*
X236007476Y-103160952D01*
X236578904Y-103732380D01*
X235959857Y-103732380D01*
D12*
X233787333Y-75787523D02*
X233787333Y-76694666D01*
X233847809Y-76876095D01*
X233968761Y-76997047D01*
X234150190Y-77057523D01*
X234271142Y-77057523D01*
X232577809Y-75787523D02*
X233182571Y-75787523D01*
X233243047Y-76392285D01*
X233182571Y-76331809D01*
X233061619Y-76271333D01*
X232759238Y-76271333D01*
X232638285Y-76331809D01*
X232577809Y-76392285D01*
X232517333Y-76513238D01*
X232517333Y-76815619D01*
X232577809Y-76936571D01*
X232638285Y-76997047D01*
X232759238Y-77057523D01*
X233061619Y-77057523D01*
X233182571Y-76997047D01*
X233243047Y-76936571D01*
D11*
X200804333Y-55107380D02*
X200804333Y-55821666D01*
X200851952Y-55964523D01*
X200947190Y-56059761D01*
X201090047Y-56107380D01*
X201185285Y-56107380D01*
X199899571Y-55107380D02*
X200090047Y-55107380D01*
X200185285Y-55155000D01*
X200232904Y-55202619D01*
X200328142Y-55345476D01*
X200375761Y-55535952D01*
X200375761Y-55916904D01*
X200328142Y-56012142D01*
X200280523Y-56059761D01*
X200185285Y-56107380D01*
X199994809Y-56107380D01*
X199899571Y-56059761D01*
X199851952Y-56012142D01*
X199804333Y-55916904D01*
X199804333Y-55678809D01*
X199851952Y-55583571D01*
X199899571Y-55535952D01*
X199994809Y-55488333D01*
X200185285Y-55488333D01*
X200280523Y-55535952D01*
X200328142Y-55583571D01*
X200375761Y-55678809D01*
D12*
X165443333Y-122764047D02*
X165261904Y-122824523D01*
X164959523Y-122824523D01*
X164838571Y-122764047D01*
X164778095Y-122703571D01*
X164717619Y-122582619D01*
X164717619Y-122461666D01*
X164778095Y-122340714D01*
X164838571Y-122280238D01*
X164959523Y-122219761D01*
X165201428Y-122159285D01*
X165322380Y-122098809D01*
X165382857Y-122038333D01*
X165443333Y-121917380D01*
X165443333Y-121796428D01*
X165382857Y-121675476D01*
X165322380Y-121615000D01*
X165201428Y-121554523D01*
X164899047Y-121554523D01*
X164717619Y-121615000D01*
X164294285Y-121554523D02*
X163991904Y-122824523D01*
X163750000Y-121917380D01*
X163508095Y-122824523D01*
X163205714Y-121554523D01*
X162056666Y-122824523D02*
X162782380Y-122824523D01*
X162419523Y-122824523D02*
X162419523Y-121554523D01*
X162540476Y-121735952D01*
X162661428Y-121856904D01*
X162782380Y-121917380D01*
D11*
X182500333Y-106986761D02*
X182357476Y-107034380D01*
X182119380Y-107034380D01*
X182024142Y-106986761D01*
X181976523Y-106939142D01*
X181928904Y-106843904D01*
X181928904Y-106748666D01*
X181976523Y-106653428D01*
X182024142Y-106605809D01*
X182119380Y-106558190D01*
X182309857Y-106510571D01*
X182405095Y-106462952D01*
X182452714Y-106415333D01*
X182500333Y-106320095D01*
X182500333Y-106224857D01*
X182452714Y-106129619D01*
X182405095Y-106082000D01*
X182309857Y-106034380D01*
X182071761Y-106034380D01*
X181928904Y-106082000D01*
X181595571Y-106034380D02*
X181357476Y-107034380D01*
X181167000Y-106320095D01*
X180976523Y-107034380D01*
X180738428Y-106034380D01*
X180405095Y-106129619D02*
X180357476Y-106082000D01*
X180262238Y-106034380D01*
X180024142Y-106034380D01*
X179928904Y-106082000D01*
X179881285Y-106129619D01*
X179833666Y-106224857D01*
X179833666Y-106320095D01*
X179881285Y-106462952D01*
X180452714Y-107034380D01*
X179833666Y-107034380D01*
X233736666Y-65892380D02*
X234212857Y-65892380D01*
X234212857Y-64892380D01*
X232831904Y-65797142D02*
X232879523Y-65844761D01*
X233022380Y-65892380D01*
X233117619Y-65892380D01*
X233260476Y-65844761D01*
X233355714Y-65749523D01*
X233403333Y-65654285D01*
X233450952Y-65463809D01*
X233450952Y-65320952D01*
X233403333Y-65130476D01*
X233355714Y-65035238D01*
X233260476Y-64940000D01*
X233117619Y-64892380D01*
X233022380Y-64892380D01*
X232879523Y-64940000D01*
X232831904Y-64987619D01*
X232403333Y-65892380D02*
X232403333Y-64892380D01*
X232165238Y-64892380D01*
X232022380Y-64940000D01*
X231927142Y-65035238D01*
X231879523Y-65130476D01*
X231831904Y-65320952D01*
X231831904Y-65463809D01*
X231879523Y-65654285D01*
X231927142Y-65749523D01*
X232022380Y-65844761D01*
X232165238Y-65892380D01*
X232403333Y-65892380D01*
X230879523Y-65892380D02*
X231450952Y-65892380D01*
X231165238Y-65892380D02*
X231165238Y-64892380D01*
X231260476Y-65035238D01*
X231355714Y-65130476D01*
X231450952Y-65178095D01*
X201709190Y-99809190D02*
X201709190Y-100285380D01*
X202042523Y-99285380D02*
X201709190Y-99809190D01*
X201375857Y-99285380D01*
X200518714Y-100285380D02*
X201090142Y-100285380D01*
X200804428Y-100285380D02*
X200804428Y-99285380D01*
X200899666Y-99428238D01*
X200994904Y-99523476D01*
X201090142Y-99571095D01*
X195261904Y-109702380D02*
X195261904Y-110511904D01*
X195214285Y-110607142D01*
X195166666Y-110654761D01*
X195071428Y-110702380D01*
X194880952Y-110702380D01*
X194785714Y-110654761D01*
X194738095Y-110607142D01*
X194690476Y-110511904D01*
X194690476Y-109702380D01*
X193738095Y-109702380D02*
X194214285Y-109702380D01*
X194261904Y-110178571D01*
X194214285Y-110130952D01*
X194119047Y-110083333D01*
X193880952Y-110083333D01*
X193785714Y-110130952D01*
X193738095Y-110178571D01*
X193690476Y-110273809D01*
X193690476Y-110511904D01*
X193738095Y-110607142D01*
X193785714Y-110654761D01*
X193880952Y-110702380D01*
X194119047Y-110702380D01*
X194214285Y-110654761D01*
X194261904Y-110607142D01*
X223156333Y-54599380D02*
X223156333Y-55313666D01*
X223203952Y-55456523D01*
X223299190Y-55551761D01*
X223442047Y-55599380D01*
X223537285Y-55599380D01*
X222775380Y-54599380D02*
X222156333Y-54599380D01*
X222489666Y-54980333D01*
X222346809Y-54980333D01*
X222251571Y-55027952D01*
X222203952Y-55075571D01*
X222156333Y-55170809D01*
X222156333Y-55408904D01*
X222203952Y-55504142D01*
X222251571Y-55551761D01*
X222346809Y-55599380D01*
X222632523Y-55599380D01*
X222727761Y-55551761D01*
X222775380Y-55504142D01*
D13*
X192522000Y-62941000D02*
X193710000Y-62941000D01*
X191064000Y-61261000D02*
X193710000Y-61261000D01*
X191166000Y-61461000D02*
X193710000Y-61461000D01*
X190698000Y-59980000D02*
X198802000Y-59980000D01*
X191103000Y-61341000D02*
X193710000Y-61341000D01*
X195790000Y-61501000D02*
X198312000Y-61501000D01*
X191561000Y-62061000D02*
X193710000Y-62061000D01*
X190836000Y-60661000D02*
X198664000Y-60661000D01*
X193652000Y-63461000D02*
X195848000Y-63461000D01*
X190670000Y-59500000D02*
X198830000Y-59500000D01*
X195790000Y-62261000D02*
X197769000Y-62261000D01*
X190689000Y-59900000D02*
X198811000Y-59900000D01*
X195790000Y-62341000D02*
X197695000Y-62341000D01*
X192053000Y-62581000D02*
X193710000Y-62581000D01*
X190720000Y-60140000D02*
X198780000Y-60140000D01*
X192786000Y-63101000D02*
X196714000Y-63101000D01*
X191281000Y-61661000D02*
X193710000Y-61661000D01*
X190679000Y-59780000D02*
X198821000Y-59780000D01*
X195790000Y-61901000D02*
X198059000Y-61901000D01*
X195790000Y-61821000D02*
X198115000Y-61821000D01*
X192405000Y-62861000D02*
X193710000Y-62861000D01*
X192296000Y-62781000D02*
X193710000Y-62781000D01*
X194217000Y-63581000D02*
X195283000Y-63581000D01*
X192584000Y-62981000D02*
X193710000Y-62981000D01*
X193982000Y-63541000D02*
X195518000Y-63541000D01*
X190960000Y-61021000D02*
X193710000Y-61021000D01*
X190825000Y-60621000D02*
X198675000Y-60621000D01*
X195790000Y-61181000D02*
X198472000Y-61181000D01*
X190708000Y-60060000D02*
X198792000Y-60060000D01*
X191188000Y-61501000D02*
X193710000Y-61501000D01*
X192035000Y-55490302D02*
X192835000Y-55490302D01*
X190861000Y-60741000D02*
X198639000Y-60741000D01*
X193802000Y-63501000D02*
X195698000Y-63501000D01*
X190887000Y-60821000D02*
X198613000Y-60821000D01*
X195790000Y-62621000D02*
X197401000Y-62621000D01*
X190671000Y-59620000D02*
X198829000Y-59620000D01*
X195790000Y-61341000D02*
X198397000Y-61341000D01*
X192435000Y-55090302D02*
X192435000Y-55890302D01*
X195790000Y-62021000D02*
X197970000Y-62021000D01*
X190765000Y-60381000D02*
X198735000Y-60381000D01*
X191530000Y-62021000D02*
X193710000Y-62021000D01*
X193297000Y-63341000D02*
X196203000Y-63341000D01*
X190848000Y-60701000D02*
X198652000Y-60701000D01*
X192937000Y-63181000D02*
X196563000Y-63181000D01*
X191210000Y-61541000D02*
X193710000Y-61541000D01*
X195790000Y-61101000D02*
X198507000Y-61101000D01*
X191358000Y-61781000D02*
X193710000Y-61781000D01*
X191500000Y-61981000D02*
X193710000Y-61981000D01*
X195790000Y-62141000D02*
X197874000Y-62141000D01*
X195790000Y-62541000D02*
X197491000Y-62541000D01*
X193404000Y-63381000D02*
X196096000Y-63381000D01*
X193105000Y-63261000D02*
X196395000Y-63261000D01*
X195790000Y-62781000D02*
X197204000Y-62781000D01*
X192245000Y-62741000D02*
X193710000Y-62741000D01*
X190726000Y-60180000D02*
X198774000Y-60180000D01*
X195790000Y-61741000D02*
X198168000Y-61741000D01*
X190774000Y-60421000D02*
X198726000Y-60421000D01*
X192648000Y-63021000D02*
X193710000Y-63021000D01*
X195790000Y-62381000D02*
X197657000Y-62381000D01*
X190976000Y-61061000D02*
X193710000Y-61061000D01*
X195790000Y-61221000D02*
X198454000Y-61221000D01*
X195790000Y-61941000D02*
X198030000Y-61941000D01*
X191843000Y-62381000D02*
X193710000Y-62381000D01*
X190673000Y-59660000D02*
X198827000Y-59660000D01*
X195790000Y-62661000D02*
X197354000Y-62661000D01*
X195790000Y-61141000D02*
X198490000Y-61141000D01*
X195790000Y-62701000D02*
X197306000Y-62701000D01*
X190685000Y-59860000D02*
X198815000Y-59860000D01*
X195790000Y-60981000D02*
X198555000Y-60981000D01*
X193521000Y-63421000D02*
X195979000Y-63421000D01*
X190929000Y-60941000D02*
X198571000Y-60941000D01*
X195790000Y-61861000D02*
X198088000Y-61861000D01*
X195790000Y-61381000D02*
X198377000Y-61381000D01*
X190713000Y-60100000D02*
X198787000Y-60100000D01*
X195790000Y-62941000D02*
X196978000Y-62941000D01*
X191470000Y-61941000D02*
X193710000Y-61941000D01*
X195790000Y-61621000D02*
X198243000Y-61621000D01*
X195790000Y-61461000D02*
X198334000Y-61461000D01*
X195790000Y-62181000D02*
X197840000Y-62181000D01*
X190693000Y-59940000D02*
X198807000Y-59940000D01*
X191144000Y-61421000D02*
X193710000Y-61421000D01*
X190702000Y-60020000D02*
X198798000Y-60020000D01*
X191046000Y-61221000D02*
X193710000Y-61221000D01*
X191123000Y-61381000D02*
X193710000Y-61381000D01*
X191385000Y-61821000D02*
X193710000Y-61821000D01*
X195790000Y-62461000D02*
X197576000Y-62461000D01*
X195790000Y-61541000D02*
X198290000Y-61541000D01*
X195790000Y-61061000D02*
X198524000Y-61061000D01*
X192463000Y-62901000D02*
X193710000Y-62901000D01*
X195790000Y-61981000D02*
X198000000Y-61981000D01*
X195790000Y-61021000D02*
X198540000Y-61021000D01*
X191084000Y-61301000D02*
X193710000Y-61301000D01*
X192860000Y-63141000D02*
X196640000Y-63141000D01*
X190733000Y-60221000D02*
X198767000Y-60221000D01*
X195790000Y-61301000D02*
X198416000Y-61301000D01*
X193198000Y-63301000D02*
X196302000Y-63301000D01*
X190676000Y-59740000D02*
X198824000Y-59740000D01*
X191332000Y-61741000D02*
X193710000Y-61741000D01*
X193019000Y-63221000D02*
X196481000Y-63221000D01*
X190674000Y-59700000D02*
X198826000Y-59700000D01*
X191695000Y-62221000D02*
X193710000Y-62221000D01*
X195790000Y-61661000D02*
X198219000Y-61661000D01*
X190814000Y-60581000D02*
X198686000Y-60581000D01*
X195790000Y-62741000D02*
X197255000Y-62741000D01*
X195790000Y-61261000D02*
X198436000Y-61261000D01*
X195790000Y-62581000D02*
X197447000Y-62581000D01*
X190915000Y-60901000D02*
X198585000Y-60901000D01*
X190670000Y-59540000D02*
X198830000Y-59540000D01*
X190682000Y-59820000D02*
X198818000Y-59820000D01*
X195790000Y-62101000D02*
X197906000Y-62101000D01*
X190756000Y-60341000D02*
X198744000Y-60341000D01*
X191805000Y-62341000D02*
X193710000Y-62341000D01*
X195790000Y-62861000D02*
X197095000Y-62861000D01*
X191626000Y-62141000D02*
X193710000Y-62141000D01*
X191883000Y-62421000D02*
X193710000Y-62421000D01*
X190993000Y-61101000D02*
X193710000Y-61101000D01*
X192716000Y-63061000D02*
X196784000Y-63061000D01*
X191767000Y-62301000D02*
X193710000Y-62301000D01*
X190740000Y-60261000D02*
X198760000Y-60261000D01*
X195790000Y-61781000D02*
X198142000Y-61781000D01*
X190748000Y-60301000D02*
X198752000Y-60301000D01*
X190900000Y-60861000D02*
X198600000Y-60861000D01*
X192350000Y-62821000D02*
X193710000Y-62821000D01*
X191010000Y-61141000D02*
X193710000Y-61141000D01*
X190945000Y-60981000D02*
X193710000Y-60981000D01*
X191660000Y-62181000D02*
X193710000Y-62181000D01*
X195790000Y-62061000D02*
X197939000Y-62061000D01*
X191731000Y-62261000D02*
X193710000Y-62261000D01*
X190783000Y-60461000D02*
X198717000Y-60461000D01*
X192099000Y-62621000D02*
X193710000Y-62621000D01*
X195790000Y-61581000D02*
X198267000Y-61581000D01*
X190670000Y-59580000D02*
X198830000Y-59580000D01*
X195790000Y-61701000D02*
X198194000Y-61701000D01*
X191306000Y-61701000D02*
X193710000Y-61701000D01*
X195790000Y-63021000D02*
X196852000Y-63021000D01*
X191028000Y-61181000D02*
X193710000Y-61181000D01*
X191233000Y-61581000D02*
X193710000Y-61581000D01*
X191441000Y-61901000D02*
X193710000Y-61901000D01*
X195790000Y-62221000D02*
X197805000Y-62221000D01*
X191966000Y-62501000D02*
X193710000Y-62501000D01*
X195790000Y-62981000D02*
X196916000Y-62981000D01*
X190803000Y-60541000D02*
X198697000Y-60541000D01*
X191594000Y-62101000D02*
X193710000Y-62101000D01*
X192009000Y-62541000D02*
X193710000Y-62541000D01*
X192146000Y-62661000D02*
X193710000Y-62661000D01*
X192194000Y-62701000D02*
X193710000Y-62701000D01*
X190793000Y-60501000D02*
X198707000Y-60501000D01*
X195790000Y-62421000D02*
X197617000Y-62421000D01*
X190873000Y-60781000D02*
X198627000Y-60781000D01*
X195790000Y-62301000D02*
X197733000Y-62301000D01*
X191924000Y-62461000D02*
X193710000Y-62461000D01*
X195790000Y-61421000D02*
X198356000Y-61421000D01*
X195790000Y-62821000D02*
X197150000Y-62821000D01*
X191412000Y-61861000D02*
X193710000Y-61861000D01*
X195790000Y-62901000D02*
X197037000Y-62901000D01*
X191257000Y-61621000D02*
X193710000Y-61621000D01*
X195790000Y-62501000D02*
X197534000Y-62501000D01*
X198870000Y-59500000D02*
G75*
G03*
X198870000Y-59500000I-4120000J0D01*
G01*
X220434000Y-61901000D02*
X222703000Y-61901000D01*
X215437000Y-60501000D02*
X223351000Y-60501000D01*
X220434000Y-62021000D02*
X222614000Y-62021000D01*
X215329000Y-59860000D02*
X223459000Y-59860000D01*
X217663000Y-63221000D02*
X221125000Y-63221000D01*
X216304000Y-62181000D02*
X218354000Y-62181000D01*
X215318000Y-59700000D02*
X223470000Y-59700000D01*
X220434000Y-61981000D02*
X222644000Y-61981000D01*
X220434000Y-61461000D02*
X222978000Y-61461000D01*
X215517000Y-60781000D02*
X223271000Y-60781000D01*
X220434000Y-62861000D02*
X221739000Y-62861000D01*
X220434000Y-62101000D02*
X222550000Y-62101000D01*
X217749000Y-63261000D02*
X221039000Y-63261000D01*
X220434000Y-62701000D02*
X221950000Y-62701000D01*
X215314000Y-59540000D02*
X223474000Y-59540000D01*
X220434000Y-61221000D02*
X223098000Y-61221000D01*
X220434000Y-62301000D02*
X222377000Y-62301000D01*
X220434000Y-61741000D02*
X222812000Y-61741000D01*
X217166000Y-62941000D02*
X218354000Y-62941000D01*
X220434000Y-62541000D02*
X222135000Y-62541000D01*
X220434000Y-62741000D02*
X221899000Y-62741000D01*
X216527000Y-62421000D02*
X218354000Y-62421000D01*
X220434000Y-62421000D02*
X222261000Y-62421000D01*
X220434000Y-61541000D02*
X222934000Y-61541000D01*
X216002000Y-61781000D02*
X218354000Y-61781000D01*
X216029000Y-61821000D02*
X218354000Y-61821000D01*
X216994000Y-62821000D02*
X218354000Y-62821000D01*
X215589000Y-60981000D02*
X218354000Y-60981000D01*
X220434000Y-62181000D02*
X222484000Y-62181000D01*
X215314000Y-59500000D02*
X223474000Y-59500000D01*
X215573000Y-60941000D02*
X223215000Y-60941000D01*
X215604000Y-61021000D02*
X218354000Y-61021000D01*
X216679000Y-55490302D02*
X217479000Y-55490302D01*
X215384000Y-60261000D02*
X223404000Y-60261000D01*
X216174000Y-62021000D02*
X218354000Y-62021000D01*
X215317000Y-59660000D02*
X223471000Y-59660000D01*
X216411000Y-62301000D02*
X218354000Y-62301000D01*
X218626000Y-63541000D02*
X220162000Y-63541000D01*
X220434000Y-62061000D02*
X222583000Y-62061000D01*
X220434000Y-61421000D02*
X223000000Y-61421000D01*
X217292000Y-63021000D02*
X218354000Y-63021000D01*
X215747000Y-61341000D02*
X218354000Y-61341000D01*
X215427000Y-60461000D02*
X223361000Y-60461000D01*
X216790000Y-62661000D02*
X218354000Y-62661000D01*
X215767000Y-61381000D02*
X218354000Y-61381000D01*
X220434000Y-61701000D02*
X222838000Y-61701000D01*
X216449000Y-62341000D02*
X218354000Y-62341000D01*
X215672000Y-61181000D02*
X218354000Y-61181000D01*
X215323000Y-59780000D02*
X223465000Y-59780000D01*
X220434000Y-61781000D02*
X222786000Y-61781000D01*
X215333000Y-59900000D02*
X223455000Y-59900000D01*
X215400000Y-60341000D02*
X223388000Y-60341000D01*
X216056000Y-61861000D02*
X218354000Y-61861000D01*
X220434000Y-62381000D02*
X222301000Y-62381000D01*
X216270000Y-62141000D02*
X218354000Y-62141000D01*
X216610000Y-62501000D02*
X218354000Y-62501000D01*
X217941000Y-63341000D02*
X220847000Y-63341000D01*
X220434000Y-61661000D02*
X222863000Y-61661000D01*
X215314000Y-59580000D02*
X223474000Y-59580000D01*
X220434000Y-62221000D02*
X222449000Y-62221000D01*
X215418000Y-60421000D02*
X223370000Y-60421000D01*
X220434000Y-61141000D02*
X223134000Y-61141000D01*
X216653000Y-62541000D02*
X218354000Y-62541000D01*
X220434000Y-63021000D02*
X221496000Y-63021000D01*
X215531000Y-60821000D02*
X223257000Y-60821000D01*
X216144000Y-61981000D02*
X218354000Y-61981000D01*
X215505000Y-60741000D02*
X223283000Y-60741000D01*
X220434000Y-61621000D02*
X222887000Y-61621000D01*
X217079000Y-55090302D02*
X217079000Y-55890302D01*
X218048000Y-63381000D02*
X220740000Y-63381000D01*
X215925000Y-61661000D02*
X218354000Y-61661000D01*
X216838000Y-62701000D02*
X218354000Y-62701000D01*
X216940000Y-62781000D02*
X218354000Y-62781000D01*
X217360000Y-63061000D02*
X221428000Y-63061000D01*
X220434000Y-61501000D02*
X222956000Y-61501000D01*
X220434000Y-62461000D02*
X222220000Y-62461000D01*
X216487000Y-62381000D02*
X218354000Y-62381000D01*
X220434000Y-62821000D02*
X221794000Y-62821000D01*
X216238000Y-62101000D02*
X218354000Y-62101000D01*
X215544000Y-60861000D02*
X223244000Y-60861000D01*
X220434000Y-61181000D02*
X223116000Y-61181000D01*
X215559000Y-60901000D02*
X223229000Y-60901000D01*
X217842000Y-63301000D02*
X220946000Y-63301000D01*
X220434000Y-62901000D02*
X221681000Y-62901000D01*
X215370000Y-60180000D02*
X223418000Y-60180000D01*
X215950000Y-61701000D02*
X218354000Y-61701000D01*
X220434000Y-62581000D02*
X222091000Y-62581000D01*
X215315000Y-59620000D02*
X223473000Y-59620000D01*
X216375000Y-62261000D02*
X218354000Y-62261000D01*
X217504000Y-63141000D02*
X221284000Y-63141000D01*
X217049000Y-62861000D02*
X218354000Y-62861000D01*
X215654000Y-61141000D02*
X218354000Y-61141000D01*
X218296000Y-63461000D02*
X220492000Y-63461000D01*
X217430000Y-63101000D02*
X221358000Y-63101000D01*
X216205000Y-62061000D02*
X218354000Y-62061000D01*
X215326000Y-59820000D02*
X223462000Y-59820000D01*
X215447000Y-60541000D02*
X223341000Y-60541000D01*
X220434000Y-62981000D02*
X221560000Y-62981000D01*
X215492000Y-60701000D02*
X223296000Y-60701000D01*
X215877000Y-61581000D02*
X218354000Y-61581000D01*
X215901000Y-61621000D02*
X218354000Y-61621000D01*
X220434000Y-61861000D02*
X222732000Y-61861000D01*
X215357000Y-60100000D02*
X223431000Y-60100000D01*
X215690000Y-61221000D02*
X218354000Y-61221000D01*
X220434000Y-62661000D02*
X221998000Y-62661000D01*
X215409000Y-60381000D02*
X223379000Y-60381000D01*
X220434000Y-61581000D02*
X222911000Y-61581000D01*
X215832000Y-61501000D02*
X218354000Y-61501000D01*
X218165000Y-63421000D02*
X220623000Y-63421000D01*
X220434000Y-62501000D02*
X222178000Y-62501000D01*
X220434000Y-61341000D02*
X223041000Y-61341000D01*
X217581000Y-63181000D02*
X221207000Y-63181000D01*
X215377000Y-60221000D02*
X223411000Y-60221000D01*
X220434000Y-61301000D02*
X223060000Y-61301000D01*
X220434000Y-61021000D02*
X223184000Y-61021000D01*
X220434000Y-62781000D02*
X221848000Y-62781000D01*
X216114000Y-61941000D02*
X218354000Y-61941000D01*
X220434000Y-61061000D02*
X223168000Y-61061000D01*
X215346000Y-60020000D02*
X223442000Y-60020000D01*
X220434000Y-62341000D02*
X222339000Y-62341000D01*
X220434000Y-62621000D02*
X222045000Y-62621000D01*
X216697000Y-62581000D02*
X218354000Y-62581000D01*
X217228000Y-62981000D02*
X218354000Y-62981000D01*
X216339000Y-62221000D02*
X218354000Y-62221000D01*
X216568000Y-62461000D02*
X218354000Y-62461000D01*
X220434000Y-62261000D02*
X222413000Y-62261000D01*
X215810000Y-61461000D02*
X218354000Y-61461000D01*
X216085000Y-61901000D02*
X218354000Y-61901000D01*
X218861000Y-63581000D02*
X219927000Y-63581000D01*
X215352000Y-60060000D02*
X223436000Y-60060000D01*
X220434000Y-61941000D02*
X222674000Y-61941000D01*
X215620000Y-61061000D02*
X218354000Y-61061000D01*
X220434000Y-61821000D02*
X222759000Y-61821000D01*
X215976000Y-61741000D02*
X218354000Y-61741000D01*
X215458000Y-60581000D02*
X223330000Y-60581000D01*
X220434000Y-62141000D02*
X222518000Y-62141000D01*
X220434000Y-61381000D02*
X223021000Y-61381000D01*
X216889000Y-62741000D02*
X218354000Y-62741000D01*
X215392000Y-60301000D02*
X223396000Y-60301000D01*
X215788000Y-61421000D02*
X218354000Y-61421000D01*
X215480000Y-60661000D02*
X223308000Y-60661000D01*
X215320000Y-59740000D02*
X223468000Y-59740000D01*
X215364000Y-60140000D02*
X223424000Y-60140000D01*
X220434000Y-61101000D02*
X223151000Y-61101000D01*
X215854000Y-61541000D02*
X218354000Y-61541000D01*
X217107000Y-62901000D02*
X218354000Y-62901000D01*
X220434000Y-62941000D02*
X221622000Y-62941000D01*
X215342000Y-59980000D02*
X223446000Y-59980000D01*
X218446000Y-63501000D02*
X220342000Y-63501000D01*
X215728000Y-61301000D02*
X218354000Y-61301000D01*
X220434000Y-60981000D02*
X223199000Y-60981000D01*
X220434000Y-61261000D02*
X223080000Y-61261000D01*
X215469000Y-60621000D02*
X223319000Y-60621000D01*
X216743000Y-62621000D02*
X218354000Y-62621000D01*
X215337000Y-59940000D02*
X223451000Y-59940000D01*
X215708000Y-61261000D02*
X218354000Y-61261000D01*
X215637000Y-61101000D02*
X218354000Y-61101000D01*
X223514000Y-59500000D02*
G75*
G03*
X223514000Y-59500000I-4120000J0D01*
G01*
D14*
X207875100Y-105896200D02*
X228195100Y-105896200D01*
D15*
X207375100Y-107828200D02*
X207375100Y-107828200D01*
D14*
X233275100Y-115548200D02*
X233275100Y-110468200D01*
X228195100Y-120120200D02*
X207875100Y-120120200D01*
X207875100Y-120120200D02*
X207875100Y-105896200D01*
D15*
X207375100Y-108028200D02*
X207375100Y-108028200D01*
X207375100Y-107828200D02*
G75*
G03*
X207375100Y-108028200I0J-100000D01*
G01*
X207375100Y-108028200D02*
G75*
G03*
X207375100Y-107828200I0J100000D01*
G01*
D13*
X180500000Y-65000000D02*
X167500000Y-65000000D01*
X167500000Y-65000000D02*
X167500000Y-62500000D01*
X167500000Y-62500000D02*
X167500000Y-54198000D01*
X167500000Y-54198000D02*
X180500000Y-54198000D01*
X180500000Y-54198000D02*
X180500000Y-65000000D01*
X154250000Y-62698000D02*
X154250000Y-54198000D01*
X154250000Y-65000000D02*
X154250000Y-62500000D01*
X167250000Y-65000000D02*
X154250000Y-65000000D01*
X167250000Y-54198000D02*
X167250000Y-65000000D01*
X154250000Y-54198000D02*
X167250000Y-54198000D01*
X241120000Y-104617000D02*
X238520000Y-104617000D01*
X235920000Y-107217000D02*
X235920000Y-117437000D01*
X235920000Y-104617000D02*
X235920000Y-105947000D01*
X238520000Y-104617000D02*
X238520000Y-107217000D01*
X241120000Y-104617000D02*
X241120000Y-117437000D01*
X237250000Y-104617000D02*
X235920000Y-104617000D01*
X238520000Y-107217000D02*
X235920000Y-107217000D01*
X241120000Y-117437000D02*
X235920000Y-117437000D01*
D14*
X229150000Y-87800000D02*
X229150000Y-87800000D01*
X238750000Y-92850000D02*
X231750000Y-92850000D01*
X230250000Y-91000000D02*
X230250000Y-88500000D01*
X231750000Y-78150000D02*
X238750000Y-78150000D01*
X229150000Y-87700000D02*
X229150000Y-87700000D01*
X229150000Y-87800000D02*
G75*
G03*
X229150000Y-87700000I0J50000D01*
G01*
X229150000Y-87700000D02*
G75*
G03*
X229150000Y-87800000I0J-50000D01*
G01*
D13*
X204500000Y-54910000D02*
X204180000Y-54990000D01*
X212110000Y-61610000D02*
X212110000Y-54410000D01*
X209820000Y-58410000D02*
X209820000Y-54990000D01*
X204820000Y-54990000D02*
X204500000Y-54910000D01*
X203110000Y-59410000D02*
X201890000Y-59410000D01*
X209180000Y-54990000D02*
X209180000Y-58410000D01*
X209820000Y-54990000D02*
X209500000Y-54910000D01*
X209500000Y-54910000D02*
X209180000Y-54990000D01*
X208330000Y-59410000D02*
X208170000Y-59410000D01*
X209800000Y-62100000D02*
X209200000Y-62100000D01*
X206680000Y-58410000D02*
X207000000Y-58410000D01*
X204820000Y-58410000D02*
X204820000Y-54990000D01*
X209500000Y-61500000D02*
X209800000Y-62100000D01*
X209180000Y-58410000D02*
X209500000Y-58410000D01*
X212110000Y-54410000D02*
X210890000Y-54410000D01*
X207320000Y-54990000D02*
X207000000Y-54910000D01*
X205830000Y-59410000D02*
X205670000Y-59410000D01*
X209200000Y-62100000D02*
X209500000Y-61500000D01*
X204180000Y-58410000D02*
X204500000Y-58410000D01*
X210890000Y-61610000D02*
X212110000Y-61610000D01*
X206680000Y-54990000D02*
X206680000Y-58410000D01*
X203110000Y-54410000D02*
X203110000Y-59410000D01*
X210890000Y-54410000D02*
X210890000Y-59410000D01*
X210890000Y-59410000D02*
X210890000Y-61610000D01*
X210890000Y-58410000D02*
X203110000Y-58410000D01*
X204180000Y-54990000D02*
X204180000Y-58410000D01*
X210890000Y-59410000D02*
X212110000Y-59410000D01*
X201890000Y-54410000D02*
X203110000Y-54410000D01*
X207000000Y-58410000D02*
X207320000Y-58410000D01*
X207320000Y-58410000D02*
X207320000Y-54990000D01*
X209500000Y-58410000D02*
X209820000Y-58410000D01*
X207000000Y-54910000D02*
X206680000Y-54990000D01*
X204500000Y-58410000D02*
X204820000Y-58410000D01*
X201890000Y-54410000D02*
X201890000Y-61610000D01*
X201890000Y-61610000D02*
X203110000Y-61610000D01*
X203110000Y-61610000D02*
X203110000Y-59410000D01*
D14*
X170000000Y-105550000D02*
X170000000Y-109250000D01*
X157500000Y-118950000D02*
X159750000Y-118950000D01*
X167750000Y-105550000D02*
X170000000Y-105550000D01*
X157500000Y-109250000D02*
X157500000Y-105550000D01*
X157500000Y-105550000D02*
X159750000Y-105550000D01*
X170000000Y-118950000D02*
X170000000Y-115250000D01*
X157500000Y-115250000D02*
X157500000Y-118950000D01*
X167750000Y-118950000D02*
X170000000Y-118950000D01*
D13*
X181800000Y-115750000D02*
X180300000Y-115750000D01*
X184300000Y-110000000D02*
X184300000Y-114500000D01*
X177800000Y-114500000D02*
X177800000Y-110000000D01*
X180300000Y-108750000D02*
X181800000Y-108750000D01*
X158750000Y-97250000D02*
X231750000Y-97250000D01*
X231750000Y-97250000D02*
X231750000Y-72250000D01*
X226550000Y-77250000D02*
X163050000Y-77250000D01*
X162550000Y-77750000D02*
X162550000Y-91750000D01*
X227049720Y-91749320D02*
X227049720Y-77750000D01*
X234890000Y-102890000D02*
X154610000Y-102890000D01*
X163049340Y-92250000D02*
X226550000Y-92250000D01*
X231750000Y-72250000D02*
X158750000Y-72250000D01*
X154610000Y-66610000D02*
X234090000Y-66610000D01*
X154610000Y-102890000D02*
X154610000Y-66610000D01*
X234890000Y-66610000D02*
X234890000Y-102890000D01*
X234880000Y-66610000D02*
X234090000Y-66610000D01*
X158750000Y-72250000D02*
X158750000Y-97250000D01*
X228250000Y-66250000D02*
X225250000Y-66250000D01*
X226549340Y-92249700D02*
G75*
G03*
X227049720Y-91749320I0J500380D01*
G01*
X163050000Y-77250000D02*
G75*
G03*
X162550000Y-77750000I0J-500000D01*
G01*
X162548900Y-91749320D02*
G75*
G03*
X163049340Y-92249700I500400J20D01*
G01*
X227049720Y-77748840D02*
G75*
G03*
X226549340Y-77248460I-500380J0D01*
G01*
X211260000Y-97580000D02*
X204860000Y-97580000D01*
X211260000Y-102630000D02*
X204860000Y-102630000D01*
X204860000Y-97580000D02*
G75*
G03*
X204860000Y-102630000I0J-2525000D01*
G01*
X211260000Y-102630000D02*
G75*
G03*
X211260000Y-97580000I0J2525000D01*
G01*
X197700000Y-105700000D02*
X197700000Y-106900000D01*
X197620000Y-109360000D02*
X194540000Y-109360000D01*
X192040000Y-105700000D02*
X191820000Y-105700000D01*
X197700000Y-105700000D02*
X197240000Y-105700000D01*
X197240000Y-105700000D02*
G75*
G03*
X192040000Y-105700000I-2600000J-1100000D01*
G01*
D11*
X223996000Y-54118000D02*
X223996000Y-63800000D01*
X235172000Y-54118000D02*
X223996000Y-54118000D01*
X223996000Y-63800000D02*
X235172000Y-63800000D01*
X235172000Y-63800000D02*
X235172000Y-54118000D01*
M02*
