M48
; DRILL file {KiCad 6.0.8} date Пт 28 окт 2022 18:18:50
; FORMAT={-:-/ absolute / inch / decimal}
; #@! TF.CreationDate,2022-10-28T18:18:50+03:00
; #@! TF.GenerationSoftware,Kicad,Pcbnew,6.0.8
; #@! TF.FileFunction,Plated,1,2,PTH
FMAT,2
INCH
; #@! TA.AperFunction,Plated,PTH,ViaDrill
T1C0.0157
; #@! TA.AperFunction,Plated,PTH,ComponentDrill
T2C0.0315
; #@! TA.AperFunction,Plated,PTH,ComponentDrill
T3C0.0354
; #@! TA.AperFunction,Plated,PTH,ComponentDrill
T4C0.0374
; #@! TA.AperFunction,Plated,PTH,ComponentDrill
T5C0.0394
; #@! TA.AperFunction,Plated,PTH,ComponentDrill
T6C0.0433
; #@! TA.AperFunction,Plated,PTH,ComponentDrill
T7C0.0437
; #@! TA.AperFunction,Plated,PTH,ComponentDrill
T8C0.0472
; #@! TA.AperFunction,Plated,PTH,ComponentDrill
T9C0.0630
; #@! TA.AperFunction,Plated,PTH,ComponentDrill
T10C0.0866
; #@! TA.AperFunction,Plated,PTH,ComponentDrill
T11C0.0984
; #@! TA.AperFunction,Plated,PTH,ComponentDrill
T12C0.1000
; #@! TA.AperFunction,Plated,PTH,ComponentDrill
T13C0.1355
%
G90
G05
T1
X6.3076Y-3.2761
X6.3676Y-3.2776
X6.4676Y-3.6611
X6.4976Y-3.8191
X6.6043Y-3.8681
X6.6626Y-3.6611
X6.7189Y-3.278
X6.7526Y-3.9061
X6.7913Y-3.1988
X6.8799Y-3.2776
X7.0226Y-3.7311
X7.0526Y-3.4611
X7.2441Y-4.0177
X7.2638Y-3.0906
X7.2677Y-2.9724
X7.3917Y-3.7992
X7.4026Y-4.2561
X7.4526Y-4.2011
X7.4526Y-4.2561
X7.4726Y-3.4461
X7.5295Y-3.0413
X7.5591Y-4.0354
X7.5726Y-3.6461
X7.5926Y-4.1511
X7.6378Y-2.9724
X7.6673Y-3.2511
X7.6673Y-3.2972
X7.6676Y-3.4311
X7.6969Y-3.8287
X7.7226Y-3.8711
X7.7576Y-3.9161
X7.7756Y-3.2087
X7.7854Y-3.9553
X7.9331Y-3.1496
X7.9429Y-4.1437
X8.0512Y-3.1496
X8.2441Y-4.1666
X8.2926Y-3.2111
X8.3196Y-3.6441
X8.3418Y-3.5591
X8.3626Y-3.1511
X8.3676Y-2.8611
X8.4276Y-4.0261
X8.4941Y-3.7008
X8.5728Y-3.7008
X8.622Y-3.8976
X8.6319Y-2.8445
X8.6516Y-3.7008
X8.6713Y-4.8031
X8.7106Y-3.2776
X8.7106Y-3.4941
X8.7697Y-4.8031
X8.8681Y-4.8031
T2
X7.6673Y-2.2441
X7.6673Y-2.4409
X8.0953Y-3.9411
X8.2874Y-3.9411
X8.6376Y-2.2441
X8.6376Y-2.4409
T3
X7.5591Y-4.252
X7.6591Y-4.252
X7.7591Y-4.252
T4
X8.0512Y-2.3622
X8.1496Y-2.3622
X8.248Y-2.3622
T5
X9.3406Y-4.1711
X9.3406Y-4.2711
X9.3406Y-4.3711
X9.3406Y-4.4711
X9.3406Y-4.5711
X9.4406Y-4.1711
X9.4406Y-4.2711
X9.4406Y-4.3711
X9.4406Y-4.4711
X9.4406Y-4.5711
T6
X6.3484Y-4.124
X6.3484Y-4.6949
X6.4469Y-4.124
X6.5453Y-4.124
X6.5453Y-4.6949
X7.0394Y-4.2913
X7.0394Y-4.5472
X7.2165Y-4.2913
X7.2165Y-4.5472
T7
X8.2441Y-4.2491
X8.2441Y-4.3491
X8.2441Y-4.4491
X8.2441Y-4.5491
X8.2441Y-4.6491
T8
X6.1319Y-2.4606
X6.2303Y-2.4606
X6.3287Y-2.2638
X6.4272Y-2.4606
X6.5256Y-2.4606
X6.6535Y-2.4606
X6.752Y-2.4606
X6.8504Y-2.2638
X6.9488Y-2.4606
X7.0472Y-2.4606
X7.4272Y-2.7264
X7.5272Y-2.7264
X7.6272Y-2.7264
X7.7272Y-2.7264
X7.8272Y-2.7264
X7.9272Y-2.7264
X8.4272Y-2.7264
X8.5272Y-2.7264
X8.6272Y-2.7264
X8.7272Y-2.7264
X8.8272Y-2.7264
X8.9272Y-2.7264
T10
X5.9055Y-2.2441
X5.9055Y-4.7638
X9.4094Y-2.2441
X9.4094Y-4.7638
T11
X6.1909Y-2.7264
X6.191Y-3.9469
X9.1437Y-2.7264
X9.1437Y-3.9469
T12
X9.1041Y-4.2491
X9.1041Y-4.6491
T13
X6.2224Y-4.4193
X6.6713Y-4.4193
T9
G00X8.8701Y-2.4606
M15
G01X8.8701Y-2.4606
M16
G05
G00X9.0787Y-2.4606
M15
G01X9.0787Y-2.4606
M16
G05
G00X9.2047Y-2.4606
M15
G01X9.2047Y-2.4606
M16
G05
T0
M30
