%TF.GenerationSoftware,KiCad,Pcbnew,6.0.8*%
%TF.CreationDate,2022-10-28T18:19:01+03:00*%
%TF.ProjectId,DigiLight,44696769-4c69-4676-9874-2e6b69636164,rev?*%
%TF.SameCoordinates,Original*%
%TF.FileFunction,Soldermask,Top*%
%TF.FilePolarity,Negative*%
%FSLAX46Y46*%
G04 Gerber Fmt 4.6, Leading zero omitted, Abs format (unit mm)*
G04 Created by KiCad (PCBNEW 6.0.8) date 2022-10-28 18:19:01*
%MOMM*%
%LPD*%
G01*
G04 APERTURE LIST*
G04 Aperture macros list*
%AMRoundRect*
0 Rectangle with rounded corners*
0 $1 Rounding radius*
0 $2 $3 $4 $5 $6 $7 $8 $9 X,Y pos of 4 corners*
0 Add a 4 corners polygon primitive as box body*
4,1,4,$2,$3,$4,$5,$6,$7,$8,$9,$2,$3,0*
0 Add four circle primitives for the rounded corners*
1,1,$1+$1,$2,$3*
1,1,$1+$1,$4,$5*
1,1,$1+$1,$6,$7*
1,1,$1+$1,$8,$9*
0 Add four rect primitives between the rounded corners*
20,1,$1+$1,$2,$3,$4,$5,0*
20,1,$1+$1,$4,$5,$6,$7,0*
20,1,$1+$1,$6,$7,$8,$9,0*
20,1,$1+$1,$8,$9,$2,$3,0*%
%AMFreePoly0*
4,1,22,0.550000,-0.750000,0.000000,-0.750000,0.000000,-0.745033,-0.079941,-0.743568,-0.215256,-0.701293,-0.333266,-0.622738,-0.424486,-0.514219,-0.481581,-0.384460,-0.499164,-0.250000,-0.500000,-0.250000,-0.500000,0.250000,-0.499164,0.250000,-0.499963,0.256109,-0.478152,0.396186,-0.417904,0.524511,-0.324060,0.630769,-0.204165,0.706417,-0.067858,0.745374,0.000000,0.744959,0.000000,0.750000,
0.550000,0.750000,0.550000,-0.750000,0.550000,-0.750000,$1*%
%AMFreePoly1*
4,1,20,0.000000,0.744959,0.073905,0.744508,0.209726,0.703889,0.328688,0.626782,0.421226,0.519385,0.479903,0.390333,0.500000,0.250000,0.500000,-0.250000,0.499851,-0.262216,0.476331,-0.402017,0.414519,-0.529596,0.319384,-0.634700,0.198574,-0.708877,0.061801,-0.746166,0.000000,-0.745033,0.000000,-0.750000,-0.550000,-0.750000,-0.550000,0.750000,0.000000,0.750000,0.000000,0.744959,
0.000000,0.744959,$1*%
G04 Aperture macros list end*
%ADD10RoundRect,0.250000X-0.650000X0.325000X-0.650000X-0.325000X0.650000X-0.325000X0.650000X0.325000X0*%
%ADD11RoundRect,0.250000X0.650000X-0.325000X0.650000X0.325000X-0.650000X0.325000X-0.650000X-0.325000X0*%
%ADD12RoundRect,0.250001X-0.499999X-0.924999X0.499999X-0.924999X0.499999X0.924999X-0.499999X0.924999X0*%
%ADD13RoundRect,0.250000X-0.325000X-0.650000X0.325000X-0.650000X0.325000X0.650000X-0.325000X0.650000X0*%
%ADD14FreePoly0,90.000000*%
%ADD15R,1.500000X1.000000*%
%ADD16FreePoly1,90.000000*%
%ADD17RoundRect,0.250000X-1.075000X0.375000X-1.075000X-0.375000X1.075000X-0.375000X1.075000X0.375000X0*%
%ADD18RoundRect,0.150000X0.587500X0.150000X-0.587500X0.150000X-0.587500X-0.150000X0.587500X-0.150000X0*%
%ADD19RoundRect,0.150000X0.150000X-0.587500X0.150000X0.587500X-0.150000X0.587500X-0.150000X-0.587500X0*%
%ADD20RoundRect,0.250000X0.625000X-0.312500X0.625000X0.312500X-0.625000X0.312500X-0.625000X-0.312500X0*%
%ADD21RoundRect,0.250000X-0.625000X0.312500X-0.625000X-0.312500X0.625000X-0.312500X0.625000X0.312500X0*%
%ADD22RoundRect,0.150000X-0.825000X-0.150000X0.825000X-0.150000X0.825000X0.150000X-0.825000X0.150000X0*%
%ADD23R,2.000000X1.500000*%
%ADD24R,2.000000X3.800000*%
%ADD25R,0.550000X1.500000*%
%ADD26R,1.500000X0.550000*%
%ADD27C,4.400000*%
%ADD28R,0.450000X0.600000*%
%ADD29R,0.600000X0.450000*%
%ADD30R,1.600000X1.600000*%
%ADD31C,1.600000*%
%ADD32C,1.665000*%
%ADD33C,3.810000*%
%ADD34C,1.200000*%
%ADD35C,2.000000*%
%ADD36R,1.700000X1.700000*%
%ADD37O,1.700000X1.700000*%
%ADD38C,1.575000*%
%ADD39RoundRect,0.250000X0.600000X0.725000X-0.600000X0.725000X-0.600000X-0.725000X0.600000X-0.725000X0*%
%ADD40O,1.700000X1.950000*%
%ADD41C,5.161000*%
%ADD42C,3.000000*%
%ADD43R,1.800000X2.600000*%
%ADD44O,1.800000X2.600000*%
%ADD45C,1.500000*%
%ADD46RoundRect,0.248400X-0.651600X-0.651600X0.651600X-0.651600X0.651600X0.651600X-0.651600X0.651600X0*%
%ADD47C,1.800000*%
%ADD48C,2.200000*%
G04 APERTURE END LIST*
D10*
X224250000Y-73025000D03*
X224250000Y-75975000D03*
X191250000Y-84525000D03*
X191250000Y-87475000D03*
X222250000Y-57775000D03*
X222250000Y-60725000D03*
D11*
X183000000Y-99475000D03*
X183000000Y-96525000D03*
D10*
X174000000Y-78525000D03*
X174000000Y-81475000D03*
D11*
X186000000Y-81475000D03*
X186000000Y-78525000D03*
D12*
X173375000Y-98000000D03*
X176625000Y-98000000D03*
D11*
X180000000Y-81475000D03*
X180000000Y-78525000D03*
D10*
X191500000Y-57775000D03*
X191500000Y-60725000D03*
X177000000Y-90525000D03*
X177000000Y-93475000D03*
D13*
X182275000Y-64000000D03*
X185225000Y-64000000D03*
D10*
X206250000Y-102525000D03*
X206250000Y-105475000D03*
X186000000Y-84525000D03*
X186000000Y-87475000D03*
X194250000Y-102525000D03*
X194250000Y-105475000D03*
X186000000Y-90525000D03*
X186000000Y-93475000D03*
D11*
X191250000Y-81475000D03*
X191250000Y-78525000D03*
X212282000Y-112517700D03*
X212282000Y-109567700D03*
D14*
X212256600Y-107132700D03*
D15*
X212256600Y-105832700D03*
D16*
X212256600Y-104532700D03*
D17*
X182250000Y-73100000D03*
X182250000Y-75900000D03*
D18*
X180687500Y-98950000D03*
X180687500Y-97050000D03*
X178812500Y-98000000D03*
D19*
X214634000Y-65228500D03*
X216534000Y-65228500D03*
X215584000Y-63353500D03*
D18*
X213687500Y-60950000D03*
X213687500Y-59050000D03*
X211812500Y-60000000D03*
D20*
X159000000Y-75962500D03*
X159000000Y-73037500D03*
X186000000Y-99462500D03*
X186000000Y-96537500D03*
X159000000Y-81462500D03*
X159000000Y-78537500D03*
D21*
X216250000Y-57787500D03*
X216250000Y-60712500D03*
D20*
X212155000Y-66388500D03*
X212155000Y-63463500D03*
X183000000Y-81462500D03*
X183000000Y-78537500D03*
D21*
X168000000Y-78537500D03*
X168000000Y-81462500D03*
X177000000Y-78537500D03*
X177000000Y-81462500D03*
D20*
X180000000Y-93462500D03*
X180000000Y-90537500D03*
D21*
X183000000Y-90537500D03*
X183000000Y-93462500D03*
D20*
X197250000Y-105462500D03*
X197250000Y-102537500D03*
X221250000Y-87462500D03*
X221250000Y-84537500D03*
D21*
X200250000Y-107787500D03*
X200250000Y-110712500D03*
D22*
X164275000Y-84690000D03*
X164275000Y-85960000D03*
X164275000Y-87230000D03*
X164275000Y-88500000D03*
X164275000Y-89770000D03*
X164275000Y-91040000D03*
X164275000Y-92310000D03*
X169225000Y-92310000D03*
X169225000Y-91040000D03*
X169225000Y-89770000D03*
X169225000Y-88500000D03*
X169225000Y-87230000D03*
X169225000Y-85960000D03*
X169225000Y-84690000D03*
D23*
X188650000Y-61550000D03*
X188650000Y-59250000D03*
D24*
X182350000Y-59250000D03*
D23*
X188650000Y-56950000D03*
D25*
X198250000Y-96950000D03*
X199050000Y-96950000D03*
X199850000Y-96950000D03*
X200650000Y-96950000D03*
X201450000Y-96950000D03*
X202250000Y-96950000D03*
X203050000Y-96950000D03*
X203850000Y-96950000D03*
X204650000Y-96950000D03*
X205450000Y-96950000D03*
X206250000Y-96950000D03*
D26*
X207950000Y-95250000D03*
X207950000Y-94450000D03*
X207950000Y-93650000D03*
X207950000Y-92850000D03*
X207950000Y-92050000D03*
X207950000Y-91250000D03*
X207950000Y-90450000D03*
X207950000Y-89650000D03*
X207950000Y-88850000D03*
X207950000Y-88050000D03*
X207950000Y-87250000D03*
D25*
X206250000Y-85550000D03*
X205450000Y-85550000D03*
X204650000Y-85550000D03*
X203850000Y-85550000D03*
X203050000Y-85550000D03*
X202250000Y-85550000D03*
X201450000Y-85550000D03*
X200650000Y-85550000D03*
X199850000Y-85550000D03*
X199050000Y-85550000D03*
X198250000Y-85550000D03*
D26*
X196550000Y-87250000D03*
X196550000Y-88050000D03*
X196550000Y-88850000D03*
X196550000Y-89650000D03*
X196550000Y-90450000D03*
X196550000Y-91250000D03*
X196550000Y-92050000D03*
X196550000Y-92850000D03*
X196550000Y-93650000D03*
X196550000Y-94450000D03*
X196550000Y-95250000D03*
D27*
X150000000Y-57000000D03*
X239000000Y-57000000D03*
X239000000Y-121000000D03*
X150000000Y-121000000D03*
D11*
X203250000Y-110725000D03*
X203250000Y-107775000D03*
D21*
X174000000Y-73037500D03*
X174000000Y-75962500D03*
D20*
X162000000Y-75962500D03*
X162000000Y-73037500D03*
D11*
X165000000Y-81475000D03*
X165000000Y-78525000D03*
X162000000Y-81475000D03*
X162000000Y-78525000D03*
D21*
X171000000Y-73037500D03*
X171000000Y-75962500D03*
D20*
X168000000Y-75962500D03*
X168000000Y-73037500D03*
X165000000Y-75962500D03*
X165000000Y-73037500D03*
D22*
X177775000Y-84095000D03*
X177775000Y-85365000D03*
X177775000Y-86635000D03*
X177775000Y-87905000D03*
X182725000Y-87905000D03*
X182725000Y-86635000D03*
X182725000Y-85365000D03*
X182725000Y-84095000D03*
D21*
X174000000Y-90537500D03*
X174000000Y-93462500D03*
D28*
X172250000Y-85800000D03*
X172250000Y-83700000D03*
D29*
X167300000Y-94750000D03*
X165200000Y-94750000D03*
D21*
X171000000Y-78537500D03*
X171000000Y-81462500D03*
D11*
X213500000Y-93475000D03*
X213500000Y-90525000D03*
D10*
X200250000Y-102525000D03*
X200250000Y-105475000D03*
X191250000Y-90525000D03*
X191250000Y-93475000D03*
X191250000Y-73025000D03*
X191250000Y-75975000D03*
D21*
X203011000Y-63463500D03*
X203011000Y-66388500D03*
D10*
X206948000Y-69674000D03*
X206948000Y-72624000D03*
D19*
X205109000Y-66752500D03*
X207009000Y-66752500D03*
X206059000Y-64877500D03*
D21*
X209869000Y-69686500D03*
X209869000Y-72611500D03*
D20*
X209107000Y-66388500D03*
X209107000Y-63463500D03*
X221250000Y-75962500D03*
X221250000Y-73037500D03*
D10*
X203250000Y-102525000D03*
X203250000Y-105475000D03*
D11*
X212282000Y-117914000D03*
X212282000Y-114964000D03*
D20*
X206249500Y-116109000D03*
X206249500Y-113184000D03*
X203265000Y-116109000D03*
X203265000Y-113184000D03*
D28*
X212536000Y-76771000D03*
X212536000Y-74671000D03*
X209869000Y-76771000D03*
X209869000Y-74671000D03*
D21*
X204027000Y-69686500D03*
X204027000Y-72611500D03*
D30*
X194750000Y-57000000D03*
D31*
X194750000Y-62000000D03*
D30*
X219394000Y-57000000D03*
D31*
X219394000Y-62000000D03*
D32*
X209399100Y-107928200D03*
X209399100Y-110468200D03*
X209399100Y-113008200D03*
X209399100Y-115548200D03*
X209399100Y-118088200D03*
D33*
X231243100Y-107928200D03*
X231243100Y-118088200D03*
D34*
X174000000Y-62500000D03*
X169000000Y-57500000D03*
X169000000Y-55000000D03*
X179000000Y-57500000D03*
X179000000Y-55000000D03*
D35*
X174000000Y-57500000D03*
X169000000Y-62500000D03*
X171500000Y-62500000D03*
X176500000Y-62500000D03*
X179000000Y-62500000D03*
X165750000Y-62500000D03*
X163250000Y-62500000D03*
X158250000Y-62500000D03*
X155750000Y-62500000D03*
X160750000Y-57500000D03*
D34*
X165750000Y-55000000D03*
X165750000Y-57500000D03*
X160750000Y-62500000D03*
X155750000Y-55000000D03*
X155750000Y-57500000D03*
D36*
X237250000Y-105947000D03*
D37*
X239790000Y-105947000D03*
X237250000Y-108487000D03*
X239790000Y-108487000D03*
X237250000Y-111027000D03*
X239790000Y-111027000D03*
X237250000Y-113567000D03*
X239790000Y-113567000D03*
X237250000Y-116107000D03*
X239790000Y-116107000D03*
D38*
X240750000Y-80550000D03*
X240750000Y-88550000D03*
D39*
X209500000Y-60000000D03*
D40*
X207000000Y-60000000D03*
X204500000Y-60000000D03*
D41*
X158050000Y-112250000D03*
X169450000Y-112250000D03*
D35*
X161250000Y-104750000D03*
X166250000Y-104750000D03*
X163750000Y-104750000D03*
X161250000Y-119250000D03*
X166250000Y-119250000D03*
X183300000Y-115500000D03*
X183300000Y-109000000D03*
X178800000Y-109000000D03*
X178800000Y-115500000D03*
D42*
X157250520Y-100250700D03*
X232249100Y-69250000D03*
X232249100Y-100250700D03*
X157250000Y-69250000D03*
D43*
X226750000Y-69250000D03*
D44*
X224210000Y-69250000D03*
X221670000Y-69250000D03*
X219130000Y-69250000D03*
X216590000Y-69250000D03*
X214050000Y-69250000D03*
X201350000Y-69250000D03*
X198810000Y-69250000D03*
X196270000Y-69250000D03*
X193730000Y-69250000D03*
X191190000Y-69250000D03*
X188650000Y-69250000D03*
D45*
X210500000Y-100105000D03*
X205620000Y-100105000D03*
D46*
X192000000Y-108000000D03*
D47*
X194540000Y-108000000D03*
X197080000Y-108000000D03*
X230600000Y-56290000D03*
D48*
X233800000Y-62500000D03*
X225300000Y-62500000D03*
X230600000Y-62500000D03*
M02*
