%TF.GenerationSoftware,KiCad,Pcbnew,6.0.8*%
%TF.CreationDate,2022-10-28T18:19:01+03:00*%
%TF.ProjectId,DigiLight,44696769-4c69-4676-9874-2e6b69636164,rev?*%
%TF.SameCoordinates,Original*%
%TF.FileFunction,Legend,Top*%
%TF.FilePolarity,Positive*%
%FSLAX46Y46*%
G04 Gerber Fmt 4.6, Leading zero omitted, Abs format (unit mm)*
G04 Created by KiCad (PCBNEW 6.0.8) date 2022-10-28 18:19:01*
%MOMM*%
%LPD*%
G01*
G04 APERTURE LIST*
%ADD10C,0.150000*%
%ADD11C,0.120000*%
G04 APERTURE END LIST*
D10*
X226457142Y-74666666D02*
X226504761Y-74714285D01*
X226552380Y-74857142D01*
X226552380Y-74952380D01*
X226504761Y-75095238D01*
X226409523Y-75190476D01*
X226314285Y-75238095D01*
X226123809Y-75285714D01*
X225980952Y-75285714D01*
X225790476Y-75238095D01*
X225695238Y-75190476D01*
X225600000Y-75095238D01*
X225552380Y-74952380D01*
X225552380Y-74857142D01*
X225600000Y-74714285D01*
X225647619Y-74666666D01*
X226552380Y-73714285D02*
X226552380Y-74285714D01*
X226552380Y-74000000D02*
X225552380Y-74000000D01*
X225695238Y-74095238D01*
X225790476Y-74190476D01*
X225838095Y-74285714D01*
X193457142Y-86166666D02*
X193504761Y-86214285D01*
X193552380Y-86357142D01*
X193552380Y-86452380D01*
X193504761Y-86595238D01*
X193409523Y-86690476D01*
X193314285Y-86738095D01*
X193123809Y-86785714D01*
X192980952Y-86785714D01*
X192790476Y-86738095D01*
X192695238Y-86690476D01*
X192600000Y-86595238D01*
X192552380Y-86452380D01*
X192552380Y-86357142D01*
X192600000Y-86214285D01*
X192647619Y-86166666D01*
X192647619Y-85785714D02*
X192600000Y-85738095D01*
X192552380Y-85642857D01*
X192552380Y-85404761D01*
X192600000Y-85309523D01*
X192647619Y-85261904D01*
X192742857Y-85214285D01*
X192838095Y-85214285D01*
X192980952Y-85261904D01*
X193552380Y-85833333D01*
X193552380Y-85214285D01*
X224457142Y-59416666D02*
X224504761Y-59464285D01*
X224552380Y-59607142D01*
X224552380Y-59702380D01*
X224504761Y-59845238D01*
X224409523Y-59940476D01*
X224314285Y-59988095D01*
X224123809Y-60035714D01*
X223980952Y-60035714D01*
X223790476Y-59988095D01*
X223695238Y-59940476D01*
X223600000Y-59845238D01*
X223552380Y-59702380D01*
X223552380Y-59607142D01*
X223600000Y-59464285D01*
X223647619Y-59416666D01*
X223552380Y-59083333D02*
X223552380Y-58416666D01*
X224552380Y-58845238D01*
X183429142Y-101414666D02*
X183476761Y-101462285D01*
X183524380Y-101605142D01*
X183524380Y-101700380D01*
X183476761Y-101843238D01*
X183381523Y-101938476D01*
X183286285Y-101986095D01*
X183095809Y-102033714D01*
X182952952Y-102033714D01*
X182762476Y-101986095D01*
X182667238Y-101938476D01*
X182572000Y-101843238D01*
X182524380Y-101700380D01*
X182524380Y-101605142D01*
X182572000Y-101462285D01*
X182619619Y-101414666D01*
X183524380Y-100938476D02*
X183524380Y-100748000D01*
X183476761Y-100652761D01*
X183429142Y-100605142D01*
X183286285Y-100509904D01*
X183095809Y-100462285D01*
X182714857Y-100462285D01*
X182619619Y-100509904D01*
X182572000Y-100557523D01*
X182524380Y-100652761D01*
X182524380Y-100843238D01*
X182572000Y-100938476D01*
X182619619Y-100986095D01*
X182714857Y-101033714D01*
X182952952Y-101033714D01*
X183048190Y-100986095D01*
X183095809Y-100938476D01*
X183143428Y-100843238D01*
X183143428Y-100652761D01*
X183095809Y-100557523D01*
X183048190Y-100509904D01*
X182952952Y-100462285D01*
X174555142Y-83444142D02*
X174507523Y-83491761D01*
X174364666Y-83539380D01*
X174269428Y-83539380D01*
X174126571Y-83491761D01*
X174031333Y-83396523D01*
X173983714Y-83301285D01*
X173936095Y-83110809D01*
X173936095Y-82967952D01*
X173983714Y-82777476D01*
X174031333Y-82682238D01*
X174126571Y-82587000D01*
X174269428Y-82539380D01*
X174364666Y-82539380D01*
X174507523Y-82587000D01*
X174555142Y-82634619D01*
X175507523Y-83539380D02*
X174936095Y-83539380D01*
X175221809Y-83539380D02*
X175221809Y-82539380D01*
X175126571Y-82682238D01*
X175031333Y-82777476D01*
X174936095Y-82825095D01*
X175840857Y-82539380D02*
X176459904Y-82539380D01*
X176126571Y-82920333D01*
X176269428Y-82920333D01*
X176364666Y-82967952D01*
X176412285Y-83015571D01*
X176459904Y-83110809D01*
X176459904Y-83348904D01*
X176412285Y-83444142D01*
X176364666Y-83491761D01*
X176269428Y-83539380D01*
X175983714Y-83539380D01*
X175888476Y-83491761D01*
X175840857Y-83444142D01*
X187874142Y-76871857D02*
X187921761Y-76919476D01*
X187969380Y-77062333D01*
X187969380Y-77157571D01*
X187921761Y-77300428D01*
X187826523Y-77395666D01*
X187731285Y-77443285D01*
X187540809Y-77490904D01*
X187397952Y-77490904D01*
X187207476Y-77443285D01*
X187112238Y-77395666D01*
X187017000Y-77300428D01*
X186969380Y-77157571D01*
X186969380Y-77062333D01*
X187017000Y-76919476D01*
X187064619Y-76871857D01*
X187969380Y-75919476D02*
X187969380Y-76490904D01*
X187969380Y-76205190D02*
X186969380Y-76205190D01*
X187112238Y-76300428D01*
X187207476Y-76395666D01*
X187255095Y-76490904D01*
X187302714Y-75062333D02*
X187969380Y-75062333D01*
X186921761Y-75300428D02*
X187636047Y-75538523D01*
X187636047Y-74919476D01*
X174174142Y-100716142D02*
X174126523Y-100763761D01*
X173983666Y-100811380D01*
X173888428Y-100811380D01*
X173745571Y-100763761D01*
X173650333Y-100668523D01*
X173602714Y-100573285D01*
X173555095Y-100382809D01*
X173555095Y-100239952D01*
X173602714Y-100049476D01*
X173650333Y-99954238D01*
X173745571Y-99859000D01*
X173888428Y-99811380D01*
X173983666Y-99811380D01*
X174126523Y-99859000D01*
X174174142Y-99906619D01*
X175126523Y-100811380D02*
X174555095Y-100811380D01*
X174840809Y-100811380D02*
X174840809Y-99811380D01*
X174745571Y-99954238D01*
X174650333Y-100049476D01*
X174555095Y-100097095D01*
X175507476Y-99906619D02*
X175555095Y-99859000D01*
X175650333Y-99811380D01*
X175888428Y-99811380D01*
X175983666Y-99859000D01*
X176031285Y-99906619D01*
X176078904Y-100001857D01*
X176078904Y-100097095D01*
X176031285Y-100239952D01*
X175459857Y-100811380D01*
X176078904Y-100811380D01*
X180381142Y-76871857D02*
X180428761Y-76919476D01*
X180476380Y-77062333D01*
X180476380Y-77157571D01*
X180428761Y-77300428D01*
X180333523Y-77395666D01*
X180238285Y-77443285D01*
X180047809Y-77490904D01*
X179904952Y-77490904D01*
X179714476Y-77443285D01*
X179619238Y-77395666D01*
X179524000Y-77300428D01*
X179476380Y-77157571D01*
X179476380Y-77062333D01*
X179524000Y-76919476D01*
X179571619Y-76871857D01*
X180476380Y-75919476D02*
X180476380Y-76490904D01*
X180476380Y-76205190D02*
X179476380Y-76205190D01*
X179619238Y-76300428D01*
X179714476Y-76395666D01*
X179762095Y-76490904D01*
X179476380Y-75014714D02*
X179476380Y-75490904D01*
X179952571Y-75538523D01*
X179904952Y-75490904D01*
X179857333Y-75395666D01*
X179857333Y-75157571D01*
X179904952Y-75062333D01*
X179952571Y-75014714D01*
X180047809Y-74967095D01*
X180285904Y-74967095D01*
X180381142Y-75014714D01*
X180428761Y-75062333D01*
X180476380Y-75157571D01*
X180476380Y-75395666D01*
X180428761Y-75490904D01*
X180381142Y-75538523D01*
X193707142Y-59892857D02*
X193754761Y-59940476D01*
X193802380Y-60083333D01*
X193802380Y-60178571D01*
X193754761Y-60321428D01*
X193659523Y-60416666D01*
X193564285Y-60464285D01*
X193373809Y-60511904D01*
X193230952Y-60511904D01*
X193040476Y-60464285D01*
X192945238Y-60416666D01*
X192850000Y-60321428D01*
X192802380Y-60178571D01*
X192802380Y-60083333D01*
X192850000Y-59940476D01*
X192897619Y-59892857D01*
X193802380Y-58940476D02*
X193802380Y-59511904D01*
X193802380Y-59226190D02*
X192802380Y-59226190D01*
X192945238Y-59321428D01*
X193040476Y-59416666D01*
X193088095Y-59511904D01*
X192802380Y-58607142D02*
X192802380Y-57940476D01*
X193802380Y-58369047D01*
X175825142Y-95382142D02*
X175777523Y-95429761D01*
X175634666Y-95477380D01*
X175539428Y-95477380D01*
X175396571Y-95429761D01*
X175301333Y-95334523D01*
X175253714Y-95239285D01*
X175206095Y-95048809D01*
X175206095Y-94905952D01*
X175253714Y-94715476D01*
X175301333Y-94620238D01*
X175396571Y-94525000D01*
X175539428Y-94477380D01*
X175634666Y-94477380D01*
X175777523Y-94525000D01*
X175825142Y-94572619D01*
X176777523Y-95477380D02*
X176206095Y-95477380D01*
X176491809Y-95477380D02*
X176491809Y-94477380D01*
X176396571Y-94620238D01*
X176301333Y-94715476D01*
X176206095Y-94763095D01*
X177348952Y-94905952D02*
X177253714Y-94858333D01*
X177206095Y-94810714D01*
X177158476Y-94715476D01*
X177158476Y-94667857D01*
X177206095Y-94572619D01*
X177253714Y-94525000D01*
X177348952Y-94477380D01*
X177539428Y-94477380D01*
X177634666Y-94525000D01*
X177682285Y-94572619D01*
X177729904Y-94667857D01*
X177729904Y-94715476D01*
X177682285Y-94810714D01*
X177634666Y-94858333D01*
X177539428Y-94905952D01*
X177348952Y-94905952D01*
X177253714Y-94953571D01*
X177206095Y-95001190D01*
X177158476Y-95096428D01*
X177158476Y-95286904D01*
X177206095Y-95382142D01*
X177253714Y-95429761D01*
X177348952Y-95477380D01*
X177539428Y-95477380D01*
X177634666Y-95429761D01*
X177682285Y-95382142D01*
X177729904Y-95286904D01*
X177729904Y-95096428D01*
X177682285Y-95001190D01*
X177634666Y-94953571D01*
X177539428Y-94905952D01*
X183107142Y-66299142D02*
X183059523Y-66346761D01*
X182916666Y-66394380D01*
X182821428Y-66394380D01*
X182678571Y-66346761D01*
X182583333Y-66251523D01*
X182535714Y-66156285D01*
X182488095Y-65965809D01*
X182488095Y-65822952D01*
X182535714Y-65632476D01*
X182583333Y-65537238D01*
X182678571Y-65442000D01*
X182821428Y-65394380D01*
X182916666Y-65394380D01*
X183059523Y-65442000D01*
X183107142Y-65489619D01*
X184059523Y-66394380D02*
X183488095Y-66394380D01*
X183773809Y-66394380D02*
X183773809Y-65394380D01*
X183678571Y-65537238D01*
X183583333Y-65632476D01*
X183488095Y-65680095D01*
X184535714Y-66394380D02*
X184726190Y-66394380D01*
X184821428Y-66346761D01*
X184869047Y-66299142D01*
X184964285Y-66156285D01*
X185011904Y-65965809D01*
X185011904Y-65584857D01*
X184964285Y-65489619D01*
X184916666Y-65442000D01*
X184821428Y-65394380D01*
X184630952Y-65394380D01*
X184535714Y-65442000D01*
X184488095Y-65489619D01*
X184440476Y-65584857D01*
X184440476Y-65822952D01*
X184488095Y-65918190D01*
X184535714Y-65965809D01*
X184630952Y-66013428D01*
X184821428Y-66013428D01*
X184916666Y-65965809D01*
X184964285Y-65918190D01*
X185011904Y-65822952D01*
X208457142Y-104642857D02*
X208504761Y-104690476D01*
X208552380Y-104833333D01*
X208552380Y-104928571D01*
X208504761Y-105071428D01*
X208409523Y-105166666D01*
X208314285Y-105214285D01*
X208123809Y-105261904D01*
X207980952Y-105261904D01*
X207790476Y-105214285D01*
X207695238Y-105166666D01*
X207600000Y-105071428D01*
X207552380Y-104928571D01*
X207552380Y-104833333D01*
X207600000Y-104690476D01*
X207647619Y-104642857D01*
X207647619Y-104261904D02*
X207600000Y-104214285D01*
X207552380Y-104119047D01*
X207552380Y-103880952D01*
X207600000Y-103785714D01*
X207647619Y-103738095D01*
X207742857Y-103690476D01*
X207838095Y-103690476D01*
X207980952Y-103738095D01*
X208552380Y-104309523D01*
X208552380Y-103690476D01*
X207552380Y-103071428D02*
X207552380Y-102976190D01*
X207600000Y-102880952D01*
X207647619Y-102833333D01*
X207742857Y-102785714D01*
X207933333Y-102738095D01*
X208171428Y-102738095D01*
X208361904Y-102785714D01*
X208457142Y-102833333D01*
X208504761Y-102880952D01*
X208552380Y-102976190D01*
X208552380Y-103071428D01*
X208504761Y-103166666D01*
X208457142Y-103214285D01*
X208361904Y-103261904D01*
X208171428Y-103309523D01*
X207933333Y-103309523D01*
X207742857Y-103261904D01*
X207647619Y-103214285D01*
X207600000Y-103166666D01*
X207552380Y-103071428D01*
X188207142Y-86642857D02*
X188254761Y-86690476D01*
X188302380Y-86833333D01*
X188302380Y-86928571D01*
X188254761Y-87071428D01*
X188159523Y-87166666D01*
X188064285Y-87214285D01*
X187873809Y-87261904D01*
X187730952Y-87261904D01*
X187540476Y-87214285D01*
X187445238Y-87166666D01*
X187350000Y-87071428D01*
X187302380Y-86928571D01*
X187302380Y-86833333D01*
X187350000Y-86690476D01*
X187397619Y-86642857D01*
X187397619Y-86261904D02*
X187350000Y-86214285D01*
X187302380Y-86119047D01*
X187302380Y-85880952D01*
X187350000Y-85785714D01*
X187397619Y-85738095D01*
X187492857Y-85690476D01*
X187588095Y-85690476D01*
X187730952Y-85738095D01*
X188302380Y-86309523D01*
X188302380Y-85690476D01*
X188302380Y-84738095D02*
X188302380Y-85309523D01*
X188302380Y-85023809D02*
X187302380Y-85023809D01*
X187445238Y-85119047D01*
X187540476Y-85214285D01*
X187588095Y-85309523D01*
X194605142Y-100874857D02*
X194652761Y-100922476D01*
X194700380Y-101065333D01*
X194700380Y-101160571D01*
X194652761Y-101303428D01*
X194557523Y-101398666D01*
X194462285Y-101446285D01*
X194271809Y-101493904D01*
X194128952Y-101493904D01*
X193938476Y-101446285D01*
X193843238Y-101398666D01*
X193748000Y-101303428D01*
X193700380Y-101160571D01*
X193700380Y-101065333D01*
X193748000Y-100922476D01*
X193795619Y-100874857D01*
X193795619Y-100493904D02*
X193748000Y-100446285D01*
X193700380Y-100351047D01*
X193700380Y-100112952D01*
X193748000Y-100017714D01*
X193795619Y-99970095D01*
X193890857Y-99922476D01*
X193986095Y-99922476D01*
X194128952Y-99970095D01*
X194700380Y-100541523D01*
X194700380Y-99922476D01*
X193795619Y-99541523D02*
X193748000Y-99493904D01*
X193700380Y-99398666D01*
X193700380Y-99160571D01*
X193748000Y-99065333D01*
X193795619Y-99017714D01*
X193890857Y-98970095D01*
X193986095Y-98970095D01*
X194128952Y-99017714D01*
X194700380Y-99589142D01*
X194700380Y-98970095D01*
X188207142Y-92642857D02*
X188254761Y-92690476D01*
X188302380Y-92833333D01*
X188302380Y-92928571D01*
X188254761Y-93071428D01*
X188159523Y-93166666D01*
X188064285Y-93214285D01*
X187873809Y-93261904D01*
X187730952Y-93261904D01*
X187540476Y-93214285D01*
X187445238Y-93166666D01*
X187350000Y-93071428D01*
X187302380Y-92928571D01*
X187302380Y-92833333D01*
X187350000Y-92690476D01*
X187397619Y-92642857D01*
X187397619Y-92261904D02*
X187350000Y-92214285D01*
X187302380Y-92119047D01*
X187302380Y-91880952D01*
X187350000Y-91785714D01*
X187397619Y-91738095D01*
X187492857Y-91690476D01*
X187588095Y-91690476D01*
X187730952Y-91738095D01*
X188302380Y-92309523D01*
X188302380Y-91690476D01*
X187635714Y-90833333D02*
X188302380Y-90833333D01*
X187254761Y-91071428D02*
X187969047Y-91309523D01*
X187969047Y-90690476D01*
X189757142Y-80642857D02*
X189804761Y-80690476D01*
X189852380Y-80833333D01*
X189852380Y-80928571D01*
X189804761Y-81071428D01*
X189709523Y-81166666D01*
X189614285Y-81214285D01*
X189423809Y-81261904D01*
X189280952Y-81261904D01*
X189090476Y-81214285D01*
X188995238Y-81166666D01*
X188900000Y-81071428D01*
X188852380Y-80928571D01*
X188852380Y-80833333D01*
X188900000Y-80690476D01*
X188947619Y-80642857D01*
X188947619Y-80261904D02*
X188900000Y-80214285D01*
X188852380Y-80119047D01*
X188852380Y-79880952D01*
X188900000Y-79785714D01*
X188947619Y-79738095D01*
X189042857Y-79690476D01*
X189138095Y-79690476D01*
X189280952Y-79738095D01*
X189852380Y-80309523D01*
X189852380Y-79690476D01*
X188852380Y-78785714D02*
X188852380Y-79261904D01*
X189328571Y-79309523D01*
X189280952Y-79261904D01*
X189233333Y-79166666D01*
X189233333Y-78928571D01*
X189280952Y-78833333D01*
X189328571Y-78785714D01*
X189423809Y-78738095D01*
X189661904Y-78738095D01*
X189757142Y-78785714D01*
X189804761Y-78833333D01*
X189852380Y-78928571D01*
X189852380Y-79166666D01*
X189804761Y-79261904D01*
X189757142Y-79309523D01*
X214671142Y-111685557D02*
X214718761Y-111733176D01*
X214766380Y-111876033D01*
X214766380Y-111971271D01*
X214718761Y-112114128D01*
X214623523Y-112209366D01*
X214528285Y-112256985D01*
X214337809Y-112304604D01*
X214194952Y-112304604D01*
X214004476Y-112256985D01*
X213909238Y-112209366D01*
X213814000Y-112114128D01*
X213766380Y-111971271D01*
X213766380Y-111876033D01*
X213814000Y-111733176D01*
X213861619Y-111685557D01*
X213861619Y-111304604D02*
X213814000Y-111256985D01*
X213766380Y-111161747D01*
X213766380Y-110923652D01*
X213814000Y-110828414D01*
X213861619Y-110780795D01*
X213956857Y-110733176D01*
X214052095Y-110733176D01*
X214194952Y-110780795D01*
X214766380Y-111352223D01*
X214766380Y-110733176D01*
X213766380Y-109876033D02*
X213766380Y-110066509D01*
X213814000Y-110161747D01*
X213861619Y-110209366D01*
X214004476Y-110304604D01*
X214194952Y-110352223D01*
X214575904Y-110352223D01*
X214671142Y-110304604D01*
X214718761Y-110256985D01*
X214766380Y-110161747D01*
X214766380Y-109971271D01*
X214718761Y-109876033D01*
X214671142Y-109828414D01*
X214575904Y-109780795D01*
X214337809Y-109780795D01*
X214242571Y-109828414D01*
X214194952Y-109876033D01*
X214147333Y-109971271D01*
X214147333Y-110161747D01*
X214194952Y-110256985D01*
X214242571Y-110304604D01*
X214337809Y-110352223D01*
X211423266Y-102285080D02*
X211423266Y-102999366D01*
X211375647Y-103142223D01*
X211280409Y-103237461D01*
X211137552Y-103285080D01*
X211042314Y-103285080D01*
X211899457Y-103285080D02*
X211899457Y-102285080D01*
X212280409Y-102285080D01*
X212375647Y-102332700D01*
X212423266Y-102380319D01*
X212470885Y-102475557D01*
X212470885Y-102618414D01*
X212423266Y-102713652D01*
X212375647Y-102761271D01*
X212280409Y-102808890D01*
X211899457Y-102808890D01*
X213423266Y-103285080D02*
X212851838Y-103285080D01*
X213137552Y-103285080D02*
X213137552Y-102285080D01*
X213042314Y-102427938D01*
X212947076Y-102523176D01*
X212851838Y-102570795D01*
X181619380Y-71569666D02*
X181619380Y-72045857D01*
X180619380Y-72045857D01*
X181619380Y-70712523D02*
X181619380Y-71283952D01*
X181619380Y-70998238D02*
X180619380Y-70998238D01*
X180762238Y-71093476D01*
X180857476Y-71188714D01*
X180905095Y-71283952D01*
X179674761Y-100906619D02*
X179579523Y-100859000D01*
X179484285Y-100763761D01*
X179341428Y-100620904D01*
X179246190Y-100573285D01*
X179150952Y-100573285D01*
X179198571Y-100811380D02*
X179103333Y-100763761D01*
X179008095Y-100668523D01*
X178960476Y-100478047D01*
X178960476Y-100144714D01*
X179008095Y-99954238D01*
X179103333Y-99859000D01*
X179198571Y-99811380D01*
X179389047Y-99811380D01*
X179484285Y-99859000D01*
X179579523Y-99954238D01*
X179627142Y-100144714D01*
X179627142Y-100478047D01*
X179579523Y-100668523D01*
X179484285Y-100763761D01*
X179389047Y-100811380D01*
X179198571Y-100811380D01*
X180579523Y-100811380D02*
X180008095Y-100811380D01*
X180293809Y-100811380D02*
X180293809Y-99811380D01*
X180198571Y-99954238D01*
X180103333Y-100049476D01*
X180008095Y-100097095D01*
X218155761Y-65727619D02*
X218060523Y-65680000D01*
X217965285Y-65584761D01*
X217822428Y-65441904D01*
X217727190Y-65394285D01*
X217631952Y-65394285D01*
X217679571Y-65632380D02*
X217584333Y-65584761D01*
X217489095Y-65489523D01*
X217441476Y-65299047D01*
X217441476Y-64965714D01*
X217489095Y-64775238D01*
X217584333Y-64680000D01*
X217679571Y-64632380D01*
X217870047Y-64632380D01*
X217965285Y-64680000D01*
X218060523Y-64775238D01*
X218108142Y-64965714D01*
X218108142Y-65299047D01*
X218060523Y-65489523D01*
X217965285Y-65584761D01*
X217870047Y-65632380D01*
X217679571Y-65632380D01*
X218489095Y-64727619D02*
X218536714Y-64680000D01*
X218631952Y-64632380D01*
X218870047Y-64632380D01*
X218965285Y-64680000D01*
X219012904Y-64727619D01*
X219060523Y-64822857D01*
X219060523Y-64918095D01*
X219012904Y-65060952D01*
X218441476Y-65632380D01*
X219060523Y-65632380D01*
X211551761Y-58107619D02*
X211456523Y-58060000D01*
X211361285Y-57964761D01*
X211218428Y-57821904D01*
X211123190Y-57774285D01*
X211027952Y-57774285D01*
X211075571Y-58012380D02*
X210980333Y-57964761D01*
X210885095Y-57869523D01*
X210837476Y-57679047D01*
X210837476Y-57345714D01*
X210885095Y-57155238D01*
X210980333Y-57060000D01*
X211075571Y-57012380D01*
X211266047Y-57012380D01*
X211361285Y-57060000D01*
X211456523Y-57155238D01*
X211504142Y-57345714D01*
X211504142Y-57679047D01*
X211456523Y-57869523D01*
X211361285Y-57964761D01*
X211266047Y-58012380D01*
X211075571Y-58012380D01*
X211837476Y-57012380D02*
X212456523Y-57012380D01*
X212123190Y-57393333D01*
X212266047Y-57393333D01*
X212361285Y-57440952D01*
X212408904Y-57488571D01*
X212456523Y-57583809D01*
X212456523Y-57821904D01*
X212408904Y-57917142D01*
X212361285Y-57964761D01*
X212266047Y-58012380D01*
X211980333Y-58012380D01*
X211885095Y-57964761D01*
X211837476Y-57917142D01*
X160156380Y-71442666D02*
X159680190Y-71776000D01*
X160156380Y-72014095D02*
X159156380Y-72014095D01*
X159156380Y-71633142D01*
X159204000Y-71537904D01*
X159251619Y-71490285D01*
X159346857Y-71442666D01*
X159489714Y-71442666D01*
X159584952Y-71490285D01*
X159632571Y-71537904D01*
X159680190Y-71633142D01*
X159680190Y-72014095D01*
X159156380Y-71109333D02*
X159156380Y-70490285D01*
X159537333Y-70823619D01*
X159537333Y-70680761D01*
X159584952Y-70585523D01*
X159632571Y-70537904D01*
X159727809Y-70490285D01*
X159965904Y-70490285D01*
X160061142Y-70537904D01*
X160108761Y-70585523D01*
X160156380Y-70680761D01*
X160156380Y-70966476D01*
X160108761Y-71061714D01*
X160061142Y-71109333D01*
X186445380Y-101414666D02*
X185969190Y-101748000D01*
X186445380Y-101986095D02*
X185445380Y-101986095D01*
X185445380Y-101605142D01*
X185493000Y-101509904D01*
X185540619Y-101462285D01*
X185635857Y-101414666D01*
X185778714Y-101414666D01*
X185873952Y-101462285D01*
X185921571Y-101509904D01*
X185969190Y-101605142D01*
X185969190Y-101986095D01*
X185445380Y-100509904D02*
X185445380Y-100986095D01*
X185921571Y-101033714D01*
X185873952Y-100986095D01*
X185826333Y-100890857D01*
X185826333Y-100652761D01*
X185873952Y-100557523D01*
X185921571Y-100509904D01*
X186016809Y-100462285D01*
X186254904Y-100462285D01*
X186350142Y-100509904D01*
X186397761Y-100557523D01*
X186445380Y-100652761D01*
X186445380Y-100890857D01*
X186397761Y-100986095D01*
X186350142Y-101033714D01*
X157632380Y-80166666D02*
X157156190Y-80500000D01*
X157632380Y-80738095D02*
X156632380Y-80738095D01*
X156632380Y-80357142D01*
X156680000Y-80261904D01*
X156727619Y-80214285D01*
X156822857Y-80166666D01*
X156965714Y-80166666D01*
X157060952Y-80214285D01*
X157108571Y-80261904D01*
X157156190Y-80357142D01*
X157156190Y-80738095D01*
X157632380Y-79690476D02*
X157632380Y-79500000D01*
X157584761Y-79404761D01*
X157537142Y-79357142D01*
X157394285Y-79261904D01*
X157203809Y-79214285D01*
X156822857Y-79214285D01*
X156727619Y-79261904D01*
X156680000Y-79309523D01*
X156632380Y-79404761D01*
X156632380Y-79595238D01*
X156680000Y-79690476D01*
X156727619Y-79738095D01*
X156822857Y-79785714D01*
X157060952Y-79785714D01*
X157156190Y-79738095D01*
X157203809Y-79690476D01*
X157251428Y-79595238D01*
X157251428Y-79404761D01*
X157203809Y-79309523D01*
X157156190Y-79261904D01*
X157060952Y-79214285D01*
X218522380Y-59892857D02*
X218046190Y-60226190D01*
X218522380Y-60464285D02*
X217522380Y-60464285D01*
X217522380Y-60083333D01*
X217570000Y-59988095D01*
X217617619Y-59940476D01*
X217712857Y-59892857D01*
X217855714Y-59892857D01*
X217950952Y-59940476D01*
X217998571Y-59988095D01*
X218046190Y-60083333D01*
X218046190Y-60464285D01*
X218522380Y-58940476D02*
X218522380Y-59511904D01*
X218522380Y-59226190D02*
X217522380Y-59226190D01*
X217665238Y-59321428D01*
X217760476Y-59416666D01*
X217808095Y-59511904D01*
X217522380Y-58321428D02*
X217522380Y-58226190D01*
X217570000Y-58130952D01*
X217617619Y-58083333D01*
X217712857Y-58035714D01*
X217903333Y-57988095D01*
X218141428Y-57988095D01*
X218331904Y-58035714D01*
X218427142Y-58083333D01*
X218474761Y-58130952D01*
X218522380Y-58226190D01*
X218522380Y-58321428D01*
X218474761Y-58416666D01*
X218427142Y-58464285D01*
X218331904Y-58511904D01*
X218141428Y-58559523D01*
X217903333Y-58559523D01*
X217712857Y-58511904D01*
X217617619Y-58464285D01*
X217570000Y-58416666D01*
X217522380Y-58321428D01*
X214052142Y-67410380D02*
X213718809Y-66934190D01*
X213480714Y-67410380D02*
X213480714Y-66410380D01*
X213861666Y-66410380D01*
X213956904Y-66458000D01*
X214004523Y-66505619D01*
X214052142Y-66600857D01*
X214052142Y-66743714D01*
X214004523Y-66838952D01*
X213956904Y-66886571D01*
X213861666Y-66934190D01*
X213480714Y-66934190D01*
X215004523Y-67410380D02*
X214433095Y-67410380D01*
X214718809Y-67410380D02*
X214718809Y-66410380D01*
X214623571Y-66553238D01*
X214528333Y-66648476D01*
X214433095Y-66696095D01*
X215956904Y-67410380D02*
X215385476Y-67410380D01*
X215671190Y-67410380D02*
X215671190Y-66410380D01*
X215575952Y-66553238D01*
X215480714Y-66648476D01*
X215385476Y-66696095D01*
X186572380Y-76871857D02*
X186096190Y-77205190D01*
X186572380Y-77443285D02*
X185572380Y-77443285D01*
X185572380Y-77062333D01*
X185620000Y-76967095D01*
X185667619Y-76919476D01*
X185762857Y-76871857D01*
X185905714Y-76871857D01*
X186000952Y-76919476D01*
X186048571Y-76967095D01*
X186096190Y-77062333D01*
X186096190Y-77443285D01*
X186572380Y-75919476D02*
X186572380Y-76490904D01*
X186572380Y-76205190D02*
X185572380Y-76205190D01*
X185715238Y-76300428D01*
X185810476Y-76395666D01*
X185858095Y-76490904D01*
X185667619Y-75538523D02*
X185620000Y-75490904D01*
X185572380Y-75395666D01*
X185572380Y-75157571D01*
X185620000Y-75062333D01*
X185667619Y-75014714D01*
X185762857Y-74967095D01*
X185858095Y-74967095D01*
X186000952Y-75014714D01*
X186572380Y-75586142D01*
X186572380Y-74967095D01*
X167316142Y-83539380D02*
X166982809Y-83063190D01*
X166744714Y-83539380D02*
X166744714Y-82539380D01*
X167125666Y-82539380D01*
X167220904Y-82587000D01*
X167268523Y-82634619D01*
X167316142Y-82729857D01*
X167316142Y-82872714D01*
X167268523Y-82967952D01*
X167220904Y-83015571D01*
X167125666Y-83063190D01*
X166744714Y-83063190D01*
X168268523Y-83539380D02*
X167697095Y-83539380D01*
X167982809Y-83539380D02*
X167982809Y-82539380D01*
X167887571Y-82682238D01*
X167792333Y-82777476D01*
X167697095Y-82825095D01*
X168601857Y-82539380D02*
X169220904Y-82539380D01*
X168887571Y-82920333D01*
X169030428Y-82920333D01*
X169125666Y-82967952D01*
X169173285Y-83015571D01*
X169220904Y-83110809D01*
X169220904Y-83348904D01*
X169173285Y-83444142D01*
X169125666Y-83491761D01*
X169030428Y-83539380D01*
X168744714Y-83539380D01*
X168649476Y-83491761D01*
X168601857Y-83444142D01*
X177428380Y-76998857D02*
X176952190Y-77332190D01*
X177428380Y-77570285D02*
X176428380Y-77570285D01*
X176428380Y-77189333D01*
X176476000Y-77094095D01*
X176523619Y-77046476D01*
X176618857Y-76998857D01*
X176761714Y-76998857D01*
X176856952Y-77046476D01*
X176904571Y-77094095D01*
X176952190Y-77189333D01*
X176952190Y-77570285D01*
X177428380Y-76046476D02*
X177428380Y-76617904D01*
X177428380Y-76332190D02*
X176428380Y-76332190D01*
X176571238Y-76427428D01*
X176666476Y-76522666D01*
X176714095Y-76617904D01*
X176761714Y-75189333D02*
X177428380Y-75189333D01*
X176380761Y-75427428D02*
X177095047Y-75665523D01*
X177095047Y-75046476D01*
X179381142Y-95477380D02*
X179047809Y-95001190D01*
X178809714Y-95477380D02*
X178809714Y-94477380D01*
X179190666Y-94477380D01*
X179285904Y-94525000D01*
X179333523Y-94572619D01*
X179381142Y-94667857D01*
X179381142Y-94810714D01*
X179333523Y-94905952D01*
X179285904Y-94953571D01*
X179190666Y-95001190D01*
X178809714Y-95001190D01*
X180333523Y-95477380D02*
X179762095Y-95477380D01*
X180047809Y-95477380D02*
X180047809Y-94477380D01*
X179952571Y-94620238D01*
X179857333Y-94715476D01*
X179762095Y-94763095D01*
X181190666Y-94477380D02*
X181000190Y-94477380D01*
X180904952Y-94525000D01*
X180857333Y-94572619D01*
X180762095Y-94715476D01*
X180714476Y-94905952D01*
X180714476Y-95286904D01*
X180762095Y-95382142D01*
X180809714Y-95429761D01*
X180904952Y-95477380D01*
X181095428Y-95477380D01*
X181190666Y-95429761D01*
X181238285Y-95382142D01*
X181285904Y-95286904D01*
X181285904Y-95048809D01*
X181238285Y-94953571D01*
X181190666Y-94905952D01*
X181095428Y-94858333D01*
X180904952Y-94858333D01*
X180809714Y-94905952D01*
X180762095Y-94953571D01*
X180714476Y-95048809D01*
X182556142Y-95477380D02*
X182222809Y-95001190D01*
X181984714Y-95477380D02*
X181984714Y-94477380D01*
X182365666Y-94477380D01*
X182460904Y-94525000D01*
X182508523Y-94572619D01*
X182556142Y-94667857D01*
X182556142Y-94810714D01*
X182508523Y-94905952D01*
X182460904Y-94953571D01*
X182365666Y-95001190D01*
X181984714Y-95001190D01*
X183508523Y-95477380D02*
X182937095Y-95477380D01*
X183222809Y-95477380D02*
X183222809Y-94477380D01*
X183127571Y-94620238D01*
X183032333Y-94715476D01*
X182937095Y-94763095D01*
X183841857Y-94477380D02*
X184508523Y-94477380D01*
X184079952Y-95477380D01*
X196653142Y-101573380D02*
X196319809Y-101097190D01*
X196081714Y-101573380D02*
X196081714Y-100573380D01*
X196462666Y-100573380D01*
X196557904Y-100621000D01*
X196605523Y-100668619D01*
X196653142Y-100763857D01*
X196653142Y-100906714D01*
X196605523Y-101001952D01*
X196557904Y-101049571D01*
X196462666Y-101097190D01*
X196081714Y-101097190D01*
X197605523Y-101573380D02*
X197034095Y-101573380D01*
X197319809Y-101573380D02*
X197319809Y-100573380D01*
X197224571Y-100716238D01*
X197129333Y-100811476D01*
X197034095Y-100859095D01*
X198176952Y-101001952D02*
X198081714Y-100954333D01*
X198034095Y-100906714D01*
X197986476Y-100811476D01*
X197986476Y-100763857D01*
X198034095Y-100668619D01*
X198081714Y-100621000D01*
X198176952Y-100573380D01*
X198367428Y-100573380D01*
X198462666Y-100621000D01*
X198510285Y-100668619D01*
X198557904Y-100763857D01*
X198557904Y-100811476D01*
X198510285Y-100906714D01*
X198462666Y-100954333D01*
X198367428Y-101001952D01*
X198176952Y-101001952D01*
X198081714Y-101049571D01*
X198034095Y-101097190D01*
X197986476Y-101192428D01*
X197986476Y-101382904D01*
X198034095Y-101478142D01*
X198081714Y-101525761D01*
X198176952Y-101573380D01*
X198367428Y-101573380D01*
X198462666Y-101525761D01*
X198510285Y-101478142D01*
X198557904Y-101382904D01*
X198557904Y-101192428D01*
X198510285Y-101097190D01*
X198462666Y-101049571D01*
X198367428Y-101001952D01*
X219882380Y-86642857D02*
X219406190Y-86976190D01*
X219882380Y-87214285D02*
X218882380Y-87214285D01*
X218882380Y-86833333D01*
X218930000Y-86738095D01*
X218977619Y-86690476D01*
X219072857Y-86642857D01*
X219215714Y-86642857D01*
X219310952Y-86690476D01*
X219358571Y-86738095D01*
X219406190Y-86833333D01*
X219406190Y-87214285D01*
X218977619Y-86261904D02*
X218930000Y-86214285D01*
X218882380Y-86119047D01*
X218882380Y-85880952D01*
X218930000Y-85785714D01*
X218977619Y-85738095D01*
X219072857Y-85690476D01*
X219168095Y-85690476D01*
X219310952Y-85738095D01*
X219882380Y-86309523D01*
X219882380Y-85690476D01*
X218882380Y-85071428D02*
X218882380Y-84976190D01*
X218930000Y-84880952D01*
X218977619Y-84833333D01*
X219072857Y-84785714D01*
X219263333Y-84738095D01*
X219501428Y-84738095D01*
X219691904Y-84785714D01*
X219787142Y-84833333D01*
X219834761Y-84880952D01*
X219882380Y-84976190D01*
X219882380Y-85071428D01*
X219834761Y-85166666D01*
X219787142Y-85214285D01*
X219691904Y-85261904D01*
X219501428Y-85309523D01*
X219263333Y-85309523D01*
X219072857Y-85261904D01*
X218977619Y-85214285D01*
X218930000Y-85166666D01*
X218882380Y-85071428D01*
X200669380Y-113701857D02*
X200193190Y-114035190D01*
X200669380Y-114273285D02*
X199669380Y-114273285D01*
X199669380Y-113892333D01*
X199717000Y-113797095D01*
X199764619Y-113749476D01*
X199859857Y-113701857D01*
X200002714Y-113701857D01*
X200097952Y-113749476D01*
X200145571Y-113797095D01*
X200193190Y-113892333D01*
X200193190Y-114273285D01*
X199764619Y-113320904D02*
X199717000Y-113273285D01*
X199669380Y-113178047D01*
X199669380Y-112939952D01*
X199717000Y-112844714D01*
X199764619Y-112797095D01*
X199859857Y-112749476D01*
X199955095Y-112749476D01*
X200097952Y-112797095D01*
X200669380Y-113368523D01*
X200669380Y-112749476D01*
X200002714Y-111892333D02*
X200669380Y-111892333D01*
X199621761Y-112130428D02*
X200336047Y-112368523D01*
X200336047Y-111749476D01*
X160847095Y-85206380D02*
X160847095Y-86015904D01*
X160894714Y-86111142D01*
X160942333Y-86158761D01*
X161037571Y-86206380D01*
X161228047Y-86206380D01*
X161323285Y-86158761D01*
X161370904Y-86111142D01*
X161418523Y-86015904D01*
X161418523Y-85206380D01*
X162418523Y-86206380D02*
X161847095Y-86206380D01*
X162132809Y-86206380D02*
X162132809Y-85206380D01*
X162037571Y-85349238D01*
X161942333Y-85444476D01*
X161847095Y-85492095D01*
X181421095Y-54853380D02*
X181421095Y-55662904D01*
X181468714Y-55758142D01*
X181516333Y-55805761D01*
X181611571Y-55853380D01*
X181802047Y-55853380D01*
X181897285Y-55805761D01*
X181944904Y-55758142D01*
X181992523Y-55662904D01*
X181992523Y-54853380D01*
X182373476Y-54853380D02*
X182992523Y-54853380D01*
X182659190Y-55234333D01*
X182802047Y-55234333D01*
X182897285Y-55281952D01*
X182944904Y-55329571D01*
X182992523Y-55424809D01*
X182992523Y-55662904D01*
X182944904Y-55758142D01*
X182897285Y-55805761D01*
X182802047Y-55853380D01*
X182516333Y-55853380D01*
X182421095Y-55805761D01*
X182373476Y-55758142D01*
X207964095Y-84444380D02*
X207964095Y-85253904D01*
X208011714Y-85349142D01*
X208059333Y-85396761D01*
X208154571Y-85444380D01*
X208345047Y-85444380D01*
X208440285Y-85396761D01*
X208487904Y-85349142D01*
X208535523Y-85253904D01*
X208535523Y-84444380D01*
X209440285Y-84777714D02*
X209440285Y-85444380D01*
X209202190Y-84396761D02*
X208964095Y-85111047D01*
X209583142Y-85111047D01*
X205527142Y-109892857D02*
X205574761Y-109940476D01*
X205622380Y-110083333D01*
X205622380Y-110178571D01*
X205574761Y-110321428D01*
X205479523Y-110416666D01*
X205384285Y-110464285D01*
X205193809Y-110511904D01*
X205050952Y-110511904D01*
X204860476Y-110464285D01*
X204765238Y-110416666D01*
X204670000Y-110321428D01*
X204622380Y-110178571D01*
X204622380Y-110083333D01*
X204670000Y-109940476D01*
X204717619Y-109892857D01*
X204717619Y-109511904D02*
X204670000Y-109464285D01*
X204622380Y-109369047D01*
X204622380Y-109130952D01*
X204670000Y-109035714D01*
X204717619Y-108988095D01*
X204812857Y-108940476D01*
X204908095Y-108940476D01*
X205050952Y-108988095D01*
X205622380Y-109559523D01*
X205622380Y-108940476D01*
X204622380Y-108607142D02*
X204622380Y-107940476D01*
X205622380Y-108369047D01*
X174507380Y-71442666D02*
X174031190Y-71776000D01*
X174507380Y-72014095D02*
X173507380Y-72014095D01*
X173507380Y-71633142D01*
X173555000Y-71537904D01*
X173602619Y-71490285D01*
X173697857Y-71442666D01*
X173840714Y-71442666D01*
X173935952Y-71490285D01*
X173983571Y-71537904D01*
X174031190Y-71633142D01*
X174031190Y-72014095D01*
X173507380Y-70585523D02*
X173507380Y-70776000D01*
X173555000Y-70871238D01*
X173602619Y-70918857D01*
X173745476Y-71014095D01*
X173935952Y-71061714D01*
X174316904Y-71061714D01*
X174412142Y-71014095D01*
X174459761Y-70966476D01*
X174507380Y-70871238D01*
X174507380Y-70680761D01*
X174459761Y-70585523D01*
X174412142Y-70537904D01*
X174316904Y-70490285D01*
X174078809Y-70490285D01*
X173983571Y-70537904D01*
X173935952Y-70585523D01*
X173888333Y-70680761D01*
X173888333Y-70871238D01*
X173935952Y-70966476D01*
X173983571Y-71014095D01*
X174078809Y-71061714D01*
X162442380Y-71442666D02*
X161966190Y-71776000D01*
X162442380Y-72014095D02*
X161442380Y-72014095D01*
X161442380Y-71633142D01*
X161490000Y-71537904D01*
X161537619Y-71490285D01*
X161632857Y-71442666D01*
X161775714Y-71442666D01*
X161870952Y-71490285D01*
X161918571Y-71537904D01*
X161966190Y-71633142D01*
X161966190Y-72014095D01*
X161775714Y-70585523D02*
X162442380Y-70585523D01*
X161394761Y-70823619D02*
X162109047Y-71061714D01*
X162109047Y-70442666D01*
X164871333Y-83444142D02*
X164823714Y-83491761D01*
X164680857Y-83539380D01*
X164585619Y-83539380D01*
X164442761Y-83491761D01*
X164347523Y-83396523D01*
X164299904Y-83301285D01*
X164252285Y-83110809D01*
X164252285Y-82967952D01*
X164299904Y-82777476D01*
X164347523Y-82682238D01*
X164442761Y-82587000D01*
X164585619Y-82539380D01*
X164680857Y-82539380D01*
X164823714Y-82587000D01*
X164871333Y-82634619D01*
X165776095Y-82539380D02*
X165299904Y-82539380D01*
X165252285Y-83015571D01*
X165299904Y-82967952D01*
X165395142Y-82920333D01*
X165633238Y-82920333D01*
X165728476Y-82967952D01*
X165776095Y-83015571D01*
X165823714Y-83110809D01*
X165823714Y-83348904D01*
X165776095Y-83444142D01*
X165728476Y-83491761D01*
X165633238Y-83539380D01*
X165395142Y-83539380D01*
X165299904Y-83491761D01*
X165252285Y-83444142D01*
X162347142Y-83507666D02*
X162394761Y-83555285D01*
X162442380Y-83698142D01*
X162442380Y-83793380D01*
X162394761Y-83936238D01*
X162299523Y-84031476D01*
X162204285Y-84079095D01*
X162013809Y-84126714D01*
X161870952Y-84126714D01*
X161680476Y-84079095D01*
X161585238Y-84031476D01*
X161490000Y-83936238D01*
X161442380Y-83793380D01*
X161442380Y-83698142D01*
X161490000Y-83555285D01*
X161537619Y-83507666D01*
X161442380Y-82650523D02*
X161442380Y-82841000D01*
X161490000Y-82936238D01*
X161537619Y-82983857D01*
X161680476Y-83079095D01*
X161870952Y-83126714D01*
X162251904Y-83126714D01*
X162347142Y-83079095D01*
X162394761Y-83031476D01*
X162442380Y-82936238D01*
X162442380Y-82745761D01*
X162394761Y-82650523D01*
X162347142Y-82602904D01*
X162251904Y-82555285D01*
X162013809Y-82555285D01*
X161918571Y-82602904D01*
X161870952Y-82650523D01*
X161823333Y-82745761D01*
X161823333Y-82936238D01*
X161870952Y-83031476D01*
X161918571Y-83079095D01*
X162013809Y-83126714D01*
X171459380Y-71442666D02*
X170983190Y-71776000D01*
X171459380Y-72014095D02*
X170459380Y-72014095D01*
X170459380Y-71633142D01*
X170507000Y-71537904D01*
X170554619Y-71490285D01*
X170649857Y-71442666D01*
X170792714Y-71442666D01*
X170887952Y-71490285D01*
X170935571Y-71537904D01*
X170983190Y-71633142D01*
X170983190Y-72014095D01*
X170887952Y-70871238D02*
X170840333Y-70966476D01*
X170792714Y-71014095D01*
X170697476Y-71061714D01*
X170649857Y-71061714D01*
X170554619Y-71014095D01*
X170507000Y-70966476D01*
X170459380Y-70871238D01*
X170459380Y-70680761D01*
X170507000Y-70585523D01*
X170554619Y-70537904D01*
X170649857Y-70490285D01*
X170697476Y-70490285D01*
X170792714Y-70537904D01*
X170840333Y-70585523D01*
X170887952Y-70680761D01*
X170887952Y-70871238D01*
X170935571Y-70966476D01*
X170983190Y-71014095D01*
X171078428Y-71061714D01*
X171268904Y-71061714D01*
X171364142Y-71014095D01*
X171411761Y-70966476D01*
X171459380Y-70871238D01*
X171459380Y-70680761D01*
X171411761Y-70585523D01*
X171364142Y-70537904D01*
X171268904Y-70490285D01*
X171078428Y-70490285D01*
X170983190Y-70537904D01*
X170935571Y-70585523D01*
X170887952Y-70680761D01*
X168538380Y-71442666D02*
X168062190Y-71776000D01*
X168538380Y-72014095D02*
X167538380Y-72014095D01*
X167538380Y-71633142D01*
X167586000Y-71537904D01*
X167633619Y-71490285D01*
X167728857Y-71442666D01*
X167871714Y-71442666D01*
X167966952Y-71490285D01*
X168014571Y-71537904D01*
X168062190Y-71633142D01*
X168062190Y-72014095D01*
X167633619Y-71061714D02*
X167586000Y-71014095D01*
X167538380Y-70918857D01*
X167538380Y-70680761D01*
X167586000Y-70585523D01*
X167633619Y-70537904D01*
X167728857Y-70490285D01*
X167824095Y-70490285D01*
X167966952Y-70537904D01*
X168538380Y-71109333D01*
X168538380Y-70490285D01*
X165490380Y-71442666D02*
X165014190Y-71776000D01*
X165490380Y-72014095D02*
X164490380Y-72014095D01*
X164490380Y-71633142D01*
X164538000Y-71537904D01*
X164585619Y-71490285D01*
X164680857Y-71442666D01*
X164823714Y-71442666D01*
X164918952Y-71490285D01*
X164966571Y-71537904D01*
X165014190Y-71633142D01*
X165014190Y-72014095D01*
X165490380Y-70490285D02*
X165490380Y-71061714D01*
X165490380Y-70776000D02*
X164490380Y-70776000D01*
X164633238Y-70871238D01*
X164728476Y-70966476D01*
X164776095Y-71061714D01*
X174690095Y-84063380D02*
X174690095Y-84872904D01*
X174737714Y-84968142D01*
X174785333Y-85015761D01*
X174880571Y-85063380D01*
X175071047Y-85063380D01*
X175166285Y-85015761D01*
X175213904Y-84968142D01*
X175261523Y-84872904D01*
X175261523Y-84063380D01*
X175690095Y-84158619D02*
X175737714Y-84111000D01*
X175832952Y-84063380D01*
X176071047Y-84063380D01*
X176166285Y-84111000D01*
X176213904Y-84158619D01*
X176261523Y-84253857D01*
X176261523Y-84349095D01*
X176213904Y-84491952D01*
X175642476Y-85063380D01*
X176261523Y-85063380D01*
X172602380Y-92365857D02*
X172126190Y-92699190D01*
X172602380Y-92937285D02*
X171602380Y-92937285D01*
X171602380Y-92556333D01*
X171650000Y-92461095D01*
X171697619Y-92413476D01*
X171792857Y-92365857D01*
X171935714Y-92365857D01*
X172030952Y-92413476D01*
X172078571Y-92461095D01*
X172126190Y-92556333D01*
X172126190Y-92937285D01*
X172602380Y-91413476D02*
X172602380Y-91984904D01*
X172602380Y-91699190D02*
X171602380Y-91699190D01*
X171745238Y-91794428D01*
X171840476Y-91889666D01*
X171888095Y-91984904D01*
X171602380Y-90508714D02*
X171602380Y-90984904D01*
X172078571Y-91032523D01*
X172030952Y-90984904D01*
X171983333Y-90889666D01*
X171983333Y-90651571D01*
X172030952Y-90556333D01*
X172078571Y-90508714D01*
X172173809Y-90461095D01*
X172411904Y-90461095D01*
X172507142Y-90508714D01*
X172554761Y-90556333D01*
X172602380Y-90651571D01*
X172602380Y-90889666D01*
X172554761Y-90984904D01*
X172507142Y-91032523D01*
X172856380Y-88016095D02*
X171856380Y-88016095D01*
X171856380Y-87778000D01*
X171904000Y-87635142D01*
X171999238Y-87539904D01*
X172094476Y-87492285D01*
X172284952Y-87444666D01*
X172427809Y-87444666D01*
X172618285Y-87492285D01*
X172713523Y-87539904D01*
X172808761Y-87635142D01*
X172856380Y-87778000D01*
X172856380Y-88016095D01*
X172856380Y-86492285D02*
X172856380Y-87063714D01*
X172856380Y-86778000D02*
X171856380Y-86778000D01*
X171999238Y-86873238D01*
X172094476Y-86968476D01*
X172142095Y-87063714D01*
X165511904Y-97052380D02*
X165511904Y-96052380D01*
X165750000Y-96052380D01*
X165892857Y-96100000D01*
X165988095Y-96195238D01*
X166035714Y-96290476D01*
X166083333Y-96480952D01*
X166083333Y-96623809D01*
X166035714Y-96814285D01*
X165988095Y-96909523D01*
X165892857Y-97004761D01*
X165750000Y-97052380D01*
X165511904Y-97052380D01*
X166464285Y-96147619D02*
X166511904Y-96100000D01*
X166607142Y-96052380D01*
X166845238Y-96052380D01*
X166940476Y-96100000D01*
X166988095Y-96147619D01*
X167035714Y-96242857D01*
X167035714Y-96338095D01*
X166988095Y-96480952D01*
X166416666Y-97052380D01*
X167035714Y-97052380D01*
X171586380Y-87444666D02*
X171110190Y-87778000D01*
X171586380Y-88016095D02*
X170586380Y-88016095D01*
X170586380Y-87635142D01*
X170634000Y-87539904D01*
X170681619Y-87492285D01*
X170776857Y-87444666D01*
X170919714Y-87444666D01*
X171014952Y-87492285D01*
X171062571Y-87539904D01*
X171110190Y-87635142D01*
X171110190Y-88016095D01*
X170586380Y-87111333D02*
X170586380Y-86444666D01*
X171586380Y-86873238D01*
X212007142Y-92166666D02*
X212054761Y-92214285D01*
X212102380Y-92357142D01*
X212102380Y-92452380D01*
X212054761Y-92595238D01*
X211959523Y-92690476D01*
X211864285Y-92738095D01*
X211673809Y-92785714D01*
X211530952Y-92785714D01*
X211340476Y-92738095D01*
X211245238Y-92690476D01*
X211150000Y-92595238D01*
X211102380Y-92452380D01*
X211102380Y-92357142D01*
X211150000Y-92214285D01*
X211197619Y-92166666D01*
X211530952Y-91595238D02*
X211483333Y-91690476D01*
X211435714Y-91738095D01*
X211340476Y-91785714D01*
X211292857Y-91785714D01*
X211197619Y-91738095D01*
X211150000Y-91690476D01*
X211102380Y-91595238D01*
X211102380Y-91404761D01*
X211150000Y-91309523D01*
X211197619Y-91261904D01*
X211292857Y-91214285D01*
X211340476Y-91214285D01*
X211435714Y-91261904D01*
X211483333Y-91309523D01*
X211530952Y-91404761D01*
X211530952Y-91595238D01*
X211578571Y-91690476D01*
X211626190Y-91738095D01*
X211721428Y-91785714D01*
X211911904Y-91785714D01*
X212007142Y-91738095D01*
X212054761Y-91690476D01*
X212102380Y-91595238D01*
X212102380Y-91404761D01*
X212054761Y-91309523D01*
X212007142Y-91261904D01*
X211911904Y-91214285D01*
X211721428Y-91214285D01*
X211626190Y-91261904D01*
X211578571Y-91309523D01*
X211530952Y-91404761D01*
X200955142Y-100874857D02*
X201002761Y-100922476D01*
X201050380Y-101065333D01*
X201050380Y-101160571D01*
X201002761Y-101303428D01*
X200907523Y-101398666D01*
X200812285Y-101446285D01*
X200621809Y-101493904D01*
X200478952Y-101493904D01*
X200288476Y-101446285D01*
X200193238Y-101398666D01*
X200098000Y-101303428D01*
X200050380Y-101160571D01*
X200050380Y-101065333D01*
X200098000Y-100922476D01*
X200145619Y-100874857D01*
X201050380Y-99922476D02*
X201050380Y-100493904D01*
X201050380Y-100208190D02*
X200050380Y-100208190D01*
X200193238Y-100303428D01*
X200288476Y-100398666D01*
X200336095Y-100493904D01*
X201050380Y-98970095D02*
X201050380Y-99541523D01*
X201050380Y-99255809D02*
X200050380Y-99255809D01*
X200193238Y-99351047D01*
X200288476Y-99446285D01*
X200336095Y-99541523D01*
X193589142Y-91889666D02*
X193636761Y-91937285D01*
X193684380Y-92080142D01*
X193684380Y-92175380D01*
X193636761Y-92318238D01*
X193541523Y-92413476D01*
X193446285Y-92461095D01*
X193255809Y-92508714D01*
X193112952Y-92508714D01*
X192922476Y-92461095D01*
X192827238Y-92413476D01*
X192732000Y-92318238D01*
X192684380Y-92175380D01*
X192684380Y-92080142D01*
X192732000Y-91937285D01*
X192779619Y-91889666D01*
X193017714Y-91032523D02*
X193684380Y-91032523D01*
X192636761Y-91270619D02*
X193351047Y-91508714D01*
X193351047Y-90889666D01*
X193457142Y-75142857D02*
X193504761Y-75190476D01*
X193552380Y-75333333D01*
X193552380Y-75428571D01*
X193504761Y-75571428D01*
X193409523Y-75666666D01*
X193314285Y-75714285D01*
X193123809Y-75761904D01*
X192980952Y-75761904D01*
X192790476Y-75714285D01*
X192695238Y-75666666D01*
X192600000Y-75571428D01*
X192552380Y-75428571D01*
X192552380Y-75333333D01*
X192600000Y-75190476D01*
X192647619Y-75142857D01*
X193552380Y-74190476D02*
X193552380Y-74761904D01*
X193552380Y-74476190D02*
X192552380Y-74476190D01*
X192695238Y-74571428D01*
X192790476Y-74666666D01*
X192838095Y-74761904D01*
X192552380Y-73333333D02*
X192552380Y-73523809D01*
X192600000Y-73619047D01*
X192647619Y-73666666D01*
X192790476Y-73761904D01*
X192980952Y-73809523D01*
X193361904Y-73809523D01*
X193457142Y-73761904D01*
X193504761Y-73714285D01*
X193552380Y-73619047D01*
X193552380Y-73428571D01*
X193504761Y-73333333D01*
X193457142Y-73285714D01*
X193361904Y-73238095D01*
X193123809Y-73238095D01*
X193028571Y-73285714D01*
X192980952Y-73333333D01*
X192933333Y-73428571D01*
X192933333Y-73619047D01*
X192980952Y-73714285D01*
X193028571Y-73761904D01*
X193123809Y-73809523D01*
X201685380Y-65568857D02*
X201209190Y-65902190D01*
X201685380Y-66140285D02*
X200685380Y-66140285D01*
X200685380Y-65759333D01*
X200733000Y-65664095D01*
X200780619Y-65616476D01*
X200875857Y-65568857D01*
X201018714Y-65568857D01*
X201113952Y-65616476D01*
X201161571Y-65664095D01*
X201209190Y-65759333D01*
X201209190Y-66140285D01*
X200780619Y-65187904D02*
X200733000Y-65140285D01*
X200685380Y-65045047D01*
X200685380Y-64806952D01*
X200733000Y-64711714D01*
X200780619Y-64664095D01*
X200875857Y-64616476D01*
X200971095Y-64616476D01*
X201113952Y-64664095D01*
X201685380Y-65235523D01*
X201685380Y-64616476D01*
X201685380Y-63664095D02*
X201685380Y-64235523D01*
X201685380Y-63949809D02*
X200685380Y-63949809D01*
X200828238Y-64045047D01*
X200923476Y-64140285D01*
X200971095Y-64235523D01*
X206670142Y-75601857D02*
X206717761Y-75649476D01*
X206765380Y-75792333D01*
X206765380Y-75887571D01*
X206717761Y-76030428D01*
X206622523Y-76125666D01*
X206527285Y-76173285D01*
X206336809Y-76220904D01*
X206193952Y-76220904D01*
X206003476Y-76173285D01*
X205908238Y-76125666D01*
X205813000Y-76030428D01*
X205765380Y-75887571D01*
X205765380Y-75792333D01*
X205813000Y-75649476D01*
X205860619Y-75601857D01*
X205860619Y-75220904D02*
X205813000Y-75173285D01*
X205765380Y-75078047D01*
X205765380Y-74839952D01*
X205813000Y-74744714D01*
X205860619Y-74697095D01*
X205955857Y-74649476D01*
X206051095Y-74649476D01*
X206193952Y-74697095D01*
X206765380Y-75268523D01*
X206765380Y-74649476D01*
X206193952Y-74078047D02*
X206146333Y-74173285D01*
X206098714Y-74220904D01*
X206003476Y-74268523D01*
X205955857Y-74268523D01*
X205860619Y-74220904D01*
X205813000Y-74173285D01*
X205765380Y-74078047D01*
X205765380Y-73887571D01*
X205813000Y-73792333D01*
X205860619Y-73744714D01*
X205955857Y-73697095D01*
X206003476Y-73697095D01*
X206098714Y-73744714D01*
X206146333Y-73792333D01*
X206193952Y-73887571D01*
X206193952Y-74078047D01*
X206241571Y-74173285D01*
X206289190Y-74220904D01*
X206384428Y-74268523D01*
X206574904Y-74268523D01*
X206670142Y-74220904D01*
X206717761Y-74173285D01*
X206765380Y-74078047D01*
X206765380Y-73887571D01*
X206717761Y-73792333D01*
X206670142Y-73744714D01*
X206574904Y-73697095D01*
X206384428Y-73697095D01*
X206289190Y-73744714D01*
X206241571Y-73792333D01*
X206193952Y-73887571D01*
X205963761Y-63695619D02*
X205868523Y-63648000D01*
X205773285Y-63552761D01*
X205630428Y-63409904D01*
X205535190Y-63362285D01*
X205439952Y-63362285D01*
X205487571Y-63600380D02*
X205392333Y-63552761D01*
X205297095Y-63457523D01*
X205249476Y-63267047D01*
X205249476Y-62933714D01*
X205297095Y-62743238D01*
X205392333Y-62648000D01*
X205487571Y-62600380D01*
X205678047Y-62600380D01*
X205773285Y-62648000D01*
X205868523Y-62743238D01*
X205916142Y-62933714D01*
X205916142Y-63267047D01*
X205868523Y-63457523D01*
X205773285Y-63552761D01*
X205678047Y-63600380D01*
X205487571Y-63600380D01*
X206773285Y-62933714D02*
X206773285Y-63600380D01*
X206535190Y-62552761D02*
X206297095Y-63267047D01*
X206916142Y-63267047D01*
X212226380Y-71156857D02*
X211750190Y-71490190D01*
X212226380Y-71728285D02*
X211226380Y-71728285D01*
X211226380Y-71347333D01*
X211274000Y-71252095D01*
X211321619Y-71204476D01*
X211416857Y-71156857D01*
X211559714Y-71156857D01*
X211654952Y-71204476D01*
X211702571Y-71252095D01*
X211750190Y-71347333D01*
X211750190Y-71728285D01*
X211321619Y-70775904D02*
X211274000Y-70728285D01*
X211226380Y-70633047D01*
X211226380Y-70394952D01*
X211274000Y-70299714D01*
X211321619Y-70252095D01*
X211416857Y-70204476D01*
X211512095Y-70204476D01*
X211654952Y-70252095D01*
X212226380Y-70823523D01*
X212226380Y-70204476D01*
X211321619Y-69823523D02*
X211274000Y-69775904D01*
X211226380Y-69680666D01*
X211226380Y-69442571D01*
X211274000Y-69347333D01*
X211321619Y-69299714D01*
X211416857Y-69252095D01*
X211512095Y-69252095D01*
X211654952Y-69299714D01*
X212226380Y-69871142D01*
X212226380Y-69252095D01*
X208845142Y-68426380D02*
X208511809Y-67950190D01*
X208273714Y-68426380D02*
X208273714Y-67426380D01*
X208654666Y-67426380D01*
X208749904Y-67474000D01*
X208797523Y-67521619D01*
X208845142Y-67616857D01*
X208845142Y-67759714D01*
X208797523Y-67854952D01*
X208749904Y-67902571D01*
X208654666Y-67950190D01*
X208273714Y-67950190D01*
X209226095Y-67521619D02*
X209273714Y-67474000D01*
X209368952Y-67426380D01*
X209607047Y-67426380D01*
X209702285Y-67474000D01*
X209749904Y-67521619D01*
X209797523Y-67616857D01*
X209797523Y-67712095D01*
X209749904Y-67854952D01*
X209178476Y-68426380D01*
X209797523Y-68426380D01*
X210130857Y-67426380D02*
X210797523Y-67426380D01*
X210368952Y-68426380D01*
X219882380Y-75142857D02*
X219406190Y-75476190D01*
X219882380Y-75714285D02*
X218882380Y-75714285D01*
X218882380Y-75333333D01*
X218930000Y-75238095D01*
X218977619Y-75190476D01*
X219072857Y-75142857D01*
X219215714Y-75142857D01*
X219310952Y-75190476D01*
X219358571Y-75238095D01*
X219406190Y-75333333D01*
X219406190Y-75714285D01*
X219882380Y-74190476D02*
X219882380Y-74761904D01*
X219882380Y-74476190D02*
X218882380Y-74476190D01*
X219025238Y-74571428D01*
X219120476Y-74666666D01*
X219168095Y-74761904D01*
X219882380Y-73714285D02*
X219882380Y-73523809D01*
X219834761Y-73428571D01*
X219787142Y-73380952D01*
X219644285Y-73285714D01*
X219453809Y-73238095D01*
X219072857Y-73238095D01*
X218977619Y-73285714D01*
X218930000Y-73333333D01*
X218882380Y-73428571D01*
X218882380Y-73619047D01*
X218930000Y-73714285D01*
X218977619Y-73761904D01*
X219072857Y-73809523D01*
X219310952Y-73809523D01*
X219406190Y-73761904D01*
X219453809Y-73714285D01*
X219501428Y-73619047D01*
X219501428Y-73428571D01*
X219453809Y-73333333D01*
X219406190Y-73285714D01*
X219310952Y-73238095D01*
X203622142Y-100874857D02*
X203669761Y-100922476D01*
X203717380Y-101065333D01*
X203717380Y-101160571D01*
X203669761Y-101303428D01*
X203574523Y-101398666D01*
X203479285Y-101446285D01*
X203288809Y-101493904D01*
X203145952Y-101493904D01*
X202955476Y-101446285D01*
X202860238Y-101398666D01*
X202765000Y-101303428D01*
X202717380Y-101160571D01*
X202717380Y-101065333D01*
X202765000Y-100922476D01*
X202812619Y-100874857D01*
X202812619Y-100493904D02*
X202765000Y-100446285D01*
X202717380Y-100351047D01*
X202717380Y-100112952D01*
X202765000Y-100017714D01*
X202812619Y-99970095D01*
X202907857Y-99922476D01*
X203003095Y-99922476D01*
X203145952Y-99970095D01*
X203717380Y-100541523D01*
X203717380Y-99922476D01*
X202717380Y-99589142D02*
X202717380Y-98970095D01*
X203098333Y-99303428D01*
X203098333Y-99160571D01*
X203145952Y-99065333D01*
X203193571Y-99017714D01*
X203288809Y-98970095D01*
X203526904Y-98970095D01*
X203622142Y-99017714D01*
X203669761Y-99065333D01*
X203717380Y-99160571D01*
X203717380Y-99446285D01*
X203669761Y-99541523D01*
X203622142Y-99589142D01*
X214544142Y-117003857D02*
X214591761Y-117051476D01*
X214639380Y-117194333D01*
X214639380Y-117289571D01*
X214591761Y-117432428D01*
X214496523Y-117527666D01*
X214401285Y-117575285D01*
X214210809Y-117622904D01*
X214067952Y-117622904D01*
X213877476Y-117575285D01*
X213782238Y-117527666D01*
X213687000Y-117432428D01*
X213639380Y-117289571D01*
X213639380Y-117194333D01*
X213687000Y-117051476D01*
X213734619Y-117003857D01*
X213734619Y-116622904D02*
X213687000Y-116575285D01*
X213639380Y-116480047D01*
X213639380Y-116241952D01*
X213687000Y-116146714D01*
X213734619Y-116099095D01*
X213829857Y-116051476D01*
X213925095Y-116051476D01*
X214067952Y-116099095D01*
X214639380Y-116670523D01*
X214639380Y-116051476D01*
X214639380Y-115575285D02*
X214639380Y-115384809D01*
X214591761Y-115289571D01*
X214544142Y-115241952D01*
X214401285Y-115146714D01*
X214210809Y-115099095D01*
X213829857Y-115099095D01*
X213734619Y-115146714D01*
X213687000Y-115194333D01*
X213639380Y-115289571D01*
X213639380Y-115480047D01*
X213687000Y-115575285D01*
X213734619Y-115622904D01*
X213829857Y-115670523D01*
X214067952Y-115670523D01*
X214163190Y-115622904D01*
X214210809Y-115575285D01*
X214258428Y-115480047D01*
X214258428Y-115289571D01*
X214210809Y-115194333D01*
X214163190Y-115146714D01*
X214067952Y-115099095D01*
X206638380Y-119035857D02*
X206162190Y-119369190D01*
X206638380Y-119607285D02*
X205638380Y-119607285D01*
X205638380Y-119226333D01*
X205686000Y-119131095D01*
X205733619Y-119083476D01*
X205828857Y-119035857D01*
X205971714Y-119035857D01*
X206066952Y-119083476D01*
X206114571Y-119131095D01*
X206162190Y-119226333D01*
X206162190Y-119607285D01*
X205733619Y-118654904D02*
X205686000Y-118607285D01*
X205638380Y-118512047D01*
X205638380Y-118273952D01*
X205686000Y-118178714D01*
X205733619Y-118131095D01*
X205828857Y-118083476D01*
X205924095Y-118083476D01*
X206066952Y-118131095D01*
X206638380Y-118702523D01*
X206638380Y-118083476D01*
X205638380Y-117178714D02*
X205638380Y-117654904D01*
X206114571Y-117702523D01*
X206066952Y-117654904D01*
X206019333Y-117559666D01*
X206019333Y-117321571D01*
X206066952Y-117226333D01*
X206114571Y-117178714D01*
X206209809Y-117131095D01*
X206447904Y-117131095D01*
X206543142Y-117178714D01*
X206590761Y-117226333D01*
X206638380Y-117321571D01*
X206638380Y-117559666D01*
X206590761Y-117654904D01*
X206543142Y-117702523D01*
X203717380Y-119035857D02*
X203241190Y-119369190D01*
X203717380Y-119607285D02*
X202717380Y-119607285D01*
X202717380Y-119226333D01*
X202765000Y-119131095D01*
X202812619Y-119083476D01*
X202907857Y-119035857D01*
X203050714Y-119035857D01*
X203145952Y-119083476D01*
X203193571Y-119131095D01*
X203241190Y-119226333D01*
X203241190Y-119607285D01*
X202812619Y-118654904D02*
X202765000Y-118607285D01*
X202717380Y-118512047D01*
X202717380Y-118273952D01*
X202765000Y-118178714D01*
X202812619Y-118131095D01*
X202907857Y-118083476D01*
X203003095Y-118083476D01*
X203145952Y-118131095D01*
X203717380Y-118702523D01*
X203717380Y-118083476D01*
X202717380Y-117226333D02*
X202717380Y-117416809D01*
X202765000Y-117512047D01*
X202812619Y-117559666D01*
X202955476Y-117654904D01*
X203145952Y-117702523D01*
X203526904Y-117702523D01*
X203622142Y-117654904D01*
X203669761Y-117607285D01*
X203717380Y-117512047D01*
X203717380Y-117321571D01*
X203669761Y-117226333D01*
X203622142Y-117178714D01*
X203526904Y-117131095D01*
X203288809Y-117131095D01*
X203193571Y-117178714D01*
X203145952Y-117226333D01*
X203098333Y-117321571D01*
X203098333Y-117512047D01*
X203145952Y-117607285D01*
X203193571Y-117654904D01*
X203288809Y-117702523D01*
X214766380Y-76459095D02*
X213766380Y-76459095D01*
X213766380Y-76221000D01*
X213814000Y-76078142D01*
X213909238Y-75982904D01*
X214004476Y-75935285D01*
X214194952Y-75887666D01*
X214337809Y-75887666D01*
X214528285Y-75935285D01*
X214623523Y-75982904D01*
X214718761Y-76078142D01*
X214766380Y-76221000D01*
X214766380Y-76459095D01*
X213766380Y-75554333D02*
X213766380Y-74935285D01*
X214147333Y-75268619D01*
X214147333Y-75125761D01*
X214194952Y-75030523D01*
X214242571Y-74982904D01*
X214337809Y-74935285D01*
X214575904Y-74935285D01*
X214671142Y-74982904D01*
X214718761Y-75030523D01*
X214766380Y-75125761D01*
X214766380Y-75411476D01*
X214718761Y-75506714D01*
X214671142Y-75554333D01*
X208670380Y-76459095D02*
X207670380Y-76459095D01*
X207670380Y-76221000D01*
X207718000Y-76078142D01*
X207813238Y-75982904D01*
X207908476Y-75935285D01*
X208098952Y-75887666D01*
X208241809Y-75887666D01*
X208432285Y-75935285D01*
X208527523Y-75982904D01*
X208622761Y-76078142D01*
X208670380Y-76221000D01*
X208670380Y-76459095D01*
X208003714Y-75030523D02*
X208670380Y-75030523D01*
X207622761Y-75268619D02*
X208337047Y-75506714D01*
X208337047Y-74887666D01*
X204479380Y-75601857D02*
X204003190Y-75935190D01*
X204479380Y-76173285D02*
X203479380Y-76173285D01*
X203479380Y-75792333D01*
X203527000Y-75697095D01*
X203574619Y-75649476D01*
X203669857Y-75601857D01*
X203812714Y-75601857D01*
X203907952Y-75649476D01*
X203955571Y-75697095D01*
X204003190Y-75792333D01*
X204003190Y-76173285D01*
X203574619Y-75220904D02*
X203527000Y-75173285D01*
X203479380Y-75078047D01*
X203479380Y-74839952D01*
X203527000Y-74744714D01*
X203574619Y-74697095D01*
X203669857Y-74649476D01*
X203765095Y-74649476D01*
X203907952Y-74697095D01*
X204479380Y-75268523D01*
X204479380Y-74649476D01*
X203479380Y-74316142D02*
X203479380Y-73697095D01*
X203860333Y-74030428D01*
X203860333Y-73887571D01*
X203907952Y-73792333D01*
X203955571Y-73744714D01*
X204050809Y-73697095D01*
X204288904Y-73697095D01*
X204384142Y-73744714D01*
X204431761Y-73792333D01*
X204479380Y-73887571D01*
X204479380Y-74173285D01*
X204431761Y-74268523D01*
X204384142Y-74316142D01*
D11*
X223340000Y-73788748D02*
X223340000Y-75211252D01*
X225160000Y-73788748D02*
X225160000Y-75211252D01*
X190340000Y-85288748D02*
X190340000Y-86711252D01*
X192160000Y-85288748D02*
X192160000Y-86711252D01*
X223160000Y-58538748D02*
X223160000Y-59961252D01*
X221340000Y-58538748D02*
X221340000Y-59961252D01*
X182090000Y-98711252D02*
X182090000Y-97288748D01*
X183910000Y-98711252D02*
X183910000Y-97288748D01*
X173090000Y-79288748D02*
X173090000Y-80711252D01*
X174910000Y-79288748D02*
X174910000Y-80711252D01*
X186910000Y-80711252D02*
X186910000Y-79288748D01*
X185090000Y-80711252D02*
X185090000Y-79288748D01*
X176750000Y-96490000D02*
X172365000Y-96490000D01*
X172365000Y-99510000D02*
X176750000Y-99510000D01*
X172365000Y-96490000D02*
X172365000Y-99510000D01*
X180910000Y-80711252D02*
X180910000Y-79288748D01*
X179090000Y-80711252D02*
X179090000Y-79288748D01*
X190590000Y-58538748D02*
X190590000Y-59961252D01*
X192410000Y-58538748D02*
X192410000Y-59961252D01*
X176090000Y-91288748D02*
X176090000Y-92711252D01*
X177910000Y-91288748D02*
X177910000Y-92711252D01*
X183038748Y-63090000D02*
X184461252Y-63090000D01*
X183038748Y-64910000D02*
X184461252Y-64910000D01*
X205340000Y-103288748D02*
X205340000Y-104711252D01*
X207160000Y-103288748D02*
X207160000Y-104711252D01*
X186910000Y-85288748D02*
X186910000Y-86711252D01*
X185090000Y-85288748D02*
X185090000Y-86711252D01*
X193340000Y-103288748D02*
X193340000Y-104711252D01*
X195160000Y-103288748D02*
X195160000Y-104711252D01*
X185090000Y-91288748D02*
X185090000Y-92711252D01*
X186910000Y-91288748D02*
X186910000Y-92711252D01*
X190340000Y-80711252D02*
X190340000Y-79288748D01*
X192160000Y-80711252D02*
X192160000Y-79288748D01*
X213192000Y-111753952D02*
X213192000Y-110331448D01*
X211372000Y-111753952D02*
X211372000Y-110331448D01*
X213756600Y-107332700D02*
X213756600Y-106732700D01*
X211956600Y-103782700D02*
X212556600Y-103782700D01*
X213456600Y-107032700D02*
X213756600Y-106732700D01*
X211256600Y-107232700D02*
X211256600Y-104432700D01*
X212556600Y-107882700D02*
X211956600Y-107882700D01*
X213456600Y-107032700D02*
X213756600Y-107332700D01*
X213256600Y-104432700D02*
X213256600Y-107232700D01*
X211956600Y-103782700D02*
G75*
G03*
X211256600Y-104482700I0J-700000D01*
G01*
X213256600Y-104482700D02*
G75*
G03*
X212556600Y-103782700I-700000J0D01*
G01*
X211256600Y-107182700D02*
G75*
G03*
X211956600Y-107882700I699999J-1D01*
G01*
X212556600Y-107882700D02*
G75*
G03*
X213256600Y-107182700I1J699999D01*
G01*
X183610000Y-73897936D02*
X183610000Y-75102064D01*
X180890000Y-73897936D02*
X180890000Y-75102064D01*
X179750000Y-96440000D02*
X180400000Y-96440000D01*
X179750000Y-99560000D02*
X179100000Y-99560000D01*
X179750000Y-99560000D02*
X181425000Y-99560000D01*
X179750000Y-96440000D02*
X179100000Y-96440000D01*
X217144000Y-64291000D02*
X217144000Y-64941000D01*
X214024000Y-64291000D02*
X214024000Y-63641000D01*
X214024000Y-64291000D02*
X214024000Y-65966000D01*
X217144000Y-64291000D02*
X217144000Y-63641000D01*
X212750000Y-61560000D02*
X212100000Y-61560000D01*
X212750000Y-58440000D02*
X212100000Y-58440000D01*
X212750000Y-58440000D02*
X213400000Y-58440000D01*
X212750000Y-61560000D02*
X214425000Y-61560000D01*
X158090000Y-75227064D02*
X158090000Y-73772936D01*
X159910000Y-75227064D02*
X159910000Y-73772936D01*
X186910000Y-98727064D02*
X186910000Y-97272936D01*
X185090000Y-98727064D02*
X185090000Y-97272936D01*
X159910000Y-80727064D02*
X159910000Y-79272936D01*
X158090000Y-80727064D02*
X158090000Y-79272936D01*
X215340000Y-58522936D02*
X215340000Y-59977064D01*
X217160000Y-58522936D02*
X217160000Y-59977064D01*
X211245000Y-65653064D02*
X211245000Y-64198936D01*
X213065000Y-65653064D02*
X213065000Y-64198936D01*
X183910000Y-80727064D02*
X183910000Y-79272936D01*
X182090000Y-80727064D02*
X182090000Y-79272936D01*
X168910000Y-79272936D02*
X168910000Y-80727064D01*
X167090000Y-79272936D02*
X167090000Y-80727064D01*
X176090000Y-79272936D02*
X176090000Y-80727064D01*
X177910000Y-79272936D02*
X177910000Y-80727064D01*
X180910000Y-92727064D02*
X180910000Y-91272936D01*
X179090000Y-92727064D02*
X179090000Y-91272936D01*
X182090000Y-91272936D02*
X182090000Y-92727064D01*
X183910000Y-91272936D02*
X183910000Y-92727064D01*
X198160000Y-104727064D02*
X198160000Y-103272936D01*
X196340000Y-104727064D02*
X196340000Y-103272936D01*
X220340000Y-86727064D02*
X220340000Y-85272936D01*
X222160000Y-86727064D02*
X222160000Y-85272936D01*
X201160000Y-108522936D02*
X201160000Y-109977064D01*
X199340000Y-108522936D02*
X199340000Y-109977064D01*
X166750000Y-92935000D02*
X164800000Y-92935000D01*
X166750000Y-84065000D02*
X168700000Y-84065000D01*
X166750000Y-92935000D02*
X168700000Y-92935000D01*
X166750000Y-84065000D02*
X163300000Y-84065000D01*
X187350000Y-55840000D02*
X183590000Y-55840000D01*
X189600000Y-62660000D02*
X183590000Y-62660000D01*
X183590000Y-55840000D02*
X183590000Y-57100000D01*
X183590000Y-62660000D02*
X183590000Y-61400000D01*
D10*
X207425000Y-96425000D02*
X206750000Y-96425000D01*
X207425000Y-86075000D02*
X207425000Y-86750000D01*
X197650000Y-96425000D02*
X197650000Y-97700000D01*
X197075000Y-96425000D02*
X197075000Y-95750000D01*
X197075000Y-86075000D02*
X197750000Y-86075000D01*
X197075000Y-96425000D02*
X197650000Y-96425000D01*
X207425000Y-96425000D02*
X207425000Y-95750000D01*
X207425000Y-86075000D02*
X206750000Y-86075000D01*
X197075000Y-86075000D02*
X197075000Y-86750000D01*
D11*
X204160000Y-109961252D02*
X204160000Y-108538748D01*
X202340000Y-109961252D02*
X202340000Y-108538748D01*
X174910000Y-73772936D02*
X174910000Y-75227064D01*
X173090000Y-73772936D02*
X173090000Y-75227064D01*
X162910000Y-75227064D02*
X162910000Y-73772936D01*
X161090000Y-75227064D02*
X161090000Y-73772936D01*
X164090000Y-80711252D02*
X164090000Y-79288748D01*
X165910000Y-80711252D02*
X165910000Y-79288748D01*
X161090000Y-80711252D02*
X161090000Y-79288748D01*
X162910000Y-80711252D02*
X162910000Y-79288748D01*
X170090000Y-73772936D02*
X170090000Y-75227064D01*
X171910000Y-73772936D02*
X171910000Y-75227064D01*
X167090000Y-75227064D02*
X167090000Y-73772936D01*
X168910000Y-75227064D02*
X168910000Y-73772936D01*
X165910000Y-75227064D02*
X165910000Y-73772936D01*
X164090000Y-75227064D02*
X164090000Y-73772936D01*
X180250000Y-83440000D02*
X182200000Y-83440000D01*
X180250000Y-83440000D02*
X176800000Y-83440000D01*
X180250000Y-88560000D02*
X178300000Y-88560000D01*
X180250000Y-88560000D02*
X182200000Y-88560000D01*
X173090000Y-91272936D02*
X173090000Y-92727064D01*
X174910000Y-91272936D02*
X174910000Y-92727064D01*
X173100000Y-86250000D02*
X173100000Y-83700000D01*
X171400000Y-86250000D02*
X173100000Y-86250000D01*
X171400000Y-86250000D02*
X171400000Y-83700000D01*
X167750000Y-95600000D02*
X167750000Y-93900000D01*
X167750000Y-95600000D02*
X165200000Y-95600000D01*
X167750000Y-93900000D02*
X165200000Y-93900000D01*
X171910000Y-79272936D02*
X171910000Y-80727064D01*
X170090000Y-79272936D02*
X170090000Y-80727064D01*
X214410000Y-92711252D02*
X214410000Y-91288748D01*
X212590000Y-92711252D02*
X212590000Y-91288748D01*
X201160000Y-103288748D02*
X201160000Y-104711252D01*
X199340000Y-103288748D02*
X199340000Y-104711252D01*
X190340000Y-91288748D02*
X190340000Y-92711252D01*
X192160000Y-91288748D02*
X192160000Y-92711252D01*
X192160000Y-73788748D02*
X192160000Y-75211252D01*
X190340000Y-73788748D02*
X190340000Y-75211252D01*
X202101000Y-64198936D02*
X202101000Y-65653064D01*
X203921000Y-64198936D02*
X203921000Y-65653064D01*
X206038000Y-70437748D02*
X206038000Y-71860252D01*
X207858000Y-70437748D02*
X207858000Y-71860252D01*
X204499000Y-65815000D02*
X204499000Y-67490000D01*
X207619000Y-65815000D02*
X207619000Y-65165000D01*
X207619000Y-65815000D02*
X207619000Y-66465000D01*
X204499000Y-65815000D02*
X204499000Y-65165000D01*
X210779000Y-70421936D02*
X210779000Y-71876064D01*
X208959000Y-70421936D02*
X208959000Y-71876064D01*
X208197000Y-65653064D02*
X208197000Y-64198936D01*
X210017000Y-65653064D02*
X210017000Y-64198936D01*
X222160000Y-75227064D02*
X222160000Y-73772936D01*
X220340000Y-75227064D02*
X220340000Y-73772936D01*
X202340000Y-103288748D02*
X202340000Y-104711252D01*
X204160000Y-103288748D02*
X204160000Y-104711252D01*
X213192000Y-117150252D02*
X213192000Y-115727748D01*
X211372000Y-117150252D02*
X211372000Y-115727748D01*
X205339500Y-115373564D02*
X205339500Y-113919436D01*
X207159500Y-115373564D02*
X207159500Y-113919436D01*
X202355000Y-115373564D02*
X202355000Y-113919436D01*
X204175000Y-115373564D02*
X204175000Y-113919436D01*
X211686000Y-77221000D02*
X211686000Y-74671000D01*
X213386000Y-77221000D02*
X213386000Y-74671000D01*
X211686000Y-77221000D02*
X213386000Y-77221000D01*
X210719000Y-77221000D02*
X210719000Y-74671000D01*
X209019000Y-77221000D02*
X210719000Y-77221000D01*
X209019000Y-77221000D02*
X209019000Y-74671000D01*
X203117000Y-70421936D02*
X203117000Y-71876064D01*
X204937000Y-70421936D02*
X204937000Y-71876064D01*
M02*
