%TF.GenerationSoftware,KiCad,Pcbnew,6.0.8*%
%TF.CreationDate,2022-10-28T18:19:02+03:00*%
%TF.ProjectId,DigiLight,44696769-4c69-4676-9874-2e6b69636164,rev?*%
%TF.SameCoordinates,Original*%
%TF.FileFunction,Soldermask,Bot*%
%TF.FilePolarity,Negative*%
%FSLAX46Y46*%
G04 Gerber Fmt 4.6, Leading zero omitted, Abs format (unit mm)*
G04 Created by KiCad (PCBNEW 6.0.8) date 2022-10-28 18:19:02*
%MOMM*%
%LPD*%
G01*
G04 APERTURE LIST*
G04 Aperture macros list*
%AMRoundRect*
0 Rectangle with rounded corners*
0 $1 Rounding radius*
0 $2 $3 $4 $5 $6 $7 $8 $9 X,Y pos of 4 corners*
0 Add a 4 corners polygon primitive as box body*
4,1,4,$2,$3,$4,$5,$6,$7,$8,$9,$2,$3,0*
0 Add four circle primitives for the rounded corners*
1,1,$1+$1,$2,$3*
1,1,$1+$1,$4,$5*
1,1,$1+$1,$6,$7*
1,1,$1+$1,$8,$9*
0 Add four rect primitives between the rounded corners*
20,1,$1+$1,$2,$3,$4,$5,0*
20,1,$1+$1,$4,$5,$6,$7,0*
20,1,$1+$1,$6,$7,$8,$9,0*
20,1,$1+$1,$8,$9,$2,$3,0*%
G04 Aperture macros list end*
%ADD10C,4.400000*%
%ADD11R,1.600000X1.600000*%
%ADD12C,1.600000*%
%ADD13C,1.665000*%
%ADD14C,3.810000*%
%ADD15C,1.200000*%
%ADD16C,2.000000*%
%ADD17R,1.700000X1.700000*%
%ADD18O,1.700000X1.700000*%
%ADD19C,1.575000*%
%ADD20R,1.600000X0.700000*%
%ADD21R,1.400000X1.200000*%
%ADD22R,2.200000X1.200000*%
%ADD23R,1.400000X1.600000*%
%ADD24RoundRect,0.250000X0.600000X0.725000X-0.600000X0.725000X-0.600000X-0.725000X0.600000X-0.725000X0*%
%ADD25O,1.700000X1.950000*%
%ADD26C,5.161000*%
%ADD27C,3.000000*%
%ADD28R,1.800000X2.600000*%
%ADD29O,1.800000X2.600000*%
%ADD30C,1.500000*%
%ADD31RoundRect,0.248400X-0.651600X-0.651600X0.651600X-0.651600X0.651600X0.651600X-0.651600X0.651600X0*%
%ADD32C,1.800000*%
%ADD33C,2.200000*%
G04 APERTURE END LIST*
D10*
X150000000Y-57000000D03*
X239000000Y-57000000D03*
X239000000Y-121000000D03*
X150000000Y-121000000D03*
D11*
X194750000Y-57000000D03*
D12*
X194750000Y-62000000D03*
D11*
X219394000Y-57000000D03*
D12*
X219394000Y-62000000D03*
D13*
X209399100Y-107928200D03*
X209399100Y-110468200D03*
X209399100Y-113008200D03*
X209399100Y-115548200D03*
X209399100Y-118088200D03*
D14*
X231243100Y-107928200D03*
X231243100Y-118088200D03*
D15*
X174000000Y-62500000D03*
X169000000Y-57500000D03*
X169000000Y-55000000D03*
X179000000Y-57500000D03*
X179000000Y-55000000D03*
D16*
X174000000Y-57500000D03*
X169000000Y-62500000D03*
X171500000Y-62500000D03*
X176500000Y-62500000D03*
X179000000Y-62500000D03*
X165750000Y-62500000D03*
X163250000Y-62500000D03*
X158250000Y-62500000D03*
X155750000Y-62500000D03*
X160750000Y-57500000D03*
D15*
X165750000Y-55000000D03*
X165750000Y-57500000D03*
X160750000Y-62500000D03*
X155750000Y-55000000D03*
X155750000Y-57500000D03*
D17*
X237250000Y-105947000D03*
D18*
X239790000Y-105947000D03*
X237250000Y-108487000D03*
X239790000Y-108487000D03*
X237250000Y-111027000D03*
X239790000Y-111027000D03*
X237250000Y-113567000D03*
X239790000Y-113567000D03*
X237250000Y-116107000D03*
X239790000Y-116107000D03*
D19*
X240750000Y-80550000D03*
X240750000Y-88550000D03*
D20*
X230250000Y-87750000D03*
X230250000Y-86650000D03*
X230250000Y-85550000D03*
X230250000Y-84450000D03*
X230250000Y-83350000D03*
X230250000Y-82250000D03*
X230250000Y-81150000D03*
X230250000Y-80050000D03*
X230250000Y-78950000D03*
D21*
X230750000Y-77750000D03*
D22*
X240410000Y-77750000D03*
X240350000Y-93250000D03*
D23*
X230750000Y-92350000D03*
D24*
X209500000Y-60000000D03*
D25*
X207000000Y-60000000D03*
X204500000Y-60000000D03*
D26*
X158050000Y-112250000D03*
X169450000Y-112250000D03*
D16*
X161250000Y-104750000D03*
X166250000Y-104750000D03*
X163750000Y-104750000D03*
X161250000Y-119250000D03*
X166250000Y-119250000D03*
X183300000Y-115500000D03*
X183300000Y-109000000D03*
X178800000Y-109000000D03*
X178800000Y-115500000D03*
D27*
X157250520Y-100250700D03*
X232249100Y-69250000D03*
X232249100Y-100250700D03*
X157250000Y-69250000D03*
D28*
X226750000Y-69250000D03*
D29*
X224210000Y-69250000D03*
X221670000Y-69250000D03*
X219130000Y-69250000D03*
X216590000Y-69250000D03*
X214050000Y-69250000D03*
X201350000Y-69250000D03*
X198810000Y-69250000D03*
X196270000Y-69250000D03*
X193730000Y-69250000D03*
X191190000Y-69250000D03*
X188650000Y-69250000D03*
D30*
X210500000Y-100105000D03*
X205620000Y-100105000D03*
D31*
X192000000Y-108000000D03*
D32*
X194540000Y-108000000D03*
X197080000Y-108000000D03*
X230600000Y-56290000D03*
D33*
X233800000Y-62500000D03*
X225300000Y-62500000D03*
X230600000Y-62500000D03*
M02*
