%TF.GenerationSoftware,KiCad,Pcbnew,6.0.8*%
%TF.CreationDate,2022-10-28T18:19:00+03:00*%
%TF.ProjectId,DigiLight,44696769-4c69-4676-9874-2e6b69636164,rev?*%
%TF.SameCoordinates,Original*%
%TF.FileFunction,Copper,L1,Top*%
%TF.FilePolarity,Positive*%
%FSLAX46Y46*%
G04 Gerber Fmt 4.6, Leading zero omitted, Abs format (unit mm)*
G04 Created by KiCad (PCBNEW 6.0.8) date 2022-10-28 18:19:00*
%MOMM*%
%LPD*%
G01*
G04 APERTURE LIST*
G04 Aperture macros list*
%AMRoundRect*
0 Rectangle with rounded corners*
0 $1 Rounding radius*
0 $2 $3 $4 $5 $6 $7 $8 $9 X,Y pos of 4 corners*
0 Add a 4 corners polygon primitive as box body*
4,1,4,$2,$3,$4,$5,$6,$7,$8,$9,$2,$3,0*
0 Add four circle primitives for the rounded corners*
1,1,$1+$1,$2,$3*
1,1,$1+$1,$4,$5*
1,1,$1+$1,$6,$7*
1,1,$1+$1,$8,$9*
0 Add four rect primitives between the rounded corners*
20,1,$1+$1,$2,$3,$4,$5,0*
20,1,$1+$1,$4,$5,$6,$7,0*
20,1,$1+$1,$6,$7,$8,$9,0*
20,1,$1+$1,$8,$9,$2,$3,0*%
%AMFreePoly0*
4,1,22,0.550000,-0.750000,0.000000,-0.750000,0.000000,-0.745033,-0.079941,-0.743568,-0.215256,-0.701293,-0.333266,-0.622738,-0.424486,-0.514219,-0.481581,-0.384460,-0.499164,-0.250000,-0.500000,-0.250000,-0.500000,0.250000,-0.499164,0.250000,-0.499963,0.256109,-0.478152,0.396186,-0.417904,0.524511,-0.324060,0.630769,-0.204165,0.706417,-0.067858,0.745374,0.000000,0.744959,0.000000,0.750000,
0.550000,0.750000,0.550000,-0.750000,0.550000,-0.750000,$1*%
%AMFreePoly1*
4,1,20,0.000000,0.744959,0.073905,0.744508,0.209726,0.703889,0.328688,0.626782,0.421226,0.519385,0.479903,0.390333,0.500000,0.250000,0.500000,-0.250000,0.499851,-0.262216,0.476331,-0.402017,0.414519,-0.529596,0.319384,-0.634700,0.198574,-0.708877,0.061801,-0.746166,0.000000,-0.745033,0.000000,-0.750000,-0.550000,-0.750000,-0.550000,0.750000,0.000000,0.750000,0.000000,0.744959,
0.000000,0.744959,$1*%
G04 Aperture macros list end*
%TA.AperFunction,SMDPad,CuDef*%
%ADD10RoundRect,0.250000X-0.650000X0.325000X-0.650000X-0.325000X0.650000X-0.325000X0.650000X0.325000X0*%
%TD*%
%TA.AperFunction,SMDPad,CuDef*%
%ADD11RoundRect,0.250000X0.650000X-0.325000X0.650000X0.325000X-0.650000X0.325000X-0.650000X-0.325000X0*%
%TD*%
%TA.AperFunction,SMDPad,CuDef*%
%ADD12RoundRect,0.250001X-0.499999X-0.924999X0.499999X-0.924999X0.499999X0.924999X-0.499999X0.924999X0*%
%TD*%
%TA.AperFunction,SMDPad,CuDef*%
%ADD13RoundRect,0.250000X-0.325000X-0.650000X0.325000X-0.650000X0.325000X0.650000X-0.325000X0.650000X0*%
%TD*%
%TA.AperFunction,SMDPad,CuDef*%
%ADD14FreePoly0,90.000000*%
%TD*%
%TA.AperFunction,SMDPad,CuDef*%
%ADD15R,1.500000X1.000000*%
%TD*%
%TA.AperFunction,SMDPad,CuDef*%
%ADD16FreePoly1,90.000000*%
%TD*%
%TA.AperFunction,SMDPad,CuDef*%
%ADD17RoundRect,0.250000X-1.075000X0.375000X-1.075000X-0.375000X1.075000X-0.375000X1.075000X0.375000X0*%
%TD*%
%TA.AperFunction,SMDPad,CuDef*%
%ADD18RoundRect,0.150000X0.587500X0.150000X-0.587500X0.150000X-0.587500X-0.150000X0.587500X-0.150000X0*%
%TD*%
%TA.AperFunction,SMDPad,CuDef*%
%ADD19RoundRect,0.150000X0.150000X-0.587500X0.150000X0.587500X-0.150000X0.587500X-0.150000X-0.587500X0*%
%TD*%
%TA.AperFunction,SMDPad,CuDef*%
%ADD20RoundRect,0.250000X0.625000X-0.312500X0.625000X0.312500X-0.625000X0.312500X-0.625000X-0.312500X0*%
%TD*%
%TA.AperFunction,SMDPad,CuDef*%
%ADD21RoundRect,0.250000X-0.625000X0.312500X-0.625000X-0.312500X0.625000X-0.312500X0.625000X0.312500X0*%
%TD*%
%TA.AperFunction,SMDPad,CuDef*%
%ADD22RoundRect,0.150000X-0.825000X-0.150000X0.825000X-0.150000X0.825000X0.150000X-0.825000X0.150000X0*%
%TD*%
%TA.AperFunction,SMDPad,CuDef*%
%ADD23R,2.000000X1.500000*%
%TD*%
%TA.AperFunction,SMDPad,CuDef*%
%ADD24R,2.000000X3.800000*%
%TD*%
%TA.AperFunction,SMDPad,CuDef*%
%ADD25R,0.550000X1.500000*%
%TD*%
%TA.AperFunction,SMDPad,CuDef*%
%ADD26R,1.500000X0.550000*%
%TD*%
%TA.AperFunction,ComponentPad*%
%ADD27C,4.400000*%
%TD*%
%TA.AperFunction,SMDPad,CuDef*%
%ADD28R,0.450000X0.600000*%
%TD*%
%TA.AperFunction,SMDPad,CuDef*%
%ADD29R,0.600000X0.450000*%
%TD*%
%TA.AperFunction,ComponentPad*%
%ADD30R,1.600000X1.600000*%
%TD*%
%TA.AperFunction,ComponentPad*%
%ADD31C,1.600000*%
%TD*%
%TA.AperFunction,ComponentPad*%
%ADD32C,1.665000*%
%TD*%
%TA.AperFunction,ComponentPad*%
%ADD33C,3.810000*%
%TD*%
%TA.AperFunction,ComponentPad*%
%ADD34C,2.000000*%
%TD*%
%TA.AperFunction,ComponentPad*%
%ADD35R,1.700000X1.700000*%
%TD*%
%TA.AperFunction,ComponentPad*%
%ADD36O,1.700000X1.700000*%
%TD*%
%TA.AperFunction,WasherPad*%
%ADD37C,1.575000*%
%TD*%
%TA.AperFunction,ComponentPad*%
%ADD38RoundRect,0.250000X0.600000X0.725000X-0.600000X0.725000X-0.600000X-0.725000X0.600000X-0.725000X0*%
%TD*%
%TA.AperFunction,ComponentPad*%
%ADD39O,1.700000X1.950000*%
%TD*%
%TA.AperFunction,ComponentPad*%
%ADD40C,5.161000*%
%TD*%
%TA.AperFunction,ComponentPad*%
%ADD41C,3.000000*%
%TD*%
%TA.AperFunction,ComponentPad*%
%ADD42R,1.800000X2.600000*%
%TD*%
%TA.AperFunction,ComponentPad*%
%ADD43O,1.800000X2.600000*%
%TD*%
%TA.AperFunction,ComponentPad*%
%ADD44C,1.500000*%
%TD*%
%TA.AperFunction,ComponentPad*%
%ADD45RoundRect,0.248400X-0.651600X-0.651600X0.651600X-0.651600X0.651600X0.651600X-0.651600X0.651600X0*%
%TD*%
%TA.AperFunction,ComponentPad*%
%ADD46C,1.800000*%
%TD*%
%TA.AperFunction,ComponentPad*%
%ADD47C,2.200000*%
%TD*%
%TA.AperFunction,ViaPad*%
%ADD48C,0.800000*%
%TD*%
%TA.AperFunction,Conductor*%
%ADD49C,0.500000*%
%TD*%
%TA.AperFunction,Conductor*%
%ADD50C,1.000000*%
%TD*%
%TA.AperFunction,Conductor*%
%ADD51C,1.500000*%
%TD*%
%TA.AperFunction,Conductor*%
%ADD52C,0.400000*%
%TD*%
%TA.AperFunction,Conductor*%
%ADD53C,0.250000*%
%TD*%
G04 APERTURE END LIST*
D10*
X224250000Y-73025000D03*
X224250000Y-75975000D03*
X191250000Y-84525000D03*
X191250000Y-87475000D03*
X222250000Y-57775000D03*
X222250000Y-60725000D03*
D11*
X183000000Y-99475000D03*
X183000000Y-96525000D03*
D10*
X174000000Y-78525000D03*
X174000000Y-81475000D03*
D11*
X186000000Y-81475000D03*
X186000000Y-78525000D03*
D12*
X173375000Y-98000000D03*
X176625000Y-98000000D03*
D11*
X180000000Y-81475000D03*
X180000000Y-78525000D03*
D10*
X191500000Y-57775000D03*
X191500000Y-60725000D03*
X177000000Y-90525000D03*
X177000000Y-93475000D03*
D13*
X182275000Y-64000000D03*
X185225000Y-64000000D03*
D10*
X206250000Y-102525000D03*
X206250000Y-105475000D03*
X186000000Y-84525000D03*
X186000000Y-87475000D03*
X194250000Y-102525000D03*
X194250000Y-105475000D03*
X186000000Y-90525000D03*
X186000000Y-93475000D03*
D11*
X191250000Y-81475000D03*
X191250000Y-78525000D03*
X212282000Y-112517700D03*
X212282000Y-109567700D03*
D14*
X212256600Y-107132700D03*
D15*
X212256600Y-105832700D03*
D16*
X212256600Y-104532700D03*
D17*
X182250000Y-73100000D03*
X182250000Y-75900000D03*
D18*
X180687500Y-98950000D03*
X180687500Y-97050000D03*
X178812500Y-98000000D03*
D19*
X214634000Y-65228500D03*
X216534000Y-65228500D03*
X215584000Y-63353500D03*
D18*
X213687500Y-60950000D03*
X213687500Y-59050000D03*
X211812500Y-60000000D03*
D20*
X159000000Y-75962500D03*
X159000000Y-73037500D03*
X186000000Y-99462500D03*
X186000000Y-96537500D03*
X159000000Y-81462500D03*
X159000000Y-78537500D03*
D21*
X216250000Y-57787500D03*
X216250000Y-60712500D03*
D20*
X212155000Y-66388500D03*
X212155000Y-63463500D03*
X183000000Y-81462500D03*
X183000000Y-78537500D03*
D21*
X168000000Y-78537500D03*
X168000000Y-81462500D03*
X177000000Y-78537500D03*
X177000000Y-81462500D03*
D20*
X180000000Y-93462500D03*
X180000000Y-90537500D03*
D21*
X183000000Y-90537500D03*
X183000000Y-93462500D03*
D20*
X197250000Y-105462500D03*
X197250000Y-102537500D03*
X221250000Y-87462500D03*
X221250000Y-84537500D03*
D21*
X200250000Y-107787500D03*
X200250000Y-110712500D03*
D22*
X164275000Y-84690000D03*
X164275000Y-85960000D03*
X164275000Y-87230000D03*
X164275000Y-88500000D03*
X164275000Y-89770000D03*
X164275000Y-91040000D03*
X164275000Y-92310000D03*
X169225000Y-92310000D03*
X169225000Y-91040000D03*
X169225000Y-89770000D03*
X169225000Y-88500000D03*
X169225000Y-87230000D03*
X169225000Y-85960000D03*
X169225000Y-84690000D03*
D23*
X188650000Y-61550000D03*
X188650000Y-59250000D03*
D24*
X182350000Y-59250000D03*
D23*
X188650000Y-56950000D03*
D25*
X198250000Y-96950000D03*
X199050000Y-96950000D03*
X199850000Y-96950000D03*
X200650000Y-96950000D03*
X201450000Y-96950000D03*
X202250000Y-96950000D03*
X203050000Y-96950000D03*
X203850000Y-96950000D03*
X204650000Y-96950000D03*
X205450000Y-96950000D03*
X206250000Y-96950000D03*
D26*
X207950000Y-95250000D03*
X207950000Y-94450000D03*
X207950000Y-93650000D03*
X207950000Y-92850000D03*
X207950000Y-92050000D03*
X207950000Y-91250000D03*
X207950000Y-90450000D03*
X207950000Y-89650000D03*
X207950000Y-88850000D03*
X207950000Y-88050000D03*
X207950000Y-87250000D03*
D25*
X206250000Y-85550000D03*
X205450000Y-85550000D03*
X204650000Y-85550000D03*
X203850000Y-85550000D03*
X203050000Y-85550000D03*
X202250000Y-85550000D03*
X201450000Y-85550000D03*
X200650000Y-85550000D03*
X199850000Y-85550000D03*
X199050000Y-85550000D03*
X198250000Y-85550000D03*
D26*
X196550000Y-87250000D03*
X196550000Y-88050000D03*
X196550000Y-88850000D03*
X196550000Y-89650000D03*
X196550000Y-90450000D03*
X196550000Y-91250000D03*
X196550000Y-92050000D03*
X196550000Y-92850000D03*
X196550000Y-93650000D03*
X196550000Y-94450000D03*
X196550000Y-95250000D03*
D27*
X150000000Y-57000000D03*
X239000000Y-57000000D03*
X239000000Y-121000000D03*
X150000000Y-121000000D03*
D11*
X203250000Y-110725000D03*
X203250000Y-107775000D03*
D21*
X174000000Y-73037500D03*
X174000000Y-75962500D03*
D20*
X162000000Y-75962500D03*
X162000000Y-73037500D03*
D11*
X165000000Y-81475000D03*
X165000000Y-78525000D03*
X162000000Y-81475000D03*
X162000000Y-78525000D03*
D21*
X171000000Y-73037500D03*
X171000000Y-75962500D03*
D20*
X168000000Y-75962500D03*
X168000000Y-73037500D03*
X165000000Y-75962500D03*
X165000000Y-73037500D03*
D22*
X177775000Y-84095000D03*
X177775000Y-85365000D03*
X177775000Y-86635000D03*
X177775000Y-87905000D03*
X182725000Y-87905000D03*
X182725000Y-86635000D03*
X182725000Y-85365000D03*
X182725000Y-84095000D03*
D21*
X174000000Y-90537500D03*
X174000000Y-93462500D03*
D28*
X172250000Y-85800000D03*
X172250000Y-83700000D03*
D29*
X167300000Y-94750000D03*
X165200000Y-94750000D03*
D21*
X171000000Y-78537500D03*
X171000000Y-81462500D03*
D11*
X213500000Y-93475000D03*
X213500000Y-90525000D03*
D10*
X200250000Y-102525000D03*
X200250000Y-105475000D03*
X191250000Y-90525000D03*
X191250000Y-93475000D03*
X191250000Y-73025000D03*
X191250000Y-75975000D03*
D21*
X203011000Y-63463500D03*
X203011000Y-66388500D03*
D10*
X206948000Y-69674000D03*
X206948000Y-72624000D03*
D19*
X205109000Y-66752500D03*
X207009000Y-66752500D03*
X206059000Y-64877500D03*
D21*
X209869000Y-69686500D03*
X209869000Y-72611500D03*
D20*
X209107000Y-66388500D03*
X209107000Y-63463500D03*
X221250000Y-75962500D03*
X221250000Y-73037500D03*
D10*
X203250000Y-102525000D03*
X203250000Y-105475000D03*
D11*
X212282000Y-117914000D03*
X212282000Y-114964000D03*
D20*
X206249500Y-116109000D03*
X206249500Y-113184000D03*
X203265000Y-116109000D03*
X203265000Y-113184000D03*
D28*
X212536000Y-76771000D03*
X212536000Y-74671000D03*
X209869000Y-76771000D03*
X209869000Y-74671000D03*
D21*
X204027000Y-69686500D03*
X204027000Y-72611500D03*
D30*
X194750000Y-57000000D03*
D31*
X194750000Y-62000000D03*
D30*
X219394000Y-57000000D03*
D31*
X219394000Y-62000000D03*
D32*
X209399100Y-107928200D03*
X209399100Y-110468200D03*
X209399100Y-113008200D03*
X209399100Y-115548200D03*
X209399100Y-118088200D03*
D33*
X231243100Y-107928200D03*
X231243100Y-118088200D03*
D34*
X174000000Y-57500000D03*
X169000000Y-62500000D03*
X171500000Y-62500000D03*
X176500000Y-62500000D03*
X179000000Y-62500000D03*
X165750000Y-62500000D03*
X163250000Y-62500000D03*
X158250000Y-62500000D03*
X155750000Y-62500000D03*
X160750000Y-57500000D03*
D35*
X237250000Y-105947000D03*
D36*
X239790000Y-105947000D03*
X237250000Y-108487000D03*
X239790000Y-108487000D03*
X237250000Y-111027000D03*
X239790000Y-111027000D03*
X237250000Y-113567000D03*
X239790000Y-113567000D03*
X237250000Y-116107000D03*
X239790000Y-116107000D03*
D37*
X240750000Y-80550000D03*
X240750000Y-88550000D03*
D38*
X209500000Y-60000000D03*
D39*
X207000000Y-60000000D03*
X204500000Y-60000000D03*
D40*
X158050000Y-112250000D03*
X169450000Y-112250000D03*
D34*
X161250000Y-104750000D03*
X166250000Y-104750000D03*
X163750000Y-104750000D03*
X161250000Y-119250000D03*
X166250000Y-119250000D03*
X183300000Y-115500000D03*
X183300000Y-109000000D03*
X178800000Y-109000000D03*
X178800000Y-115500000D03*
D41*
X157250520Y-100250700D03*
X232249100Y-69250000D03*
X232249100Y-100250700D03*
X157250000Y-69250000D03*
D42*
X226750000Y-69250000D03*
D43*
X224210000Y-69250000D03*
X221670000Y-69250000D03*
X219130000Y-69250000D03*
X216590000Y-69250000D03*
X214050000Y-69250000D03*
X201350000Y-69250000D03*
X198810000Y-69250000D03*
X196270000Y-69250000D03*
X193730000Y-69250000D03*
X191190000Y-69250000D03*
X188650000Y-69250000D03*
D44*
X210500000Y-100105000D03*
X205620000Y-100105000D03*
D45*
X192000000Y-108000000D03*
D46*
X194540000Y-108000000D03*
X197080000Y-108000000D03*
D47*
X233800000Y-62500000D03*
X225300000Y-62500000D03*
X230600000Y-62500000D03*
D48*
X201750000Y-105250000D03*
X220250000Y-122000000D03*
X222750000Y-122000000D03*
X225250000Y-122000000D03*
X189803000Y-87532000D03*
X211881742Y-90400500D03*
X201499998Y-80000000D03*
X192851000Y-105439000D03*
X192343000Y-92612000D03*
X221250000Y-88750000D03*
X189295000Y-108106000D03*
X172500000Y-81250000D03*
X179135000Y-87913000D03*
X191250000Y-77250000D03*
X164276000Y-92993000D03*
X184500000Y-78500000D03*
X178373000Y-94771000D03*
X192000000Y-102499998D03*
X219000010Y-99000000D03*
X160212000Y-83214000D03*
X194000001Y-75499999D03*
X174750000Y-83250000D03*
X184600000Y-75500000D03*
X184000000Y-102050010D03*
X188025000Y-108106000D03*
X209399100Y-105832700D03*
X214060000Y-102264000D03*
X215750000Y-94000000D03*
X197042000Y-99470000D03*
X221250000Y-83250004D03*
X217750000Y-94000000D03*
X197750000Y-100464767D03*
X219250000Y-72250000D03*
X196153000Y-98327000D03*
X219750000Y-94000000D03*
X212536000Y-72673000D03*
X195500000Y-97250000D03*
X204500000Y-79999994D03*
X212409000Y-80039000D03*
X197500000Y-81499994D03*
X210631000Y-81563000D03*
X171515000Y-99216000D03*
X194756000Y-87151000D03*
X161736000Y-83250000D03*
X170660432Y-83261808D03*
X165038000Y-97004436D03*
X194750000Y-82579000D03*
X167750000Y-98250000D03*
X194750000Y-83750000D03*
X211317384Y-92559637D03*
X187750000Y-96500000D03*
X169229000Y-92993000D03*
X189295000Y-106709000D03*
D49*
X212155000Y-66474000D02*
X212155000Y-70514000D01*
X212155000Y-70514000D02*
X214695000Y-73054000D01*
X214695000Y-73054000D02*
X214695000Y-77753000D01*
X214695000Y-77753000D02*
X212409000Y-80039000D01*
X207950000Y-89650000D02*
X209910000Y-89650000D01*
X209910000Y-89650000D02*
X218124000Y-81436000D01*
X218124000Y-81436000D02*
X218124000Y-71126000D01*
X219130000Y-70120000D02*
X219130000Y-69250000D01*
X218124000Y-71126000D02*
X219130000Y-70120000D01*
X207950000Y-88050000D02*
X208970000Y-88050000D01*
X208970000Y-88050000D02*
X215838000Y-81182000D01*
X215838000Y-81182000D02*
X215838000Y-71438000D01*
X215838000Y-71438000D02*
X214050000Y-69650000D01*
X214050000Y-69650000D02*
X214050000Y-69250000D01*
D50*
X185150000Y-64000000D02*
X187250000Y-64000000D01*
D49*
X191600000Y-93400000D02*
X192999996Y-92000004D01*
X201900000Y-105400000D02*
X201750000Y-105250000D01*
X203250000Y-105400000D02*
X206250000Y-105400000D01*
X189860000Y-87475000D02*
X191250000Y-87475000D01*
X202250000Y-85550000D02*
X202250000Y-81750000D01*
X203250000Y-105400000D02*
X201900000Y-105400000D01*
X201750000Y-103439946D02*
X201750000Y-105250000D01*
X192999996Y-92000004D02*
X193000000Y-92000004D01*
X216727000Y-65228500D02*
X217664500Y-64291000D01*
X194540000Y-105690000D02*
X194250000Y-105400000D01*
X203250000Y-107850000D02*
X203250000Y-105400000D01*
X201499998Y-80999998D02*
X201499998Y-80000000D01*
X202250000Y-101180017D02*
X201750000Y-101680017D01*
D50*
X188650000Y-61550000D02*
X190600000Y-61550000D01*
D49*
X201750000Y-101680017D02*
X201750000Y-103439946D01*
X217664500Y-64291000D02*
X218378000Y-64291000D01*
X193750004Y-91250000D02*
X196550000Y-91250000D01*
D50*
X188650000Y-64100000D02*
X188750000Y-64000000D01*
D49*
X194540000Y-108000000D02*
X194540000Y-105690000D01*
X213350000Y-90450000D02*
X207950000Y-90450000D01*
X202250000Y-96950000D02*
X202250000Y-101180017D01*
X202250000Y-81750000D02*
X201499998Y-80999998D01*
X200250000Y-105400000D02*
X201600000Y-105400000D01*
X216534000Y-65228500D02*
X216727000Y-65228500D01*
X201600000Y-105400000D02*
X201750000Y-105250000D01*
D50*
X188650000Y-69250000D02*
X188650000Y-64100000D01*
X190600000Y-61550000D02*
X191500000Y-60650000D01*
D49*
X189803000Y-87532000D02*
X189860000Y-87475000D01*
X193000000Y-92000004D02*
X193750004Y-91250000D01*
X194250000Y-105400000D02*
X192851000Y-105439000D01*
X165000000Y-75900000D02*
X167500000Y-75900000D01*
X165000000Y-75800000D02*
X165000000Y-78500000D01*
X212725000Y-92000000D02*
X215500000Y-92000000D01*
X206700000Y-91250000D02*
X207950000Y-91250000D01*
X197250000Y-105400000D02*
X197800000Y-105400000D01*
X196500000Y-85500000D02*
X198450000Y-87450000D01*
D50*
X188650000Y-59250000D02*
X182350000Y-59250000D01*
D49*
X201450000Y-91300000D02*
X201500000Y-91250000D01*
X197450000Y-105400000D02*
X200250000Y-102600000D01*
X198450000Y-90450000D02*
X199250000Y-91250000D01*
X218000000Y-92000000D02*
X221250000Y-88750000D01*
D50*
X191250000Y-84600000D02*
X192850000Y-84600000D01*
D49*
X201450000Y-96950000D02*
X201450000Y-91300000D01*
X201450000Y-96950000D02*
X201450000Y-100300000D01*
X200250000Y-101500000D02*
X200250000Y-102600000D01*
D50*
X189000000Y-83225000D02*
X189000000Y-75000000D01*
D49*
X207950000Y-91250000D02*
X211975000Y-91250000D01*
X191325000Y-90450000D02*
X196550000Y-90450000D01*
D50*
X191250000Y-84600000D02*
X190375000Y-84600000D01*
X190375000Y-84600000D02*
X189000000Y-83225000D01*
X182350000Y-73000000D02*
X182250000Y-73100000D01*
X187100000Y-73100000D02*
X182250000Y-73100000D01*
X192850000Y-84600000D02*
X193750000Y-85500000D01*
D49*
X197250000Y-105400000D02*
X197450000Y-105400000D01*
X213500000Y-92000000D02*
X215500000Y-92000000D01*
D50*
X182350000Y-64000000D02*
X182350000Y-73000000D01*
D49*
X221250000Y-88750000D02*
X221250000Y-87150000D01*
X213500000Y-93400000D02*
X213500000Y-92000000D01*
X211975000Y-91250000D02*
X212725000Y-92000000D01*
X215500000Y-92000000D02*
X218000000Y-92000000D01*
D50*
X189000000Y-75000000D02*
X187100000Y-73100000D01*
X193750000Y-85500000D02*
X196500000Y-85500000D01*
D49*
X197800000Y-105400000D02*
X200250000Y-107850000D01*
X201500000Y-91250000D02*
X206700000Y-91250000D01*
X199250000Y-91250000D02*
X201500000Y-91250000D01*
X221250000Y-87400000D02*
X221250000Y-88750000D01*
X191250000Y-90525000D02*
X191325000Y-90450000D01*
X198450000Y-87450000D02*
X198450000Y-90450000D01*
X201450000Y-100300000D02*
X200250000Y-101500000D01*
X196550000Y-90450000D02*
X198450000Y-90450000D01*
D50*
X182350000Y-59250000D02*
X182350000Y-64000000D01*
D49*
X174000000Y-81400000D02*
X172650000Y-81400000D01*
X179135000Y-87913000D02*
X177783000Y-87913000D01*
X212256600Y-107196200D02*
X212320100Y-107132700D01*
X178373000Y-94771000D02*
X177002000Y-93400000D01*
X180750000Y-97050000D02*
X181200000Y-96600000D01*
X212256600Y-109642700D02*
X212256600Y-108055200D01*
X204219500Y-113184000D02*
X203265000Y-113184000D01*
X178373000Y-94771000D02*
X178394000Y-94750000D01*
X189295000Y-108106000D02*
X189422000Y-108106000D01*
X159000000Y-78600000D02*
X156750000Y-78600000D01*
X212256600Y-108055200D02*
X212256600Y-107196200D01*
X194500000Y-113184000D02*
X203265000Y-113184000D01*
X164276000Y-92311000D02*
X164275000Y-92310000D01*
X209399100Y-107928200D02*
X209399100Y-108004400D01*
X172350000Y-81400000D02*
X172500000Y-81250000D01*
X171000000Y-81400000D02*
X172350000Y-81400000D01*
X189422000Y-108106000D02*
X194500000Y-113184000D01*
X183000000Y-96600000D02*
X183000000Y-94750000D01*
X212320100Y-109579200D02*
X212256600Y-109642700D01*
X177783000Y-87913000D02*
X177775000Y-87905000D01*
X186000000Y-78600000D02*
X184600000Y-78600000D01*
X212129600Y-107928200D02*
X212256600Y-108055200D01*
D50*
X191250000Y-77250000D02*
X191250000Y-75900000D01*
D49*
X184600000Y-78600000D02*
X184500000Y-78500000D01*
X183000000Y-94750000D02*
X185250000Y-94750000D01*
X184400000Y-78600000D02*
X184500000Y-78500000D01*
X168200000Y-78600000D02*
X171000000Y-81400000D01*
X185250000Y-94750000D02*
X186000000Y-94000000D01*
D50*
X191250000Y-78600000D02*
X191250000Y-77250000D01*
D49*
X177002000Y-93400000D02*
X177000000Y-93400000D01*
X186000000Y-94000000D02*
X186000000Y-93400000D01*
X178394000Y-94750000D02*
X183000000Y-94750000D01*
X209399100Y-108004400D02*
X204219500Y-113184000D01*
X183000000Y-78600000D02*
X184400000Y-78600000D01*
X181200000Y-96600000D02*
X183000000Y-96600000D01*
X164276000Y-92993000D02*
X164276000Y-92311000D01*
X172650000Y-81400000D02*
X172500000Y-81250000D01*
X209399100Y-107928200D02*
X212129600Y-107928200D01*
X168000000Y-78600000D02*
X168200000Y-78600000D01*
X192100002Y-102600000D02*
X197400000Y-102600000D01*
X197400000Y-102600000D02*
X200650000Y-99350000D01*
X236031000Y-111027000D02*
X237250000Y-111027000D01*
X192000000Y-102499998D02*
X192100002Y-102600000D01*
X200650000Y-99350000D02*
X200650000Y-98200000D01*
X234507000Y-112551000D02*
X236031000Y-111027000D01*
X200650000Y-98200000D02*
X200650000Y-96950000D01*
X224551000Y-112551000D02*
X234507000Y-112551000D01*
X219000010Y-107000010D02*
X224551000Y-112551000D01*
X219000010Y-99000000D02*
X219000010Y-107000010D01*
X206249500Y-113186000D02*
X206249500Y-113184000D01*
X194248000Y-114456000D02*
X204979500Y-114456000D01*
X188025000Y-108233000D02*
X194248000Y-114456000D01*
X208965300Y-110468200D02*
X206249500Y-113184000D01*
X213844100Y-111801700D02*
X213203100Y-112442700D01*
X212256600Y-104532700D02*
X213009400Y-104532700D01*
X186875000Y-81400000D02*
X186000000Y-81400000D01*
X174000000Y-78600000D02*
X175350000Y-78600000D01*
X213844100Y-105367400D02*
X213844100Y-111801700D01*
X186200000Y-76000000D02*
X187500000Y-77300000D01*
X164403000Y-100613000D02*
X182562990Y-100613000D01*
X188025000Y-108106000D02*
X188025000Y-108233000D01*
X197015002Y-78515000D02*
X194000001Y-75499999D01*
X202015000Y-78515000D02*
X197015002Y-78515000D01*
X187500000Y-77300000D02*
X187500000Y-80775000D01*
X182250000Y-75900000D02*
X182350000Y-76000000D01*
X211373600Y-112442700D02*
X212256600Y-112442700D01*
X213009400Y-104532700D02*
X213844100Y-105367400D01*
X182725000Y-84095000D02*
X183305000Y-84095000D01*
X209399100Y-110468200D02*
X208965300Y-110468200D01*
X175500000Y-76000000D02*
X182150000Y-76000000D01*
X182562990Y-100613000D02*
X184000000Y-102050010D01*
X213203100Y-112442700D02*
X212256600Y-112442700D01*
X182350000Y-76000000D02*
X184600000Y-76000000D01*
X191250000Y-73100000D02*
X191600000Y-73100000D01*
X182150000Y-76000000D02*
X182250000Y-75900000D01*
X204979500Y-114456000D02*
X206249500Y-113186000D01*
X174350000Y-73100000D02*
X174000000Y-73100000D01*
X209399100Y-110468200D02*
X208827600Y-110468200D01*
X184600000Y-76000000D02*
X186200000Y-76000000D01*
X187500000Y-80775000D02*
X186875000Y-81400000D01*
X203050000Y-85550000D02*
X203050000Y-79550000D01*
X183305000Y-84095000D02*
X186000000Y-81400000D01*
X191600000Y-73100000D02*
X193999999Y-75499999D01*
X169345000Y-84690000D02*
X173310000Y-84690000D01*
X184600000Y-76000000D02*
X184600000Y-75500000D01*
X175500000Y-74250000D02*
X174350000Y-73100000D01*
X174750000Y-83250000D02*
X175500000Y-82500000D01*
X160212000Y-83214000D02*
X159831000Y-83595000D01*
X173310000Y-84690000D02*
X174750000Y-83250000D01*
X171000000Y-73100000D02*
X174000000Y-73100000D01*
X193999999Y-75499999D02*
X194000001Y-75499999D01*
X159831000Y-96041000D02*
X164403000Y-100613000D01*
X175500000Y-82500000D02*
X175500000Y-74250000D01*
X209399100Y-110468200D02*
X211373600Y-112442700D01*
X203050000Y-79550000D02*
X202015000Y-78515000D01*
X159831000Y-83595000D02*
X159831000Y-96041000D01*
X186775000Y-86000000D02*
X186000000Y-85225000D01*
X193000000Y-86750000D02*
X192250000Y-86000000D01*
X182725000Y-86635000D02*
X182725000Y-85365000D01*
X193799996Y-89650000D02*
X193000000Y-88850004D01*
X182725000Y-85365000D02*
X185235000Y-85365000D01*
X196550000Y-89650000D02*
X193799996Y-89650000D01*
X186000000Y-85225000D02*
X186000000Y-84600000D01*
X192250000Y-86000000D02*
X186775000Y-86000000D01*
X193000000Y-88850004D02*
X193000000Y-86750000D01*
X185235000Y-85365000D02*
X186000000Y-84600000D01*
X209462600Y-105832700D02*
X212320100Y-105832700D01*
X207950000Y-93650000D02*
X208985002Y-93650000D01*
X214060000Y-98724998D02*
X214060000Y-102264000D01*
X208985002Y-93650000D02*
X214060000Y-98724998D01*
X179000000Y-63250000D02*
X177000000Y-65250000D01*
X179000000Y-62500000D02*
X179000000Y-63250000D01*
X170250000Y-65250000D02*
X168000000Y-67500000D01*
X177000000Y-65250000D02*
X170250000Y-65250000D01*
X168000000Y-67500000D02*
X168000000Y-73100000D01*
X165150000Y-73100000D02*
X165000000Y-73100000D01*
X166250000Y-72000000D02*
X165150000Y-73100000D01*
X169000000Y-62500000D02*
X169000000Y-64000000D01*
X169000000Y-64000000D02*
X166250000Y-66750000D01*
X166250000Y-66750000D02*
X166250000Y-72000000D01*
X162000000Y-67000000D02*
X162000000Y-73100000D01*
X165750000Y-63250000D02*
X162000000Y-67000000D01*
X165750000Y-62500000D02*
X165750000Y-63250000D01*
X160250000Y-67250000D02*
X160250000Y-72000000D01*
X159150000Y-73100000D02*
X159000000Y-73100000D01*
X160250000Y-72000000D02*
X159150000Y-73100000D01*
X155750000Y-62500000D02*
X155750000Y-62750000D01*
X155750000Y-62750000D02*
X160250000Y-67250000D01*
X197042000Y-99470000D02*
X197512000Y-99000000D01*
X234507000Y-114583000D02*
X223083000Y-114583000D01*
X223083000Y-114583000D02*
X216549999Y-108049999D01*
X216549999Y-94799999D02*
X215750000Y-94000000D01*
X237250000Y-116107000D02*
X236031000Y-116107000D01*
X236031000Y-116107000D02*
X234507000Y-114583000D01*
X198000000Y-99000000D02*
X199050000Y-97950000D01*
X197512000Y-99000000D02*
X198000000Y-99000000D01*
X221250000Y-84600000D02*
X221250000Y-83250004D01*
X199050000Y-97950000D02*
X199050000Y-96950000D01*
X216549999Y-108049999D02*
X216549999Y-94799999D01*
X199850000Y-96950000D02*
X199850000Y-98364767D01*
X223817000Y-113567000D02*
X217750000Y-107500000D01*
X199850000Y-98364767D02*
X197750000Y-100464767D01*
X217750000Y-107500000D02*
X217750000Y-94000000D01*
X237250000Y-113567000D02*
X223817000Y-113567000D01*
X196153000Y-98327000D02*
X197530000Y-96950000D01*
X220300000Y-106328000D02*
X220300000Y-94550000D01*
X219250000Y-77750000D02*
X223000000Y-81500000D01*
X225535000Y-111535000D02*
X220328000Y-106328000D01*
X235142000Y-107358000D02*
X235142000Y-110011000D01*
X213679000Y-75848000D02*
X212756000Y-76771000D01*
X220328000Y-106328000D02*
X220300000Y-106328000D01*
X237250000Y-105947000D02*
X236553000Y-105947000D01*
X219250000Y-72250000D02*
X219250000Y-77750000D01*
X223000000Y-81500000D02*
X223000000Y-90750000D01*
X223000000Y-90750000D02*
X219750000Y-94000000D01*
X233618000Y-111535000D02*
X225535000Y-111535000D01*
X212756000Y-76771000D02*
X212536000Y-76771000D01*
X235142000Y-110011000D02*
X233618000Y-111535000D01*
X197530000Y-96950000D02*
X198250000Y-96950000D01*
X212536000Y-72673000D02*
X213679000Y-73816000D01*
X213679000Y-73816000D02*
X213679000Y-75848000D01*
X220300000Y-94550000D02*
X219750000Y-94000000D01*
X236553000Y-105947000D02*
X235142000Y-107358000D01*
X196550000Y-95250000D02*
X196550000Y-96200000D01*
X196299999Y-96450001D02*
X195500000Y-97250000D01*
X196550000Y-96200000D02*
X196299999Y-96450001D01*
X201487000Y-64291000D02*
X201995000Y-64799000D01*
X201487000Y-62767000D02*
X201487000Y-64291000D01*
X207533500Y-64815000D02*
X206059000Y-64815000D01*
X205789000Y-64799000D02*
X206059000Y-65069000D01*
X201995000Y-62259000D02*
X201487000Y-62767000D01*
X206216000Y-62259000D02*
X201995000Y-62259000D01*
X201995000Y-64799000D02*
X205789000Y-64799000D01*
X209107000Y-66388500D02*
X207533500Y-64815000D01*
X207000000Y-60000000D02*
X207000000Y-61475000D01*
X207000000Y-61475000D02*
X206216000Y-62259000D01*
X206808500Y-72611500D02*
X204027000Y-72611500D01*
D51*
X209500000Y-60000000D02*
X211750000Y-60000000D01*
D49*
X202376000Y-63526000D02*
X209044500Y-63526000D01*
X209107000Y-63463500D02*
X210631000Y-64987500D01*
X209107000Y-63463500D02*
X209500000Y-63070500D01*
X209500000Y-63070500D02*
X209500000Y-60000000D01*
X210631000Y-64987500D02*
X210631000Y-67847000D01*
X209742000Y-72611500D02*
X209729500Y-72624000D01*
X211266000Y-71657000D02*
X210311500Y-72611500D01*
X206821000Y-72624000D02*
X206808500Y-72611500D01*
X211266000Y-68482000D02*
X211266000Y-71657000D01*
X210631000Y-67847000D02*
X211266000Y-68482000D01*
X210311500Y-72611500D02*
X209742000Y-72611500D01*
X209729500Y-72624000D02*
X206821000Y-72624000D01*
X191190000Y-68850000D02*
X191190000Y-69250000D01*
X202376000Y-66326000D02*
X201452000Y-67250000D01*
X192790000Y-67250000D02*
X191190000Y-68850000D01*
X201452000Y-67250000D02*
X192790000Y-67250000D01*
X204650000Y-83600000D02*
X205932000Y-82318000D01*
X204789000Y-77626000D02*
X198820000Y-77626000D01*
X204650000Y-85550000D02*
X204650000Y-83600000D01*
X198820000Y-77626000D02*
X193730000Y-72536000D01*
X193730000Y-72536000D02*
X193730000Y-69250000D01*
X205932000Y-82318000D02*
X205932000Y-78769000D01*
X205932000Y-78769000D02*
X204789000Y-77626000D01*
X207075000Y-78515000D02*
X205297000Y-76737000D01*
X205297000Y-76737000D02*
X200090000Y-76737000D01*
X205450000Y-84300000D02*
X207075000Y-82675000D01*
X196270000Y-72917000D02*
X196270000Y-69250000D01*
X200090000Y-76737000D02*
X196270000Y-72917000D01*
X205450000Y-85550000D02*
X205450000Y-84300000D01*
X207075000Y-82675000D02*
X207075000Y-78515000D01*
X208218000Y-78261000D02*
X208218000Y-83582000D01*
X198810000Y-73425000D02*
X201233000Y-75848000D01*
X208218000Y-83582000D02*
X206250000Y-85550000D01*
X201233000Y-75848000D02*
X205805000Y-75848000D01*
X205805000Y-75848000D02*
X208218000Y-78261000D01*
X198810000Y-69250000D02*
X198810000Y-73425000D01*
X202376000Y-74959000D02*
X206440000Y-74959000D01*
X207950000Y-86475000D02*
X207950000Y-87250000D01*
X209234000Y-77753000D02*
X209234000Y-85191000D01*
X201350000Y-73933000D02*
X202376000Y-74959000D01*
X201350000Y-69250000D02*
X201350000Y-73933000D01*
X206440000Y-74959000D02*
X209234000Y-77753000D01*
X209234000Y-85191000D02*
X207950000Y-86475000D01*
X207950000Y-88850000D02*
X209440000Y-88850000D01*
X209440000Y-88850000D02*
X216981000Y-81309000D01*
X216981000Y-81309000D02*
X216981000Y-69641000D01*
X216981000Y-69641000D02*
X216590000Y-69250000D01*
X221670000Y-72680000D02*
X221250000Y-73100000D01*
X221670000Y-69250000D02*
X221670000Y-72680000D01*
X212869000Y-63463500D02*
X214634000Y-65228500D01*
X212155000Y-63463500D02*
X212869000Y-63463500D01*
X204535000Y-80034994D02*
X204500000Y-79999994D01*
X203850000Y-85550000D02*
X203850000Y-82883000D01*
X204535000Y-82198000D02*
X204535000Y-80034994D01*
X203850000Y-82883000D02*
X204535000Y-82198000D01*
X210631000Y-76808000D02*
X210631000Y-81563000D01*
X200650000Y-85550000D02*
X200650000Y-83850000D01*
X210594000Y-76771000D02*
X210631000Y-76808000D01*
X200650000Y-83850000D02*
X198299994Y-81499994D01*
X198299994Y-81499994D02*
X197500000Y-81499994D01*
X209869000Y-76771000D02*
X210594000Y-76771000D01*
D52*
X195139963Y-92850000D02*
X196550000Y-92850000D01*
D49*
X184750000Y-104750000D02*
X190000000Y-99500000D01*
D52*
X190000000Y-97989963D02*
X195139963Y-92850000D01*
X190000000Y-99500000D02*
X190000000Y-97989963D01*
D49*
X166250000Y-104750000D02*
X184750000Y-104750000D01*
D52*
X189099978Y-99002036D02*
X189099978Y-97900020D01*
X189099978Y-97900020D02*
X194950000Y-92050000D01*
X194950000Y-92050000D02*
X196550000Y-92050000D01*
D49*
X185102014Y-103000000D02*
X189099978Y-99002036D01*
X161250000Y-104750000D02*
X163000000Y-103000000D01*
X163000000Y-103000000D02*
X185102014Y-103000000D01*
X165000000Y-109750000D02*
X168422000Y-106328000D01*
X184672000Y-106328000D02*
X191000000Y-100000000D01*
D52*
X191000000Y-97979928D02*
X195329928Y-93650000D01*
X195329928Y-93650000D02*
X196550000Y-93650000D01*
D49*
X168422000Y-106328000D02*
X184672000Y-106328000D01*
X165000000Y-115500000D02*
X165000000Y-109750000D01*
X161250000Y-119250000D02*
X165000000Y-115500000D01*
D52*
X191000000Y-100000000D02*
X191000000Y-97979928D01*
X195534946Y-94450000D02*
X192000000Y-97984946D01*
X192000000Y-97984946D02*
X192000000Y-100574997D01*
D49*
X183300000Y-109000000D02*
X183300000Y-115500000D01*
X192000000Y-100574997D02*
X183574997Y-109000000D01*
D52*
X196550000Y-94450000D02*
X195534946Y-94450000D01*
D49*
X183574997Y-109000000D02*
X183300000Y-109000000D01*
X167799990Y-84291466D02*
X168829648Y-83261808D01*
X194855000Y-87250000D02*
X194756000Y-87151000D01*
X171098624Y-83700000D02*
X170660432Y-83261808D01*
X169225000Y-85960000D02*
X168250000Y-85960000D01*
X167799990Y-85509990D02*
X167799990Y-84291466D01*
X160847000Y-95660000D02*
X160847000Y-84139000D01*
X171515000Y-99216000D02*
X164403000Y-99216000D01*
X172250000Y-83700000D02*
X171098624Y-83700000D01*
X196550000Y-87250000D02*
X194855000Y-87250000D01*
X160847000Y-84139000D02*
X161736000Y-83250000D01*
X168250000Y-85960000D02*
X167799990Y-85509990D01*
X164403000Y-99216000D02*
X160847000Y-95660000D01*
X169529062Y-83261808D02*
X170660432Y-83261808D01*
X168829648Y-83261808D02*
X169529062Y-83261808D01*
X197750000Y-83000000D02*
X199050000Y-84300000D01*
X162625000Y-91723000D02*
X163308000Y-91040000D01*
X165038000Y-97004436D02*
X164858436Y-97004436D01*
X196079002Y-82579000D02*
X196500002Y-83000000D01*
X162625000Y-94771000D02*
X162625000Y-91723000D01*
X163308000Y-91040000D02*
X164275000Y-91040000D01*
X199050000Y-84300000D02*
X199050000Y-85550000D01*
X196500002Y-83000000D02*
X197750000Y-83000000D01*
X164858436Y-97004436D02*
X162625000Y-94771000D01*
X194750000Y-82579000D02*
X196079002Y-82579000D01*
X195300000Y-84300000D02*
X194750000Y-83750000D01*
X198250000Y-85075000D02*
X197475000Y-84300000D01*
X198250000Y-85550000D02*
X198250000Y-85075000D01*
X164275000Y-89770000D02*
X163181000Y-89770000D01*
X165200000Y-95700000D02*
X167750000Y-98250000D01*
X163181000Y-89770000D02*
X161736000Y-91215000D01*
X166614192Y-98254438D02*
X166618630Y-98250000D01*
X165200000Y-94750000D02*
X165200000Y-95700000D01*
X197475000Y-84300000D02*
X195300000Y-84300000D01*
X164711438Y-98254438D02*
X166614192Y-98254438D01*
X161736000Y-95279000D02*
X164711438Y-98254438D01*
X161736000Y-91215000D02*
X161736000Y-95279000D01*
X166618630Y-98250000D02*
X167750000Y-98250000D01*
X209624400Y-92850000D02*
X207950000Y-92850000D01*
X209488000Y-103280000D02*
X213044000Y-103280000D01*
X207964000Y-107925966D02*
X207964000Y-104804000D01*
X215310001Y-103045999D02*
X215310001Y-102791999D01*
X215330000Y-102772000D02*
X215330000Y-98555600D01*
X215310001Y-102791999D02*
X215330000Y-102772000D01*
X215330000Y-98555600D02*
X209624400Y-92850000D01*
X192000000Y-108000000D02*
X195916000Y-111916000D01*
X213552000Y-103788000D02*
X214568000Y-103788000D01*
X195916000Y-111916000D02*
X204023949Y-111916000D01*
X213044000Y-103280000D02*
X213552000Y-103788000D01*
X214568000Y-103788000D02*
X215310001Y-103045999D01*
X207964000Y-104804000D02*
X209488000Y-103280000D01*
X204023949Y-111916000D02*
X207964000Y-107975949D01*
X172250000Y-77250000D02*
X167000000Y-77250000D01*
X174000000Y-75900000D02*
X173600000Y-75900000D01*
X165000000Y-81400000D02*
X165000000Y-82025000D01*
X165000000Y-83965000D02*
X164275000Y-84690000D01*
X173600000Y-75900000D02*
X172250000Y-77250000D01*
X171000000Y-78600000D02*
X171000000Y-77250000D01*
X167000000Y-77250000D02*
X166500000Y-77750000D01*
X165000000Y-82025000D02*
X165000000Y-83965000D01*
X166500000Y-77750000D02*
X166500000Y-79975000D01*
X166500000Y-79975000D02*
X165000000Y-81475000D01*
X178750000Y-98000000D02*
X176625000Y-98000000D01*
X173205017Y-92000000D02*
X172500000Y-91294983D01*
X172500000Y-91294983D02*
X172500000Y-89750000D01*
X164275000Y-87230000D02*
X165230000Y-87230000D01*
X175615000Y-86635000D02*
X176800000Y-86635000D01*
X174794983Y-92000000D02*
X173205017Y-92000000D01*
X166250000Y-95250000D02*
X167000000Y-96000000D01*
X173375000Y-98000000D02*
X175500000Y-95875000D01*
X172500000Y-89750000D02*
X175615000Y-86635000D01*
X165230000Y-87230000D02*
X166250000Y-88250000D01*
X164275000Y-87230000D02*
X164275000Y-85960000D01*
X175500000Y-92705017D02*
X174794983Y-92000000D01*
X167000000Y-96000000D02*
X171375000Y-96000000D01*
X166250000Y-88250000D02*
X166250000Y-95250000D01*
X176800000Y-86635000D02*
X177775000Y-86635000D01*
X171375000Y-96000000D02*
X173375000Y-98000000D01*
X175500000Y-95875000D02*
X175500000Y-92705017D01*
X179385000Y-85365000D02*
X177775000Y-85365000D01*
X177200000Y-78600000D02*
X180000000Y-81400000D01*
X180000000Y-84750000D02*
X179385000Y-85365000D01*
X180000000Y-81400000D02*
X180000000Y-84750000D01*
X177000000Y-78600000D02*
X177200000Y-78600000D01*
X183000000Y-90600000D02*
X183000000Y-88180000D01*
X186000000Y-90600000D02*
X183000000Y-90600000D01*
X183000000Y-88180000D02*
X182725000Y-87905000D01*
X166250000Y-83775000D02*
X166250000Y-86480000D01*
X167250000Y-94700000D02*
X167250000Y-87480000D01*
X168000000Y-81400000D02*
X168000000Y-82025000D01*
X168000000Y-82025000D02*
X166250000Y-83775000D01*
X170820000Y-87230000D02*
X172250000Y-85800000D01*
X166250000Y-86480000D02*
X167000000Y-87230000D01*
X169225000Y-87230000D02*
X170820000Y-87230000D01*
X167250000Y-87480000D02*
X167000000Y-87230000D01*
X167000000Y-87230000D02*
X169225000Y-87230000D01*
X167300000Y-94750000D02*
X167250000Y-94700000D01*
X213750000Y-60950000D02*
X215496000Y-60950000D01*
X215584000Y-63353500D02*
X215584000Y-61038000D01*
X215950000Y-60950000D02*
X216250000Y-60650000D01*
X215496000Y-60950000D02*
X215950000Y-60950000D01*
X215584000Y-61038000D02*
X215496000Y-60950000D01*
X186000000Y-96600000D02*
X187650000Y-96600000D01*
X210807747Y-92050000D02*
X211317384Y-92559637D01*
X187650000Y-96600000D02*
X187750000Y-96500000D01*
X207950000Y-92050000D02*
X210807747Y-92050000D01*
X176800000Y-84095000D02*
X177775000Y-84095000D01*
X177000000Y-81400000D02*
X177000000Y-83895000D01*
X177000000Y-83895000D02*
X176800000Y-84095000D01*
X169225000Y-88500000D02*
X172395000Y-88500000D01*
X172395000Y-88500000D02*
X176800000Y-84095000D01*
X169225000Y-91040000D02*
X170290000Y-91040000D01*
X170290000Y-91040000D02*
X172650000Y-93400000D01*
X172650000Y-93400000D02*
X174000000Y-93400000D01*
X169225000Y-89770000D02*
X169225000Y-91040000D01*
X159000000Y-75900000D02*
X162000000Y-75900000D01*
X162000000Y-75900000D02*
X162000000Y-78600000D01*
X159000000Y-81400000D02*
X162000000Y-81400000D01*
X170650000Y-75900000D02*
X171000000Y-75900000D01*
X162000000Y-81400000D02*
X162752000Y-82152000D01*
X162350000Y-81400000D02*
X163500000Y-80250000D01*
X169250000Y-74500000D02*
X170650000Y-75900000D01*
X163500000Y-80250000D02*
X163500000Y-75000000D01*
X164000000Y-74500000D02*
X169250000Y-74500000D01*
X162000000Y-81400000D02*
X162350000Y-81400000D01*
X163339000Y-88500000D02*
X164275000Y-88500000D01*
X163500000Y-75000000D02*
X164000000Y-74500000D01*
X162752000Y-82152000D02*
X162752000Y-87913000D01*
X162752000Y-87913000D02*
X163339000Y-88500000D01*
X181200000Y-99400000D02*
X183000000Y-99400000D01*
X180750000Y-98950000D02*
X181200000Y-99400000D01*
X183000000Y-99400000D02*
X186000000Y-99400000D01*
X180200000Y-78600000D02*
X183000000Y-81400000D01*
X180000000Y-78600000D02*
X180200000Y-78600000D01*
X203050000Y-96950000D02*
X203050000Y-100050000D01*
X205475000Y-100250000D02*
X205620000Y-100105000D01*
X203250000Y-100250000D02*
X205475000Y-100250000D01*
X203250000Y-100250000D02*
X203250000Y-102600000D01*
X203050000Y-100050000D02*
X203250000Y-100250000D01*
X174000000Y-90600000D02*
X177000000Y-90600000D01*
X177000000Y-90600000D02*
X180000000Y-90600000D01*
X207500000Y-100250000D02*
X207500000Y-101350000D01*
X206250000Y-98750000D02*
X207500000Y-100000000D01*
X204500000Y-98750000D02*
X206250000Y-98750000D01*
X210355000Y-100250000D02*
X210500000Y-100105000D01*
X203850000Y-98100000D02*
X204500000Y-98750000D01*
X203850000Y-96950000D02*
X203850000Y-98100000D01*
X207500000Y-100000000D02*
X207500000Y-100250000D01*
X207500000Y-101350000D02*
X206250000Y-102600000D01*
X207500000Y-100250000D02*
X210355000Y-100250000D01*
X186875000Y-87400000D02*
X186000000Y-87400000D01*
X183000000Y-93400000D02*
X183600000Y-93400000D01*
X186919983Y-92000000D02*
X187500000Y-91419983D01*
X180000000Y-93400000D02*
X183000000Y-93400000D01*
X187500000Y-88025000D02*
X186875000Y-87400000D01*
X185000000Y-92000000D02*
X186919983Y-92000000D01*
X187500000Y-91419983D02*
X187500000Y-88025000D01*
X183600000Y-93400000D02*
X185000000Y-92000000D01*
X191600000Y-81400000D02*
X193250000Y-79750000D01*
X198500000Y-79750000D02*
X201450000Y-82700000D01*
X191250000Y-81400000D02*
X191600000Y-81400000D01*
X201450000Y-84300000D02*
X201450000Y-85550000D01*
X201450000Y-82700000D02*
X201450000Y-84300000D01*
X193250000Y-79750000D02*
X198500000Y-79750000D01*
X199730000Y-110650000D02*
X197080000Y-108000000D01*
X200250000Y-110650000D02*
X199730000Y-110650000D01*
X200250000Y-110650000D02*
X203250000Y-110650000D01*
X205109000Y-69682000D02*
X205104500Y-69686500D01*
X206808500Y-69686500D02*
X206821000Y-69674000D01*
X204027000Y-69686500D02*
X205104500Y-69686500D01*
X205104500Y-69686500D02*
X206808500Y-69686500D01*
X205109000Y-66815000D02*
X205109000Y-69682000D01*
D53*
X215584000Y-64769249D02*
X216443249Y-63910000D01*
X215584000Y-64799000D02*
X215584000Y-64769249D01*
D49*
X216550472Y-66831000D02*
X221791000Y-66831000D01*
X221791000Y-66831000D02*
X224210000Y-69250000D01*
D50*
X213750000Y-57650000D02*
X213900000Y-57500000D01*
X190600000Y-56950000D02*
X191500000Y-57850000D01*
D49*
X217616000Y-59134000D02*
X219394000Y-57356000D01*
X215584000Y-64799000D02*
X215584000Y-65864528D01*
X219394000Y-57356000D02*
X219394000Y-57000000D01*
X224250000Y-69290000D02*
X224210000Y-69250000D01*
X224250000Y-73100000D02*
X224250000Y-69290000D01*
D53*
X216443249Y-63910000D02*
X216473000Y-63910000D01*
D49*
X217616000Y-62767000D02*
X217616000Y-59134000D01*
D50*
X188650000Y-56950000D02*
X190600000Y-56950000D01*
D49*
X215584000Y-65864528D02*
X216550472Y-66831000D01*
D51*
X213750000Y-59050000D02*
X213750000Y-57650000D01*
D49*
X216473000Y-63910000D02*
X217616000Y-62767000D01*
X211267800Y-114962200D02*
X212320100Y-114962200D01*
X209399100Y-115548200D02*
X210681800Y-115548200D01*
X210681800Y-115548200D02*
X211267800Y-114962200D01*
X207202000Y-117178880D02*
X207202000Y-118525080D01*
X189295000Y-106709000D02*
X187898000Y-106709000D01*
X203265000Y-116109000D02*
X206249500Y-116109000D01*
X208426280Y-119749360D02*
X210482940Y-119749360D01*
X193994000Y-115726000D02*
X202882000Y-115726000D01*
X187009000Y-108741000D02*
X193994000Y-115726000D01*
X187009000Y-107598000D02*
X187009000Y-108741000D01*
X202882000Y-115726000D02*
X203265000Y-116109000D01*
X187898000Y-106709000D02*
X187009000Y-107598000D01*
X207202000Y-118525080D02*
X208426280Y-119749360D01*
X169229000Y-92314000D02*
X169225000Y-92310000D01*
X210482940Y-119749360D02*
X212320100Y-117912200D01*
X169229000Y-92993000D02*
X169229000Y-92314000D01*
X206249500Y-116226380D02*
X207202000Y-117178880D01*
X208406500Y-71149000D02*
X203138000Y-71149000D01*
X203138000Y-71149000D02*
X202376000Y-71911000D01*
X207009000Y-66953500D02*
X209742000Y-69686500D01*
X209869000Y-69686500D02*
X208406500Y-71149000D01*
X207009000Y-66815000D02*
X207009000Y-66953500D01*
X209903000Y-74705000D02*
X212502000Y-74705000D01*
X207202000Y-74070000D02*
X207837000Y-74705000D01*
X207009000Y-66815000D02*
X207009000Y-67018998D01*
X207837000Y-74705000D02*
X209835000Y-74705000D01*
X209869000Y-74671000D02*
X209903000Y-74705000D01*
X212502000Y-74705000D02*
X212536000Y-74671000D01*
X209835000Y-74705000D02*
X209869000Y-74671000D01*
X202376000Y-71911000D02*
X202376000Y-73308000D01*
X202376000Y-73308000D02*
X203138000Y-74070000D01*
X203138000Y-74070000D02*
X207202000Y-74070000D01*
%TA.AperFunction,Conductor*%
G36*
X205550972Y-58757539D02*
G01*
X205597573Y-58811100D01*
X205609035Y-58860908D01*
X205664110Y-61371737D01*
X205645606Y-61440280D01*
X205592983Y-61487938D01*
X205538140Y-61500500D01*
X202062063Y-61500500D01*
X202043114Y-61499067D01*
X202042907Y-61499036D01*
X202021651Y-61495802D01*
X202014359Y-61496395D01*
X202014356Y-61496395D01*
X201968991Y-61500085D01*
X201958777Y-61500500D01*
X201950707Y-61500500D01*
X201947087Y-61500922D01*
X201947069Y-61500923D01*
X201922461Y-61503792D01*
X201918100Y-61504224D01*
X201892981Y-61506267D01*
X201852661Y-61509546D01*
X201852658Y-61509547D01*
X201845363Y-61510140D01*
X201838399Y-61512396D01*
X201832440Y-61513587D01*
X201826585Y-61514971D01*
X201819319Y-61515818D01*
X201750673Y-61540735D01*
X201746545Y-61542152D01*
X201684064Y-61562393D01*
X201684062Y-61562394D01*
X201677101Y-61564649D01*
X201670846Y-61568445D01*
X201665372Y-61570951D01*
X201659942Y-61573670D01*
X201653063Y-61576167D01*
X201592016Y-61616191D01*
X201588327Y-61618518D01*
X201568135Y-61630771D01*
X201530693Y-61653491D01*
X201530688Y-61653495D01*
X201525892Y-61656405D01*
X201517516Y-61663803D01*
X201517493Y-61663777D01*
X201514503Y-61666426D01*
X201511264Y-61669134D01*
X201505148Y-61673144D01*
X201500121Y-61678451D01*
X201500117Y-61678454D01*
X201451872Y-61729383D01*
X201449494Y-61731825D01*
X200998089Y-62183230D01*
X200983677Y-62195616D01*
X200972082Y-62204149D01*
X200972077Y-62204154D01*
X200966182Y-62208492D01*
X200961443Y-62214070D01*
X200961440Y-62214073D01*
X200931965Y-62248768D01*
X200925035Y-62256284D01*
X200919340Y-62261979D01*
X200917060Y-62264861D01*
X200901719Y-62284251D01*
X200898928Y-62287655D01*
X200856409Y-62337703D01*
X200851667Y-62343285D01*
X200848339Y-62349801D01*
X200844972Y-62354850D01*
X200841805Y-62359979D01*
X200837266Y-62365716D01*
X200806345Y-62431875D01*
X200804442Y-62435769D01*
X200771231Y-62500808D01*
X200769492Y-62507916D01*
X200767393Y-62513559D01*
X200765476Y-62519322D01*
X200762378Y-62525950D01*
X200760888Y-62533112D01*
X200760888Y-62533113D01*
X200747514Y-62597412D01*
X200746544Y-62601696D01*
X200729192Y-62672610D01*
X200728500Y-62683764D01*
X200728464Y-62683762D01*
X200728225Y-62687755D01*
X200727851Y-62691947D01*
X200726360Y-62699115D01*
X200726558Y-62706432D01*
X200728116Y-62764041D01*
X200724196Y-62780965D01*
X200726828Y-62781225D01*
X200725685Y-62792792D01*
X200725000Y-62793500D01*
X200725000Y-64252104D01*
X200724923Y-64256500D01*
X200724902Y-64257115D01*
X200723801Y-64264349D01*
X200724394Y-64271641D01*
X200724394Y-64271644D01*
X200724585Y-64273988D01*
X200725000Y-64284203D01*
X200725000Y-64900279D01*
X200704998Y-64968400D01*
X200651342Y-65014893D01*
X200598780Y-65026279D01*
X196384290Y-65018895D01*
X185725779Y-65000220D01*
X185657694Y-64980098D01*
X185611295Y-64926361D01*
X185600000Y-64874220D01*
X185600000Y-63052190D01*
X185620002Y-62984069D01*
X185636905Y-62963095D01*
X187763095Y-60836905D01*
X187825407Y-60802879D01*
X187852190Y-60800000D01*
X192750000Y-60800000D01*
X192750000Y-58889135D01*
X192770002Y-58821014D01*
X192823658Y-58774521D01*
X192877301Y-58764787D01*
X192877298Y-58763243D01*
X205482810Y-58737675D01*
X205550972Y-58757539D01*
G37*
%TD.AperFunction*%
%TA.AperFunction,Conductor*%
G36*
X237500316Y-54528502D02*
G01*
X237546809Y-54582158D01*
X237556913Y-54652432D01*
X237527419Y-54717012D01*
X237496618Y-54742785D01*
X237478074Y-54753817D01*
X237478068Y-54753821D01*
X237474814Y-54755757D01*
X237471812Y-54758073D01*
X237228738Y-54945604D01*
X237216244Y-54955243D01*
X237213534Y-54957911D01*
X237011396Y-55156899D01*
X236983513Y-55184347D01*
X236981149Y-55187314D01*
X236981146Y-55187317D01*
X236964220Y-55208558D01*
X236779991Y-55439751D01*
X236608626Y-55717757D01*
X236607037Y-55721204D01*
X236475992Y-56005465D01*
X236471902Y-56014336D01*
X236470741Y-56017940D01*
X236470741Y-56017941D01*
X236456909Y-56060895D01*
X236371797Y-56325192D01*
X236371079Y-56328903D01*
X236371078Y-56328907D01*
X236310482Y-56642105D01*
X236310481Y-56642114D01*
X236309763Y-56645824D01*
X236309496Y-56649600D01*
X236309495Y-56649605D01*
X236291810Y-56899385D01*
X236286698Y-56971585D01*
X236302936Y-57297759D01*
X236303577Y-57301490D01*
X236303578Y-57301498D01*
X236347034Y-57554396D01*
X236358241Y-57619619D01*
X236451814Y-57932504D01*
X236453327Y-57935975D01*
X236453329Y-57935981D01*
X236542868Y-58141416D01*
X236582297Y-58231881D01*
X236584220Y-58235152D01*
X236584222Y-58235156D01*
X236626102Y-58306396D01*
X236747802Y-58513414D01*
X236750103Y-58516429D01*
X236943631Y-58770012D01*
X236943636Y-58770017D01*
X236945931Y-58773025D01*
X237173814Y-59006953D01*
X237292755Y-59102755D01*
X237425196Y-59209431D01*
X237425201Y-59209435D01*
X237428149Y-59211809D01*
X237705253Y-59384627D01*
X238001112Y-59522903D01*
X238311440Y-59624634D01*
X238631742Y-59688346D01*
X238635514Y-59688633D01*
X238635522Y-59688634D01*
X238953602Y-59712829D01*
X238953607Y-59712829D01*
X238957379Y-59713116D01*
X239283633Y-59698586D01*
X239343425Y-59688634D01*
X239602037Y-59645590D01*
X239602042Y-59645589D01*
X239605778Y-59644967D01*
X239919149Y-59553034D01*
X239922616Y-59551544D01*
X239922620Y-59551543D01*
X240215721Y-59425616D01*
X240215723Y-59425615D01*
X240219205Y-59424119D01*
X240501601Y-59260091D01*
X240762245Y-59063324D01*
X240985361Y-58848240D01*
X240994632Y-58839303D01*
X240994635Y-58839300D01*
X240997363Y-58836670D01*
X241086450Y-58727244D01*
X241201155Y-58586351D01*
X241201158Y-58586347D01*
X241203549Y-58583410D01*
X241258939Y-58495622D01*
X241312205Y-58448685D01*
X241382392Y-58437996D01*
X241447217Y-58466951D01*
X241486096Y-58526355D01*
X241491500Y-58562859D01*
X241491500Y-79268008D01*
X241471498Y-79336129D01*
X241417842Y-79382622D01*
X241347568Y-79392726D01*
X241312251Y-79382203D01*
X241259934Y-79357808D01*
X241194951Y-79327506D01*
X241189647Y-79326085D01*
X241189642Y-79326083D01*
X241040260Y-79286056D01*
X240975908Y-79268813D01*
X240750000Y-79249049D01*
X240524092Y-79268813D01*
X240305049Y-79327506D01*
X240216506Y-79368794D01*
X240104512Y-79421017D01*
X240104507Y-79421020D01*
X240099525Y-79423343D01*
X240063629Y-79448478D01*
X239918276Y-79550255D01*
X239918273Y-79550257D01*
X239913765Y-79553414D01*
X239753414Y-79713765D01*
X239623343Y-79899525D01*
X239621020Y-79904507D01*
X239621017Y-79904512D01*
X239606419Y-79935819D01*
X239527506Y-80105049D01*
X239468813Y-80324092D01*
X239449049Y-80550000D01*
X239468813Y-80775908D01*
X239527506Y-80994951D01*
X239571897Y-81090149D01*
X239621017Y-81195488D01*
X239621020Y-81195493D01*
X239623343Y-81200475D01*
X239626500Y-81204983D01*
X239733406Y-81357660D01*
X239753414Y-81386235D01*
X239913765Y-81546586D01*
X239918274Y-81549743D01*
X239918276Y-81549745D01*
X240095020Y-81673504D01*
X240095026Y-81673508D01*
X240099524Y-81676657D01*
X240305049Y-81772494D01*
X240310353Y-81773915D01*
X240310358Y-81773917D01*
X240445257Y-81810063D01*
X240524092Y-81831187D01*
X240750000Y-81850951D01*
X240975908Y-81831187D01*
X241054743Y-81810063D01*
X241189642Y-81773917D01*
X241189647Y-81773915D01*
X241194951Y-81772494D01*
X241273602Y-81735819D01*
X241312251Y-81717797D01*
X241382442Y-81707136D01*
X241447255Y-81736116D01*
X241486111Y-81795536D01*
X241491500Y-81831992D01*
X241491500Y-87268008D01*
X241471498Y-87336129D01*
X241417842Y-87382622D01*
X241347568Y-87392726D01*
X241312251Y-87382203D01*
X241262111Y-87358823D01*
X241194951Y-87327506D01*
X241189647Y-87326085D01*
X241189642Y-87326083D01*
X240996456Y-87274319D01*
X240975908Y-87268813D01*
X240750000Y-87249049D01*
X240524092Y-87268813D01*
X240305049Y-87327506D01*
X240208876Y-87372352D01*
X240104512Y-87421017D01*
X240104507Y-87421020D01*
X240099525Y-87423343D01*
X240023394Y-87476651D01*
X239918276Y-87550255D01*
X239918273Y-87550257D01*
X239913765Y-87553414D01*
X239753414Y-87713765D01*
X239750257Y-87718273D01*
X239750255Y-87718276D01*
X239707989Y-87778638D01*
X239623343Y-87899525D01*
X239621020Y-87904507D01*
X239621017Y-87904512D01*
X239602548Y-87944120D01*
X239527506Y-88105049D01*
X239468813Y-88324092D01*
X239449049Y-88550000D01*
X239468813Y-88775908D01*
X239527506Y-88994951D01*
X239557067Y-89058344D01*
X239621017Y-89195488D01*
X239621020Y-89195493D01*
X239623343Y-89200475D01*
X239687326Y-89291852D01*
X239732523Y-89356399D01*
X239753414Y-89386235D01*
X239913765Y-89546586D01*
X239918274Y-89549743D01*
X239918276Y-89549745D01*
X240095020Y-89673504D01*
X240095026Y-89673508D01*
X240099524Y-89676657D01*
X240305049Y-89772494D01*
X240310353Y-89773915D01*
X240310358Y-89773917D01*
X240459740Y-89813944D01*
X240524092Y-89831187D01*
X240750000Y-89850951D01*
X240975908Y-89831187D01*
X241040260Y-89813944D01*
X241189642Y-89773917D01*
X241189647Y-89773915D01*
X241194951Y-89772494D01*
X241295405Y-89725652D01*
X241312251Y-89717797D01*
X241382442Y-89707136D01*
X241447255Y-89736116D01*
X241486111Y-89795536D01*
X241491500Y-89831992D01*
X241491500Y-119433521D01*
X241471498Y-119501642D01*
X241417842Y-119548135D01*
X241347568Y-119558239D01*
X241282988Y-119528745D01*
X241257557Y-119498515D01*
X241236226Y-119463084D01*
X241233899Y-119460100D01*
X241233894Y-119460093D01*
X241037726Y-119208558D01*
X241037724Y-119208556D01*
X241035390Y-119205563D01*
X240805070Y-118974034D01*
X240548603Y-118771852D01*
X240269705Y-118601945D01*
X240266261Y-118600379D01*
X240266257Y-118600377D01*
X240155667Y-118550095D01*
X239972414Y-118466775D01*
X239661037Y-118368300D01*
X239414571Y-118321952D01*
X239343809Y-118308645D01*
X239343807Y-118308645D01*
X239340086Y-118307945D01*
X239014208Y-118286586D01*
X239010428Y-118286794D01*
X239010427Y-118286794D01*
X238912897Y-118292162D01*
X238688124Y-118304532D01*
X238684397Y-118305193D01*
X238684393Y-118305193D01*
X238527341Y-118333027D01*
X238366557Y-118361522D01*
X238362941Y-118362624D01*
X238362933Y-118362626D01*
X238057789Y-118455627D01*
X238054167Y-118456731D01*
X237755477Y-118588781D01*
X237733322Y-118601962D01*
X237478074Y-118753817D01*
X237478068Y-118753821D01*
X237474814Y-118755757D01*
X237471812Y-118758073D01*
X237245591Y-118932602D01*
X237216244Y-118955243D01*
X236983513Y-119184347D01*
X236981149Y-119187314D01*
X236981146Y-119187317D01*
X236920987Y-119262812D01*
X236779991Y-119439751D01*
X236608626Y-119717757D01*
X236606593Y-119722167D01*
X236500865Y-119951511D01*
X236471902Y-120014336D01*
X236470741Y-120017940D01*
X236470741Y-120017941D01*
X236462196Y-120044477D01*
X236371797Y-120325192D01*
X236371079Y-120328903D01*
X236371078Y-120328907D01*
X236310482Y-120642105D01*
X236310481Y-120642114D01*
X236309763Y-120645824D01*
X236309496Y-120649600D01*
X236309495Y-120649605D01*
X236302781Y-120744428D01*
X236286698Y-120971585D01*
X236302936Y-121297759D01*
X236303577Y-121301490D01*
X236303578Y-121301498D01*
X236318109Y-121386060D01*
X236358241Y-121619619D01*
X236451814Y-121932504D01*
X236582297Y-122231881D01*
X236584220Y-122235152D01*
X236584222Y-122235156D01*
X236626584Y-122307215D01*
X236747802Y-122513414D01*
X236750103Y-122516429D01*
X236943631Y-122770012D01*
X236943636Y-122770017D01*
X236945931Y-122773025D01*
X237173814Y-123006953D01*
X237246635Y-123065607D01*
X237425196Y-123209431D01*
X237425201Y-123209435D01*
X237428149Y-123211809D01*
X237431371Y-123213818D01*
X237431376Y-123213822D01*
X237503156Y-123258588D01*
X237550373Y-123311607D01*
X237561429Y-123381738D01*
X237532815Y-123446713D01*
X237473615Y-123485903D01*
X237436480Y-123491500D01*
X151570222Y-123491500D01*
X151502101Y-123471498D01*
X151455608Y-123417842D01*
X151445504Y-123347568D01*
X151474998Y-123282988D01*
X151499890Y-123261085D01*
X151501601Y-123260091D01*
X151504623Y-123257810D01*
X151504627Y-123257807D01*
X151759221Y-123065607D01*
X151759222Y-123065606D01*
X151762245Y-123063324D01*
X151997363Y-122836670D01*
X152203549Y-122583410D01*
X152255429Y-122501185D01*
X152375788Y-122310428D01*
X152375790Y-122310425D01*
X152377815Y-122307215D01*
X152517638Y-122012084D01*
X152544188Y-121932504D01*
X152619790Y-121705897D01*
X152619792Y-121705891D01*
X152620992Y-121702293D01*
X152686381Y-121382329D01*
X152692956Y-121301498D01*
X152712674Y-121059061D01*
X152712856Y-121056826D01*
X152713451Y-121000000D01*
X152711510Y-120967796D01*
X152694026Y-120677793D01*
X152694026Y-120677789D01*
X152693798Y-120674015D01*
X152688650Y-120645824D01*
X152635805Y-120356473D01*
X152635804Y-120356469D01*
X152635125Y-120352751D01*
X152631766Y-120341931D01*
X152561030Y-120114124D01*
X152538282Y-120040863D01*
X152404670Y-119742869D01*
X152236226Y-119463084D01*
X152233899Y-119460100D01*
X152233894Y-119460093D01*
X152037726Y-119208558D01*
X152037724Y-119208556D01*
X152035390Y-119205563D01*
X151805070Y-118974034D01*
X151548603Y-118771852D01*
X151269705Y-118601945D01*
X151266261Y-118600379D01*
X151266257Y-118600377D01*
X151155667Y-118550095D01*
X150972414Y-118466775D01*
X150661037Y-118368300D01*
X150414571Y-118321952D01*
X150343809Y-118308645D01*
X150343807Y-118308645D01*
X150340086Y-118307945D01*
X150014208Y-118286586D01*
X150010428Y-118286794D01*
X150010427Y-118286794D01*
X149912897Y-118292162D01*
X149688124Y-118304532D01*
X149684397Y-118305193D01*
X149684393Y-118305193D01*
X149527341Y-118333027D01*
X149366557Y-118361522D01*
X149362941Y-118362624D01*
X149362933Y-118362626D01*
X149057789Y-118455627D01*
X149054167Y-118456731D01*
X148755477Y-118588781D01*
X148733322Y-118601962D01*
X148478074Y-118753817D01*
X148478068Y-118753821D01*
X148474814Y-118755757D01*
X148471812Y-118758073D01*
X148245591Y-118932602D01*
X148216244Y-118955243D01*
X147983513Y-119184347D01*
X147981149Y-119187314D01*
X147981146Y-119187317D01*
X147920987Y-119262812D01*
X147779991Y-119439751D01*
X147778000Y-119442981D01*
X147741760Y-119501773D01*
X147688988Y-119549266D01*
X147618916Y-119560690D01*
X147553792Y-119532416D01*
X147514293Y-119473422D01*
X147508500Y-119435657D01*
X147508500Y-112206803D01*
X154956435Y-112206803D01*
X154970899Y-112551909D01*
X154971437Y-112555382D01*
X155007525Y-112788498D01*
X155023741Y-112893251D01*
X155024663Y-112896643D01*
X155024663Y-112896645D01*
X155042832Y-112963518D01*
X155114304Y-113226576D01*
X155241457Y-113547729D01*
X155243103Y-113550825D01*
X155243105Y-113550829D01*
X155312457Y-113681261D01*
X155403617Y-113852707D01*
X155405602Y-113855606D01*
X155596770Y-114134801D01*
X155596775Y-114134807D01*
X155598761Y-114137708D01*
X155601064Y-114140376D01*
X155809994Y-114382424D01*
X155824458Y-114399181D01*
X156077895Y-114633865D01*
X156080721Y-114635948D01*
X156080724Y-114635951D01*
X156183982Y-114712079D01*
X156355912Y-114838837D01*
X156358949Y-114840591D01*
X156358953Y-114840593D01*
X156471439Y-114905537D01*
X156655045Y-115011542D01*
X156745812Y-115051197D01*
X156968343Y-115148419D01*
X156968346Y-115148420D01*
X156971564Y-115149826D01*
X156974921Y-115150865D01*
X156974926Y-115150867D01*
X157239400Y-115232735D01*
X157301526Y-115251966D01*
X157640816Y-115316689D01*
X157894167Y-115336183D01*
X157981710Y-115342919D01*
X157981711Y-115342919D01*
X157985207Y-115343188D01*
X158193671Y-115335909D01*
X158326890Y-115331257D01*
X158326895Y-115331257D01*
X158330405Y-115331134D01*
X158385936Y-115322934D01*
X158668616Y-115281192D01*
X158668622Y-115281191D01*
X158672108Y-115280676D01*
X158675512Y-115279777D01*
X158675515Y-115279776D01*
X159002666Y-115193338D01*
X159002667Y-115193338D01*
X159006057Y-115192442D01*
X159328090Y-115067534D01*
X159634193Y-114907508D01*
X159759622Y-114822905D01*
X159917633Y-114716325D01*
X159917635Y-114716324D01*
X159920549Y-114714358D01*
X159952178Y-114687440D01*
X160180918Y-114492766D01*
X160180919Y-114492765D01*
X160183591Y-114490491D01*
X160285794Y-114381656D01*
X160417629Y-114241267D01*
X160417633Y-114241262D01*
X160420040Y-114238699D01*
X160422145Y-114235885D01*
X160422151Y-114235878D01*
X160624839Y-113964939D01*
X160626948Y-113962120D01*
X160633634Y-113950725D01*
X160714852Y-113812291D01*
X160801736Y-113664200D01*
X160815365Y-113633590D01*
X160940794Y-113351870D01*
X160942226Y-113348654D01*
X161046667Y-113019413D01*
X161113758Y-112680583D01*
X161136185Y-112413507D01*
X161142478Y-112338570D01*
X161142479Y-112338559D01*
X161142661Y-112336386D01*
X161142946Y-112316037D01*
X161143837Y-112252178D01*
X161143837Y-112252166D01*
X161143867Y-112250000D01*
X161143203Y-112238114D01*
X161128630Y-111977463D01*
X161124586Y-111905130D01*
X161121171Y-111884938D01*
X161067571Y-111568039D01*
X161067570Y-111568035D01*
X161066982Y-111564558D01*
X160971775Y-111232530D01*
X160885679Y-111023646D01*
X160841488Y-110916429D01*
X160841484Y-110916421D01*
X160840150Y-110913184D01*
X160673748Y-110610500D01*
X160654317Y-110582954D01*
X160476674Y-110331130D01*
X160476673Y-110331129D01*
X160474643Y-110328251D01*
X160245317Y-110069955D01*
X160136443Y-109971924D01*
X159991247Y-109841189D01*
X159991244Y-109841187D01*
X159988629Y-109838832D01*
X159954385Y-109814316D01*
X159710644Y-109639814D01*
X159710637Y-109639810D01*
X159707777Y-109637762D01*
X159406262Y-109469251D01*
X159087843Y-109335400D01*
X159036355Y-109320246D01*
X158925719Y-109287684D01*
X158756487Y-109237876D01*
X158753017Y-109237264D01*
X158753012Y-109237263D01*
X158531471Y-109198200D01*
X158416326Y-109177897D01*
X158337062Y-109172910D01*
X158075117Y-109156429D01*
X158075111Y-109156429D01*
X158071599Y-109156208D01*
X157975771Y-109160895D01*
X157730110Y-109172910D01*
X157730102Y-109172911D01*
X157726603Y-109173082D01*
X157723135Y-109173644D01*
X157723132Y-109173644D01*
X157389112Y-109227743D01*
X157389109Y-109227744D01*
X157385637Y-109228306D01*
X157382250Y-109229252D01*
X157382244Y-109229253D01*
X157177188Y-109286506D01*
X157052953Y-109321193D01*
X156968434Y-109355341D01*
X156735960Y-109449266D01*
X156735956Y-109449268D01*
X156732696Y-109450585D01*
X156729609Y-109452254D01*
X156729605Y-109452256D01*
X156692781Y-109472167D01*
X156428857Y-109614870D01*
X156145225Y-109812000D01*
X156142583Y-109814313D01*
X156142579Y-109814316D01*
X155995471Y-109943100D01*
X155885335Y-110039517D01*
X155835368Y-110094238D01*
X155713123Y-110228113D01*
X155652425Y-110294585D01*
X155449399Y-110574027D01*
X155447657Y-110577093D01*
X155447656Y-110577095D01*
X155438780Y-110592720D01*
X155278787Y-110874358D01*
X155142716Y-111191835D01*
X155129409Y-111235910D01*
X155066229Y-111445174D01*
X155042882Y-111522502D01*
X154980529Y-111862236D01*
X154956435Y-112206803D01*
X147508500Y-112206803D01*
X147508500Y-102876000D01*
X147528502Y-102807879D01*
X147582158Y-102761386D01*
X147634500Y-102750000D01*
X161873129Y-102750000D01*
X161941250Y-102770002D01*
X161987743Y-102823658D01*
X161997847Y-102893932D01*
X161968353Y-102958512D01*
X161962224Y-102965095D01*
X161685907Y-103241412D01*
X161623595Y-103275438D01*
X161567398Y-103274836D01*
X161491524Y-103256620D01*
X161491518Y-103256619D01*
X161486711Y-103255465D01*
X161250000Y-103236835D01*
X161013289Y-103255465D01*
X161008482Y-103256619D01*
X161008476Y-103256620D01*
X160864792Y-103291116D01*
X160782406Y-103310895D01*
X160777835Y-103312788D01*
X160777833Y-103312789D01*
X160567611Y-103399865D01*
X160567607Y-103399867D01*
X160563037Y-103401760D01*
X160558817Y-103404346D01*
X160364798Y-103523241D01*
X160364792Y-103523245D01*
X160360584Y-103525824D01*
X160180031Y-103680031D01*
X160025824Y-103860584D01*
X160023245Y-103864792D01*
X160023241Y-103864798D01*
X159945598Y-103991500D01*
X159901760Y-104063037D01*
X159899867Y-104067607D01*
X159899865Y-104067611D01*
X159826185Y-104245492D01*
X159810895Y-104282406D01*
X159809740Y-104287218D01*
X159757329Y-104505526D01*
X159755465Y-104513289D01*
X159736835Y-104750000D01*
X159755465Y-104986711D01*
X159756619Y-104991518D01*
X159756620Y-104991524D01*
X159782567Y-105099600D01*
X159810895Y-105217594D01*
X159812788Y-105222165D01*
X159812789Y-105222167D01*
X159854600Y-105323107D01*
X159901760Y-105436963D01*
X159904346Y-105441183D01*
X160023241Y-105635202D01*
X160023245Y-105635208D01*
X160025824Y-105639416D01*
X160098374Y-105724361D01*
X160162633Y-105799598D01*
X160180031Y-105819969D01*
X160360584Y-105974176D01*
X160364792Y-105976755D01*
X160364798Y-105976759D01*
X160558084Y-106095205D01*
X160563037Y-106098240D01*
X160567607Y-106100133D01*
X160567611Y-106100135D01*
X160777833Y-106187211D01*
X160782406Y-106189105D01*
X160862609Y-106208360D01*
X161008476Y-106243380D01*
X161008482Y-106243381D01*
X161013289Y-106244535D01*
X161250000Y-106263165D01*
X161486711Y-106244535D01*
X161491518Y-106243381D01*
X161491524Y-106243380D01*
X161637391Y-106208360D01*
X161717594Y-106189105D01*
X161722167Y-106187211D01*
X161932389Y-106100135D01*
X161932393Y-106100133D01*
X161936963Y-106098240D01*
X161941916Y-106095205D01*
X162125556Y-105982670D01*
X162882160Y-105982670D01*
X162887887Y-105990320D01*
X163059042Y-106095205D01*
X163067837Y-106099687D01*
X163277988Y-106186734D01*
X163287373Y-106189783D01*
X163508554Y-106242885D01*
X163518301Y-106244428D01*
X163745070Y-106262275D01*
X163754930Y-106262275D01*
X163981699Y-106244428D01*
X163991446Y-106242885D01*
X164212627Y-106189783D01*
X164222012Y-106186734D01*
X164432163Y-106099687D01*
X164440958Y-106095205D01*
X164608445Y-105992568D01*
X164617907Y-105982110D01*
X164614124Y-105973334D01*
X163762812Y-105122022D01*
X163748868Y-105114408D01*
X163747035Y-105114539D01*
X163740420Y-105118790D01*
X162888920Y-105970290D01*
X162882160Y-105982670D01*
X162125556Y-105982670D01*
X162135202Y-105976759D01*
X162135208Y-105976755D01*
X162139416Y-105974176D01*
X162319969Y-105819969D01*
X162337368Y-105799598D01*
X162458753Y-105657474D01*
X162504686Y-105623598D01*
X162526668Y-105614122D01*
X163660905Y-104479885D01*
X163723217Y-104445859D01*
X163794032Y-104450924D01*
X163839095Y-104479885D01*
X164970290Y-105611080D01*
X165008648Y-105632026D01*
X165044072Y-105660782D01*
X165163403Y-105800500D01*
X165180031Y-105819969D01*
X165360584Y-105974176D01*
X165364792Y-105976755D01*
X165364798Y-105976759D01*
X165558084Y-106095205D01*
X165563037Y-106098240D01*
X165567607Y-106100133D01*
X165567611Y-106100135D01*
X165777833Y-106187211D01*
X165782406Y-106189105D01*
X165862609Y-106208360D01*
X166008476Y-106243380D01*
X166008482Y-106243381D01*
X166013289Y-106244535D01*
X166250000Y-106263165D01*
X166486711Y-106244535D01*
X166491518Y-106243381D01*
X166491524Y-106243380D01*
X166637391Y-106208360D01*
X166717594Y-106189105D01*
X166722167Y-106187211D01*
X166932389Y-106100135D01*
X166932393Y-106100133D01*
X166936963Y-106098240D01*
X166941916Y-106095205D01*
X167135202Y-105976759D01*
X167135208Y-105976755D01*
X167139416Y-105974176D01*
X167319969Y-105819969D01*
X167337368Y-105799598D01*
X167470963Y-105643178D01*
X167474176Y-105639416D01*
X167517533Y-105568664D01*
X167570181Y-105521033D01*
X167624965Y-105508500D01*
X167865481Y-105508500D01*
X167933602Y-105528502D01*
X167980095Y-105582158D01*
X167990199Y-105652432D01*
X167960705Y-105717012D01*
X167948888Y-105728942D01*
X167944516Y-105732803D01*
X167944514Y-105732805D01*
X167944490Y-105732778D01*
X167941500Y-105735429D01*
X167938267Y-105738132D01*
X167932148Y-105742144D01*
X167927116Y-105747456D01*
X167878872Y-105798383D01*
X167876494Y-105800825D01*
X164511089Y-109166230D01*
X164496677Y-109178616D01*
X164485082Y-109187149D01*
X164485077Y-109187154D01*
X164479182Y-109191492D01*
X164474443Y-109197070D01*
X164474440Y-109197073D01*
X164444965Y-109231768D01*
X164438035Y-109239284D01*
X164432340Y-109244979D01*
X164430060Y-109247861D01*
X164414719Y-109267251D01*
X164411928Y-109270655D01*
X164369409Y-109320703D01*
X164364667Y-109326285D01*
X164361339Y-109332801D01*
X164357972Y-109337850D01*
X164354805Y-109342979D01*
X164350266Y-109348716D01*
X164319345Y-109414875D01*
X164317442Y-109418769D01*
X164284231Y-109483808D01*
X164282492Y-109490916D01*
X164280393Y-109496559D01*
X164278476Y-109502322D01*
X164275378Y-109508950D01*
X164273888Y-109516112D01*
X164273888Y-109516113D01*
X164260514Y-109580412D01*
X164259544Y-109584696D01*
X164242192Y-109655610D01*
X164241500Y-109666764D01*
X164241464Y-109666762D01*
X164241225Y-109670755D01*
X164240851Y-109674947D01*
X164239360Y-109682115D01*
X164239558Y-109689432D01*
X164241454Y-109759521D01*
X164241500Y-109762928D01*
X164241500Y-115133629D01*
X164221498Y-115201750D01*
X164204595Y-115222724D01*
X161685907Y-117741412D01*
X161623595Y-117775438D01*
X161567398Y-117774836D01*
X161491524Y-117756620D01*
X161491518Y-117756619D01*
X161486711Y-117755465D01*
X161250000Y-117736835D01*
X161013289Y-117755465D01*
X161008482Y-117756619D01*
X161008476Y-117756620D01*
X160906053Y-117781210D01*
X160782406Y-117810895D01*
X160777835Y-117812788D01*
X160777833Y-117812789D01*
X160567611Y-117899865D01*
X160567607Y-117899867D01*
X160563037Y-117901760D01*
X160558817Y-117904346D01*
X160364798Y-118023241D01*
X160364792Y-118023245D01*
X160360584Y-118025824D01*
X160180031Y-118180031D01*
X160025824Y-118360584D01*
X160023245Y-118364792D01*
X160023241Y-118364798D01*
X159909076Y-118551098D01*
X159901760Y-118563037D01*
X159899867Y-118567607D01*
X159899865Y-118567611D01*
X159814569Y-118773535D01*
X159810895Y-118782406D01*
X159798024Y-118836016D01*
X159757181Y-119006142D01*
X159755465Y-119013289D01*
X159736835Y-119250000D01*
X159755465Y-119486711D01*
X159756619Y-119491518D01*
X159756620Y-119491524D01*
X159786122Y-119614408D01*
X159810895Y-119717594D01*
X159812788Y-119722165D01*
X159812789Y-119722167D01*
X159899772Y-119932163D01*
X159901760Y-119936963D01*
X159904346Y-119941183D01*
X160023241Y-120135202D01*
X160023245Y-120135208D01*
X160025824Y-120139416D01*
X160180031Y-120319969D01*
X160360584Y-120474176D01*
X160364792Y-120476755D01*
X160364798Y-120476759D01*
X160558084Y-120595205D01*
X160563037Y-120598240D01*
X160567607Y-120600133D01*
X160567611Y-120600135D01*
X160777833Y-120687211D01*
X160782406Y-120689105D01*
X160862609Y-120708360D01*
X161008476Y-120743380D01*
X161008482Y-120743381D01*
X161013289Y-120744535D01*
X161250000Y-120763165D01*
X161486711Y-120744535D01*
X161491518Y-120743381D01*
X161491524Y-120743380D01*
X161637391Y-120708360D01*
X161717594Y-120689105D01*
X161722167Y-120687211D01*
X161932389Y-120600135D01*
X161932393Y-120600133D01*
X161936963Y-120598240D01*
X161941916Y-120595205D01*
X162125556Y-120482670D01*
X165382160Y-120482670D01*
X165387887Y-120490320D01*
X165559042Y-120595205D01*
X165567837Y-120599687D01*
X165777988Y-120686734D01*
X165787373Y-120689783D01*
X166008554Y-120742885D01*
X166018301Y-120744428D01*
X166245070Y-120762275D01*
X166254930Y-120762275D01*
X166481699Y-120744428D01*
X166491446Y-120742885D01*
X166712627Y-120689783D01*
X166722012Y-120686734D01*
X166932163Y-120599687D01*
X166940958Y-120595205D01*
X167108445Y-120492568D01*
X167117907Y-120482110D01*
X167114124Y-120473334D01*
X166262812Y-119622022D01*
X166248868Y-119614408D01*
X166247035Y-119614539D01*
X166240420Y-119618790D01*
X165388920Y-120470290D01*
X165382160Y-120482670D01*
X162125556Y-120482670D01*
X162135202Y-120476759D01*
X162135208Y-120476755D01*
X162139416Y-120474176D01*
X162319969Y-120319969D01*
X162474176Y-120139416D01*
X162476755Y-120135208D01*
X162476759Y-120135202D01*
X162595654Y-119941183D01*
X162598240Y-119936963D01*
X162600229Y-119932163D01*
X162687211Y-119722167D01*
X162687212Y-119722165D01*
X162689105Y-119717594D01*
X162713878Y-119614408D01*
X162743380Y-119491524D01*
X162743381Y-119491518D01*
X162744535Y-119486711D01*
X162762777Y-119254930D01*
X164737725Y-119254930D01*
X164755572Y-119481699D01*
X164757115Y-119491446D01*
X164810217Y-119712627D01*
X164813266Y-119722012D01*
X164900313Y-119932163D01*
X164904795Y-119940958D01*
X165007432Y-120108445D01*
X165017890Y-120117907D01*
X165026666Y-120114124D01*
X165877978Y-119262812D01*
X165884356Y-119251132D01*
X166614408Y-119251132D01*
X166614539Y-119252965D01*
X166618790Y-119259580D01*
X167470290Y-120111080D01*
X167482670Y-120117840D01*
X167490320Y-120112113D01*
X167595205Y-119940958D01*
X167599687Y-119932163D01*
X167686734Y-119722012D01*
X167689783Y-119712627D01*
X167742885Y-119491446D01*
X167744428Y-119481699D01*
X167762275Y-119254930D01*
X167762275Y-119245070D01*
X167744428Y-119018301D01*
X167742885Y-119008554D01*
X167689783Y-118787373D01*
X167686734Y-118777988D01*
X167599687Y-118567837D01*
X167595205Y-118559042D01*
X167492568Y-118391555D01*
X167482110Y-118382093D01*
X167473334Y-118385876D01*
X166622022Y-119237188D01*
X166614408Y-119251132D01*
X165884356Y-119251132D01*
X165885592Y-119248868D01*
X165885461Y-119247035D01*
X165881210Y-119240420D01*
X165029710Y-118388920D01*
X165017330Y-118382160D01*
X165009680Y-118387887D01*
X164904795Y-118559042D01*
X164900313Y-118567837D01*
X164813266Y-118777988D01*
X164810217Y-118787373D01*
X164757115Y-119008554D01*
X164755572Y-119018301D01*
X164737725Y-119245070D01*
X164737725Y-119254930D01*
X162762777Y-119254930D01*
X162763165Y-119250000D01*
X162744535Y-119013289D01*
X162743381Y-119008482D01*
X162743380Y-119008476D01*
X162725164Y-118932602D01*
X162728711Y-118861694D01*
X162758588Y-118814093D01*
X163554791Y-118017890D01*
X165382093Y-118017890D01*
X165385876Y-118026666D01*
X166237188Y-118877978D01*
X166251132Y-118885592D01*
X166252965Y-118885461D01*
X166259580Y-118881210D01*
X167111080Y-118029710D01*
X167117840Y-118017330D01*
X167112113Y-118009680D01*
X166940958Y-117904795D01*
X166932163Y-117900313D01*
X166722012Y-117813266D01*
X166712627Y-117810217D01*
X166491446Y-117757115D01*
X166481699Y-117755572D01*
X166254930Y-117737725D01*
X166245070Y-117737725D01*
X166018301Y-117755572D01*
X166008554Y-117757115D01*
X165787373Y-117810217D01*
X165777988Y-117813266D01*
X165567837Y-117900313D01*
X165559042Y-117904795D01*
X165391555Y-118007432D01*
X165382093Y-118017890D01*
X163554791Y-118017890D01*
X165488911Y-116083770D01*
X165503323Y-116071384D01*
X165514918Y-116062851D01*
X165514923Y-116062846D01*
X165520818Y-116058508D01*
X165525557Y-116052930D01*
X165525560Y-116052927D01*
X165555035Y-116018232D01*
X165561965Y-116010716D01*
X165567660Y-116005021D01*
X165572518Y-115998880D01*
X165585281Y-115982749D01*
X165588072Y-115979345D01*
X165630591Y-115929297D01*
X165630592Y-115929295D01*
X165635333Y-115923715D01*
X165638661Y-115917199D01*
X165642028Y-115912150D01*
X165645195Y-115907021D01*
X165649734Y-115901284D01*
X165680655Y-115835125D01*
X165682561Y-115831225D01*
X165703742Y-115789745D01*
X165715769Y-115766192D01*
X165717508Y-115759083D01*
X165719604Y-115753449D01*
X165721523Y-115747679D01*
X165724622Y-115741050D01*
X165730610Y-115712265D01*
X165739490Y-115669571D01*
X165740461Y-115665282D01*
X165741031Y-115662954D01*
X165757808Y-115594390D01*
X165758500Y-115583236D01*
X165758535Y-115583238D01*
X165758775Y-115579266D01*
X165759152Y-115575045D01*
X165760641Y-115567885D01*
X165758546Y-115490458D01*
X165758500Y-115487050D01*
X165758500Y-112206803D01*
X166356435Y-112206803D01*
X166370899Y-112551909D01*
X166371437Y-112555382D01*
X166407525Y-112788498D01*
X166423741Y-112893251D01*
X166424663Y-112896643D01*
X166424663Y-112896645D01*
X166442832Y-112963518D01*
X166514304Y-113226576D01*
X166641457Y-113547729D01*
X166643103Y-113550825D01*
X166643105Y-113550829D01*
X166712457Y-113681261D01*
X166803617Y-113852707D01*
X166805602Y-113855606D01*
X166996770Y-114134801D01*
X166996775Y-114134807D01*
X166998761Y-114137708D01*
X167001064Y-114140376D01*
X167209994Y-114382424D01*
X167224458Y-114399181D01*
X167477895Y-114633865D01*
X167480721Y-114635948D01*
X167480724Y-114635951D01*
X167583982Y-114712079D01*
X167755912Y-114838837D01*
X167758949Y-114840591D01*
X167758953Y-114840593D01*
X167871439Y-114905537D01*
X168055045Y-115011542D01*
X168145812Y-115051197D01*
X168368343Y-115148419D01*
X168368346Y-115148420D01*
X168371564Y-115149826D01*
X168374921Y-115150865D01*
X168374926Y-115150867D01*
X168639400Y-115232735D01*
X168701526Y-115251966D01*
X169040816Y-115316689D01*
X169294167Y-115336183D01*
X169381710Y-115342919D01*
X169381711Y-115342919D01*
X169385207Y-115343188D01*
X169593671Y-115335909D01*
X169726890Y-115331257D01*
X169726895Y-115331257D01*
X169730405Y-115331134D01*
X169785936Y-115322934D01*
X170068616Y-115281192D01*
X170068622Y-115281191D01*
X170072108Y-115280676D01*
X170075512Y-115279777D01*
X170075515Y-115279776D01*
X170402666Y-115193338D01*
X170402667Y-115193338D01*
X170406057Y-115192442D01*
X170728090Y-115067534D01*
X171034193Y-114907508D01*
X171159622Y-114822905D01*
X171317633Y-114716325D01*
X171317635Y-114716324D01*
X171320549Y-114714358D01*
X171352178Y-114687440D01*
X171580918Y-114492766D01*
X171580919Y-114492765D01*
X171583591Y-114490491D01*
X171685794Y-114381656D01*
X171817629Y-114241267D01*
X171817633Y-114241262D01*
X171820040Y-114238699D01*
X171822145Y-114235885D01*
X171822151Y-114235878D01*
X172024839Y-113964939D01*
X172026948Y-113962120D01*
X172033634Y-113950725D01*
X172114852Y-113812291D01*
X172201736Y-113664200D01*
X172215365Y-113633590D01*
X172340794Y-113351870D01*
X172342226Y-113348654D01*
X172446667Y-113019413D01*
X172513758Y-112680583D01*
X172536185Y-112413507D01*
X172542478Y-112338570D01*
X172542479Y-112338559D01*
X172542661Y-112336386D01*
X172542946Y-112316037D01*
X172543837Y-112252178D01*
X172543837Y-112252166D01*
X172543867Y-112250000D01*
X172543203Y-112238114D01*
X172528630Y-111977463D01*
X172524586Y-111905130D01*
X172521171Y-111884938D01*
X172467571Y-111568039D01*
X172467570Y-111568035D01*
X172466982Y-111564558D01*
X172371775Y-111232530D01*
X172285679Y-111023646D01*
X172241488Y-110916429D01*
X172241484Y-110916421D01*
X172240150Y-110913184D01*
X172073748Y-110610500D01*
X172054317Y-110582954D01*
X171876674Y-110331130D01*
X171876673Y-110331129D01*
X171874643Y-110328251D01*
X171645317Y-110069955D01*
X171536443Y-109971924D01*
X171391247Y-109841189D01*
X171391244Y-109841187D01*
X171388629Y-109838832D01*
X171354385Y-109814316D01*
X171110644Y-109639814D01*
X171110637Y-109639810D01*
X171107777Y-109637762D01*
X170806262Y-109469251D01*
X170487843Y-109335400D01*
X170436355Y-109320246D01*
X170325719Y-109287684D01*
X170156487Y-109237876D01*
X170153017Y-109237264D01*
X170153012Y-109237263D01*
X169931471Y-109198200D01*
X169816326Y-109177897D01*
X169737062Y-109172910D01*
X169475117Y-109156429D01*
X169475111Y-109156429D01*
X169471599Y-109156208D01*
X169375771Y-109160895D01*
X169130110Y-109172910D01*
X169130102Y-109172911D01*
X169126603Y-109173082D01*
X169123135Y-109173644D01*
X169123132Y-109173644D01*
X168789112Y-109227743D01*
X168789109Y-109227744D01*
X168785637Y-109228306D01*
X168782250Y-109229252D01*
X168782244Y-109229253D01*
X168577188Y-109286506D01*
X168452953Y-109321193D01*
X168368434Y-109355341D01*
X168135960Y-109449266D01*
X168135956Y-109449268D01*
X168132696Y-109450585D01*
X168129609Y-109452254D01*
X168129605Y-109452256D01*
X168092781Y-109472167D01*
X167828857Y-109614870D01*
X167545225Y-109812000D01*
X167542583Y-109814313D01*
X167542579Y-109814316D01*
X167395471Y-109943100D01*
X167285335Y-110039517D01*
X167235368Y-110094238D01*
X167113123Y-110228113D01*
X167052425Y-110294585D01*
X166849399Y-110574027D01*
X166847657Y-110577093D01*
X166847656Y-110577095D01*
X166838780Y-110592720D01*
X166678787Y-110874358D01*
X166542716Y-111191835D01*
X166529409Y-111235910D01*
X166466229Y-111445174D01*
X166442882Y-111522502D01*
X166380529Y-111862236D01*
X166356435Y-112206803D01*
X165758500Y-112206803D01*
X165758500Y-110116371D01*
X165778502Y-110048250D01*
X165795405Y-110027276D01*
X168699276Y-107123405D01*
X168761588Y-107089379D01*
X168788371Y-107086500D01*
X184111626Y-107086500D01*
X184179747Y-107106502D01*
X184226240Y-107160158D01*
X184236344Y-107230432D01*
X184206850Y-107295012D01*
X184200721Y-107301595D01*
X183950040Y-107552276D01*
X183887728Y-107586302D01*
X183812728Y-107579590D01*
X183767594Y-107560895D01*
X183677149Y-107539181D01*
X183541524Y-107506620D01*
X183541518Y-107506619D01*
X183536711Y-107505465D01*
X183300000Y-107486835D01*
X183063289Y-107505465D01*
X183058482Y-107506619D01*
X183058476Y-107506620D01*
X182922851Y-107539181D01*
X182832406Y-107560895D01*
X182827835Y-107562788D01*
X182827833Y-107562789D01*
X182617611Y-107649865D01*
X182617607Y-107649867D01*
X182613037Y-107651760D01*
X182608817Y-107654346D01*
X182414798Y-107773241D01*
X182414792Y-107773245D01*
X182410584Y-107775824D01*
X182230031Y-107930031D01*
X182075824Y-108110584D01*
X182073245Y-108114792D01*
X182073241Y-108114798D01*
X181955837Y-108306384D01*
X181951760Y-108313037D01*
X181860895Y-108532406D01*
X181855809Y-108553590D01*
X181821025Y-108698478D01*
X181805465Y-108763289D01*
X181786835Y-109000000D01*
X181805465Y-109236711D01*
X181806619Y-109241518D01*
X181806620Y-109241524D01*
X181825747Y-109321193D01*
X181860895Y-109467594D01*
X181862788Y-109472165D01*
X181862789Y-109472167D01*
X181943393Y-109666762D01*
X181951760Y-109686963D01*
X181954346Y-109691183D01*
X182073241Y-109885202D01*
X182073245Y-109885208D01*
X182075824Y-109889416D01*
X182230031Y-110069969D01*
X182233787Y-110073177D01*
X182406822Y-110220963D01*
X182410584Y-110224176D01*
X182478761Y-110265955D01*
X182481336Y-110267533D01*
X182528967Y-110320181D01*
X182541500Y-110374965D01*
X182541500Y-114125035D01*
X182521498Y-114193156D01*
X182481337Y-114232466D01*
X182410584Y-114275824D01*
X182406822Y-114279037D01*
X182285772Y-114382424D01*
X182230031Y-114430031D01*
X182075824Y-114610584D01*
X182073245Y-114614792D01*
X182073241Y-114614798D01*
X181982719Y-114762516D01*
X181951760Y-114813037D01*
X181949867Y-114817607D01*
X181949865Y-114817611D01*
X181889088Y-114964342D01*
X181860895Y-115032406D01*
X181848381Y-115084530D01*
X181812056Y-115235836D01*
X181805465Y-115263289D01*
X181786835Y-115500000D01*
X181805465Y-115736711D01*
X181806619Y-115741518D01*
X181806620Y-115741524D01*
X181839708Y-115879342D01*
X181860895Y-115967594D01*
X181862788Y-115972165D01*
X181862789Y-115972167D01*
X181946221Y-116173590D01*
X181951760Y-116186963D01*
X181954346Y-116191183D01*
X182073241Y-116385202D01*
X182073245Y-116385208D01*
X182075824Y-116389416D01*
X182230031Y-116569969D01*
X182233787Y-116573177D01*
X182254618Y-116590968D01*
X182410584Y-116724176D01*
X182414792Y-116726755D01*
X182414798Y-116726759D01*
X182584623Y-116830828D01*
X182613037Y-116848240D01*
X182617607Y-116850133D01*
X182617611Y-116850135D01*
X182811450Y-116930425D01*
X182832406Y-116939105D01*
X182912609Y-116958360D01*
X183058476Y-116993380D01*
X183058482Y-116993381D01*
X183063289Y-116994535D01*
X183300000Y-117013165D01*
X183536711Y-116994535D01*
X183541518Y-116993381D01*
X183541524Y-116993380D01*
X183687391Y-116958360D01*
X183767594Y-116939105D01*
X183788550Y-116930425D01*
X183982389Y-116850135D01*
X183982393Y-116850133D01*
X183986963Y-116848240D01*
X184015377Y-116830828D01*
X184185202Y-116726759D01*
X184185208Y-116726755D01*
X184189416Y-116724176D01*
X184345382Y-116590968D01*
X184366213Y-116573177D01*
X184369969Y-116569969D01*
X184524176Y-116389416D01*
X184526755Y-116385208D01*
X184526759Y-116385202D01*
X184645654Y-116191183D01*
X184648240Y-116186963D01*
X184653780Y-116173590D01*
X184737211Y-115972167D01*
X184737212Y-115972165D01*
X184739105Y-115967594D01*
X184760292Y-115879342D01*
X184793380Y-115741524D01*
X184793381Y-115741518D01*
X184794535Y-115736711D01*
X184813165Y-115500000D01*
X184794535Y-115263289D01*
X184787945Y-115235836D01*
X184751619Y-115084530D01*
X184739105Y-115032406D01*
X184710912Y-114964342D01*
X184650135Y-114817611D01*
X184650133Y-114817607D01*
X184648240Y-114813037D01*
X184617281Y-114762516D01*
X184526759Y-114614798D01*
X184526755Y-114614792D01*
X184524176Y-114610584D01*
X184369969Y-114430031D01*
X184314229Y-114382424D01*
X184193178Y-114279037D01*
X184189416Y-114275824D01*
X184118664Y-114232467D01*
X184071033Y-114179819D01*
X184058500Y-114125035D01*
X184058500Y-110374965D01*
X184078502Y-110306844D01*
X184118664Y-110267533D01*
X184121239Y-110265955D01*
X184189416Y-110224176D01*
X184193178Y-110220963D01*
X184366213Y-110073177D01*
X184369969Y-110069969D01*
X184524176Y-109889416D01*
X184526755Y-109885208D01*
X184526759Y-109885202D01*
X184645654Y-109691183D01*
X184648240Y-109686963D01*
X184656608Y-109666762D01*
X184737211Y-109472167D01*
X184737212Y-109472165D01*
X184739105Y-109467594D01*
X184774253Y-109321193D01*
X184793380Y-109241524D01*
X184793381Y-109241518D01*
X184794535Y-109236711D01*
X184813165Y-109000000D01*
X184805648Y-108904493D01*
X184820244Y-108835014D01*
X184842165Y-108805513D01*
X186035405Y-107612273D01*
X186097717Y-107578247D01*
X186168532Y-107583312D01*
X186225368Y-107625859D01*
X186250179Y-107692379D01*
X186250500Y-107701368D01*
X186250500Y-108673930D01*
X186249067Y-108692880D01*
X186248090Y-108699305D01*
X186245801Y-108714349D01*
X186246394Y-108721641D01*
X186246394Y-108721644D01*
X186250085Y-108767018D01*
X186250500Y-108777233D01*
X186250500Y-108785293D01*
X186252049Y-108798583D01*
X186253789Y-108813507D01*
X186254222Y-108817882D01*
X186255616Y-108835014D01*
X186260140Y-108890637D01*
X186262396Y-108897601D01*
X186263587Y-108903560D01*
X186264971Y-108909415D01*
X186265818Y-108916681D01*
X186290735Y-108985327D01*
X186292152Y-108989455D01*
X186314649Y-109058899D01*
X186318445Y-109065154D01*
X186320951Y-109070628D01*
X186323670Y-109076058D01*
X186326167Y-109082937D01*
X186330180Y-109089057D01*
X186330180Y-109089058D01*
X186366186Y-109143976D01*
X186368523Y-109147680D01*
X186406405Y-109210107D01*
X186410121Y-109214315D01*
X186410122Y-109214316D01*
X186413803Y-109218484D01*
X186413776Y-109218508D01*
X186416429Y-109221500D01*
X186419132Y-109224733D01*
X186423144Y-109230852D01*
X186428456Y-109235884D01*
X186479383Y-109284128D01*
X186481825Y-109286506D01*
X193410230Y-116214911D01*
X193422616Y-116229323D01*
X193431149Y-116240918D01*
X193431154Y-116240923D01*
X193435492Y-116246818D01*
X193441070Y-116251557D01*
X193441073Y-116251560D01*
X193475768Y-116281035D01*
X193483284Y-116287965D01*
X193488980Y-116293661D01*
X193491841Y-116295924D01*
X193491846Y-116295929D01*
X193511266Y-116311293D01*
X193514667Y-116314082D01*
X193570285Y-116361333D01*
X193576798Y-116364659D01*
X193581837Y-116368020D01*
X193586979Y-116371196D01*
X193592716Y-116375734D01*
X193658875Y-116406655D01*
X193662769Y-116408558D01*
X193727808Y-116441769D01*
X193734917Y-116443508D01*
X193740551Y-116445604D01*
X193746321Y-116447523D01*
X193752950Y-116450622D01*
X193760113Y-116452112D01*
X193760116Y-116452113D01*
X193810830Y-116462661D01*
X193824435Y-116465491D01*
X193828701Y-116466457D01*
X193899610Y-116483808D01*
X193905212Y-116484156D01*
X193905215Y-116484156D01*
X193910764Y-116484500D01*
X193910762Y-116484535D01*
X193914734Y-116484775D01*
X193918955Y-116485152D01*
X193926115Y-116486641D01*
X194003542Y-116484546D01*
X194006950Y-116484500D01*
X201771429Y-116484500D01*
X201839550Y-116504502D01*
X201886043Y-116558158D01*
X201892453Y-116577466D01*
X201892474Y-116577666D01*
X201894654Y-116584199D01*
X201894654Y-116584201D01*
X201927949Y-116683997D01*
X201948450Y-116745446D01*
X202041522Y-116895848D01*
X202046704Y-116901021D01*
X202050016Y-116904327D01*
X202166697Y-117020805D01*
X202172927Y-117024645D01*
X202172928Y-117024646D01*
X202310090Y-117109194D01*
X202317262Y-117113615D01*
X202397005Y-117140064D01*
X202478611Y-117167132D01*
X202478613Y-117167132D01*
X202485139Y-117169297D01*
X202491975Y-117169997D01*
X202491978Y-117169998D01*
X202535031Y-117174409D01*
X202589600Y-117180000D01*
X203940400Y-117180000D01*
X203943646Y-117179663D01*
X203943650Y-117179663D01*
X204039308Y-117169738D01*
X204039312Y-117169737D01*
X204046166Y-117169026D01*
X204052702Y-117166845D01*
X204052704Y-117166845D01*
X204190477Y-117120880D01*
X204213946Y-117113050D01*
X204364348Y-117019978D01*
X204457389Y-116926775D01*
X204479643Y-116904482D01*
X204541926Y-116870403D01*
X204568816Y-116867500D01*
X204945498Y-116867500D01*
X205013619Y-116887502D01*
X205034515Y-116904326D01*
X205151197Y-117020805D01*
X205157427Y-117024645D01*
X205157428Y-117024646D01*
X205294590Y-117109194D01*
X205301762Y-117113615D01*
X205381505Y-117140064D01*
X205463111Y-117167132D01*
X205463113Y-117167132D01*
X205469639Y-117169297D01*
X205476475Y-117169997D01*
X205476478Y-117169998D01*
X205519531Y-117174409D01*
X205574100Y-117180000D01*
X206078249Y-117180000D01*
X206146370Y-117200002D01*
X206167344Y-117216905D01*
X206406595Y-117456156D01*
X206440621Y-117518468D01*
X206443500Y-117545251D01*
X206443500Y-118458010D01*
X206442067Y-118476960D01*
X206438801Y-118498429D01*
X206439394Y-118505721D01*
X206439394Y-118505724D01*
X206443085Y-118551098D01*
X206443500Y-118561313D01*
X206443500Y-118569373D01*
X206443925Y-118573017D01*
X206446789Y-118597587D01*
X206447222Y-118601962D01*
X206453140Y-118674717D01*
X206455396Y-118681681D01*
X206456587Y-118687640D01*
X206457971Y-118693495D01*
X206458818Y-118700761D01*
X206483735Y-118769407D01*
X206485152Y-118773535D01*
X206507649Y-118842979D01*
X206511445Y-118849234D01*
X206513951Y-118854708D01*
X206516670Y-118860138D01*
X206519167Y-118867017D01*
X206523180Y-118873137D01*
X206523180Y-118873138D01*
X206559186Y-118928056D01*
X206561523Y-118931760D01*
X206599405Y-118994187D01*
X206603121Y-118998395D01*
X206603122Y-118998396D01*
X206606803Y-119002564D01*
X206606776Y-119002588D01*
X206609429Y-119005580D01*
X206612132Y-119008813D01*
X206616144Y-119014932D01*
X206621456Y-119019964D01*
X206672383Y-119068208D01*
X206674825Y-119070586D01*
X207842510Y-120238271D01*
X207854896Y-120252683D01*
X207863429Y-120264278D01*
X207863434Y-120264283D01*
X207867772Y-120270178D01*
X207873350Y-120274917D01*
X207873353Y-120274920D01*
X207908048Y-120304395D01*
X207915564Y-120311325D01*
X207921259Y-120317020D01*
X207927040Y-120321594D01*
X207943531Y-120334641D01*
X207946935Y-120337432D01*
X207969348Y-120356473D01*
X208002565Y-120384693D01*
X208009081Y-120388021D01*
X208014130Y-120391388D01*
X208019259Y-120394555D01*
X208024996Y-120399094D01*
X208091155Y-120430015D01*
X208095049Y-120431918D01*
X208160088Y-120465129D01*
X208167196Y-120466868D01*
X208172839Y-120468967D01*
X208178602Y-120470884D01*
X208185230Y-120473982D01*
X208192392Y-120475472D01*
X208192393Y-120475472D01*
X208256692Y-120488846D01*
X208260976Y-120489816D01*
X208331890Y-120507168D01*
X208337492Y-120507516D01*
X208337495Y-120507516D01*
X208343044Y-120507860D01*
X208343042Y-120507896D01*
X208347035Y-120508135D01*
X208351227Y-120508509D01*
X208358395Y-120510000D01*
X208435800Y-120507906D01*
X208439208Y-120507860D01*
X210415870Y-120507860D01*
X210434820Y-120509293D01*
X210449055Y-120511459D01*
X210449059Y-120511459D01*
X210456289Y-120512559D01*
X210463581Y-120511966D01*
X210463584Y-120511966D01*
X210508958Y-120508275D01*
X210519173Y-120507860D01*
X210527233Y-120507860D01*
X210544620Y-120505833D01*
X210555447Y-120504571D01*
X210559822Y-120504138D01*
X210625279Y-120498814D01*
X210625282Y-120498813D01*
X210632577Y-120498220D01*
X210639541Y-120495964D01*
X210645500Y-120494773D01*
X210651355Y-120493389D01*
X210658621Y-120492542D01*
X210727267Y-120467625D01*
X210731395Y-120466208D01*
X210793876Y-120445967D01*
X210793878Y-120445966D01*
X210800839Y-120443711D01*
X210807094Y-120439915D01*
X210812568Y-120437409D01*
X210817998Y-120434690D01*
X210824877Y-120432193D01*
X210830998Y-120428180D01*
X210885916Y-120392174D01*
X210889620Y-120389837D01*
X210952047Y-120351955D01*
X210960424Y-120344557D01*
X210960448Y-120344584D01*
X210963440Y-120341931D01*
X210966673Y-120339228D01*
X210972792Y-120335216D01*
X211026068Y-120278977D01*
X211028446Y-120276535D01*
X212270576Y-119034405D01*
X212332888Y-119000379D01*
X212359671Y-118997500D01*
X212982400Y-118997500D01*
X212985646Y-118997163D01*
X212985650Y-118997163D01*
X213081308Y-118987238D01*
X213081312Y-118987237D01*
X213088166Y-118986526D01*
X213094702Y-118984345D01*
X213094704Y-118984345D01*
X213248998Y-118932868D01*
X213255946Y-118930550D01*
X213406348Y-118837478D01*
X213531305Y-118712303D01*
X213542978Y-118693366D01*
X213620275Y-118567968D01*
X213620276Y-118567966D01*
X213624115Y-118561738D01*
X213679797Y-118393861D01*
X213683111Y-118361522D01*
X213688882Y-118305193D01*
X213690500Y-118289400D01*
X213690500Y-118088200D01*
X228824828Y-118088200D01*
X228843897Y-118391290D01*
X228900802Y-118689600D01*
X228932571Y-118787373D01*
X228987983Y-118957911D01*
X228994648Y-118978425D01*
X229013412Y-119018301D01*
X229122264Y-119249625D01*
X229122268Y-119249632D01*
X229123952Y-119253211D01*
X229286677Y-119509625D01*
X229318535Y-119548135D01*
X229476939Y-119739611D01*
X229480256Y-119743621D01*
X229483146Y-119746335D01*
X229483147Y-119746336D01*
X229686143Y-119936963D01*
X229701635Y-119951511D01*
X229947325Y-120130015D01*
X229950794Y-120131922D01*
X229950797Y-120131924D01*
X230170458Y-120252683D01*
X230213450Y-120276318D01*
X230495813Y-120388113D01*
X230499652Y-120389099D01*
X230499656Y-120389100D01*
X230636226Y-120424165D01*
X230789961Y-120463638D01*
X230793889Y-120464134D01*
X230793893Y-120464135D01*
X230873378Y-120474176D01*
X231091255Y-120501700D01*
X231394945Y-120501700D01*
X231612822Y-120474176D01*
X231692307Y-120464135D01*
X231692311Y-120464134D01*
X231696239Y-120463638D01*
X231849974Y-120424165D01*
X231986544Y-120389100D01*
X231986548Y-120389099D01*
X231990387Y-120388113D01*
X232272750Y-120276318D01*
X232315742Y-120252683D01*
X232535403Y-120131924D01*
X232535406Y-120131922D01*
X232538875Y-120130015D01*
X232784565Y-119951511D01*
X232800057Y-119936963D01*
X233003053Y-119746336D01*
X233003054Y-119746335D01*
X233005944Y-119743621D01*
X233009262Y-119739611D01*
X233167665Y-119548135D01*
X233199523Y-119509625D01*
X233362248Y-119253211D01*
X233363932Y-119249632D01*
X233363936Y-119249625D01*
X233472788Y-119018301D01*
X233491552Y-118978425D01*
X233498218Y-118957911D01*
X233553629Y-118787373D01*
X233585398Y-118689600D01*
X233642303Y-118391290D01*
X233661372Y-118088200D01*
X233642303Y-117785110D01*
X233585398Y-117486800D01*
X233491552Y-117197975D01*
X233434640Y-117077031D01*
X233363936Y-116926775D01*
X233363932Y-116926768D01*
X233362248Y-116923189D01*
X233199523Y-116666775D01*
X233087307Y-116531130D01*
X233008469Y-116435831D01*
X233008468Y-116435830D01*
X233005944Y-116432779D01*
X232980580Y-116408960D01*
X232787451Y-116227599D01*
X232787450Y-116227598D01*
X232784565Y-116224889D01*
X232779572Y-116221261D01*
X232688746Y-116155273D01*
X232538875Y-116046385D01*
X232525719Y-116039152D01*
X232276212Y-115901985D01*
X232276209Y-115901984D01*
X232272750Y-115900082D01*
X231990387Y-115788287D01*
X231986548Y-115787301D01*
X231986544Y-115787300D01*
X231813423Y-115742850D01*
X231696239Y-115712762D01*
X231692311Y-115712266D01*
X231692307Y-115712265D01*
X231572868Y-115697177D01*
X231394945Y-115674700D01*
X231091255Y-115674700D01*
X230913332Y-115697177D01*
X230793893Y-115712265D01*
X230793889Y-115712266D01*
X230789961Y-115712762D01*
X230672777Y-115742850D01*
X230499656Y-115787300D01*
X230499652Y-115787301D01*
X230495813Y-115788287D01*
X230213450Y-115900082D01*
X230209991Y-115901984D01*
X230209988Y-115901985D01*
X229960482Y-116039152D01*
X229947325Y-116046385D01*
X229797454Y-116155273D01*
X229706629Y-116221261D01*
X229701635Y-116224889D01*
X229698750Y-116227598D01*
X229698749Y-116227599D01*
X229505621Y-116408960D01*
X229480256Y-116432779D01*
X229477732Y-116435830D01*
X229477731Y-116435831D01*
X229398893Y-116531130D01*
X229286677Y-116666775D01*
X229123952Y-116923189D01*
X229122268Y-116926768D01*
X229122264Y-116926775D01*
X229051560Y-117077031D01*
X228994648Y-117197975D01*
X228900802Y-117486800D01*
X228843897Y-117785110D01*
X228824828Y-118088200D01*
X213690500Y-118088200D01*
X213690500Y-117538600D01*
X213685775Y-117493061D01*
X213680238Y-117439692D01*
X213680237Y-117439688D01*
X213679526Y-117432834D01*
X213675287Y-117420126D01*
X213625868Y-117272002D01*
X213623550Y-117265054D01*
X213530478Y-117114652D01*
X213525011Y-117109194D01*
X213410483Y-116994866D01*
X213405303Y-116989695D01*
X213325105Y-116940260D01*
X213260968Y-116900725D01*
X213260966Y-116900724D01*
X213254738Y-116896885D01*
X213166567Y-116867640D01*
X213093389Y-116843368D01*
X213093387Y-116843368D01*
X213086861Y-116841203D01*
X213080025Y-116840503D01*
X213080022Y-116840502D01*
X213036969Y-116836091D01*
X212982400Y-116830500D01*
X211581600Y-116830500D01*
X211578354Y-116830837D01*
X211578350Y-116830837D01*
X211482692Y-116840762D01*
X211482688Y-116840763D01*
X211475834Y-116841474D01*
X211469298Y-116843655D01*
X211469296Y-116843655D01*
X211397405Y-116867640D01*
X211308054Y-116897450D01*
X211157652Y-116990522D01*
X211032695Y-117115697D01*
X211028855Y-117121927D01*
X211028854Y-117121928D01*
X210958284Y-117236414D01*
X210939885Y-117266262D01*
X210937581Y-117273209D01*
X210892001Y-117410630D01*
X210884203Y-117434139D01*
X210883503Y-117440975D01*
X210883502Y-117440978D01*
X210874820Y-117525716D01*
X210847979Y-117591443D01*
X210789864Y-117632225D01*
X210718926Y-117635113D01*
X210657687Y-117599191D01*
X210635281Y-117566123D01*
X210567202Y-117420126D01*
X210567199Y-117420121D01*
X210564876Y-117415139D01*
X210538634Y-117377661D01*
X210433448Y-117227440D01*
X210433446Y-117227437D01*
X210430289Y-117222929D01*
X210264371Y-117057011D01*
X210259863Y-117053854D01*
X210259860Y-117053852D01*
X210072161Y-116922424D01*
X210073368Y-116920700D01*
X210030686Y-116875934D01*
X210017252Y-116806220D01*
X210043640Y-116740309D01*
X210072867Y-116714984D01*
X210072161Y-116713976D01*
X210259860Y-116582548D01*
X210259863Y-116582546D01*
X210264371Y-116579389D01*
X210430289Y-116413471D01*
X210467430Y-116360429D01*
X210522885Y-116316101D01*
X210570642Y-116306700D01*
X210614730Y-116306700D01*
X210633680Y-116308133D01*
X210647915Y-116310299D01*
X210647919Y-116310299D01*
X210655149Y-116311399D01*
X210662441Y-116310806D01*
X210662444Y-116310806D01*
X210707818Y-116307115D01*
X210718033Y-116306700D01*
X210726093Y-116306700D01*
X210739383Y-116305151D01*
X210754307Y-116303411D01*
X210758682Y-116302978D01*
X210824139Y-116297654D01*
X210824142Y-116297653D01*
X210831437Y-116297060D01*
X210838401Y-116294804D01*
X210844360Y-116293613D01*
X210850215Y-116292229D01*
X210857481Y-116291382D01*
X210926127Y-116266465D01*
X210930255Y-116265048D01*
X210992736Y-116244807D01*
X210992738Y-116244806D01*
X210999699Y-116242551D01*
X211005954Y-116238755D01*
X211011428Y-116236249D01*
X211016858Y-116233530D01*
X211023737Y-116231033D01*
X211029858Y-116227020D01*
X211084776Y-116191014D01*
X211088480Y-116188677D01*
X211150907Y-116150795D01*
X211159284Y-116143397D01*
X211159308Y-116143424D01*
X211162300Y-116140771D01*
X211165533Y-116138068D01*
X211171652Y-116134056D01*
X211224928Y-116077817D01*
X211227306Y-116075375D01*
X211263529Y-116039152D01*
X211325841Y-116005126D01*
X211392289Y-116008654D01*
X211477139Y-116036797D01*
X211483975Y-116037497D01*
X211483978Y-116037498D01*
X211527031Y-116041909D01*
X211581600Y-116047500D01*
X212982400Y-116047500D01*
X212985646Y-116047163D01*
X212985650Y-116047163D01*
X213081308Y-116037238D01*
X213081312Y-116037237D01*
X213088166Y-116036526D01*
X213094702Y-116034345D01*
X213094704Y-116034345D01*
X213226806Y-115990272D01*
X213255946Y-115980550D01*
X213406348Y-115887478D01*
X213531305Y-115762303D01*
X213543296Y-115742850D01*
X213620275Y-115617968D01*
X213620276Y-115617966D01*
X213624115Y-115611738D01*
X213650564Y-115531995D01*
X213677632Y-115450389D01*
X213677632Y-115450387D01*
X213679797Y-115443861D01*
X213690500Y-115339400D01*
X213690500Y-114588600D01*
X213690163Y-114585350D01*
X213680238Y-114489692D01*
X213680237Y-114489688D01*
X213679526Y-114482834D01*
X213661910Y-114430031D01*
X213625868Y-114322002D01*
X213623550Y-114315054D01*
X213530478Y-114164652D01*
X213405303Y-114039695D01*
X213398485Y-114035492D01*
X213260968Y-113950725D01*
X213260966Y-113950724D01*
X213254738Y-113946885D01*
X213094254Y-113893655D01*
X213093389Y-113893368D01*
X213093387Y-113893368D01*
X213086861Y-113891203D01*
X213080025Y-113890503D01*
X213080022Y-113890502D01*
X213036969Y-113886091D01*
X212982400Y-113880500D01*
X211581600Y-113880500D01*
X211578354Y-113880837D01*
X211578350Y-113880837D01*
X211482692Y-113890762D01*
X211482688Y-113890763D01*
X211475834Y-113891474D01*
X211469298Y-113893655D01*
X211469296Y-113893655D01*
X211337194Y-113937728D01*
X211308054Y-113947450D01*
X211157652Y-114040522D01*
X211032695Y-114165697D01*
X211028853Y-114171929D01*
X211028852Y-114171931D01*
X210996778Y-114223965D01*
X210948949Y-114266241D01*
X210949919Y-114267839D01*
X210949904Y-114267848D01*
X210949901Y-114267849D01*
X210949116Y-114268325D01*
X210943602Y-114270968D01*
X210941962Y-114272417D01*
X210938159Y-114274158D01*
X210932745Y-114276869D01*
X210925863Y-114279367D01*
X210919743Y-114283380D01*
X210919742Y-114283380D01*
X210864824Y-114319386D01*
X210861120Y-114321723D01*
X210798693Y-114359605D01*
X210790316Y-114367003D01*
X210790292Y-114366976D01*
X210787300Y-114369629D01*
X210784067Y-114372332D01*
X210777948Y-114376344D01*
X210748464Y-114407468D01*
X210724672Y-114432583D01*
X210722332Y-114434987D01*
X210541432Y-114615887D01*
X210479124Y-114649910D01*
X210408308Y-114644846D01*
X210363245Y-114615885D01*
X210264371Y-114517011D01*
X210259863Y-114513854D01*
X210259860Y-114513852D01*
X210072161Y-114382424D01*
X210073368Y-114380700D01*
X210030686Y-114335934D01*
X210017252Y-114266220D01*
X210043640Y-114200309D01*
X210072867Y-114174984D01*
X210072161Y-114173976D01*
X210259860Y-114042548D01*
X210259863Y-114042546D01*
X210264371Y-114039389D01*
X210430289Y-113873471D01*
X210439706Y-113860023D01*
X210561719Y-113685770D01*
X210561720Y-113685768D01*
X210564876Y-113681261D01*
X210567199Y-113676279D01*
X210567202Y-113676274D01*
X210661718Y-113473583D01*
X210661719Y-113473582D01*
X210664041Y-113468601D01*
X210670356Y-113445032D01*
X210701541Y-113328649D01*
X210738493Y-113268026D01*
X210802353Y-113237005D01*
X210823148Y-113235260D01*
X210912563Y-113235189D01*
X210980700Y-113255137D01*
X211019806Y-113294883D01*
X211033522Y-113317048D01*
X211158697Y-113442005D01*
X211164927Y-113445845D01*
X211164928Y-113445846D01*
X211302090Y-113530394D01*
X211309262Y-113534815D01*
X211348197Y-113547729D01*
X211470611Y-113588332D01*
X211470613Y-113588332D01*
X211477139Y-113590497D01*
X211483975Y-113591197D01*
X211483978Y-113591198D01*
X211527031Y-113595609D01*
X211581600Y-113601200D01*
X212982400Y-113601200D01*
X212985646Y-113600863D01*
X212985650Y-113600863D01*
X213081308Y-113590938D01*
X213081312Y-113590937D01*
X213088166Y-113590226D01*
X213094702Y-113588045D01*
X213094704Y-113588045D01*
X213227672Y-113543683D01*
X213255946Y-113534250D01*
X213406348Y-113441178D01*
X213531305Y-113316003D01*
X213576951Y-113241952D01*
X213620275Y-113171668D01*
X213620276Y-113171666D01*
X213624115Y-113165438D01*
X213649749Y-113088153D01*
X213688146Y-113031707D01*
X213692952Y-113028556D01*
X213746228Y-112972317D01*
X213748606Y-112969875D01*
X214333011Y-112385470D01*
X214347423Y-112373084D01*
X214359018Y-112364551D01*
X214359023Y-112364546D01*
X214364918Y-112360208D01*
X214369657Y-112354630D01*
X214369660Y-112354627D01*
X214399135Y-112319932D01*
X214406065Y-112312416D01*
X214411760Y-112306721D01*
X214420128Y-112296144D01*
X214429381Y-112284449D01*
X214432172Y-112281045D01*
X214474691Y-112230997D01*
X214474692Y-112230995D01*
X214479433Y-112225415D01*
X214482763Y-112218894D01*
X214486137Y-112213835D01*
X214489295Y-112208722D01*
X214493834Y-112202984D01*
X214524755Y-112136825D01*
X214526661Y-112132925D01*
X214559869Y-112067892D01*
X214561608Y-112060784D01*
X214563707Y-112055141D01*
X214565624Y-112049378D01*
X214568722Y-112042750D01*
X214583587Y-111971283D01*
X214584557Y-111966999D01*
X214598084Y-111911717D01*
X214601908Y-111896090D01*
X214602600Y-111884936D01*
X214602636Y-111884938D01*
X214602875Y-111880945D01*
X214603249Y-111876753D01*
X214604740Y-111869585D01*
X214602646Y-111792179D01*
X214602600Y-111788772D01*
X214602600Y-108126325D01*
X214622602Y-108058204D01*
X214676258Y-108011711D01*
X214728246Y-108000325D01*
X215667719Y-107997686D01*
X215735896Y-108017497D01*
X215782539Y-108071022D01*
X215793225Y-108109094D01*
X215793650Y-108112739D01*
X215794789Y-108122509D01*
X215795221Y-108126881D01*
X215801139Y-108199636D01*
X215803395Y-108206600D01*
X215804586Y-108212559D01*
X215805970Y-108218414D01*
X215806817Y-108225680D01*
X215831734Y-108294326D01*
X215833151Y-108298454D01*
X215843280Y-108329719D01*
X215855648Y-108367898D01*
X215859444Y-108374153D01*
X215861950Y-108379627D01*
X215864669Y-108385057D01*
X215867166Y-108391936D01*
X215871179Y-108398056D01*
X215871179Y-108398057D01*
X215907185Y-108452975D01*
X215909522Y-108456679D01*
X215947404Y-108519106D01*
X215951120Y-108523314D01*
X215951121Y-108523315D01*
X215954802Y-108527483D01*
X215954775Y-108527507D01*
X215957428Y-108530499D01*
X215960131Y-108533732D01*
X215964143Y-108539851D01*
X216000559Y-108574348D01*
X216020382Y-108593127D01*
X216022824Y-108595505D01*
X222499230Y-115071911D01*
X222511616Y-115086323D01*
X222520149Y-115097918D01*
X222520154Y-115097923D01*
X222524492Y-115103818D01*
X222530070Y-115108557D01*
X222530073Y-115108560D01*
X222564768Y-115138035D01*
X222572284Y-115144965D01*
X222577980Y-115150661D01*
X222580841Y-115152924D01*
X222580846Y-115152929D01*
X222600256Y-115168285D01*
X222603658Y-115171074D01*
X222638569Y-115200733D01*
X222659285Y-115218333D01*
X222665802Y-115221661D01*
X222670850Y-115225027D01*
X222675972Y-115228190D01*
X222681716Y-115232735D01*
X222747895Y-115263664D01*
X222751779Y-115265563D01*
X222816808Y-115298769D01*
X222823923Y-115300510D01*
X222829578Y-115302613D01*
X222835317Y-115304522D01*
X222841950Y-115307622D01*
X222913435Y-115322491D01*
X222917701Y-115323457D01*
X222988610Y-115340808D01*
X222994212Y-115341156D01*
X222994215Y-115341156D01*
X222999764Y-115341500D01*
X222999762Y-115341535D01*
X223003734Y-115341775D01*
X223007955Y-115342152D01*
X223015115Y-115343641D01*
X223092542Y-115341546D01*
X223095950Y-115341500D01*
X234140629Y-115341500D01*
X234208750Y-115361502D01*
X234229724Y-115378405D01*
X235447230Y-116595911D01*
X235459616Y-116610323D01*
X235468149Y-116621918D01*
X235468154Y-116621923D01*
X235472492Y-116627818D01*
X235478070Y-116632557D01*
X235478073Y-116632560D01*
X235512768Y-116662035D01*
X235520284Y-116668965D01*
X235525979Y-116674660D01*
X235528861Y-116676940D01*
X235548251Y-116692281D01*
X235551655Y-116695072D01*
X235575093Y-116714984D01*
X235607285Y-116742333D01*
X235613801Y-116745661D01*
X235618838Y-116749020D01*
X235623977Y-116752194D01*
X235629716Y-116756734D01*
X235636349Y-116759834D01*
X235695837Y-116787636D01*
X235699791Y-116789569D01*
X235764808Y-116822769D01*
X235771924Y-116824510D01*
X235777554Y-116826604D01*
X235783321Y-116828523D01*
X235789950Y-116831621D01*
X235797110Y-116833110D01*
X235797112Y-116833111D01*
X235861396Y-116846482D01*
X235865680Y-116847452D01*
X235936610Y-116864808D01*
X235942212Y-116865156D01*
X235942215Y-116865156D01*
X235947764Y-116865500D01*
X235947762Y-116865536D01*
X235951752Y-116865775D01*
X235955950Y-116866150D01*
X235963115Y-116867640D01*
X236040520Y-116865546D01*
X236043928Y-116865500D01*
X236052491Y-116865500D01*
X236120612Y-116885502D01*
X236149402Y-116912595D01*
X236149987Y-116912088D01*
X236296250Y-117080938D01*
X236468126Y-117223632D01*
X236661000Y-117336338D01*
X236869692Y-117416030D01*
X236874760Y-117417061D01*
X236874763Y-117417062D01*
X236958700Y-117434139D01*
X237088597Y-117460567D01*
X237093772Y-117460757D01*
X237093774Y-117460757D01*
X237306673Y-117468564D01*
X237306677Y-117468564D01*
X237311837Y-117468753D01*
X237316957Y-117468097D01*
X237316959Y-117468097D01*
X237528288Y-117441025D01*
X237528289Y-117441025D01*
X237533416Y-117440368D01*
X237538366Y-117438883D01*
X237742429Y-117377661D01*
X237742434Y-117377659D01*
X237747384Y-117376174D01*
X237947994Y-117277896D01*
X238129860Y-117148173D01*
X238135396Y-117142657D01*
X238261990Y-117016504D01*
X238288096Y-116990489D01*
X238355928Y-116896091D01*
X238415435Y-116813277D01*
X238418453Y-116809077D01*
X238428095Y-116789569D01*
X238515136Y-116613453D01*
X238515137Y-116613451D01*
X238517430Y-116608811D01*
X238560679Y-116466461D01*
X238580865Y-116400023D01*
X238580865Y-116400021D01*
X238582370Y-116395069D01*
X238611529Y-116173590D01*
X238613156Y-116107000D01*
X238594852Y-115884361D01*
X238540431Y-115667702D01*
X238451354Y-115462840D01*
X238396731Y-115378405D01*
X238332822Y-115279617D01*
X238332820Y-115279614D01*
X238330014Y-115275277D01*
X238179670Y-115110051D01*
X238175619Y-115106852D01*
X238175615Y-115106848D01*
X238008414Y-114974800D01*
X238008410Y-114974798D01*
X238004359Y-114971598D01*
X237963053Y-114948796D01*
X237913084Y-114898364D01*
X237898312Y-114828921D01*
X237923428Y-114762516D01*
X237950780Y-114735909D01*
X238018731Y-114687440D01*
X238129860Y-114608173D01*
X238288096Y-114450489D01*
X238302797Y-114430031D01*
X238415435Y-114273277D01*
X238418453Y-114269077D01*
X238423988Y-114257879D01*
X238515136Y-114073453D01*
X238515137Y-114073451D01*
X238517430Y-114068811D01*
X238574544Y-113880828D01*
X238580865Y-113860023D01*
X238580865Y-113860021D01*
X238582370Y-113855069D01*
X238611529Y-113633590D01*
X238611611Y-113630240D01*
X238613074Y-113570365D01*
X238613074Y-113570361D01*
X238613156Y-113567000D01*
X238594852Y-113344361D01*
X238540431Y-113127702D01*
X238451354Y-112922840D01*
X238377384Y-112808500D01*
X238332822Y-112739617D01*
X238332820Y-112739614D01*
X238330014Y-112735277D01*
X238179670Y-112570051D01*
X238175619Y-112566852D01*
X238175615Y-112566848D01*
X238008414Y-112434800D01*
X238008410Y-112434798D01*
X238004359Y-112431598D01*
X237963053Y-112408796D01*
X237913084Y-112358364D01*
X237898312Y-112288921D01*
X237923428Y-112222516D01*
X237950780Y-112195909D01*
X237994603Y-112164650D01*
X238129860Y-112068173D01*
X238288096Y-111910489D01*
X238309326Y-111880945D01*
X238415435Y-111733277D01*
X238418453Y-111729077D01*
X238442482Y-111680459D01*
X238515136Y-111533453D01*
X238515137Y-111533451D01*
X238517430Y-111528811D01*
X238582370Y-111315069D01*
X238611529Y-111093590D01*
X238611611Y-111090240D01*
X238613074Y-111030365D01*
X238613074Y-111030361D01*
X238613156Y-111027000D01*
X238594852Y-110804361D01*
X238540431Y-110587702D01*
X238451354Y-110382840D01*
X238383007Y-110277192D01*
X238332822Y-110199617D01*
X238332820Y-110199614D01*
X238330014Y-110195277D01*
X238179670Y-110030051D01*
X238175619Y-110026852D01*
X238175615Y-110026848D01*
X238008414Y-109894800D01*
X238008410Y-109894798D01*
X238004359Y-109891598D01*
X237963053Y-109868796D01*
X237913084Y-109818364D01*
X237898312Y-109748921D01*
X237923428Y-109682516D01*
X237950780Y-109655909D01*
X238005497Y-109616880D01*
X238129860Y-109528173D01*
X238288096Y-109370489D01*
X238303742Y-109348716D01*
X238415435Y-109193277D01*
X238418453Y-109189077D01*
X238423677Y-109178508D01*
X238515136Y-108993453D01*
X238515137Y-108993451D01*
X238517430Y-108988811D01*
X238557022Y-108858500D01*
X238580865Y-108780023D01*
X238580865Y-108780021D01*
X238582370Y-108775069D01*
X238611529Y-108553590D01*
X238612047Y-108532406D01*
X238613074Y-108490365D01*
X238613074Y-108490361D01*
X238613156Y-108487000D01*
X238594852Y-108264361D01*
X238540431Y-108047702D01*
X238451354Y-107842840D01*
X238387364Y-107743927D01*
X238332822Y-107659617D01*
X238332820Y-107659614D01*
X238330014Y-107655277D01*
X238326532Y-107651450D01*
X238182798Y-107493488D01*
X238151746Y-107429642D01*
X238160141Y-107359143D01*
X238205317Y-107304375D01*
X238231761Y-107290706D01*
X238338297Y-107250767D01*
X238346705Y-107247615D01*
X238463261Y-107160261D01*
X238550615Y-107043705D01*
X238587164Y-106946211D01*
X238594598Y-106926382D01*
X238637240Y-106869618D01*
X238703802Y-106844918D01*
X238773150Y-106860126D01*
X238807817Y-106888114D01*
X238836250Y-106920938D01*
X239008126Y-107063632D01*
X239201000Y-107176338D01*
X239205825Y-107178180D01*
X239205826Y-107178181D01*
X239278612Y-107205975D01*
X239409692Y-107256030D01*
X239414760Y-107257061D01*
X239414763Y-107257062D01*
X239501762Y-107274762D01*
X239628597Y-107300567D01*
X239633772Y-107300757D01*
X239633774Y-107300757D01*
X239846673Y-107308564D01*
X239846677Y-107308564D01*
X239851837Y-107308753D01*
X239856957Y-107308097D01*
X239856959Y-107308097D01*
X240068288Y-107281025D01*
X240068289Y-107281025D01*
X240073416Y-107280368D01*
X240078366Y-107278883D01*
X240282429Y-107217661D01*
X240282434Y-107217659D01*
X240287384Y-107216174D01*
X240487994Y-107117896D01*
X240669860Y-106988173D01*
X240691752Y-106966358D01*
X240814876Y-106843663D01*
X240828096Y-106830489D01*
X240850370Y-106799492D01*
X240955435Y-106653277D01*
X240958453Y-106649077D01*
X240970279Y-106625150D01*
X241055136Y-106453453D01*
X241055137Y-106453451D01*
X241057430Y-106448811D01*
X241122370Y-106235069D01*
X241151529Y-106013590D01*
X241152208Y-105985819D01*
X241153074Y-105950365D01*
X241153074Y-105950361D01*
X241153156Y-105947000D01*
X241134852Y-105724361D01*
X241080431Y-105507702D01*
X240991354Y-105302840D01*
X240870014Y-105115277D01*
X240719670Y-104950051D01*
X240715619Y-104946852D01*
X240715615Y-104946848D01*
X240548414Y-104814800D01*
X240548410Y-104814798D01*
X240544359Y-104811598D01*
X240348789Y-104703638D01*
X240343920Y-104701914D01*
X240343916Y-104701912D01*
X240143087Y-104630795D01*
X240143083Y-104630794D01*
X240138212Y-104629069D01*
X240133119Y-104628162D01*
X240133116Y-104628161D01*
X239923373Y-104590800D01*
X239923367Y-104590799D01*
X239918284Y-104589894D01*
X239844452Y-104588992D01*
X239700081Y-104587228D01*
X239700079Y-104587228D01*
X239694911Y-104587165D01*
X239474091Y-104620955D01*
X239261756Y-104690357D01*
X239063607Y-104793507D01*
X239059474Y-104796610D01*
X239059471Y-104796612D01*
X238889540Y-104924200D01*
X238884965Y-104927635D01*
X238828537Y-104986684D01*
X238804283Y-105012064D01*
X238742759Y-105047494D01*
X238671846Y-105044037D01*
X238614060Y-105002791D01*
X238595207Y-104969243D01*
X238553767Y-104858703D01*
X238550615Y-104850295D01*
X238463261Y-104733739D01*
X238346705Y-104646385D01*
X238210316Y-104595255D01*
X238148134Y-104588500D01*
X236351866Y-104588500D01*
X236289684Y-104595255D01*
X236153295Y-104646385D01*
X236036739Y-104733739D01*
X235949385Y-104850295D01*
X235898255Y-104986684D01*
X235891500Y-105048866D01*
X235891500Y-105483629D01*
X235871498Y-105551750D01*
X235854595Y-105572724D01*
X234653089Y-106774230D01*
X234638677Y-106786616D01*
X234627082Y-106795149D01*
X234627077Y-106795154D01*
X234621182Y-106799492D01*
X234616443Y-106805070D01*
X234616440Y-106805073D01*
X234586965Y-106839768D01*
X234580035Y-106847284D01*
X234574340Y-106852979D01*
X234572060Y-106855861D01*
X234556719Y-106875251D01*
X234553928Y-106878655D01*
X234518006Y-106920938D01*
X234506667Y-106934285D01*
X234503339Y-106940801D01*
X234499972Y-106945850D01*
X234496805Y-106950979D01*
X234492266Y-106956716D01*
X234461345Y-107022875D01*
X234459442Y-107026769D01*
X234426231Y-107091808D01*
X234424492Y-107098916D01*
X234422393Y-107104559D01*
X234420476Y-107110322D01*
X234417378Y-107116950D01*
X234415888Y-107124112D01*
X234415888Y-107124113D01*
X234402514Y-107188412D01*
X234401544Y-107192696D01*
X234384192Y-107263610D01*
X234383500Y-107274764D01*
X234383464Y-107274762D01*
X234383225Y-107278755D01*
X234382851Y-107282947D01*
X234381360Y-107290115D01*
X234381859Y-107308564D01*
X234383454Y-107367521D01*
X234383500Y-107370928D01*
X234383500Y-109644629D01*
X234363498Y-109712750D01*
X234346595Y-109733724D01*
X233340724Y-110739595D01*
X233278412Y-110773621D01*
X233251629Y-110776500D01*
X225901371Y-110776500D01*
X225833250Y-110756498D01*
X225812276Y-110739595D01*
X223000881Y-107928200D01*
X228824828Y-107928200D01*
X228825077Y-107932158D01*
X228826067Y-107947900D01*
X228843897Y-108231290D01*
X228900802Y-108529600D01*
X228922216Y-108595505D01*
X228990453Y-108805513D01*
X228994648Y-108818425D01*
X229034623Y-108903376D01*
X229122264Y-109089625D01*
X229122268Y-109089632D01*
X229123952Y-109093211D01*
X229286677Y-109349625D01*
X229480256Y-109583621D01*
X229483146Y-109586335D01*
X229483147Y-109586336D01*
X229671197Y-109762928D01*
X229701635Y-109791511D01*
X229704837Y-109793838D01*
X229704839Y-109793839D01*
X229763947Y-109836783D01*
X229947325Y-109970015D01*
X229950794Y-109971922D01*
X229950797Y-109971924D01*
X230183376Y-110099785D01*
X230213450Y-110116318D01*
X230254594Y-110132608D01*
X230489893Y-110225769D01*
X230495813Y-110228113D01*
X230499652Y-110229099D01*
X230499656Y-110229100D01*
X230634811Y-110263802D01*
X230789961Y-110303638D01*
X230793889Y-110304134D01*
X230793893Y-110304135D01*
X230913332Y-110319223D01*
X231091255Y-110341700D01*
X231394945Y-110341700D01*
X231572868Y-110319223D01*
X231692307Y-110304135D01*
X231692311Y-110304134D01*
X231696239Y-110303638D01*
X231851389Y-110263802D01*
X231986544Y-110229100D01*
X231986548Y-110229099D01*
X231990387Y-110228113D01*
X231996308Y-110225769D01*
X232231606Y-110132608D01*
X232272750Y-110116318D01*
X232302824Y-110099785D01*
X232535403Y-109971924D01*
X232535406Y-109971922D01*
X232538875Y-109970015D01*
X232722253Y-109836783D01*
X232781361Y-109793839D01*
X232781363Y-109793838D01*
X232784565Y-109791511D01*
X232815003Y-109762928D01*
X233003053Y-109586336D01*
X233003054Y-109586335D01*
X233005944Y-109583621D01*
X233199523Y-109349625D01*
X233362248Y-109093211D01*
X233363932Y-109089632D01*
X233363936Y-109089625D01*
X233451577Y-108903376D01*
X233491552Y-108818425D01*
X233495748Y-108805513D01*
X233563984Y-108595505D01*
X233585398Y-108529600D01*
X233642303Y-108231290D01*
X233660133Y-107947900D01*
X233661123Y-107932158D01*
X233661372Y-107928200D01*
X233642303Y-107625110D01*
X233585398Y-107326800D01*
X233509044Y-107091808D01*
X233492773Y-107041732D01*
X233492772Y-107041728D01*
X233491552Y-107037975D01*
X233425220Y-106897011D01*
X233363936Y-106766775D01*
X233363932Y-106766768D01*
X233362248Y-106763189D01*
X233199523Y-106506775D01*
X233005944Y-106272779D01*
X232994759Y-106262275D01*
X232787451Y-106067599D01*
X232787450Y-106067598D01*
X232784565Y-106064889D01*
X232538875Y-105886385D01*
X232454876Y-105840206D01*
X232276212Y-105741985D01*
X232276209Y-105741984D01*
X232272750Y-105740082D01*
X232051371Y-105652432D01*
X231994070Y-105629745D01*
X231994067Y-105629744D01*
X231990387Y-105628287D01*
X231986548Y-105627301D01*
X231986544Y-105627300D01*
X231810728Y-105582158D01*
X231696239Y-105552762D01*
X231692311Y-105552266D01*
X231692307Y-105552265D01*
X231562120Y-105535819D01*
X231394945Y-105514700D01*
X231091255Y-105514700D01*
X230924080Y-105535819D01*
X230793893Y-105552265D01*
X230793889Y-105552266D01*
X230789961Y-105552762D01*
X230675472Y-105582158D01*
X230499656Y-105627300D01*
X230499652Y-105627301D01*
X230495813Y-105628287D01*
X230492133Y-105629744D01*
X230492130Y-105629745D01*
X230434829Y-105652432D01*
X230213450Y-105740082D01*
X230209991Y-105741984D01*
X230209988Y-105741985D01*
X230031325Y-105840206D01*
X229947325Y-105886385D01*
X229701635Y-106064889D01*
X229698750Y-106067598D01*
X229698749Y-106067599D01*
X229491442Y-106262275D01*
X229480256Y-106272779D01*
X229286677Y-106506775D01*
X229123952Y-106763189D01*
X229122268Y-106766768D01*
X229122264Y-106766775D01*
X229060980Y-106897011D01*
X228994648Y-107037975D01*
X228993428Y-107041728D01*
X228993427Y-107041732D01*
X228977156Y-107091808D01*
X228900802Y-107326800D01*
X228843897Y-107625110D01*
X228824828Y-107928200D01*
X223000881Y-107928200D01*
X221095405Y-106022724D01*
X221061379Y-105960412D01*
X221058500Y-105933629D01*
X221058500Y-100229618D01*
X230236017Y-100229618D01*
X230251782Y-100503020D01*
X230252607Y-100507225D01*
X230252608Y-100507233D01*
X230264887Y-100569817D01*
X230304505Y-100771753D01*
X230305892Y-100775803D01*
X230305893Y-100775808D01*
X230385562Y-101008500D01*
X230393212Y-101030844D01*
X230395139Y-101034675D01*
X230507908Y-101258892D01*
X230516260Y-101275499D01*
X230518686Y-101279028D01*
X230518689Y-101279034D01*
X230621191Y-101428174D01*
X230671374Y-101501190D01*
X230674261Y-101504363D01*
X230674262Y-101504364D01*
X230764176Y-101603179D01*
X230855682Y-101703743D01*
X231065775Y-101879407D01*
X231069416Y-101881691D01*
X231294124Y-102022651D01*
X231294128Y-102022653D01*
X231297764Y-102024934D01*
X231365644Y-102055583D01*
X231543445Y-102135864D01*
X231543449Y-102135866D01*
X231547357Y-102137630D01*
X231551477Y-102138850D01*
X231551476Y-102138850D01*
X231805823Y-102214191D01*
X231805827Y-102214192D01*
X231809936Y-102215409D01*
X231814170Y-102216057D01*
X231814175Y-102216058D01*
X232076398Y-102256183D01*
X232076400Y-102256183D01*
X232080640Y-102256832D01*
X232220012Y-102259022D01*
X232350171Y-102261067D01*
X232350177Y-102261067D01*
X232354462Y-102261134D01*
X232626335Y-102228234D01*
X232891227Y-102158741D01*
X232895187Y-102157101D01*
X232895192Y-102157099D01*
X233017732Y-102106341D01*
X233144236Y-102053941D01*
X233380682Y-101915773D01*
X233596189Y-101746794D01*
X233615665Y-101726697D01*
X233737769Y-101600695D01*
X233786769Y-101550131D01*
X233789302Y-101546683D01*
X233789306Y-101546678D01*
X233946357Y-101332878D01*
X233948895Y-101329423D01*
X233976254Y-101279034D01*
X234077518Y-101092530D01*
X234077519Y-101092528D01*
X234079568Y-101088754D01*
X234176369Y-100832577D01*
X234237507Y-100565633D01*
X234238619Y-100553179D01*
X234261631Y-100295327D01*
X234261631Y-100295325D01*
X234261851Y-100292861D01*
X234262293Y-100250700D01*
X234260856Y-100229618D01*
X234243959Y-99981755D01*
X234243958Y-99981749D01*
X234243667Y-99977478D01*
X234188132Y-99709312D01*
X234096717Y-99451165D01*
X234027810Y-99317661D01*
X233973078Y-99211619D01*
X233973078Y-99211618D01*
X233971113Y-99207812D01*
X233961140Y-99193621D01*
X233816108Y-98987262D01*
X233813645Y-98983757D01*
X233702308Y-98863944D01*
X233630146Y-98786288D01*
X233630143Y-98786285D01*
X233627225Y-98783145D01*
X233623910Y-98780431D01*
X233623906Y-98780428D01*
X233418623Y-98612406D01*
X233415305Y-98609690D01*
X233181804Y-98466601D01*
X233177868Y-98464873D01*
X232934973Y-98358249D01*
X232934969Y-98358248D01*
X232931045Y-98356525D01*
X232667666Y-98281500D01*
X232663424Y-98280896D01*
X232663418Y-98280895D01*
X232446338Y-98250000D01*
X232396543Y-98242913D01*
X232252689Y-98242160D01*
X232126977Y-98241502D01*
X232126971Y-98241502D01*
X232122691Y-98241480D01*
X232118447Y-98242039D01*
X232118443Y-98242039D01*
X232017967Y-98255267D01*
X231851178Y-98277225D01*
X231847038Y-98278358D01*
X231847036Y-98278358D01*
X231774108Y-98298309D01*
X231587028Y-98349488D01*
X231583080Y-98351172D01*
X231339082Y-98455246D01*
X231339078Y-98455248D01*
X231335130Y-98456932D01*
X231216514Y-98527922D01*
X231103825Y-98595364D01*
X231103821Y-98595367D01*
X231100143Y-98597568D01*
X230886418Y-98768794D01*
X230799027Y-98860885D01*
X230744941Y-98917880D01*
X230697908Y-98967442D01*
X230538102Y-99189836D01*
X230409957Y-99431861D01*
X230408485Y-99435884D01*
X230408483Y-99435888D01*
X230317869Y-99683500D01*
X230315843Y-99689037D01*
X230257504Y-99956607D01*
X230236017Y-100229618D01*
X221058500Y-100229618D01*
X221058500Y-94617063D01*
X221059933Y-94598114D01*
X221062097Y-94583886D01*
X221063198Y-94576651D01*
X221061723Y-94558508D01*
X221058915Y-94523991D01*
X221058500Y-94513777D01*
X221058500Y-94505707D01*
X221058078Y-94502087D01*
X221058077Y-94502069D01*
X221055208Y-94477461D01*
X221054775Y-94473086D01*
X221054290Y-94467115D01*
X221048860Y-94400363D01*
X221046604Y-94393399D01*
X221045413Y-94387440D01*
X221044029Y-94381585D01*
X221043182Y-94374319D01*
X221018265Y-94305673D01*
X221016848Y-94301545D01*
X220996607Y-94239064D01*
X220996606Y-94239062D01*
X220994351Y-94232101D01*
X220990555Y-94225846D01*
X220988049Y-94220372D01*
X220985330Y-94214942D01*
X220982833Y-94208063D01*
X220942809Y-94147016D01*
X220940472Y-94143312D01*
X220938421Y-94139931D01*
X220902595Y-94080892D01*
X220898876Y-94076682D01*
X220898248Y-94075828D01*
X220873980Y-94009108D01*
X220889636Y-93939859D01*
X220910633Y-93912048D01*
X223488911Y-91333770D01*
X223503323Y-91321384D01*
X223514918Y-91312851D01*
X223514923Y-91312846D01*
X223520818Y-91308508D01*
X223525557Y-91302930D01*
X223525560Y-91302927D01*
X223555035Y-91268232D01*
X223561965Y-91260716D01*
X223567660Y-91255021D01*
X223581567Y-91237443D01*
X223585281Y-91232749D01*
X223588072Y-91229345D01*
X223630591Y-91179297D01*
X223630592Y-91179295D01*
X223635333Y-91173715D01*
X223638661Y-91167199D01*
X223642028Y-91162150D01*
X223645195Y-91157021D01*
X223649734Y-91151284D01*
X223680655Y-91085125D01*
X223682561Y-91081225D01*
X223702376Y-91042420D01*
X223715769Y-91016192D01*
X223717508Y-91009084D01*
X223719607Y-91003441D01*
X223721524Y-90997678D01*
X223724622Y-90991050D01*
X223739487Y-90919583D01*
X223740457Y-90915299D01*
X223756473Y-90849845D01*
X223757808Y-90844390D01*
X223758500Y-90833236D01*
X223758536Y-90833238D01*
X223758775Y-90829245D01*
X223759149Y-90825053D01*
X223760640Y-90817885D01*
X223758546Y-90740479D01*
X223758500Y-90737072D01*
X223758500Y-81567070D01*
X223759933Y-81548120D01*
X223762099Y-81533885D01*
X223762099Y-81533881D01*
X223763199Y-81526651D01*
X223762272Y-81515245D01*
X223758915Y-81473982D01*
X223758500Y-81463767D01*
X223758500Y-81455707D01*
X223755209Y-81427480D01*
X223754778Y-81423121D01*
X223754051Y-81414181D01*
X223748860Y-81350364D01*
X223746605Y-81343403D01*
X223745418Y-81337463D01*
X223744029Y-81331588D01*
X223743182Y-81324319D01*
X223718264Y-81255670D01*
X223716847Y-81251542D01*
X223696607Y-81189064D01*
X223696606Y-81189062D01*
X223694351Y-81182101D01*
X223690555Y-81175846D01*
X223688049Y-81170372D01*
X223685330Y-81164942D01*
X223682833Y-81158063D01*
X223642814Y-81097024D01*
X223640467Y-81093305D01*
X223624792Y-81067473D01*
X223602595Y-81030893D01*
X223595197Y-81022516D01*
X223595224Y-81022492D01*
X223592571Y-81019500D01*
X223589868Y-81016267D01*
X223585856Y-81010148D01*
X223529617Y-80956872D01*
X223527175Y-80954494D01*
X220045405Y-77472724D01*
X220011379Y-77410412D01*
X220008500Y-77383629D01*
X220008500Y-74086719D01*
X220028502Y-74018598D01*
X220082158Y-73972105D01*
X220152432Y-73962001D01*
X220200616Y-73979459D01*
X220295090Y-74037694D01*
X220302262Y-74042115D01*
X220382005Y-74068564D01*
X220463611Y-74095632D01*
X220463613Y-74095632D01*
X220470139Y-74097797D01*
X220476975Y-74098497D01*
X220476978Y-74098498D01*
X220520031Y-74102909D01*
X220574600Y-74108500D01*
X221925400Y-74108500D01*
X221928646Y-74108163D01*
X221928650Y-74108163D01*
X222024308Y-74098238D01*
X222024312Y-74098237D01*
X222031166Y-74097526D01*
X222037702Y-74095345D01*
X222037704Y-74095345D01*
X222169806Y-74051272D01*
X222198946Y-74041550D01*
X222349348Y-73948478D01*
X222474305Y-73823303D01*
X222491613Y-73795225D01*
X222563275Y-73678968D01*
X222563276Y-73678966D01*
X222567115Y-73672738D01*
X222617839Y-73519809D01*
X222658269Y-73461449D01*
X222723834Y-73434212D01*
X222793715Y-73446745D01*
X222845727Y-73495070D01*
X222856956Y-73519600D01*
X222908450Y-73673946D01*
X223001522Y-73824348D01*
X223126697Y-73949305D01*
X223132927Y-73953145D01*
X223132928Y-73953146D01*
X223270090Y-74037694D01*
X223277262Y-74042115D01*
X223357005Y-74068564D01*
X223438611Y-74095632D01*
X223438613Y-74095632D01*
X223445139Y-74097797D01*
X223451975Y-74098497D01*
X223451978Y-74098498D01*
X223495031Y-74102909D01*
X223549600Y-74108500D01*
X224950400Y-74108500D01*
X224953646Y-74108163D01*
X224953650Y-74108163D01*
X225049308Y-74098238D01*
X225049312Y-74098237D01*
X225056166Y-74097526D01*
X225062702Y-74095345D01*
X225062704Y-74095345D01*
X225194806Y-74051272D01*
X225223946Y-74041550D01*
X225374348Y-73948478D01*
X225499305Y-73823303D01*
X225516613Y-73795225D01*
X225588275Y-73678968D01*
X225588276Y-73678966D01*
X225592115Y-73672738D01*
X225620428Y-73587376D01*
X225645632Y-73511389D01*
X225645632Y-73511387D01*
X225647797Y-73504861D01*
X225651972Y-73464118D01*
X225652909Y-73454969D01*
X225658500Y-73400400D01*
X225658500Y-72649600D01*
X225658163Y-72646350D01*
X225648238Y-72550692D01*
X225648237Y-72550688D01*
X225647526Y-72543834D01*
X225625716Y-72478460D01*
X225593868Y-72383002D01*
X225591550Y-72376054D01*
X225498478Y-72225652D01*
X225373303Y-72100695D01*
X225307401Y-72060072D01*
X225228968Y-72011725D01*
X225228966Y-72011724D01*
X225222738Y-72007885D01*
X225108855Y-71970112D01*
X225094833Y-71965461D01*
X225036473Y-71925031D01*
X225009236Y-71859466D01*
X225008500Y-71845868D01*
X225008500Y-70879492D01*
X225028502Y-70811371D01*
X225051920Y-70784326D01*
X225219386Y-70639007D01*
X225219388Y-70639005D01*
X225223419Y-70635507D01*
X225226802Y-70631381D01*
X225226806Y-70631377D01*
X225371593Y-70454795D01*
X225374978Y-70450667D01*
X225390812Y-70422852D01*
X225490584Y-70247577D01*
X225493227Y-70242934D01*
X225574784Y-70018247D01*
X225575734Y-70012995D01*
X225616580Y-69787115D01*
X225616581Y-69787107D01*
X225617318Y-69783031D01*
X225618500Y-69757968D01*
X225618500Y-69228918D01*
X230236017Y-69228918D01*
X230251782Y-69502320D01*
X230252607Y-69506525D01*
X230252608Y-69506533D01*
X230263227Y-69560657D01*
X230304505Y-69771053D01*
X230305892Y-69775103D01*
X230305893Y-69775108D01*
X230390856Y-70023263D01*
X230393212Y-70030144D01*
X230395139Y-70033975D01*
X230500234Y-70242934D01*
X230516260Y-70274799D01*
X230518686Y-70278328D01*
X230518689Y-70278334D01*
X230647170Y-70465273D01*
X230671374Y-70500490D01*
X230674261Y-70503663D01*
X230674262Y-70503664D01*
X230728384Y-70563144D01*
X230855682Y-70703043D01*
X231065775Y-70878707D01*
X231069416Y-70880991D01*
X231294124Y-71021951D01*
X231294128Y-71021953D01*
X231297764Y-71024234D01*
X231364417Y-71054329D01*
X231543445Y-71135164D01*
X231543449Y-71135166D01*
X231547357Y-71136930D01*
X231551477Y-71138150D01*
X231551476Y-71138150D01*
X231805823Y-71213491D01*
X231805827Y-71213492D01*
X231809936Y-71214709D01*
X231814170Y-71215357D01*
X231814175Y-71215358D01*
X232076398Y-71255483D01*
X232076400Y-71255483D01*
X232080640Y-71256132D01*
X232220012Y-71258322D01*
X232350171Y-71260367D01*
X232350177Y-71260367D01*
X232354462Y-71260434D01*
X232626335Y-71227534D01*
X232891227Y-71158041D01*
X232895187Y-71156401D01*
X232895192Y-71156399D01*
X233017732Y-71105641D01*
X233144236Y-71053241D01*
X233347699Y-70934347D01*
X233376979Y-70917237D01*
X233376980Y-70917236D01*
X233380682Y-70915073D01*
X233596189Y-70746094D01*
X233629325Y-70711901D01*
X233783786Y-70552509D01*
X233786769Y-70549431D01*
X233789302Y-70545983D01*
X233789306Y-70545978D01*
X233946357Y-70332178D01*
X233948895Y-70328723D01*
X233976254Y-70278334D01*
X234077518Y-70091830D01*
X234077519Y-70091828D01*
X234079568Y-70088054D01*
X234176369Y-69831877D01*
X234237507Y-69564933D01*
X234261851Y-69292161D01*
X234262293Y-69250000D01*
X234243667Y-68976778D01*
X234188132Y-68708612D01*
X234096717Y-68450465D01*
X233971113Y-68207112D01*
X233961140Y-68192921D01*
X233832142Y-68009376D01*
X233813645Y-67983057D01*
X233716132Y-67878120D01*
X233630146Y-67785588D01*
X233630143Y-67785585D01*
X233627225Y-67782445D01*
X233623910Y-67779731D01*
X233623906Y-67779728D01*
X233418623Y-67611706D01*
X233415305Y-67608990D01*
X233181804Y-67465901D01*
X233177868Y-67464173D01*
X232934973Y-67357549D01*
X232934969Y-67357548D01*
X232931045Y-67355825D01*
X232667666Y-67280800D01*
X232663424Y-67280196D01*
X232663418Y-67280195D01*
X232428920Y-67246821D01*
X232396543Y-67242213D01*
X232252689Y-67241460D01*
X232126977Y-67240802D01*
X232126971Y-67240802D01*
X232122691Y-67240780D01*
X232118447Y-67241339D01*
X232118443Y-67241339D01*
X231999402Y-67257011D01*
X231851178Y-67276525D01*
X231847038Y-67277658D01*
X231847036Y-67277658D01*
X231774108Y-67297609D01*
X231587028Y-67348788D01*
X231583080Y-67350472D01*
X231339082Y-67454546D01*
X231339078Y-67454548D01*
X231335130Y-67456232D01*
X231310508Y-67470968D01*
X231103825Y-67594664D01*
X231103821Y-67594667D01*
X231100143Y-67596868D01*
X230886418Y-67768094D01*
X230697908Y-67966742D01*
X230538102Y-68189136D01*
X230409957Y-68431161D01*
X230408485Y-68435184D01*
X230408483Y-68435188D01*
X230345734Y-68606657D01*
X230315843Y-68688337D01*
X230257504Y-68955907D01*
X230236017Y-69228918D01*
X225618500Y-69228918D01*
X225618500Y-68789988D01*
X225603383Y-68611825D01*
X225602042Y-68606657D01*
X225544673Y-68385625D01*
X225544671Y-68385620D01*
X225543332Y-68380460D01*
X225465244Y-68207112D01*
X225447347Y-68167381D01*
X225447346Y-68167378D01*
X225445157Y-68162520D01*
X225311666Y-67964238D01*
X225146674Y-67791282D01*
X224954900Y-67648598D01*
X224950149Y-67646182D01*
X224950145Y-67646180D01*
X224746586Y-67542686D01*
X224746585Y-67542686D01*
X224741828Y-67540267D01*
X224605684Y-67497993D01*
X224518651Y-67470968D01*
X224518645Y-67470967D01*
X224513548Y-67469384D01*
X224374739Y-67450986D01*
X224281873Y-67438677D01*
X224281869Y-67438677D01*
X224276589Y-67437977D01*
X224271260Y-67438177D01*
X224271259Y-67438177D01*
X224173491Y-67441848D01*
X224037726Y-67446945D01*
X223955618Y-67464173D01*
X223809016Y-67494933D01*
X223809013Y-67494934D01*
X223803789Y-67496030D01*
X223710633Y-67532819D01*
X223683496Y-67543536D01*
X223612791Y-67549954D01*
X223548120Y-67515439D01*
X222374770Y-66342089D01*
X222362384Y-66327677D01*
X222353851Y-66316082D01*
X222353846Y-66316077D01*
X222349508Y-66310182D01*
X222343930Y-66305443D01*
X222343927Y-66305440D01*
X222309232Y-66275965D01*
X222301716Y-66269035D01*
X222296021Y-66263340D01*
X222289880Y-66258482D01*
X222273749Y-66245719D01*
X222270345Y-66242928D01*
X222220297Y-66200409D01*
X222220295Y-66200408D01*
X222214715Y-66195667D01*
X222208199Y-66192339D01*
X222203150Y-66188972D01*
X222198021Y-66185805D01*
X222192284Y-66181266D01*
X222126125Y-66150345D01*
X222122225Y-66148439D01*
X222057192Y-66115231D01*
X222050084Y-66113492D01*
X222044441Y-66111393D01*
X222038678Y-66109476D01*
X222032050Y-66106378D01*
X221960583Y-66091513D01*
X221956299Y-66090543D01*
X221885390Y-66073192D01*
X221879788Y-66072844D01*
X221879785Y-66072844D01*
X221874236Y-66072500D01*
X221874238Y-66072464D01*
X221870245Y-66072225D01*
X221866053Y-66071851D01*
X221858885Y-66070360D01*
X221792675Y-66072151D01*
X221781479Y-66072454D01*
X221778072Y-66072500D01*
X217641943Y-66072500D01*
X217573822Y-66052498D01*
X217527329Y-65998842D01*
X217515944Y-65946829D01*
X217510986Y-64035660D01*
X217510887Y-63997311D01*
X217530713Y-63929138D01*
X217547792Y-63907889D01*
X218104911Y-63350770D01*
X218119323Y-63338384D01*
X218130918Y-63329851D01*
X218130923Y-63329846D01*
X218136818Y-63325508D01*
X218141557Y-63319930D01*
X218141560Y-63319927D01*
X218171035Y-63285232D01*
X218177965Y-63277716D01*
X218183660Y-63272021D01*
X218201281Y-63249749D01*
X218204072Y-63246345D01*
X218246591Y-63196297D01*
X218246592Y-63196295D01*
X218251333Y-63190715D01*
X218254661Y-63184199D01*
X218258028Y-63179150D01*
X218261195Y-63174021D01*
X218265734Y-63168284D01*
X218296655Y-63102125D01*
X218298561Y-63098225D01*
X218320298Y-63055656D01*
X218331769Y-63033192D01*
X218333508Y-63026084D01*
X218335607Y-63020441D01*
X218337524Y-63014678D01*
X218340622Y-63008050D01*
X218342590Y-62998591D01*
X218355486Y-62936588D01*
X218356457Y-62932299D01*
X218367469Y-62887295D01*
X218373808Y-62861390D01*
X218374500Y-62850236D01*
X218374536Y-62850238D01*
X218374775Y-62846245D01*
X218375149Y-62842053D01*
X218376640Y-62834885D01*
X218374546Y-62757479D01*
X218374500Y-62754072D01*
X218374500Y-59926000D01*
X218394502Y-59857879D01*
X218448158Y-59811386D01*
X218500500Y-59800000D01*
X227994457Y-59800000D01*
X228062578Y-59820002D01*
X228087890Y-59841465D01*
X228559992Y-60363261D01*
X229385704Y-61275890D01*
X229416574Y-61339824D01*
X229407979Y-61410298D01*
X229388081Y-61442255D01*
X229297887Y-61547858D01*
X229297879Y-61547870D01*
X229294672Y-61551624D01*
X229162384Y-61767498D01*
X229160491Y-61772068D01*
X229160489Y-61772072D01*
X229074354Y-61980021D01*
X229065495Y-62001409D01*
X229006391Y-62247597D01*
X228986526Y-62500000D01*
X229006391Y-62752403D01*
X229007545Y-62757210D01*
X229007546Y-62757216D01*
X229032556Y-62861390D01*
X229065495Y-62998591D01*
X229067388Y-63003162D01*
X229067389Y-63003164D01*
X229146908Y-63195139D01*
X229162384Y-63232502D01*
X229294672Y-63448376D01*
X229459102Y-63640898D01*
X229651624Y-63805328D01*
X229867498Y-63937616D01*
X229872068Y-63939509D01*
X229872072Y-63939511D01*
X230085125Y-64027760D01*
X230101409Y-64034505D01*
X230147003Y-64045451D01*
X230342784Y-64092454D01*
X230342790Y-64092455D01*
X230347597Y-64093609D01*
X230600000Y-64113474D01*
X230852403Y-64093609D01*
X230857210Y-64092455D01*
X230857216Y-64092454D01*
X231052997Y-64045451D01*
X231098591Y-64034505D01*
X231114875Y-64027760D01*
X231320685Y-63942511D01*
X231391275Y-63934922D01*
X231454762Y-63966701D01*
X231490989Y-64027760D01*
X231494181Y-64045451D01*
X231498234Y-64083149D01*
X231498952Y-64086449D01*
X231498952Y-64086450D01*
X231505961Y-64118669D01*
X231509620Y-64135491D01*
X231544290Y-64239657D01*
X231623308Y-64362612D01*
X231669801Y-64416268D01*
X231673194Y-64419208D01*
X231773450Y-64506081D01*
X231773453Y-64506083D01*
X231780261Y-64511982D01*
X231913210Y-64572698D01*
X231927950Y-64577026D01*
X231977008Y-64591431D01*
X231977012Y-64591432D01*
X231981331Y-64592700D01*
X231985780Y-64593340D01*
X231985786Y-64593341D01*
X232121553Y-64612861D01*
X232121558Y-64612861D01*
X232126000Y-64613500D01*
X235474000Y-64613500D01*
X235477346Y-64613140D01*
X235477351Y-64613140D01*
X235579785Y-64602128D01*
X235579792Y-64602127D01*
X235583149Y-64601766D01*
X235586450Y-64601048D01*
X235632210Y-64591094D01*
X235632215Y-64591093D01*
X235635491Y-64590380D01*
X235718956Y-64562600D01*
X235732182Y-64558198D01*
X235739657Y-64555710D01*
X235862612Y-64476692D01*
X235872511Y-64468115D01*
X235912875Y-64433139D01*
X235916268Y-64430199D01*
X235972164Y-64365692D01*
X236006081Y-64326550D01*
X236006083Y-64326547D01*
X236011982Y-64319739D01*
X236072698Y-64186790D01*
X236092700Y-64118669D01*
X236096248Y-64093997D01*
X236112861Y-63978447D01*
X236112861Y-63978442D01*
X236113500Y-63974000D01*
X236113500Y-60042000D01*
X236113165Y-60023451D01*
X236112836Y-60014349D01*
X236111829Y-59995802D01*
X236080632Y-59853013D01*
X236055761Y-59786515D01*
X236007304Y-59697962D01*
X235987763Y-59662252D01*
X235987760Y-59662248D01*
X235985600Y-59658300D01*
X232274450Y-54710100D01*
X232249579Y-54643602D01*
X232264608Y-54574214D01*
X232314765Y-54523967D01*
X232375250Y-54508500D01*
X237432195Y-54508500D01*
X237500316Y-54528502D01*
G37*
%TD.AperFunction*%
%TA.AperFunction,Conductor*%
G36*
X154638220Y-54528502D02*
G01*
X154684713Y-54582158D01*
X154694817Y-54652432D01*
X154689126Y-54675834D01*
X154670107Y-54730601D01*
X154670105Y-54730610D01*
X154668139Y-54736271D01*
X154667278Y-54742206D01*
X154667278Y-54742208D01*
X154642361Y-54914061D01*
X154637787Y-54945604D01*
X154647567Y-55156899D01*
X154648971Y-55162724D01*
X154648971Y-55162725D01*
X154658646Y-55202868D01*
X154697125Y-55362534D01*
X154699607Y-55367992D01*
X154699608Y-55367996D01*
X154743053Y-55463546D01*
X154784674Y-55555087D01*
X154907054Y-55727611D01*
X155059850Y-55873881D01*
X155237548Y-55988620D01*
X155243114Y-55990863D01*
X155428168Y-56065442D01*
X155428171Y-56065443D01*
X155433737Y-56067686D01*
X155641337Y-56108228D01*
X155646899Y-56108500D01*
X155802846Y-56108500D01*
X155960566Y-56093452D01*
X156163534Y-56033908D01*
X156168862Y-56031164D01*
X156346249Y-55939804D01*
X156346252Y-55939802D01*
X156351580Y-55937058D01*
X156517920Y-55806396D01*
X156521852Y-55801865D01*
X156521855Y-55801862D01*
X156652621Y-55651167D01*
X156656552Y-55646637D01*
X156659552Y-55641451D01*
X156659555Y-55641447D01*
X156759467Y-55468742D01*
X156762473Y-55463546D01*
X156831861Y-55263729D01*
X156832722Y-55257792D01*
X156861352Y-55060336D01*
X156861352Y-55060333D01*
X156862213Y-55054396D01*
X156852433Y-54843101D01*
X156809275Y-54664021D01*
X156812760Y-54593110D01*
X156854030Y-54535340D01*
X156919980Y-54509053D01*
X156931768Y-54508500D01*
X164570099Y-54508500D01*
X164638220Y-54528502D01*
X164684713Y-54582158D01*
X164694817Y-54652432D01*
X164689126Y-54675834D01*
X164670107Y-54730601D01*
X164670105Y-54730610D01*
X164668139Y-54736271D01*
X164667278Y-54742206D01*
X164667278Y-54742208D01*
X164642361Y-54914061D01*
X164637787Y-54945604D01*
X164647567Y-55156899D01*
X164648971Y-55162724D01*
X164648971Y-55162725D01*
X164658646Y-55202868D01*
X164697125Y-55362534D01*
X164699607Y-55367992D01*
X164699608Y-55367996D01*
X164743053Y-55463546D01*
X164784674Y-55555087D01*
X164907054Y-55727611D01*
X165059850Y-55873881D01*
X165237548Y-55988620D01*
X165243114Y-55990863D01*
X165428168Y-56065442D01*
X165428171Y-56065443D01*
X165433737Y-56067686D01*
X165641337Y-56108228D01*
X165646899Y-56108500D01*
X165802846Y-56108500D01*
X165960566Y-56093452D01*
X166163534Y-56033908D01*
X166168862Y-56031164D01*
X166346249Y-55939804D01*
X166346252Y-55939802D01*
X166351580Y-55937058D01*
X166517920Y-55806396D01*
X166521852Y-55801865D01*
X166521855Y-55801862D01*
X166652621Y-55651167D01*
X166656552Y-55646637D01*
X166659552Y-55641451D01*
X166659555Y-55641447D01*
X166759467Y-55468742D01*
X166762473Y-55463546D01*
X166831861Y-55263729D01*
X166832722Y-55257792D01*
X166861352Y-55060336D01*
X166861352Y-55060333D01*
X166862213Y-55054396D01*
X166852433Y-54843101D01*
X166809275Y-54664021D01*
X166812760Y-54593110D01*
X166854030Y-54535340D01*
X166919980Y-54509053D01*
X166931768Y-54508500D01*
X167820099Y-54508500D01*
X167888220Y-54528502D01*
X167934713Y-54582158D01*
X167944817Y-54652432D01*
X167939126Y-54675834D01*
X167920107Y-54730601D01*
X167920105Y-54730610D01*
X167918139Y-54736271D01*
X167917278Y-54742206D01*
X167917278Y-54742208D01*
X167892361Y-54914061D01*
X167887787Y-54945604D01*
X167897567Y-55156899D01*
X167898971Y-55162724D01*
X167898971Y-55162725D01*
X167908646Y-55202868D01*
X167947125Y-55362534D01*
X167949607Y-55367992D01*
X167949608Y-55367996D01*
X167993053Y-55463546D01*
X168034674Y-55555087D01*
X168157054Y-55727611D01*
X168309850Y-55873881D01*
X168487548Y-55988620D01*
X168493114Y-55990863D01*
X168678168Y-56065442D01*
X168678171Y-56065443D01*
X168683737Y-56067686D01*
X168891337Y-56108228D01*
X168896899Y-56108500D01*
X169052846Y-56108500D01*
X169210566Y-56093452D01*
X169413534Y-56033908D01*
X169418862Y-56031164D01*
X169596249Y-55939804D01*
X169596252Y-55939802D01*
X169601580Y-55937058D01*
X169767920Y-55806396D01*
X169771852Y-55801865D01*
X169771855Y-55801862D01*
X169902621Y-55651167D01*
X169906552Y-55646637D01*
X169909552Y-55641451D01*
X169909555Y-55641447D01*
X170009467Y-55468742D01*
X170012473Y-55463546D01*
X170081861Y-55263729D01*
X170082722Y-55257792D01*
X170111352Y-55060336D01*
X170111352Y-55060333D01*
X170112213Y-55054396D01*
X170102433Y-54843101D01*
X170059275Y-54664021D01*
X170062760Y-54593110D01*
X170104030Y-54535340D01*
X170169980Y-54509053D01*
X170181768Y-54508500D01*
X177820099Y-54508500D01*
X177888220Y-54528502D01*
X177934713Y-54582158D01*
X177944817Y-54652432D01*
X177939126Y-54675834D01*
X177920107Y-54730601D01*
X177920105Y-54730610D01*
X177918139Y-54736271D01*
X177917278Y-54742206D01*
X177917278Y-54742208D01*
X177892361Y-54914061D01*
X177887787Y-54945604D01*
X177897567Y-55156899D01*
X177898971Y-55162724D01*
X177898971Y-55162725D01*
X177908646Y-55202868D01*
X177947125Y-55362534D01*
X177949607Y-55367992D01*
X177949608Y-55367996D01*
X177993053Y-55463546D01*
X178034674Y-55555087D01*
X178157054Y-55727611D01*
X178309850Y-55873881D01*
X178487548Y-55988620D01*
X178493114Y-55990863D01*
X178678168Y-56065442D01*
X178678171Y-56065443D01*
X178683737Y-56067686D01*
X178891337Y-56108228D01*
X178896899Y-56108500D01*
X179052846Y-56108500D01*
X179210566Y-56093452D01*
X179413534Y-56033908D01*
X179418862Y-56031164D01*
X179596249Y-55939804D01*
X179596252Y-55939802D01*
X179601580Y-55937058D01*
X179767920Y-55806396D01*
X179771852Y-55801865D01*
X179771855Y-55801862D01*
X179902621Y-55651167D01*
X179906552Y-55646637D01*
X179909552Y-55641451D01*
X179909555Y-55641447D01*
X180009467Y-55468742D01*
X180012473Y-55463546D01*
X180081861Y-55263729D01*
X180082722Y-55257792D01*
X180111352Y-55060336D01*
X180111352Y-55060333D01*
X180112213Y-55054396D01*
X180102433Y-54843101D01*
X180059275Y-54664021D01*
X180062760Y-54593110D01*
X180104030Y-54535340D01*
X180169980Y-54509053D01*
X180181768Y-54508500D01*
X180374000Y-54508500D01*
X180442121Y-54528502D01*
X180488614Y-54582158D01*
X180500000Y-54634500D01*
X180500000Y-61613924D01*
X180479998Y-61682045D01*
X180426342Y-61728538D01*
X180356068Y-61738642D01*
X180291488Y-61709148D01*
X180266568Y-61679759D01*
X180226765Y-61614807D01*
X180226758Y-61614797D01*
X180224176Y-61610584D01*
X180069969Y-61430031D01*
X179889416Y-61275824D01*
X179885208Y-61273245D01*
X179885202Y-61273241D01*
X179691183Y-61154346D01*
X179686963Y-61151760D01*
X179682393Y-61149867D01*
X179682389Y-61149865D01*
X179472167Y-61062789D01*
X179472165Y-61062788D01*
X179467594Y-61060895D01*
X179387391Y-61041640D01*
X179241524Y-61006620D01*
X179241518Y-61006619D01*
X179236711Y-61005465D01*
X179000000Y-60986835D01*
X178763289Y-61005465D01*
X178758482Y-61006619D01*
X178758476Y-61006620D01*
X178612609Y-61041640D01*
X178532406Y-61060895D01*
X178527835Y-61062788D01*
X178527833Y-61062789D01*
X178317611Y-61149865D01*
X178317607Y-61149867D01*
X178313037Y-61151760D01*
X178308817Y-61154346D01*
X178114798Y-61273241D01*
X178114792Y-61273245D01*
X178110584Y-61275824D01*
X177930031Y-61430031D01*
X177926823Y-61433787D01*
X177791247Y-61592526D01*
X177745314Y-61626402D01*
X177723332Y-61635878D01*
X175638920Y-63720290D01*
X175632160Y-63732670D01*
X175637887Y-63740320D01*
X175809042Y-63845205D01*
X175817837Y-63849687D01*
X176027988Y-63936734D01*
X176037373Y-63939783D01*
X176258554Y-63992885D01*
X176268301Y-63994428D01*
X176326764Y-63999029D01*
X176393105Y-64024314D01*
X176435246Y-64081452D01*
X176439805Y-64152302D01*
X176405337Y-64214370D01*
X176342783Y-64247949D01*
X176316898Y-64250641D01*
X175814328Y-64250718D01*
X171674101Y-64251353D01*
X171605980Y-64231361D01*
X171559478Y-64177713D01*
X171549364Y-64107440D01*
X171578847Y-64042855D01*
X171638567Y-64004462D01*
X171664198Y-63999741D01*
X171731699Y-63994428D01*
X171741446Y-63992885D01*
X171962627Y-63939783D01*
X171972012Y-63936734D01*
X172182163Y-63849687D01*
X172190958Y-63845205D01*
X172358445Y-63742568D01*
X172367907Y-63732110D01*
X172364124Y-63723334D01*
X171512812Y-62872022D01*
X171498868Y-62864408D01*
X171497035Y-62864539D01*
X171490420Y-62868790D01*
X170638920Y-63720290D01*
X170632160Y-63732670D01*
X170637887Y-63740320D01*
X170809042Y-63845205D01*
X170817837Y-63849687D01*
X171027988Y-63936734D01*
X171037373Y-63939783D01*
X171258554Y-63992885D01*
X171268301Y-63994428D01*
X171336478Y-63999794D01*
X171402819Y-64025080D01*
X171444959Y-64082218D01*
X171449518Y-64153068D01*
X171415049Y-64215135D01*
X171352495Y-64248715D01*
X171326613Y-64251406D01*
X170932997Y-64251466D01*
X169879900Y-64251627D01*
X169811776Y-64231635D01*
X169765275Y-64177987D01*
X169755161Y-64107714D01*
X169755695Y-64104958D01*
X169756473Y-64099847D01*
X169757808Y-64094390D01*
X169758500Y-64083236D01*
X169758536Y-64083238D01*
X169758775Y-64079245D01*
X169759149Y-64075053D01*
X169760640Y-64067885D01*
X169758546Y-63990479D01*
X169758500Y-63987072D01*
X169758500Y-63874965D01*
X169778502Y-63806844D01*
X169818664Y-63767533D01*
X169821587Y-63765742D01*
X169889416Y-63724176D01*
X170069969Y-63569969D01*
X170208753Y-63407474D01*
X170254686Y-63373598D01*
X170276668Y-63364122D01*
X171127978Y-62512812D01*
X171134356Y-62501132D01*
X171864408Y-62501132D01*
X171864539Y-62502965D01*
X171868790Y-62509580D01*
X172720290Y-63361080D01*
X172732670Y-63367840D01*
X172740320Y-63362113D01*
X172845205Y-63190958D01*
X172849690Y-63182156D01*
X172863860Y-63147948D01*
X172908408Y-63092667D01*
X172975772Y-63070247D01*
X173044563Y-63087806D01*
X173083038Y-63123268D01*
X173153584Y-63222720D01*
X173153587Y-63222724D01*
X173157054Y-63227611D01*
X173309850Y-63373881D01*
X173487548Y-63488620D01*
X173493114Y-63490863D01*
X173678168Y-63565442D01*
X173678171Y-63565443D01*
X173683737Y-63567686D01*
X173891337Y-63608228D01*
X173896899Y-63608500D01*
X174052846Y-63608500D01*
X174210566Y-63593452D01*
X174413534Y-63533908D01*
X174418862Y-63531164D01*
X174596249Y-63439804D01*
X174596252Y-63439802D01*
X174601580Y-63437058D01*
X174767920Y-63306396D01*
X174771852Y-63301865D01*
X174771855Y-63301862D01*
X174902621Y-63151167D01*
X174906552Y-63146637D01*
X174912226Y-63136829D01*
X174963651Y-63087882D01*
X175033376Y-63074507D01*
X175099264Y-63100952D01*
X175137697Y-63151707D01*
X175150310Y-63182156D01*
X175154795Y-63190958D01*
X175257432Y-63358445D01*
X175267890Y-63367907D01*
X175276666Y-63364124D01*
X176127978Y-62512812D01*
X176135592Y-62498868D01*
X176135461Y-62497035D01*
X176131210Y-62490420D01*
X175279710Y-61638920D01*
X175267330Y-61632160D01*
X175259680Y-61637887D01*
X175154795Y-61809042D01*
X175150310Y-61817844D01*
X175136140Y-61852052D01*
X175091592Y-61907333D01*
X175024228Y-61929753D01*
X174955437Y-61912194D01*
X174916962Y-61876732D01*
X174846416Y-61777280D01*
X174846413Y-61777276D01*
X174842946Y-61772389D01*
X174690150Y-61626119D01*
X174512452Y-61511380D01*
X174452354Y-61487160D01*
X174321832Y-61434558D01*
X174321829Y-61434557D01*
X174316263Y-61432314D01*
X174108663Y-61391772D01*
X174103101Y-61391500D01*
X173947154Y-61391500D01*
X173789434Y-61406548D01*
X173586466Y-61466092D01*
X173581139Y-61468836D01*
X173581138Y-61468836D01*
X173403751Y-61560196D01*
X173403748Y-61560198D01*
X173398420Y-61562942D01*
X173232080Y-61693604D01*
X173228148Y-61698135D01*
X173228145Y-61698138D01*
X173132103Y-61808817D01*
X173093448Y-61853363D01*
X173087774Y-61863171D01*
X173036349Y-61912118D01*
X172966624Y-61925493D01*
X172900736Y-61899048D01*
X172862303Y-61848293D01*
X172849690Y-61817844D01*
X172845205Y-61809042D01*
X172742568Y-61641555D01*
X172732110Y-61632093D01*
X172723334Y-61635876D01*
X171872022Y-62487188D01*
X171864408Y-62501132D01*
X171134356Y-62501132D01*
X171135592Y-62498868D01*
X171135461Y-62497035D01*
X171131210Y-62490420D01*
X170279710Y-61638920D01*
X170241352Y-61617974D01*
X170205928Y-61589218D01*
X170073177Y-61433787D01*
X170069969Y-61430031D01*
X169889416Y-61275824D01*
X169885208Y-61273245D01*
X169885202Y-61273241D01*
X169876470Y-61267890D01*
X170632093Y-61267890D01*
X170635876Y-61276666D01*
X171487188Y-62127978D01*
X171501132Y-62135592D01*
X171502965Y-62135461D01*
X171509580Y-62131210D01*
X172361080Y-61279710D01*
X172367534Y-61267890D01*
X175632093Y-61267890D01*
X175635876Y-61276666D01*
X176487188Y-62127978D01*
X176501132Y-62135592D01*
X176502965Y-62135461D01*
X176509580Y-62131210D01*
X177361080Y-61279710D01*
X177367840Y-61267330D01*
X177362113Y-61259680D01*
X177190958Y-61154795D01*
X177182163Y-61150313D01*
X176972012Y-61063266D01*
X176962627Y-61060217D01*
X176741446Y-61007115D01*
X176731699Y-61005572D01*
X176504930Y-60987725D01*
X176495070Y-60987725D01*
X176268301Y-61005572D01*
X176258554Y-61007115D01*
X176037373Y-61060217D01*
X176027988Y-61063266D01*
X175817837Y-61150313D01*
X175809042Y-61154795D01*
X175641555Y-61257432D01*
X175632093Y-61267890D01*
X172367534Y-61267890D01*
X172367840Y-61267330D01*
X172362113Y-61259680D01*
X172190958Y-61154795D01*
X172182163Y-61150313D01*
X171972012Y-61063266D01*
X171962627Y-61060217D01*
X171741446Y-61007115D01*
X171731699Y-61005572D01*
X171504930Y-60987725D01*
X171495070Y-60987725D01*
X171268301Y-61005572D01*
X171258554Y-61007115D01*
X171037373Y-61060217D01*
X171027988Y-61063266D01*
X170817837Y-61150313D01*
X170809042Y-61154795D01*
X170641555Y-61257432D01*
X170632093Y-61267890D01*
X169876470Y-61267890D01*
X169691183Y-61154346D01*
X169686963Y-61151760D01*
X169682393Y-61149867D01*
X169682389Y-61149865D01*
X169472167Y-61062789D01*
X169472165Y-61062788D01*
X169467594Y-61060895D01*
X169387391Y-61041640D01*
X169241524Y-61006620D01*
X169241518Y-61006619D01*
X169236711Y-61005465D01*
X169000000Y-60986835D01*
X168763289Y-61005465D01*
X168758482Y-61006619D01*
X168758476Y-61006620D01*
X168612609Y-61041640D01*
X168532406Y-61060895D01*
X168527835Y-61062788D01*
X168527833Y-61062789D01*
X168317611Y-61149865D01*
X168317607Y-61149867D01*
X168313037Y-61151760D01*
X168308817Y-61154346D01*
X168114798Y-61273241D01*
X168114792Y-61273245D01*
X168110584Y-61275824D01*
X167930031Y-61430031D01*
X167775824Y-61610584D01*
X167773245Y-61614792D01*
X167773241Y-61614798D01*
X167679207Y-61768247D01*
X167651760Y-61813037D01*
X167649867Y-61817607D01*
X167649865Y-61817611D01*
X167573761Y-62001345D01*
X167560895Y-62032406D01*
X167505465Y-62263289D01*
X167505077Y-62268223D01*
X167500612Y-62324951D01*
X167475326Y-62391292D01*
X167418188Y-62433432D01*
X167347338Y-62437991D01*
X167285271Y-62403522D01*
X167251691Y-62340968D01*
X167249388Y-62324951D01*
X167244923Y-62268223D01*
X167244535Y-62263289D01*
X167189105Y-62032406D01*
X167176239Y-62001345D01*
X167100135Y-61817611D01*
X167100133Y-61817607D01*
X167098240Y-61813037D01*
X167070793Y-61768247D01*
X166976759Y-61614798D01*
X166976755Y-61614792D01*
X166974176Y-61610584D01*
X166819969Y-61430031D01*
X166639416Y-61275824D01*
X166635208Y-61273245D01*
X166635202Y-61273241D01*
X166441183Y-61154346D01*
X166436963Y-61151760D01*
X166432393Y-61149867D01*
X166432389Y-61149865D01*
X166222167Y-61062789D01*
X166222165Y-61062788D01*
X166217594Y-61060895D01*
X166137391Y-61041640D01*
X165991524Y-61006620D01*
X165991518Y-61006619D01*
X165986711Y-61005465D01*
X165750000Y-60986835D01*
X165513289Y-61005465D01*
X165508482Y-61006619D01*
X165508476Y-61006620D01*
X165362609Y-61041640D01*
X165282406Y-61060895D01*
X165277835Y-61062788D01*
X165277833Y-61062789D01*
X165067611Y-61149865D01*
X165067607Y-61149867D01*
X165063037Y-61151760D01*
X165058817Y-61154346D01*
X164864798Y-61273241D01*
X164864792Y-61273245D01*
X164860584Y-61275824D01*
X164680031Y-61430031D01*
X164676823Y-61433787D01*
X164541247Y-61592526D01*
X164495314Y-61626402D01*
X164473332Y-61635878D01*
X162388920Y-63720290D01*
X162382160Y-63732670D01*
X162387887Y-63740320D01*
X162559042Y-63845205D01*
X162567837Y-63849687D01*
X162777988Y-63936734D01*
X162787373Y-63939783D01*
X163008554Y-63992885D01*
X163018302Y-63994428D01*
X163102505Y-64001055D01*
X163168847Y-64026340D01*
X163210987Y-64083478D01*
X163215546Y-64154328D01*
X163181077Y-64216396D01*
X163118524Y-64249975D01*
X163092639Y-64252667D01*
X158398254Y-64253387D01*
X158330131Y-64233395D01*
X158283629Y-64179747D01*
X158273515Y-64109474D01*
X158302998Y-64044889D01*
X158362718Y-64006496D01*
X158388349Y-64001775D01*
X158481699Y-63994428D01*
X158491446Y-63992885D01*
X158712627Y-63939783D01*
X158722012Y-63936734D01*
X158932163Y-63849687D01*
X158940958Y-63845205D01*
X159108445Y-63742568D01*
X159117907Y-63732110D01*
X159114124Y-63723334D01*
X157891922Y-62501132D01*
X158614408Y-62501132D01*
X158614539Y-62502965D01*
X158618790Y-62509580D01*
X159470290Y-63361080D01*
X159482670Y-63367840D01*
X159490320Y-63362113D01*
X159595205Y-63190958D01*
X159599690Y-63182156D01*
X159613860Y-63147948D01*
X159658408Y-63092667D01*
X159725772Y-63070247D01*
X159794563Y-63087806D01*
X159833038Y-63123268D01*
X159903584Y-63222720D01*
X159903587Y-63222724D01*
X159907054Y-63227611D01*
X160059850Y-63373881D01*
X160237548Y-63488620D01*
X160243114Y-63490863D01*
X160428168Y-63565442D01*
X160428171Y-63565443D01*
X160433737Y-63567686D01*
X160641337Y-63608228D01*
X160646899Y-63608500D01*
X160802846Y-63608500D01*
X160960566Y-63593452D01*
X161163534Y-63533908D01*
X161168862Y-63531164D01*
X161346249Y-63439804D01*
X161346252Y-63439802D01*
X161351580Y-63437058D01*
X161517920Y-63306396D01*
X161521852Y-63301865D01*
X161521855Y-63301862D01*
X161652621Y-63151167D01*
X161656552Y-63146637D01*
X161662226Y-63136829D01*
X161713651Y-63087882D01*
X161783376Y-63074507D01*
X161849264Y-63100952D01*
X161887697Y-63151707D01*
X161900310Y-63182156D01*
X161904795Y-63190958D01*
X162007432Y-63358445D01*
X162017890Y-63367907D01*
X162026666Y-63364124D01*
X162877978Y-62512812D01*
X162885592Y-62498868D01*
X162885461Y-62497035D01*
X162881210Y-62490420D01*
X162029710Y-61638920D01*
X162017330Y-61632160D01*
X162009680Y-61637887D01*
X161904795Y-61809042D01*
X161900310Y-61817844D01*
X161886140Y-61852052D01*
X161841592Y-61907333D01*
X161774228Y-61929753D01*
X161705437Y-61912194D01*
X161666962Y-61876732D01*
X161596416Y-61777280D01*
X161596413Y-61777276D01*
X161592946Y-61772389D01*
X161440150Y-61626119D01*
X161262452Y-61511380D01*
X161202354Y-61487160D01*
X161071832Y-61434558D01*
X161071829Y-61434557D01*
X161066263Y-61432314D01*
X160858663Y-61391772D01*
X160853101Y-61391500D01*
X160697154Y-61391500D01*
X160539434Y-61406548D01*
X160336466Y-61466092D01*
X160331139Y-61468836D01*
X160331138Y-61468836D01*
X160153751Y-61560196D01*
X160153748Y-61560198D01*
X160148420Y-61562942D01*
X159982080Y-61693604D01*
X159978148Y-61698135D01*
X159978145Y-61698138D01*
X159882103Y-61808817D01*
X159843448Y-61853363D01*
X159837774Y-61863171D01*
X159786349Y-61912118D01*
X159716624Y-61925493D01*
X159650736Y-61899048D01*
X159612303Y-61848293D01*
X159599690Y-61817844D01*
X159595205Y-61809042D01*
X159492568Y-61641555D01*
X159482110Y-61632093D01*
X159473334Y-61635876D01*
X158622022Y-62487188D01*
X158614408Y-62501132D01*
X157891922Y-62501132D01*
X157029710Y-61638920D01*
X156991352Y-61617974D01*
X156955928Y-61589218D01*
X156823177Y-61433787D01*
X156819969Y-61430031D01*
X156639416Y-61275824D01*
X156635208Y-61273245D01*
X156635202Y-61273241D01*
X156626470Y-61267890D01*
X157382093Y-61267890D01*
X157385876Y-61276666D01*
X158237188Y-62127978D01*
X158251132Y-62135592D01*
X158252965Y-62135461D01*
X158259580Y-62131210D01*
X159111080Y-61279710D01*
X159117534Y-61267890D01*
X162382093Y-61267890D01*
X162385876Y-61276666D01*
X163237188Y-62127978D01*
X163251132Y-62135592D01*
X163252965Y-62135461D01*
X163259580Y-62131210D01*
X164111080Y-61279710D01*
X164117840Y-61267330D01*
X164112113Y-61259680D01*
X163940958Y-61154795D01*
X163932163Y-61150313D01*
X163722012Y-61063266D01*
X163712627Y-61060217D01*
X163491446Y-61007115D01*
X163481699Y-61005572D01*
X163254930Y-60987725D01*
X163245070Y-60987725D01*
X163018301Y-61005572D01*
X163008554Y-61007115D01*
X162787373Y-61060217D01*
X162777988Y-61063266D01*
X162567837Y-61150313D01*
X162559042Y-61154795D01*
X162391555Y-61257432D01*
X162382093Y-61267890D01*
X159117534Y-61267890D01*
X159117840Y-61267330D01*
X159112113Y-61259680D01*
X158940958Y-61154795D01*
X158932163Y-61150313D01*
X158722012Y-61063266D01*
X158712627Y-61060217D01*
X158491446Y-61007115D01*
X158481699Y-61005572D01*
X158254930Y-60987725D01*
X158245070Y-60987725D01*
X158018301Y-61005572D01*
X158008554Y-61007115D01*
X157787373Y-61060217D01*
X157777988Y-61063266D01*
X157567837Y-61150313D01*
X157559042Y-61154795D01*
X157391555Y-61257432D01*
X157382093Y-61267890D01*
X156626470Y-61267890D01*
X156441183Y-61154346D01*
X156436963Y-61151760D01*
X156432393Y-61149867D01*
X156432389Y-61149865D01*
X156222167Y-61062789D01*
X156222165Y-61062788D01*
X156217594Y-61060895D01*
X156137391Y-61041640D01*
X155991524Y-61006620D01*
X155991518Y-61006619D01*
X155986711Y-61005465D01*
X155750000Y-60986835D01*
X155513289Y-61005465D01*
X155508482Y-61006619D01*
X155508476Y-61006620D01*
X155362609Y-61041640D01*
X155282406Y-61060895D01*
X155277835Y-61062788D01*
X155277833Y-61062789D01*
X155067611Y-61149865D01*
X155067607Y-61149867D01*
X155063037Y-61151760D01*
X155058817Y-61154346D01*
X154864798Y-61273241D01*
X154864792Y-61273245D01*
X154860584Y-61275824D01*
X154680031Y-61430031D01*
X154525824Y-61610584D01*
X154523245Y-61614792D01*
X154523241Y-61614798D01*
X154429207Y-61768247D01*
X154401760Y-61813037D01*
X154399867Y-61817607D01*
X154399865Y-61817611D01*
X154323761Y-62001345D01*
X154310895Y-62032406D01*
X154255465Y-62263289D01*
X154236835Y-62500000D01*
X154255465Y-62736711D01*
X154256619Y-62741518D01*
X154256620Y-62741524D01*
X154276230Y-62823205D01*
X154310895Y-62967594D01*
X154312788Y-62972165D01*
X154312789Y-62972167D01*
X154399769Y-63182156D01*
X154401760Y-63186963D01*
X154404346Y-63191183D01*
X154523241Y-63385202D01*
X154523245Y-63385208D01*
X154525824Y-63389416D01*
X154680031Y-63569969D01*
X154860584Y-63724176D01*
X154864792Y-63726755D01*
X154864798Y-63726759D01*
X154991500Y-63804402D01*
X155063037Y-63848240D01*
X155067607Y-63850133D01*
X155067611Y-63850135D01*
X155277833Y-63937211D01*
X155282406Y-63939105D01*
X155345581Y-63954272D01*
X155508476Y-63993380D01*
X155508482Y-63993381D01*
X155513289Y-63994535D01*
X155750000Y-64013165D01*
X155868680Y-64003824D01*
X155938159Y-64018420D01*
X155967660Y-64040341D01*
X157718154Y-65790835D01*
X157752180Y-65853147D01*
X157755059Y-65879742D01*
X157756954Y-67147989D01*
X157737054Y-67216139D01*
X157683467Y-67262712D01*
X157613200Y-67272920D01*
X157498085Y-67256537D01*
X157397443Y-67242213D01*
X157253589Y-67241460D01*
X157127877Y-67240802D01*
X157127871Y-67240802D01*
X157123591Y-67240780D01*
X157119347Y-67241339D01*
X157119343Y-67241339D01*
X157000302Y-67257011D01*
X156852078Y-67276525D01*
X156587928Y-67348788D01*
X156583980Y-67350472D01*
X156339982Y-67454546D01*
X156339978Y-67454548D01*
X156336030Y-67456232D01*
X156299722Y-67477962D01*
X156104725Y-67594664D01*
X156104721Y-67594667D01*
X156101043Y-67596868D01*
X155887318Y-67768094D01*
X155843583Y-67814181D01*
X155706679Y-67958448D01*
X155698808Y-67966742D01*
X155539002Y-68189136D01*
X155410857Y-68431161D01*
X155409385Y-68435184D01*
X155409383Y-68435188D01*
X155360456Y-68568887D01*
X155316743Y-68688337D01*
X155258404Y-68955907D01*
X155236917Y-69228918D01*
X155252682Y-69502320D01*
X155253507Y-69506525D01*
X155253508Y-69506533D01*
X155264966Y-69564933D01*
X155305405Y-69771053D01*
X155306792Y-69775103D01*
X155306793Y-69775108D01*
X155388173Y-70012799D01*
X155394112Y-70030144D01*
X155517160Y-70274799D01*
X155519586Y-70278328D01*
X155519589Y-70278334D01*
X155668198Y-70494559D01*
X155672274Y-70500490D01*
X155675161Y-70503663D01*
X155675162Y-70503664D01*
X155728690Y-70562491D01*
X155856582Y-70703043D01*
X155859877Y-70705798D01*
X155859878Y-70705799D01*
X155952306Y-70783080D01*
X156066675Y-70878707D01*
X156070316Y-70880991D01*
X156295024Y-71021951D01*
X156295028Y-71021953D01*
X156298664Y-71024234D01*
X156423461Y-71080582D01*
X156544345Y-71135164D01*
X156544349Y-71135166D01*
X156548257Y-71136930D01*
X156552377Y-71138150D01*
X156552376Y-71138150D01*
X156806723Y-71213491D01*
X156806727Y-71213492D01*
X156810836Y-71214709D01*
X156815070Y-71215357D01*
X156815075Y-71215358D01*
X157077298Y-71255483D01*
X157077300Y-71255483D01*
X157081540Y-71256132D01*
X157220912Y-71258322D01*
X157351071Y-71260367D01*
X157351077Y-71260367D01*
X157355362Y-71260434D01*
X157622103Y-71228155D01*
X157692132Y-71239828D01*
X157744734Y-71287510D01*
X157763239Y-71353054D01*
X157764555Y-72233867D01*
X157745815Y-72300171D01*
X157682885Y-72402262D01*
X157627203Y-72570139D01*
X157616500Y-72674600D01*
X157616500Y-73400400D01*
X157616837Y-73403646D01*
X157616837Y-73403650D01*
X157626489Y-73496671D01*
X157627474Y-73506166D01*
X157683450Y-73673946D01*
X157687300Y-73680167D01*
X157687302Y-73680172D01*
X157748107Y-73778431D01*
X157766963Y-73844546D01*
X157768916Y-75151791D01*
X157750176Y-75218095D01*
X157686725Y-75321032D01*
X157682885Y-75327262D01*
X157627203Y-75495139D01*
X157616500Y-75599600D01*
X157616500Y-76325400D01*
X157627474Y-76431166D01*
X157683450Y-76598946D01*
X157687306Y-76605177D01*
X157752489Y-76710512D01*
X157771345Y-76776627D01*
X157772757Y-77721514D01*
X157754017Y-77787817D01*
X157687185Y-77896240D01*
X157681037Y-77909424D01*
X157629862Y-78063710D01*
X157626995Y-78077086D01*
X157617328Y-78171438D01*
X157617000Y-78177855D01*
X157617000Y-78265385D01*
X157621475Y-78280624D01*
X157622865Y-78281829D01*
X157630548Y-78283500D01*
X157773598Y-78283500D01*
X157774357Y-78791500D01*
X157635116Y-78791500D01*
X157619877Y-78795975D01*
X157618672Y-78797365D01*
X157617001Y-78805048D01*
X157617001Y-78897095D01*
X157617338Y-78903614D01*
X157627257Y-78999206D01*
X157630149Y-79012600D01*
X157681588Y-79166784D01*
X157687762Y-79179963D01*
X157756346Y-79290794D01*
X157775202Y-79356909D01*
X157777118Y-80638486D01*
X157758378Y-80704790D01*
X157682885Y-80827262D01*
X157680581Y-80834209D01*
X157644582Y-80942744D01*
X157627203Y-80995139D01*
X157616500Y-81099600D01*
X157616500Y-81825400D01*
X157616837Y-81828646D01*
X157616837Y-81828650D01*
X157625278Y-81910000D01*
X157627474Y-81931166D01*
X157629655Y-81937702D01*
X157629655Y-81937704D01*
X157673728Y-82069806D01*
X157683450Y-82098946D01*
X157690616Y-82110526D01*
X157760730Y-82223829D01*
X157779586Y-82289944D01*
X157799000Y-95279000D01*
X157806499Y-95286374D01*
X164660009Y-102025659D01*
X164694556Y-102087683D01*
X164690087Y-102158539D01*
X164648019Y-102215730D01*
X164581710Y-102241099D01*
X164571665Y-102241500D01*
X163067070Y-102241500D01*
X163048120Y-102240067D01*
X163033885Y-102237901D01*
X163033881Y-102237901D01*
X163026651Y-102236801D01*
X163019359Y-102237394D01*
X163019356Y-102237394D01*
X162973982Y-102241085D01*
X162963767Y-102241500D01*
X162955707Y-102241500D01*
X162952073Y-102241924D01*
X162952067Y-102241924D01*
X162939042Y-102243443D01*
X162927480Y-102244791D01*
X162923132Y-102245221D01*
X162850364Y-102251140D01*
X162843403Y-102253395D01*
X162837463Y-102254582D01*
X162831588Y-102255971D01*
X162824319Y-102256818D01*
X162755670Y-102281736D01*
X162751542Y-102283153D01*
X162689064Y-102303393D01*
X162689062Y-102303394D01*
X162682101Y-102305649D01*
X162675846Y-102309445D01*
X162670372Y-102311951D01*
X162664942Y-102314670D01*
X162658063Y-102317167D01*
X162651943Y-102321180D01*
X162651942Y-102321180D01*
X162597024Y-102357186D01*
X162593320Y-102359523D01*
X162530893Y-102397405D01*
X162522516Y-102404803D01*
X162522492Y-102404776D01*
X162519500Y-102407429D01*
X162516268Y-102410132D01*
X162510148Y-102414144D01*
X162501338Y-102423444D01*
X162439972Y-102459144D01*
X162369045Y-102455999D01*
X162327351Y-102432018D01*
X162225683Y-102343922D01*
X162225678Y-102343918D01*
X162218868Y-102338018D01*
X162085919Y-102277302D01*
X162062165Y-102270327D01*
X162022121Y-102258569D01*
X162022117Y-102258568D01*
X162017798Y-102257300D01*
X162013349Y-102256660D01*
X162013343Y-102256659D01*
X161877576Y-102237139D01*
X161877571Y-102237139D01*
X161873129Y-102236500D01*
X158298606Y-102236500D01*
X158230485Y-102216498D01*
X158183992Y-102162842D01*
X158173888Y-102092568D01*
X158203382Y-102027988D01*
X158235036Y-102001712D01*
X158378393Y-101917941D01*
X158378400Y-101917936D01*
X158382102Y-101915773D01*
X158597609Y-101746794D01*
X158620998Y-101722659D01*
X158785206Y-101553209D01*
X158788189Y-101550131D01*
X158790722Y-101546683D01*
X158790726Y-101546678D01*
X158947777Y-101332878D01*
X158950315Y-101329423D01*
X158977674Y-101279034D01*
X159078938Y-101092530D01*
X159078939Y-101092528D01*
X159080988Y-101088754D01*
X159177789Y-100832577D01*
X159211861Y-100683812D01*
X159237969Y-100569817D01*
X159237970Y-100569813D01*
X159238927Y-100565633D01*
X159250273Y-100438509D01*
X159263051Y-100295327D01*
X159263051Y-100295325D01*
X159263271Y-100292861D01*
X159263713Y-100250700D01*
X159263544Y-100248219D01*
X159245379Y-99981755D01*
X159245378Y-99981749D01*
X159245087Y-99977478D01*
X159189552Y-99709312D01*
X159098137Y-99451165D01*
X158972533Y-99207812D01*
X158962560Y-99193621D01*
X158847023Y-99029229D01*
X158815065Y-98983757D01*
X158677343Y-98835550D01*
X158631566Y-98786288D01*
X158631563Y-98786285D01*
X158628645Y-98783145D01*
X158625330Y-98780431D01*
X158625326Y-98780428D01*
X158471334Y-98654387D01*
X158416725Y-98609690D01*
X158183224Y-98466601D01*
X158179288Y-98464873D01*
X157936393Y-98358249D01*
X157936389Y-98358248D01*
X157932465Y-98356525D01*
X157669086Y-98281500D01*
X157664844Y-98280896D01*
X157664838Y-98280895D01*
X157447758Y-98250000D01*
X157397963Y-98242913D01*
X157254109Y-98242160D01*
X157128397Y-98241502D01*
X157128391Y-98241502D01*
X157124111Y-98241480D01*
X157119867Y-98242039D01*
X157119863Y-98242039D01*
X157000822Y-98257711D01*
X156852598Y-98277225D01*
X156848458Y-98278358D01*
X156848456Y-98278358D01*
X156775528Y-98298309D01*
X156588448Y-98349488D01*
X156584500Y-98351172D01*
X156340502Y-98455246D01*
X156340498Y-98455248D01*
X156336550Y-98456932D01*
X156316645Y-98468845D01*
X156105245Y-98595364D01*
X156105241Y-98595367D01*
X156101563Y-98597568D01*
X155887838Y-98768794D01*
X155824489Y-98835550D01*
X155748594Y-98915527D01*
X155699328Y-98967442D01*
X155539522Y-99189836D01*
X155411377Y-99431861D01*
X155409905Y-99435884D01*
X155409903Y-99435888D01*
X155334767Y-99641206D01*
X155317263Y-99689037D01*
X155258924Y-99956607D01*
X155237437Y-100229618D01*
X155253202Y-100503020D01*
X155254027Y-100507225D01*
X155254028Y-100507233D01*
X155279790Y-100638539D01*
X155305925Y-100771753D01*
X155307312Y-100775803D01*
X155307313Y-100775808D01*
X155328125Y-100836595D01*
X155394632Y-101030844D01*
X155517680Y-101275499D01*
X155520106Y-101279028D01*
X155520109Y-101279034D01*
X155670363Y-101497653D01*
X155672794Y-101501190D01*
X155857102Y-101703743D01*
X156067195Y-101879407D01*
X156070836Y-101881691D01*
X156265435Y-102003763D01*
X156312513Y-102056906D01*
X156323385Y-102127065D01*
X156294601Y-102191965D01*
X156235299Y-102231000D01*
X156198479Y-102236500D01*
X147634500Y-102236500D01*
X147566379Y-102216498D01*
X147519886Y-102162842D01*
X147508500Y-102110500D01*
X147508500Y-58569306D01*
X147528502Y-58501185D01*
X147582158Y-58454692D01*
X147652432Y-58444588D01*
X147717012Y-58474082D01*
X147743122Y-58505453D01*
X147747802Y-58513414D01*
X147750103Y-58516429D01*
X147943631Y-58770012D01*
X147943636Y-58770017D01*
X147945931Y-58773025D01*
X148007931Y-58836670D01*
X148161613Y-58994428D01*
X148173814Y-59006953D01*
X148246635Y-59065607D01*
X148425196Y-59209431D01*
X148425201Y-59209435D01*
X148428149Y-59211809D01*
X148705253Y-59384627D01*
X149001112Y-59522903D01*
X149311440Y-59624634D01*
X149631742Y-59688346D01*
X149635514Y-59688633D01*
X149635522Y-59688634D01*
X149953602Y-59712829D01*
X149953607Y-59712829D01*
X149957379Y-59713116D01*
X150283633Y-59698586D01*
X150343425Y-59688634D01*
X150602037Y-59645590D01*
X150602042Y-59645589D01*
X150605778Y-59644967D01*
X150919149Y-59553034D01*
X150922616Y-59551544D01*
X150922620Y-59551543D01*
X151215721Y-59425616D01*
X151215723Y-59425615D01*
X151219205Y-59424119D01*
X151501601Y-59260091D01*
X151762245Y-59063324D01*
X151983860Y-58849687D01*
X151994632Y-58839303D01*
X151994635Y-58839300D01*
X151997363Y-58836670D01*
X152082033Y-58732670D01*
X159882160Y-58732670D01*
X159887887Y-58740320D01*
X160059042Y-58845205D01*
X160067837Y-58849687D01*
X160277988Y-58936734D01*
X160287373Y-58939783D01*
X160508554Y-58992885D01*
X160518301Y-58994428D01*
X160745070Y-59012275D01*
X160754930Y-59012275D01*
X160981699Y-58994428D01*
X160991446Y-58992885D01*
X161212627Y-58939783D01*
X161222012Y-58936734D01*
X161432163Y-58849687D01*
X161440958Y-58845205D01*
X161608445Y-58742568D01*
X161617400Y-58732670D01*
X173132160Y-58732670D01*
X173137887Y-58740320D01*
X173309042Y-58845205D01*
X173317837Y-58849687D01*
X173527988Y-58936734D01*
X173537373Y-58939783D01*
X173758554Y-58992885D01*
X173768301Y-58994428D01*
X173995070Y-59012275D01*
X174004930Y-59012275D01*
X174231699Y-58994428D01*
X174241446Y-58992885D01*
X174462627Y-58939783D01*
X174472012Y-58936734D01*
X174682163Y-58849687D01*
X174690958Y-58845205D01*
X174858445Y-58742568D01*
X174867907Y-58732110D01*
X174864124Y-58723334D01*
X174012812Y-57872022D01*
X173998868Y-57864408D01*
X173997035Y-57864539D01*
X173990420Y-57868790D01*
X173138920Y-58720290D01*
X173132160Y-58732670D01*
X161617400Y-58732670D01*
X161617907Y-58732110D01*
X161614124Y-58723334D01*
X160762812Y-57872022D01*
X160748868Y-57864408D01*
X160747035Y-57864539D01*
X160740420Y-57868790D01*
X159888920Y-58720290D01*
X159882160Y-58732670D01*
X152082033Y-58732670D01*
X152183123Y-58608500D01*
X152201155Y-58586351D01*
X152201158Y-58586347D01*
X152203549Y-58583410D01*
X152233719Y-58535594D01*
X152375788Y-58310428D01*
X152375790Y-58310425D01*
X152377815Y-58307215D01*
X152389186Y-58283215D01*
X152516009Y-58015522D01*
X152517638Y-58012084D01*
X152518840Y-58008482D01*
X152619790Y-57705897D01*
X152619792Y-57705891D01*
X152620992Y-57702293D01*
X152673450Y-57445604D01*
X154637787Y-57445604D01*
X154647567Y-57656899D01*
X154648971Y-57662724D01*
X154648971Y-57662725D01*
X154659376Y-57705897D01*
X154697125Y-57862534D01*
X154699607Y-57867992D01*
X154699608Y-57867996D01*
X154746902Y-57972012D01*
X154784674Y-58055087D01*
X154907054Y-58227611D01*
X155059850Y-58373881D01*
X155237548Y-58488620D01*
X155243114Y-58490863D01*
X155428168Y-58565442D01*
X155428171Y-58565443D01*
X155433737Y-58567686D01*
X155641337Y-58608228D01*
X155646899Y-58608500D01*
X155802846Y-58608500D01*
X155960566Y-58593452D01*
X156163534Y-58533908D01*
X156247111Y-58490863D01*
X156346249Y-58439804D01*
X156346252Y-58439802D01*
X156351580Y-58437058D01*
X156517920Y-58306396D01*
X156521852Y-58301865D01*
X156521855Y-58301862D01*
X156652621Y-58151167D01*
X156656552Y-58146637D01*
X156659552Y-58141451D01*
X156659555Y-58141447D01*
X156759467Y-57968742D01*
X156762473Y-57963546D01*
X156831861Y-57763729D01*
X156862213Y-57554396D01*
X156859923Y-57504930D01*
X159237725Y-57504930D01*
X159255572Y-57731699D01*
X159257115Y-57741446D01*
X159310217Y-57962627D01*
X159313266Y-57972012D01*
X159400313Y-58182163D01*
X159404795Y-58190958D01*
X159507432Y-58358445D01*
X159517890Y-58367907D01*
X159526666Y-58364124D01*
X160377978Y-57512812D01*
X160384356Y-57501132D01*
X161114408Y-57501132D01*
X161114539Y-57502965D01*
X161118790Y-57509580D01*
X161970290Y-58361080D01*
X161982670Y-58367840D01*
X161990320Y-58362113D01*
X162095205Y-58190958D01*
X162099687Y-58182163D01*
X162186734Y-57972012D01*
X162189783Y-57962627D01*
X162242885Y-57741446D01*
X162244428Y-57731699D01*
X162262275Y-57504930D01*
X162262275Y-57495070D01*
X162258382Y-57445604D01*
X164637787Y-57445604D01*
X164647567Y-57656899D01*
X164648971Y-57662724D01*
X164648971Y-57662725D01*
X164659376Y-57705897D01*
X164697125Y-57862534D01*
X164699607Y-57867992D01*
X164699608Y-57867996D01*
X164746902Y-57972012D01*
X164784674Y-58055087D01*
X164907054Y-58227611D01*
X165059850Y-58373881D01*
X165237548Y-58488620D01*
X165243114Y-58490863D01*
X165428168Y-58565442D01*
X165428171Y-58565443D01*
X165433737Y-58567686D01*
X165641337Y-58608228D01*
X165646899Y-58608500D01*
X165802846Y-58608500D01*
X165960566Y-58593452D01*
X166163534Y-58533908D01*
X166247111Y-58490863D01*
X166346249Y-58439804D01*
X166346252Y-58439802D01*
X166351580Y-58437058D01*
X166517920Y-58306396D01*
X166521852Y-58301865D01*
X166521855Y-58301862D01*
X166652621Y-58151167D01*
X166656552Y-58146637D01*
X166659552Y-58141451D01*
X166659555Y-58141447D01*
X166759467Y-57968742D01*
X166762473Y-57963546D01*
X166831861Y-57763729D01*
X166862213Y-57554396D01*
X166857177Y-57445604D01*
X167887787Y-57445604D01*
X167897567Y-57656899D01*
X167898971Y-57662724D01*
X167898971Y-57662725D01*
X167909376Y-57705897D01*
X167947125Y-57862534D01*
X167949607Y-57867992D01*
X167949608Y-57867996D01*
X167996902Y-57972012D01*
X168034674Y-58055087D01*
X168157054Y-58227611D01*
X168309850Y-58373881D01*
X168487548Y-58488620D01*
X168493114Y-58490863D01*
X168678168Y-58565442D01*
X168678171Y-58565443D01*
X168683737Y-58567686D01*
X168891337Y-58608228D01*
X168896899Y-58608500D01*
X169052846Y-58608500D01*
X169210566Y-58593452D01*
X169413534Y-58533908D01*
X169497111Y-58490863D01*
X169596249Y-58439804D01*
X169596252Y-58439802D01*
X169601580Y-58437058D01*
X169767920Y-58306396D01*
X169771852Y-58301865D01*
X169771855Y-58301862D01*
X169902621Y-58151167D01*
X169906552Y-58146637D01*
X169909552Y-58141451D01*
X169909555Y-58141447D01*
X170009467Y-57968742D01*
X170012473Y-57963546D01*
X170081861Y-57763729D01*
X170112213Y-57554396D01*
X170109923Y-57504930D01*
X172487725Y-57504930D01*
X172505572Y-57731699D01*
X172507115Y-57741446D01*
X172560217Y-57962627D01*
X172563266Y-57972012D01*
X172650313Y-58182163D01*
X172654795Y-58190958D01*
X172757432Y-58358445D01*
X172767890Y-58367907D01*
X172776666Y-58364124D01*
X173627978Y-57512812D01*
X173634356Y-57501132D01*
X174364408Y-57501132D01*
X174364539Y-57502965D01*
X174368790Y-57509580D01*
X175220290Y-58361080D01*
X175232670Y-58367840D01*
X175240320Y-58362113D01*
X175345205Y-58190958D01*
X175349687Y-58182163D01*
X175436734Y-57972012D01*
X175439783Y-57962627D01*
X175492885Y-57741446D01*
X175494428Y-57731699D01*
X175512275Y-57504930D01*
X175512275Y-57495070D01*
X175508382Y-57445604D01*
X177887787Y-57445604D01*
X177897567Y-57656899D01*
X177898971Y-57662724D01*
X177898971Y-57662725D01*
X177909376Y-57705897D01*
X177947125Y-57862534D01*
X177949607Y-57867992D01*
X177949608Y-57867996D01*
X177996902Y-57972012D01*
X178034674Y-58055087D01*
X178157054Y-58227611D01*
X178309850Y-58373881D01*
X178487548Y-58488620D01*
X178493114Y-58490863D01*
X178678168Y-58565442D01*
X178678171Y-58565443D01*
X178683737Y-58567686D01*
X178891337Y-58608228D01*
X178896899Y-58608500D01*
X179052846Y-58608500D01*
X179210566Y-58593452D01*
X179413534Y-58533908D01*
X179497111Y-58490863D01*
X179596249Y-58439804D01*
X179596252Y-58439802D01*
X179601580Y-58437058D01*
X179767920Y-58306396D01*
X179771852Y-58301865D01*
X179771855Y-58301862D01*
X179902621Y-58151167D01*
X179906552Y-58146637D01*
X179909552Y-58141451D01*
X179909555Y-58141447D01*
X180009467Y-57968742D01*
X180012473Y-57963546D01*
X180081861Y-57763729D01*
X180112213Y-57554396D01*
X180102433Y-57343101D01*
X180052875Y-57137466D01*
X180009525Y-57042122D01*
X179998084Y-57016959D01*
X179965326Y-56944913D01*
X179842946Y-56772389D01*
X179690150Y-56626119D01*
X179512452Y-56511380D01*
X179452354Y-56487160D01*
X179321832Y-56434558D01*
X179321829Y-56434557D01*
X179316263Y-56432314D01*
X179108663Y-56391772D01*
X179103101Y-56391500D01*
X178947154Y-56391500D01*
X178789434Y-56406548D01*
X178586466Y-56466092D01*
X178581139Y-56468836D01*
X178581138Y-56468836D01*
X178403751Y-56560196D01*
X178403748Y-56560198D01*
X178398420Y-56562942D01*
X178232080Y-56693604D01*
X178228148Y-56698135D01*
X178228145Y-56698138D01*
X178159474Y-56777275D01*
X178093448Y-56853363D01*
X178090448Y-56858549D01*
X178090445Y-56858553D01*
X178043312Y-56940026D01*
X177987527Y-57036454D01*
X177918139Y-57236271D01*
X177917278Y-57242206D01*
X177917278Y-57242208D01*
X177896421Y-57386060D01*
X177887787Y-57445604D01*
X175508382Y-57445604D01*
X175494428Y-57268301D01*
X175492885Y-57258554D01*
X175439783Y-57037373D01*
X175436734Y-57027988D01*
X175349687Y-56817837D01*
X175345205Y-56809042D01*
X175242568Y-56641555D01*
X175232110Y-56632093D01*
X175223334Y-56635876D01*
X174372022Y-57487188D01*
X174364408Y-57501132D01*
X173634356Y-57501132D01*
X173635592Y-57498868D01*
X173635461Y-57497035D01*
X173631210Y-57490420D01*
X172779710Y-56638920D01*
X172767330Y-56632160D01*
X172759680Y-56637887D01*
X172654795Y-56809042D01*
X172650313Y-56817837D01*
X172563266Y-57027988D01*
X172560217Y-57037373D01*
X172507115Y-57258554D01*
X172505572Y-57268301D01*
X172487725Y-57495070D01*
X172487725Y-57504930D01*
X170109923Y-57504930D01*
X170102433Y-57343101D01*
X170052875Y-57137466D01*
X170009525Y-57042122D01*
X169998084Y-57016959D01*
X169965326Y-56944913D01*
X169842946Y-56772389D01*
X169690150Y-56626119D01*
X169512452Y-56511380D01*
X169452354Y-56487160D01*
X169321832Y-56434558D01*
X169321829Y-56434557D01*
X169316263Y-56432314D01*
X169108663Y-56391772D01*
X169103101Y-56391500D01*
X168947154Y-56391500D01*
X168789434Y-56406548D01*
X168586466Y-56466092D01*
X168581139Y-56468836D01*
X168581138Y-56468836D01*
X168403751Y-56560196D01*
X168403748Y-56560198D01*
X168398420Y-56562942D01*
X168232080Y-56693604D01*
X168228148Y-56698135D01*
X168228145Y-56698138D01*
X168159474Y-56777275D01*
X168093448Y-56853363D01*
X168090448Y-56858549D01*
X168090445Y-56858553D01*
X168043312Y-56940026D01*
X167987527Y-57036454D01*
X167918139Y-57236271D01*
X167917278Y-57242206D01*
X167917278Y-57242208D01*
X167896421Y-57386060D01*
X167887787Y-57445604D01*
X166857177Y-57445604D01*
X166852433Y-57343101D01*
X166802875Y-57137466D01*
X166759525Y-57042122D01*
X166748084Y-57016959D01*
X166715326Y-56944913D01*
X166592946Y-56772389D01*
X166440150Y-56626119D01*
X166262452Y-56511380D01*
X166202354Y-56487160D01*
X166071832Y-56434558D01*
X166071829Y-56434557D01*
X166066263Y-56432314D01*
X165858663Y-56391772D01*
X165853101Y-56391500D01*
X165697154Y-56391500D01*
X165539434Y-56406548D01*
X165336466Y-56466092D01*
X165331139Y-56468836D01*
X165331138Y-56468836D01*
X165153751Y-56560196D01*
X165153748Y-56560198D01*
X165148420Y-56562942D01*
X164982080Y-56693604D01*
X164978148Y-56698135D01*
X164978145Y-56698138D01*
X164909474Y-56777275D01*
X164843448Y-56853363D01*
X164840448Y-56858549D01*
X164840445Y-56858553D01*
X164793312Y-56940026D01*
X164737527Y-57036454D01*
X164668139Y-57236271D01*
X164667278Y-57242206D01*
X164667278Y-57242208D01*
X164646421Y-57386060D01*
X164637787Y-57445604D01*
X162258382Y-57445604D01*
X162244428Y-57268301D01*
X162242885Y-57258554D01*
X162189783Y-57037373D01*
X162186734Y-57027988D01*
X162099687Y-56817837D01*
X162095205Y-56809042D01*
X161992568Y-56641555D01*
X161982110Y-56632093D01*
X161973334Y-56635876D01*
X161122022Y-57487188D01*
X161114408Y-57501132D01*
X160384356Y-57501132D01*
X160385592Y-57498868D01*
X160385461Y-57497035D01*
X160381210Y-57490420D01*
X159529710Y-56638920D01*
X159517330Y-56632160D01*
X159509680Y-56637887D01*
X159404795Y-56809042D01*
X159400313Y-56817837D01*
X159313266Y-57027988D01*
X159310217Y-57037373D01*
X159257115Y-57258554D01*
X159255572Y-57268301D01*
X159237725Y-57495070D01*
X159237725Y-57504930D01*
X156859923Y-57504930D01*
X156852433Y-57343101D01*
X156802875Y-57137466D01*
X156759525Y-57042122D01*
X156748084Y-57016959D01*
X156715326Y-56944913D01*
X156592946Y-56772389D01*
X156440150Y-56626119D01*
X156262452Y-56511380D01*
X156202354Y-56487160D01*
X156071832Y-56434558D01*
X156071829Y-56434557D01*
X156066263Y-56432314D01*
X155858663Y-56391772D01*
X155853101Y-56391500D01*
X155697154Y-56391500D01*
X155539434Y-56406548D01*
X155336466Y-56466092D01*
X155331139Y-56468836D01*
X155331138Y-56468836D01*
X155153751Y-56560196D01*
X155153748Y-56560198D01*
X155148420Y-56562942D01*
X154982080Y-56693604D01*
X154978148Y-56698135D01*
X154978145Y-56698138D01*
X154909474Y-56777275D01*
X154843448Y-56853363D01*
X154840448Y-56858549D01*
X154840445Y-56858553D01*
X154793312Y-56940026D01*
X154737527Y-57036454D01*
X154668139Y-57236271D01*
X154667278Y-57242206D01*
X154667278Y-57242208D01*
X154646421Y-57386060D01*
X154637787Y-57445604D01*
X152673450Y-57445604D01*
X152686381Y-57382329D01*
X152689085Y-57349091D01*
X152706297Y-57137466D01*
X152712856Y-57056826D01*
X152713451Y-57000000D01*
X152709836Y-56940026D01*
X152694026Y-56677793D01*
X152694026Y-56677789D01*
X152693798Y-56674015D01*
X152642252Y-56391772D01*
X152635805Y-56356473D01*
X152635804Y-56356469D01*
X152635125Y-56352751D01*
X152608775Y-56267890D01*
X159882093Y-56267890D01*
X159885876Y-56276666D01*
X160737188Y-57127978D01*
X160751132Y-57135592D01*
X160752965Y-57135461D01*
X160759580Y-57131210D01*
X161611080Y-56279710D01*
X161617534Y-56267890D01*
X173132093Y-56267890D01*
X173135876Y-56276666D01*
X173987188Y-57127978D01*
X174001132Y-57135592D01*
X174002965Y-57135461D01*
X174009580Y-57131210D01*
X174861080Y-56279710D01*
X174867840Y-56267330D01*
X174862113Y-56259680D01*
X174690958Y-56154795D01*
X174682163Y-56150313D01*
X174472012Y-56063266D01*
X174462627Y-56060217D01*
X174241446Y-56007115D01*
X174231699Y-56005572D01*
X174004930Y-55987725D01*
X173995070Y-55987725D01*
X173768301Y-56005572D01*
X173758554Y-56007115D01*
X173537373Y-56060217D01*
X173527988Y-56063266D01*
X173317837Y-56150313D01*
X173309042Y-56154795D01*
X173141555Y-56257432D01*
X173132093Y-56267890D01*
X161617534Y-56267890D01*
X161617840Y-56267330D01*
X161612113Y-56259680D01*
X161440958Y-56154795D01*
X161432163Y-56150313D01*
X161222012Y-56063266D01*
X161212627Y-56060217D01*
X160991446Y-56007115D01*
X160981699Y-56005572D01*
X160754930Y-55987725D01*
X160745070Y-55987725D01*
X160518301Y-56005572D01*
X160508554Y-56007115D01*
X160287373Y-56060217D01*
X160277988Y-56063266D01*
X160067837Y-56150313D01*
X160059042Y-56154795D01*
X159891555Y-56257432D01*
X159882093Y-56267890D01*
X152608775Y-56267890D01*
X152538282Y-56040863D01*
X152404670Y-55742869D01*
X152236226Y-55463084D01*
X152233899Y-55460100D01*
X152233894Y-55460093D01*
X152037726Y-55208558D01*
X152037724Y-55208556D01*
X152035390Y-55205563D01*
X151805070Y-54974034D01*
X151548603Y-54771852D01*
X151522184Y-54755757D01*
X151499774Y-54742105D01*
X151452005Y-54689582D01*
X151440216Y-54619571D01*
X151468148Y-54554300D01*
X151526934Y-54514492D01*
X151565328Y-54508500D01*
X154570099Y-54508500D01*
X154638220Y-54528502D01*
G37*
%TD.AperFunction*%
%TA.AperFunction,Conductor*%
G36*
X231486496Y-54528502D02*
G01*
X231519175Y-54558900D01*
X235574800Y-59966400D01*
X235599671Y-60032898D01*
X235600000Y-60042000D01*
X235600000Y-63974000D01*
X235579998Y-64042121D01*
X235526342Y-64088614D01*
X235474000Y-64100000D01*
X232126000Y-64100000D01*
X232057879Y-64079998D01*
X232011386Y-64026342D01*
X232000000Y-63974000D01*
X232000000Y-63400000D01*
X231992124Y-63391295D01*
X231991093Y-63387783D01*
X231991093Y-63316786D01*
X232004557Y-63286449D01*
X232035028Y-63236725D01*
X232037616Y-63232502D01*
X232066880Y-63161854D01*
X232132611Y-63003164D01*
X232132612Y-63003162D01*
X232134505Y-62998591D01*
X232175687Y-62827054D01*
X232192454Y-62757216D01*
X232192455Y-62757210D01*
X232193609Y-62752403D01*
X232213474Y-62500000D01*
X232193609Y-62247597D01*
X232188926Y-62228087D01*
X232135660Y-62006221D01*
X232134505Y-62001409D01*
X232125646Y-61980021D01*
X232039511Y-61772072D01*
X232039509Y-61772068D01*
X232037616Y-61767498D01*
X231905328Y-61551624D01*
X231740898Y-61359102D01*
X231548376Y-61194672D01*
X231332502Y-61062384D01*
X231327932Y-61060491D01*
X231327928Y-61060489D01*
X231103164Y-60967389D01*
X231103162Y-60967388D01*
X231098591Y-60965495D01*
X231013968Y-60945179D01*
X230857216Y-60907546D01*
X230857210Y-60907545D01*
X230852403Y-60906391D01*
X230600000Y-60886526D01*
X230347597Y-60906391D01*
X230342790Y-60907545D01*
X230342784Y-60907546D01*
X230186032Y-60945179D01*
X230101409Y-60965495D01*
X230096838Y-60967388D01*
X230096836Y-60967389D01*
X229962299Y-61023116D01*
X229891709Y-61030705D01*
X229828222Y-60998926D01*
X229820653Y-60991248D01*
X228200000Y-59200000D01*
X217526000Y-59200000D01*
X217457879Y-59179998D01*
X217411386Y-59126342D01*
X217400000Y-59074000D01*
X217400000Y-58200000D01*
X192876256Y-58249744D01*
X192808094Y-58229880D01*
X192761493Y-58176319D01*
X192750000Y-58123744D01*
X192750000Y-57750000D01*
X187876000Y-57750000D01*
X187807879Y-57729998D01*
X187761386Y-57676342D01*
X187750000Y-57624000D01*
X187750000Y-56255469D01*
X229187095Y-56255469D01*
X229187392Y-56260622D01*
X229187392Y-56260625D01*
X229193067Y-56359041D01*
X229200427Y-56486697D01*
X229201564Y-56491743D01*
X229201565Y-56491749D01*
X229233741Y-56634523D01*
X229251346Y-56712642D01*
X229253288Y-56717424D01*
X229253289Y-56717428D01*
X229336540Y-56922450D01*
X229338484Y-56927237D01*
X229459501Y-57124719D01*
X229611147Y-57299784D01*
X229789349Y-57447730D01*
X229989322Y-57564584D01*
X230205694Y-57647209D01*
X230210760Y-57648240D01*
X230210761Y-57648240D01*
X230263846Y-57659040D01*
X230432656Y-57693385D01*
X230563324Y-57698176D01*
X230658949Y-57701683D01*
X230658953Y-57701683D01*
X230664113Y-57701872D01*
X230669233Y-57701216D01*
X230669235Y-57701216D01*
X230742270Y-57691860D01*
X230893847Y-57672442D01*
X230898795Y-57670957D01*
X230898802Y-57670956D01*
X231110747Y-57607369D01*
X231115690Y-57605886D01*
X231196236Y-57566427D01*
X231319049Y-57506262D01*
X231319052Y-57506260D01*
X231323684Y-57503991D01*
X231512243Y-57369494D01*
X231676303Y-57206005D01*
X231811458Y-57017917D01*
X231858641Y-56922450D01*
X231911784Y-56814922D01*
X231911785Y-56814920D01*
X231914078Y-56810280D01*
X231981408Y-56588671D01*
X232011640Y-56359041D01*
X232013327Y-56290000D01*
X232007032Y-56213434D01*
X231994773Y-56064318D01*
X231994772Y-56064312D01*
X231994349Y-56059167D01*
X231937925Y-55834533D01*
X231935866Y-55829797D01*
X231847630Y-55626868D01*
X231847628Y-55626865D01*
X231845570Y-55622131D01*
X231719764Y-55427665D01*
X231563887Y-55256358D01*
X231559836Y-55253159D01*
X231559832Y-55253155D01*
X231386177Y-55116011D01*
X231386172Y-55116008D01*
X231382123Y-55112810D01*
X231377607Y-55110317D01*
X231377604Y-55110315D01*
X231183879Y-55003373D01*
X231183875Y-55003371D01*
X231179355Y-55000876D01*
X231174486Y-54999152D01*
X231174482Y-54999150D01*
X230965903Y-54925288D01*
X230965899Y-54925287D01*
X230961028Y-54923562D01*
X230955935Y-54922655D01*
X230955932Y-54922654D01*
X230738095Y-54883851D01*
X230738089Y-54883850D01*
X230733006Y-54882945D01*
X230660096Y-54882054D01*
X230506581Y-54880179D01*
X230506579Y-54880179D01*
X230501411Y-54880116D01*
X230272464Y-54915150D01*
X230052314Y-54987106D01*
X230047726Y-54989494D01*
X230047722Y-54989496D01*
X230021065Y-55003373D01*
X229846872Y-55094052D01*
X229842739Y-55097155D01*
X229842736Y-55097157D01*
X229817625Y-55116011D01*
X229661655Y-55233117D01*
X229501639Y-55400564D01*
X229498725Y-55404836D01*
X229498724Y-55404837D01*
X229483152Y-55427665D01*
X229371119Y-55591899D01*
X229273602Y-55801981D01*
X229211707Y-56025169D01*
X229187095Y-56255469D01*
X187750000Y-56255469D01*
X187750000Y-54634500D01*
X187770002Y-54566379D01*
X187823658Y-54519886D01*
X187876000Y-54508500D01*
X231418375Y-54508500D01*
X231486496Y-54528502D01*
G37*
%TD.AperFunction*%
%TA.AperFunction,Conductor*%
G36*
X206442121Y-87020002D02*
G01*
X206488614Y-87073658D01*
X206500000Y-87126000D01*
X206500000Y-95374000D01*
X206479998Y-95442121D01*
X206426342Y-95488614D01*
X206374000Y-95500000D01*
X198126000Y-95500000D01*
X198057879Y-95479998D01*
X198011386Y-95426342D01*
X198000000Y-95374000D01*
X198000000Y-87126000D01*
X198020002Y-87057879D01*
X198073658Y-87011386D01*
X198126000Y-87000000D01*
X206374000Y-87000000D01*
X206442121Y-87020002D01*
G37*
%TD.AperFunction*%
M02*
